<svg id="bb" xmlns="http://www.w3.org/2000/svg" xmlns:xlink="http://www.w3.org/1999/xlink" viewBox="0 0 730.43 182.56"><defs><style>.\31 6724d90-0932-461a-84c8-02647b5cc32a{isolation:isolate;}.\34 1d1c545-3800-4f99-9442-7575c735628d{fill:#fff;}.\33 6742d97-31d6-43f2-9820-34e2af1f94bf,.\38 05cab16-0eb6-407f-95ea-19520261818d,.c13771a6-0fb5-4bab-9430-b0b6865bb428{fill:#9a6885;}.\33 6742d97-31d6-43f2-9820-34e2af1f94bf{opacity:0.4;}.\30 3cca5cc-11b6-4f8a-b811-ee3e912bcbff,.\33 6742d97-31d6-43f2-9820-34e2af1f94bf,.\38 05cab16-0eb6-407f-95ea-19520261818d,.a54ba82a-640b-445e-b959-647365131565,.e4e4285b-88bd-4f48-aedf-d5e35c99308c{mix-blend-mode:multiply;}.\35 f1739d2-acb2-43aa-96d7-0e24302a48e5{fill:url(#380fee30-84b6-4796-a4b3-5459e4e47b1b);}.\32 e21518a-a870-484e-89b7-45cf0700ea25{fill:#b96496;}.e73144fd-213a-4b3c-af41-56d5b69c268b{fill:url(#7c67fc57-709d-4f6e-9e2e-4bd8d451e52a);}.\30 25b4dbc-7b41-4655-ba3c-9cff39a07b61{fill:#b75f93;}.\30 3cca5cc-11b6-4f8a-b811-ee3e912bcbff,.\39 2f50204-9a3a-4925-beee-ea472979d406{opacity:0.42;}.\30 23800e3-6a00-4f28-8c92-22147d258cd0{fill:#f868ba;}.\36 501a458-144f-48d3-a3cd-b689a96b47e9,.\39 2f50204-9a3a-4925-beee-ea472979d406,.a54ba82a-640b-445e-b959-647365131565,.e4e4285b-88bd-4f48-aedf-d5e35c99308c{fill:#fc79bb;}.a5fa3a4a-5a7d-4e34-9594-35266ba84985{fill:url(#dd911611-2518-46e9-8559-68ba3e5ebea9);}.aa9a0664-5363-4024-805e-3aacb1c4f74d{fill:url(#b0c401f4-b3e4-4682-b88b-a5946e8d1686);}.\34 23c7d14-aea8-4df3-8ff1-e5b1435e8706{fill:url(#cb06d3b9-807d-4816-8473-1169ad123512);}.a54ba82a-640b-445e-b959-647365131565{opacity:0.36;}.\39 2f50204-9a3a-4925-beee-ea472979d406{mix-blend-mode:screen;}.da44c3bf-e982-448d-8fcd-167b4ffbb401{fill:url(#064e775e-d2f0-4118-a66f-f5035c51fdd0);}.\36 0c4e11b-8a55-40fa-abee-31e24ffe01c2{fill:url(#3fdfe255-6ae0-42b6-894d-d73aa986f393);}.\34 3f82e59-5a96-41bb-8b8f-3c6bf8f12832{fill:url(#c82c790a-b49f-4ea7-8820-303096d4cf2a);}.\37 2c7ac8d-44e3-4ddd-9f97-702d313db6ad{fill:url(#88f3d787-57b9-48dc-87b2-e1c9725ebb9d);}.\32 b464e23-3dc0-4734-a95c-bb0a17429cc1{fill:url(#d9d315cf-e4f9-4daa-a943-bb490df05312);}.\39 90bf82c-f952-4192-b168-c8de727ecdec{fill:url(#56803477-b477-48ac-8487-d8580587d983);}.\36 8283aa0-9c08-4e08-b9cf-e97cb58f8579{fill:url(#fe88c176-5b8c-45c6-bc2d-edb457e51a56);}.\38 05e3032-970c-48be-ae84-3f978491bc1c{fill:url(#ae0236b0-d210-42ad-93f2-7f33911ac877);}.\39 48c7cde-bb3a-4fb7-a035-9c03d2d71b60{fill:url(#f51c29aa-85c6-4f55-b5ef-b5c1d0271f53);}.e27fa91c-e514-4777-b6fc-3ebfe47c4aa8{fill:#7f687b;}.\37 ed37c49-99a5-42bd-8078-9fa4e0d3e296{fill:#89667b;}.\38 05cab16-0eb6-407f-95ea-19520261818d{opacity:0.47;}</style><linearGradient id="380fee30-84b6-4796-a4b3-5459e4e47b1b" x1="134.69" y1="-763.54" x2="158.68" y2="-763.54" gradientTransform="matrix(1.03, 0.6, -0.55, 1.17, -533, 851.83)" gradientUnits="userSpaceOnUse"><stop offset="0" stop-color="#8c6880"/><stop offset="0.46" stop-color="#c97aa4"/><stop offset="1" stop-color="#9a6885"/></linearGradient><linearGradient id="7c67fc57-709d-4f6e-9e2e-4bd8d451e52a" x1="90.53" y1="-832.15" x2="154.2" y2="-727.06" gradientTransform="matrix(1.03, 0.6, -0.55, 1.17, -533, 851.83)" gradientUnits="userSpaceOnUse"><stop offset="0" stop-color="#af618d"/><stop offset="1" stop-color="#fc79bb"/></linearGradient><linearGradient id="dd911611-2518-46e9-8559-68ba3e5ebea9" x1="-818.75" y1="343.32" x2="-719.13" y2="343.32" gradientTransform="matrix(-0.56, 1.16, -1.24, -0.53, 356.49, 1248.11)" xlink:href="#380fee30-84b6-4796-a4b3-5459e4e47b1b"/><linearGradient id="b0c401f4-b3e4-4682-b88b-a5946e8d1686" x1="-928.21" y1="96.06" x2="-714.14" y2="449.41" gradientTransform="matrix(-0.56, 1.16, -1.24, -0.53, 356.49, 1248.11)" xlink:href="#7c67fc57-709d-4f6e-9e2e-4bd8d451e52a"/><linearGradient id="cb06d3b9-807d-4816-8473-1169ad123512" x1="-713.12" y1="-1207.36" x2="-474.97" y2="-1207.36" gradientTransform="translate(565.51 1438.82) rotate(6.81)" xlink:href="#380fee30-84b6-4796-a4b3-5459e4e47b1b"/><linearGradient id="064e775e-d2f0-4118-a66f-f5035c51fdd0" x1="855.31" y1="-269.92" x2="882.09" y2="-269.92" gradientTransform="matrix(0.85, -0.03, 0.02, 1.34, -708.19, 517.19)" xlink:href="#380fee30-84b6-4796-a4b3-5459e4e47b1b"/><linearGradient id="3fdfe255-6ae0-42b6-894d-d73aa986f393" x1="-189.34" y1="285.05" x2="-160.18" y2="285.05" gradientTransform="matrix(-0.96, 2.88, -2.82, -1, 1232.76, 963.25)" xlink:href="#380fee30-84b6-4796-a4b3-5459e4e47b1b"/><linearGradient id="c82c790a-b49f-4ea7-8820-303096d4cf2a" x1="-226.17" y1="207.15" x2="-158.11" y2="319.48" gradientTransform="matrix(-0.96, 2.88, -2.82, -1, 1232.76, 963.25)" xlink:href="#7c67fc57-709d-4f6e-9e2e-4bd8d451e52a"/><linearGradient id="88f3d787-57b9-48dc-87b2-e1c9725ebb9d" x1="-996.39" y1="-1280.11" x2="-907.48" y2="-1280.11" gradientTransform="translate(-718.39 885.79) rotate(98.67)" xlink:href="#380fee30-84b6-4796-a4b3-5459e4e47b1b"/><linearGradient id="d9d315cf-e4f9-4daa-a943-bb490df05312" x1="-1864.67" y1="3368.38" x2="-1820.84" y2="3368.38" gradientTransform="matrix(1.16, 2.82, 2.77, -1.18, -6808.11, 9198.51)" xlink:href="#380fee30-84b6-4796-a4b3-5459e4e47b1b"/><linearGradient id="56803477-b477-48ac-8487-d8580587d983" x1="-1914.5" y1="3256.48" x2="-1817.74" y2="3416.19" gradientTransform="matrix(1.16, 2.82, 2.77, -1.18, -6808.11, 9198.51)" xlink:href="#7c67fc57-709d-4f6e-9e2e-4bd8d451e52a"/><linearGradient id="fe88c176-5b8c-45c6-bc2d-edb457e51a56" x1="761.32" y1="-833.33" x2="963.21" y2="-833.33" gradientTransform="matrix(0.99, 0.16, -0.16, 0.99, -358.92, 714.89)" xlink:href="#380fee30-84b6-4796-a4b3-5459e4e47b1b"/><linearGradient id="ae0236b0-d210-42ad-93f2-7f33911ac877" x1="1285.05" y1="-1276.32" x2="1314.6" y2="-1276.32" gradientTransform="matrix(1.07, 5.55, -2.86, 2.14, -4914.89, -4452.64)" xlink:href="#380fee30-84b6-4796-a4b3-5459e4e47b1b"/><linearGradient id="f51c29aa-85c6-4f55-b5ef-b5c1d0271f53" x1="-297.07" y1="-114.51" x2="-258.03" y2="-114.51" gradientTransform="matrix(-0.78, 0.55, -0.25, -1.47, 455.92, 38.8)" xlink:href="#380fee30-84b6-4796-a4b3-5459e4e47b1b"/></defs><title>bbsvg</title><g class="16724d90-0932-461a-84c8-02647b5cc32a"><g id="45f76372-09c0-4451-bc9e-f1a9ea8e8a3f" data-name="Layer 2"><g id="ce2dda65-4012-43dd-ace4-6f623cc658e4" data-name="Layer 1"><rect class="41d1c545-3800-4f99-9442-7575c735628d" x="22.56" y="22.43" width="679.74" height="136.92"/><path class="36742d97-31d6-43f2-9820-34e2af1f94bf" d="M708.08,159.28s-3.6-5.8-4.53-5.92a22.55,22.55,0,0,0-3.4-.32l-.16,0-3.51,0a47.17,47.17,0,0,0,6-.46c.8-.18-1.52-2.66-1.52-2.66a18.22,18.22,0,0,0-4.3-.44c-.38,0-.83-.06-1.34-.08l.55,0c3.31-.06,3.25-.29,3.21-.47-.24-1-3.45-1.87-5.4-1.9l-4.76.14c1.16-2.3,2.12-4.23,2.37-4.85.42-1.08.88-2.16,1.36-3.24,3.13-5.08,11.61-23.2,15.86-31.94l.09-.18c.06-.11.11-.23.16-.34s0,0,0-.08c.31-.15.51-.3.56-.44a4.86,4.86,0,0,0,0-.75c0-.07.07-.15.11-.22l.08-.17a3.26,3.26,0,0,0,.18-.38.21.21,0,0,0,0-.06c.07-.15.15-.29.21-.42a.41.41,0,0,1,.05-.09c0-.1.11-.2.15-.3l0-.08c.07-.12.12-.23.18-.33,2.7-5.13,1.14-6.53,1.14-6.53l-2.45-.25c.26-4.61.7-10.5.63-11.74s-.1-2.44-.08-3.66c1.16-6.9,1.65-34.73,2.12-40.54,0-.35,0-.68.06-1l7.52.24s1.85-6.25,1.22-6.43a10.26,10.26,0,0,0-2.4-.54.21.21,0,0,0-.1,0l-2.76-.17a33,33,0,0,0,5.06-.08c.76-.15.93-2.86.93-2.86a7.62,7.62,0,0,0-3-.74c-.26-.05-.59-.11-1-.16l.44,0c2.63.15,2.78-.1,2.87-.28.6-1-1.18-2.17-2.67-2.31-.64-.06-8.55-.35-18.54-.71C688.1,25,669.81,24,666.34,23.83c-3-.11-5.94-.24-8.9-.37-16.56-1.11-84-4.26-98.07-5s-18-.18-18-.18l-1.65,1.68h.35l1.34.4s2.57.26,6.14.34c1.32,0,2.84.14,4.26.27-1.13,0-2.67,0-4.65-.17-4.36-.3-6.73-.5-8.44-.28a11.55,11.55,0,0,0-2.92,2.88H535c-23.92,0-203-1.1-221-.89l-10.39-.07c-4.06-.05-25.56,0-39,0l-6.58-.08V22.3c0-.84-2.55-1.64-4.25-1.69-.71,0-9.37.09-20.29.22-12.57,0-32.76,0-36.57.06l-9.76.08c-13.23-.12-73.48-.16-112.14-.17.48-3,.72-4.74.72-4.74s-18,.38-18.46.68c-.91.55-1.16.59-1.5,1.11-.05,0-.1,0-.1,0s-.21.61-.42,1.21c.18-1.07,0-1.89-.36-2.13s-8.22.13-8.22.13a4.08,4.08,0,0,0-2,1.41,2.17,2.17,0,0,0-.46.45,1.94,1.94,0,0,1,0-.2c.36-1.14-.35-1.16-.88-1.17-3-.06-6.18.91-6.56,1.57a11.91,11.91,0,0,0-.4,1.66c-9.56.14-12.2.57-12.2.57l-.76,1.37h.37l1.67.25s2.91.1,6.79,0c1.12,0,2.42,0,3.72,0a.14.14,0,0,0,0,.06c-1.09,0-2.42,0-4.06,0a77.05,77.05,0,0,0-9.22.13,4.76,4.76,0,0,0-1.58,3.29h0a5.33,5.33,0,0,0,0,1.14h0l0,.15a.19.19,0,0,0,0,.07.53.53,0,0,0,0,.12l0,.08a.16.16,0,0,0,0,.08.41.41,0,0,0,.07.11h.2a22.74,22.74,0,0,0,2.82.36c3.33-.12,7-.13,10.47-.09a1.33,1.33,0,0,1-.05.19.19.19,0,0,0,0,.07l-11.74-.12a2.9,2.9,0,0,0-2.46,1.22.13.13,0,0,0,0,.07l0,0a15.68,15.68,0,0,0,6.13,1.51c1.3-.06,3.9-.12,7.32-.14a2.29,2.29,0,0,1-.08.28.88.88,0,0,1,0,.15c-1.21,4.22-2.51,8.6-2.72,9.67-.24,1.28-.53,2.56-.83,3.84-2.57,6.7-9.08,32.3-11.5,40.82l-.09.32a.65.65,0,0,0,0,.13,2.58,2.58,0,0,0-.09.35.32.32,0,0,0,0,.09c0,.12-.08.24-.11.36s0,0,0,0-.08.26-.12.37,0,.13-.05.19a3,3,0,0,0-1.95-.58c-5-.3-6.75,1.19-6.71,1.82a.2.2,0,0,1,0,.07h0v0a40.42,40.42,0,0,0,2,9C12.51,103,13.59,109,14,110.19a29,29,0,0,1,.9,3.62,172.74,172.74,0,0,1,2.09,28.33h-.15l-1.45,1.49.41,0,1.16.23a1.09,1.09,0,0,0,0,.18h-.06a23.71,23.71,0,0,0-2.53.08l-.47.29-.07.05-.37.28-.05,0-.37.33v0a9.9,9.9,0,0,0-1.87,2.56h0a7,7,0,0,0-.58,1.48v0a1,1,0,0,0,0,.15v.18s0,0,0,0a.24.24,0,0,0,0,.11h.22a24.24,24.24,0,0,0,2.89.5l3,0a1.28,1.28,0,0,1,0,.19l-4.44-.23a4.81,4.81,0,0,0-3.23,1.25.1.1,0,0,0,0,.09s-.06,0-.06,0c-.1.21,3.55,1.94,6,1.93h1.57c-.24,4.61.63,5.66.63,5.66,1.63,0,2.85-.06,5.56-.17l0-.13c.48-.25.82-.41,1.4-.68a3.35,3.35,0,0,0,.52-2.3,2.35,2.35,0,0,1,.53-1.55,2,2,0,0,1,0,1.65c-.62,1.61-1,2.92.07,3.08,3.08.45,27.68-.4,28.12-.55a.85.85,0,0,0,.3-.19c.44-.16.94-.44,1.79-.73a3.75,3.75,0,0,1-.76-2.34l1.44.07c-.13,1.35-.36,2.5-.36,2.68,0,.45,6.55.83,7.8.84h.7c1.24,0,9.21-1.13,8.49-1.81a5.43,5.43,0,0,1-.81-1c70.54,3.07,161.4,5,161.4,5s.11-1.4.11-2.81c37.21.9,197.52,2.05,238.16,2.08.06.14.11.27.17.39l.07.16h0a1.82,1.82,0,0,0,.2.29l.08.09.23,0a28.08,28.08,0,0,0,3.32.35c7.66-.44,17.1-.39,22.66-.32,1.17,0,2.44,0,3.7,0-7.94.33-26.48.41-27.86.43a2.4,2.4,0,0,0-2.4,1.51.24.24,0,0,0,.06.09.05.05,0,0,0,0,0,20.75,20.75,0,0,0,7.49,1.65c2.45-.17,9.05-.41,17.35-.52,41.07.08,101.92-1.52,147.83-3l-.35,1s17.65.28,18.18.05c1-.44,1.23-.48,1.64-.91a.19.19,0,0,0,.1,0c0-.08.23-.39.45-.79,0,0,0,0,.06,0-.25.8-.18,1.41.12,1.61s8.08.17,8.08.17a4.85,4.85,0,0,0,2.2-1.14,2.86,2.86,0,0,0,.51-.37,1.3,1.3,0,0,1-.08.17c-.52,1,.18,1,.7,1,2.92.16,6.18-.56,6.64-1.11a5.41,5.41,0,0,0,.46-1C698.51,159.65,708.08,159.28,708.08,159.28Zm-170.39-8.55c3.33,0,3.34-.18,3.35-.34.06-.91-2.89-1.82-4.85-1.89-.8,0-10.75,0-23.3,0-14.45-.11-37.7-.34-42.07-.34-3.74,0-7.48,0-11.22,0-21.17-.38-217.52-1.69-235.35-1.88s-22.34.47-22.34.47l-.88,1.44c-13.48-.5-31.37-1.2-35.07-1.29-3.54-.1-7.06-.2-10.61-.32-13.3-.64-53.81-2.06-84.17-3.13h0l-2.42-.08c-2.54-17.62-3.16-35.92-6.69-53.66l-5.74-.19c.05-.13.09-.27.15-.41,8-16,13.6-41.08,16.66-57.3,50,.37,120-.09,159.7-.42-.64,1.28-1.16,2.47-1.16,2.47S472.09,36.82,541,35.14c7.75-.07,13.95,0,16.27.12a17.6,17.6,0,0,0,6.7-1.68.05.05,0,0,0,0,0l.05-.08a1,1,0,0,0-.29-.45l0,0-.17-.16h0l-.2-.16-.06,0s0,0,0,0c31.75,2.31,74,4.2,106.5,5.48,0,.46-.09.95-.17,1.46-7.24,24.09-2.24,69.73-2.24,69.73h.46c-7.56,12.43-14.18,27.91-18.49,39l-1.73,0h0c-8.67.19-16.16.35-18.43.43q-5.54.18-11.09.33c-12.89.14-49.57,1-80.11,1.74l-.77-.06ZM47.24,88.08a5.8,5.8,0,0,0,.55-1.25,15.16,15.16,0,0,1-.59,2.45l-.62,0C46.81,88.83,47,88.43,47.24,88.08ZM538.85,32.23c3.9-.14,9.89-.31,15.7-.28l2.68.22c-2.84,0-6.72.09-10.6.12h0c-4.22,0-8.42.05-11.23,0C536.58,32.28,537.76,32.27,538.85,32.23ZM680,40.5a5.36,5.36,0,0,0-.27,1.2,14.06,14.06,0,0,1,.11-3.23l.88,0A20.1,20.1,0,0,1,680,40.5Z"/><path class="5f1739d2-acb2-43aa-96d7-0e24302a48e5" d="M27.49,82c.87,1.29-2.36,12.21-2.51,12.89s1.77,2.64,2.33,2.66,5-1.74,4.92-2.78a30,30,0,0,1,1-7.19C43.31,57.37,48.74,0,48.74,0L45.09,1.33,15.73,76.16l11.05,6.29c.16-.69.34-1,.71-.43Z"/><path class="2e21518a-a870-484e-89b7-45cf0700ea25" d="M23.69,95.68c-.05-3.22,1.31-7.07,2.2-9.35a14.4,14.4,0,0,0,.69-2.81c.08-.41.13-.78.2-1.07l-11-6.29L10,89.36q-.07.44-.21,1C9.13,92.6,21.51,96.16,22.06,97c.81.15.74-.5,1.63-1.3Z"/><path class="2e21518a-a870-484e-89b7-45cf0700ea25" d="M32.22,4.55c.05-.25.09-.5.12-.73C32.14,4.77,32,5.58,32.22,4.55Z"/><path class="2e21518a-a870-484e-89b7-45cf0700ea25" d="M8.21,91.53a14.53,14.53,0,0,1,1.67-4.65A5.16,5.16,0,0,1,10,89.36l35.14-88L48.74,0S34.38.45,34,.81c-.76.68-.94.72-1.22,1.4a12.92,12.92,0,0,0-.41,1.61c0,.23-.07.48-.12.73-.21,1-.08.22.12-.73a4.09,4.09,0,0,0-.27-2.72c-.35-.35-6.58.16-6.58.16a3.38,3.38,0,0,0-1.73,1.93c-.42,1.36-.5,1.43-.22.06s-.28-1.38-.71-1.4c-2.4-.07-4.94,1.09-5.25,1.88s-2.73,22.91-3.9,30C11.47,42.37,5.59,77.34,4.1,84.64s2.42,11,2.42,11l1-.92a10.27,10.27,0,0,0,.65-3.2Z"/><path class="e73144fd-213a-4b3c-af41-56d5b69c268b" d="M17.38,6.24c-.07.85-.21,1.71-.29,2.56-.23,2.44-3.71,19.27-4,21.71-.2,1.54-.42,3.07-.67,4.61C10.19,43.77,4.31,78.74,2.82,86s0,9.19,0,9.19l3.88.46a20.49,20.49,0,0,0,.29-2.75A14.1,14.1,0,0,1,8.6,88.28a5.88,5.88,0,0,1-.14,3.44c-.61,2.27-1,3.52-.47,4.34,3.51.91,12.82,1.2,14.42,1-.05-3.22,1.31-7.08,2.2-9.35a14.76,14.76,0,0,0,.69-2.81c.23-1.36.37-2.29.91-1.5.87,1.28-2.37,12.21-2.51,12.89s2.73,1.23,3.29,1.25,1.65-.41,1.58-1.45a29.78,29.78,0,0,1,1.05-7.2c10-30.22,15.47-87.58,15.47-87.58s-1.07,0-2.58.1l-.51,0-2.6.12c-1.24.07-2.51.14-3.61.22S33.9,2,33.34,2c-.39.06-.63.12-.65.18-.09.46-1.1,4.67-1.38,5.35s-.73.1-.38-1.62.22-3.09-.14-3.44a15,15,0,0,0-3.86-.23c-1.26,0-2.24,0-2.24,0A2.86,2.86,0,0,0,23.22,4.1C22.8,5.47,22,6,22.26,4.65s.09-1.34-.26-1.5a3.18,3.18,0,0,0-1.13,0s-3.22.28-3.3.71-.19,2.42-.19,2.42Z"/><path class="025b4dbc-7b41-4655-ba3c-9cff39a07b61" d="M23.53,3.28s0,.12-.07.24l0,0V3.42s0-.1,0-.14Z"/><path class="025b4dbc-7b41-4655-ba3c-9cff39a07b61" d="M23.54,3.25h0a0,0,0,0,1,0,0v0Z"/><path class="025b4dbc-7b41-4655-ba3c-9cff39a07b61" d="M27.64,2.27l0-.21s0,.07,0,.21Z"/><path class="025b4dbc-7b41-4655-ba3c-9cff39a07b61" d="M40.65,1.51a.66.66,0,0,1,0-.09l0,.09Z"/><g class="03cca5cc-11b6-4f8a-b811-ee3e912bcbff"><path class="023800e3-6a00-4f28-8c92-22147d258cd0" d="M8.82,96.2s1.75-9.93,1.7-11.77,4.15-27.35,5.32-33c.08-.37.15-.68.22-.92.32-1.16.74-3,1.16-5.08.94-4.59,1.93-10.2,2.09-11.46.22-1.76,3.74-28.17,4.18-30.47l0,0c-.11.42-.34,1.3-.58,2.48A40.63,40.63,0,0,0,22,13.48C22,17.18,18.47,36,17.63,40.05a34.73,34.73,0,0,1-1.23,4.6,17.8,17.8,0,0,0-.51,2c-1.77,8.62-6.1,40-6.63,42.55a37.13,37.13,0,0,0-.44,7Z"/><path class="023800e3-6a00-4f28-8c92-22147d258cd0" d="M19.69,3.25v0ZM6.81,81.79s1.41-8,1.37-9.46,3.73-23,4.67-27.53c.06-.3.12-.55.17-.74.27-.93.6-2.43.94-4.09.76-3.69,1.55-8.2,1.68-9.22.19-1.42,3.66-25.64,4-27.36a.37.37,0,0,1,0-.12c0,.14-.26,1-.51,2.19a33.21,33.21,0,0,0-.72,6c-.05,3-3.48,20.9-4.15,24.19a30.08,30.08,0,0,1-1,3.69,11.88,11.88,0,0,0-.4,1.62C11.48,47.92,7.6,74.09,7.17,76.17a29.75,29.75,0,0,0-.36,5.62Z"/><path class="023800e3-6a00-4f28-8c92-22147d258cd0" d="M17.31,97.05c0-.3,0-6.45.18-8.5s2.34-26,2.62-28.75S21.88,39.42,22.23,37c.27-1.86,4.62-27.57,5.14-32.58-.85,5.57-6.48,36.12-7.23,42-.91,7.21-2.91,25.3-3.18,29.43s.3,20.67.35,21.12v0Z"/><path class="023800e3-6a00-4f28-8c92-22147d258cd0" d="M40.57,36.89c-1.37,1.79-8.46,26.05-9.28,30s-4,22.95-4.45,25.11,0,4,.2,3.91c-.35-.35,3.44-20.21,5.08-28.88.07-.38,2-5.67,2.07-6.08,1.83-8.91,6.38-24.1,6.38-24.1Z"/><path class="023800e3-6a00-4f28-8c92-22147d258cd0" d="M22.41,97.08h0s-.14-.7-.3-1.28c0,0,.05-18.24.87-22.92s2-16.95,2.11-18.67c0-.12,0-.15,0-.12-.08.41-3,19-3.6,22S20.1,95.5,20.6,97.13c.84,0,1.48,0,1.81,0Z"/><path class="023800e3-6a00-4f28-8c92-22147d258cd0" d="M38.44,12.57c1-5,2.06-10.31,2.21-11.06h0C40.31,2.85,33.28,33,33,34.59s-4.1,17.9-4.1,17.9-2.32-10.17-2.67-11.91,3-28.26,3.07-29.87-.7-8.4-.7-8.4-.3,5.62-.26,9S24,35.93,25.52,41.71s3.05,13.52,3.05,13.52,4-16.17,5.22-21.3c.4-1.71,4.1-18.67,4.65-21.36Z"/><path class="023800e3-6a00-4f28-8c92-22147d258cd0" d="M31.63,9.21a9.31,9.31,0,0,0-.32-1.65s.14.66.32,1.65ZM37.14,2h0s-2.35,7.28-2.83,9.67-4.91,22.93-4.66,21c.18-1.42,2.47-20.81,2-23.45.05.46.1,1,.13,1.7.1,2.29-2.9,29.07-2.2,26.34S37.09,2.22,37.14,2Z"/></g><path class="e4e4285b-88bd-4f48-aedf-d5e35c99308c" d="M36.39,5,32,5.09c-.27,1.1-.56,2.16-.69,2.47-.28.68-.73.1-.38-1.62a6.77,6.77,0,0,0,.15-.84c-2.81,0-5.63.07-8.43.14-.21.25-.39.27-.43,0-1.61,0-3.2.09-4.79.15,0,.46-.05.84-.05.84-.07.85-.21,1.71-.29,2.56-.11,1.21-1,5.93-2,10.69l1,0a1.22,1.22,0,0,1,.59-.14l2.31.11c3.06,0,6.12.13,9.13.2,5,.11,9.89.17,14.83.34.81-6.5,1.4-11.79,1.74-15C42,5,39.16,5,36.39,5Z"/><path class="e4e4285b-88bd-4f48-aedf-d5e35c99308c" d="M30.79,85.19c-2-1.08-1.58-2.54-3-3.91-.92-.91-1.61-1.45-3-.26a10.5,10.5,0,0,0-1.57,1.66,17.46,17.46,0,0,1-2,2.36,1.15,1.15,0,0,1-1,.14c-2.16-.76-.89-.37-3.1-.19a29.26,29.26,0,0,1-5.62-.15c-1.89-.2-3.72-.46-5.55-.74C5,84,4.12,84,3.24,83.86L2.82,86c-1.51,7.31,0,9.19,0,9.19l3.88.46a20.49,20.49,0,0,0,.29-2.75A14.1,14.1,0,0,1,8.6,88.28a5.88,5.88,0,0,1-.14,3.44c-.61,2.27-1,3.52-.47,4.34,3.51.91,12.82,1.2,14.42,1-.05-3.22,1.31-7.08,2.2-9.35a14.76,14.76,0,0,0,.69-2.81c.23-1.36.37-2.29.91-1.5.87,1.28-2.37,12.21-2.51,12.89s2.73,1.23,3.29,1.25,1.65-.41,1.58-1.45a29.78,29.78,0,0,1,1.05-7.2C30,87.72,30.41,86.47,30.79,85.19Z"/><path class="a5fa3a4a-5a7d-4e34-9594-35266ba84985" d="M229.49,169.19c-3,.78-29.31-.5-31-.53s-6.21,1.57-6.23,2,4.43,3.5,6.91,3.35,9.05-.23,17.26,0c72.77,4.33,316.13,4.2,316.13,4.2l-3.36-2.56L242.88,159.9l-14.45,8.82c1.65,0,2.35.15,1.06.47Z"/><path class="2e21518a-a870-484e-89b7-45cf0700ea25" d="M196.65,167.78a195.21,195.21,0,0,1,22.43.67c2.15.17,4.68.2,6.77.22,1,0,1.87,0,2.58.05l14.45-8.82L211,157c-.71,0-1.48,0-2.32-.05-5.47-.22-13.33,9.3-15.26,9.79-.32.62,1.22.49,3.2,1.07Z"/><path class="2e21518a-a870-484e-89b7-45cf0700ea25" d="M520.87,166.5h1.75C520.33,166.46,518.4,166.44,520.87,166.5Z"/><path class="2e21518a-a870-484e-89b7-45cf0700ea25" d="M205.72,155.91a92.72,92.72,0,0,1,11.22.76,38.41,38.41,0,0,1-5.91.3l318.22,18.72,3.36,2.56s-1.83-10.57-2.72-10.84a12.06,12.06,0,0,0-3.4-.76c-.65-.06-2.35-.1-3.87-.14h-1.75c-2.47-.06-.54,0,1.75,0a30.52,30.52,0,0,0,6.49-.47c.84-.3-.73-4.85-.73-4.85a10.3,10.3,0,0,0-4.7-1.08c-3.28-.18-3.45-.23-.16-.16s3.3-.36,3.3-.67c0-1.78-2.85-3.55-4.76-3.7s-54.9.32-71.9.18c-20.8-.74-210.63-3.24-228.17-3.6s-26.17,2.91-26.17,2.91l2.24.68a75.61,75.61,0,0,0,7.66.16Z"/><path class="aa9a0664-5363-4024-805e-3aacb1c4f74d" d="M516,155.7c-2,0-4.08,0-6.12,0-5.85.08-46.25-.77-52.12-.76-3.68,0-7.35,0-11,0-20.81-.74-210.64-3.24-228.16-3.61s-21.95.92-21.95.92l-.9,2.91s2.19,0,6.57-.08a95,95,0,0,1,11.22.76,44,44,0,0,1-8.23.25c-5.48-.22-8.48-.38-10.41.1-2,2.69-2.18,9.6-1.66,10.76a195.69,195.69,0,0,1,22.46.68c2.13.17,4.65.2,6.74.22,3.26,0,5.49,0,3.64.52-3,.77-29.3-.5-30.94-.54s-2.8,2.15-2.82,2.57,1.06,1.17,3.54,1,9-.23,17.27,0c72.77,4.33,316.12,4.21,316.12,4.21s-.14-.79-.37-1.9c0-.12,0-.24-.08-.38-.12-.58-.27-1.23-.43-1.9-.22-.91-.47-1.85-.71-2.65a9.45,9.45,0,0,0-.71-1.79c-.15-.29-.3-.46-.46-.46-1.1,0-11.23-.34-12.87-.48s-.26-.53,3.85-.44a36.39,36.39,0,0,0,8.24-.46c.47-.17.44-1.64.33-2.88-.09-.93-.21-1.65-.21-1.65s-1.08-.73-4.37-.9-4.63-.73-1.35-.66,3.21-.07,3.57-.35.09-.56,0-.83c0,0-.83-2.36-1.85-2.38s-5.82.12-5.82.12Z"/><path class="e4e4285b-88bd-4f48-aedf-d5e35c99308c" d="M228.6,167.58a10.65,10.65,0,0,1,.24-3.68c.27-1-.15-1.08-1.8-1.45a.35.35,0,0,1-.27-.51c1-1.79.31-3.39.53-5.18.1-.93-4.36-1.09-5.23-1.15-3.44-.23-6.89-.32-10.36-.44-5.23-.16-10.59-.34-15.51-1.47l-.45,1.48s2.19,0,6.57-.08a95,95,0,0,1,11.22.76,44,44,0,0,1-8.23.25c-5.48-.22-8.48-.38-10.41.1-2,2.69-2.18,9.6-1.66,10.76a195.69,195.69,0,0,1,22.46.68c2.13.17,4.65.2,6.74.22,3.26,0,5.49,0,3.64.52-3,.77-29.3-.5-30.94-.54s-2.8,2.15-2.82,2.57,1.06,1.17,3.54,1,9-.23,17.27,0c5.24.31,10.82.59,16.66.84A17.73,17.73,0,0,1,228.6,167.58Z"/><path class="e4e4285b-88bd-4f48-aedf-d5e35c99308c" d="M527.66,168.86a9.45,9.45,0,0,0-.71-1.79c-.15-.29-.3-.46-.46-.46-1.1,0-11.23-.34-12.87-.48s-.26-.53,3.85-.44a36.39,36.39,0,0,0,8.24-.46c.47-.17.44-1.64.33-2.88-.09-.93-.21-1.65-.21-1.65s-1.08-.73-4.37-.9-4.63-.73-1.35-.66,3.21-.07,3.57-.35a.35.35,0,0,0,.14-.28,152.19,152.19,0,0,1-16.63,1.4c-8.33.34-16.46.81-24.69,1.69-2.31.24-25.82,2.15-25.84,2.67-.07,1.55.42,3.49-.94,4.89-1,1.08-4.23,1.18-.71,2a.34.34,0,0,1,.28.51,11.14,11.14,0,0,0-.94,4.4c42.07.06,74.9-.38,74.9-.38s-.14-.79-.37-1.9c0-.12,0-.24-.08-.38-.12-.58-.27-1.23-.43-1.9C528.15,170.6,527.9,169.66,527.66,168.86Z"/><path class="025b4dbc-7b41-4655-ba3c-9cff39a07b61" d="M523.46,159.94l-.59,0h.59Z"/><path class="025b4dbc-7b41-4655-ba3c-9cff39a07b61" d="M523.52,160Z"/><path class="025b4dbc-7b41-4655-ba3c-9cff39a07b61" d="M526.08,162.88l.51,0h-.52s0,0,0,0Z"/><path class="025b4dbc-7b41-4655-ba3c-9cff39a07b61" d="M528.58,172.42h0Z"/><g class="03cca5cc-11b6-4f8a-b811-ee3e912bcbff"><path class="023800e3-6a00-4f28-8c92-22147d258cd0" d="M194.6,156.83s23.84.28,28.23.06c4.11-.21,65.6.27,79.22.56l2.21.06c2.79.13,7.25.25,12.2.35,11,.22,130.43,2.1,133.46,2.09,4.21,0,67.53-.11,73.05,0h-.1c-1,0-3.13-.12-6-.18-4.67-.09-11.27-.14-17.92.12-8.86.34-159.9-2-169.71-2.24-3.85-.09-7.58-.22-11-.44-1.13-.08-2.76-.13-4.84-.17-20.71-.43-95.84-.44-102.06-.57-6.85-.13-16.74.39-16.74.39Z"/><path class="023800e3-6a00-4f28-8c92-22147d258cd0" d="M523.33,157.09h0Zm-294.39-3.22s19.17.24,22.71.06c3.31-.17,55.1.41,66,.63.73,0,1.33,0,1.77.06,2.26.1,5.85.19,9.83.27,8.87.18,125.64,2,128.08,2,3.43,0,61.51.09,65.63.18h.27c-.34,0-2.33-.1-5.26-.15-3.75-.09-9.06-.12-14.41.08-7.13.27-50.16-.44-58-.6-3.09-.06-112-1.9-114.84-2.07-.88-.06-2.21-.1-3.89-.14-16.65-.34-79.4-.54-84.41-.64-5.51-.11-13.46.3-13.46.3Z"/><path class="023800e3-6a00-4f28-8c92-22147d258cd0" d="M193,163.21c.71,0,15.41-.65,20.33-.75,5.2-.1,62.27-.92,68.86-1s154.74.95,160.49,1c4.47,0,66.16.6,78.16.48-13.37-.06-192.64-2.82-206.83-2.77-17.27.06-60.63.44-70.49.65s-49.39,2.34-50.49,2.42h0Z"/><path class="023800e3-6a00-4f28-8c92-22147d258cd0" d="M444,176c-4.36-.83-168.66-5.31-178.25-5.52s-55.07-.6-60.27-.72-9.6.43-9.32.55c.83-.3,48.48.47,69.3.8.91,0,13.66.89,14.64.92,21.39.44,163.9,4,163.9,4Z"/><path class="023800e3-6a00-4f28-8c92-22147d258cd0" d="M193.24,167h0s1.65-.17,3-.35c0,0,43.62-1.82,54.84-1.7s40.61-.22,44.73-.34c.27,0,.37,0,.29,0-1,0-45.52-.28-52.67-.42-7.35-.16-46.56,1-50.43,1.5a4.11,4.11,0,0,0,.21,1.33Z"/><path class="023800e3-6a00-4f28-8c92-22147d258cd0" d="M502,171.92c12,.24,24.75.47,26.56.5h0c-3.22-.11-75.55-2.24-79.48-2.32l-148.94-2.92s24.19-2.75,28.31-3.19,173.67,1.07,177.51.94,20-1.37,20-1.37-13.44.35-21.4.71-165.15-2.36-178.89-.64-32.17,3.63-32.17,3.63,144.83,3,157.16,3.4c4.11.12,44.84,1.13,51.29,1.26Z"/><path class="023800e3-6a00-4f28-8c92-22147d258cd0" d="M509.71,166.54c2.67-.22,3.91-.41,3.91-.41l-3.91.41Zm17.51,3.34h0s-17.52-1-23.28-1.11-55.06-1.29-50.4-1.3c3.39,0,49.87-.3,56.16-.93-1.11.08-2.46.18-4.06.27-5.48.31-69.64.82-63.07,1.07s84.11,2,84.64,2Z"/></g><path class="423c7d14-aea8-4df3-8ff1-e5b1435e8706" d="M38.23,161.45c-3.26.58-29.79-1.93-31.45-2S.1,160.58,0,161s3.76,3.54,6.31,3.52,9.29.23,17.6.9c73.3,7.74,213.86,12.85,213.86,12.85l-2.87-2.6-181-22.34-16.63,7.63c1.67.13,2.35.26,1,.51Z"/><path class="2e21518a-a870-484e-89b7-45cf0700ea25" d="M5,158.47a211.87,211.87,0,0,1,22.75,1.76c2.15.27,4.72.42,6.85.55l2.62.16,16.63-7.63L22,149q-1.08-.06-2.34-.18c-5.54-.47-15.62,8.16-17.69,8.52-.46.58,1.14.53,3,1.18Z"/><path class="2e21518a-a870-484e-89b7-45cf0700ea25" d="M228.34,166.53l1.78.1C227.79,166.46,225.83,166.35,228.34,166.53Z"/><path class="2e21518a-a870-484e-89b7-45cf0700ea25" d="M16.86,147.67A98.53,98.53,0,0,1,28.14,149a42.81,42.81,0,0,1-6.1,0l212.86,26.7,2.87,2.6s.42-10.11-.43-10.4A11.24,11.24,0,0,0,234,167c-.66-.09-2.38-.22-3.91-.32l-1.78-.1c-2.51-.18-.55-.07,1.78.1a34.57,34.57,0,0,0,6.71-.13c.91-.24.31-4.63.31-4.63s-1.25-.94-4.55-1.26-3.49-.39-.15-.17,3.44-.16,3.53-.46c.43-1.69-2.14-3.5-4.07-3.74s-56.08-2.44-73.37-3.42c-21.06-1.75-106.46-6.67-124.26-7.89s-27.34,1.46-27.34,1.46l2.14.75s3.29.43,7.79.53Z"/><path class="6501a458-144f-48d3-a3cd-b689a96b47e9" d="M225.74,156.05c-2.08-.07-4.18-.19-6.25-.27-6-.22-47-3-53-3.31-3.75-.17-7.49-.37-11.24-.58C134.17,150.15,48.77,145.22,31,144s-22.59-.24-22.59-.24l-1.54,2.72s2.22.16,6.73.27A97.05,97.05,0,0,1,24.85,148a49.2,49.2,0,0,1-8.46-.17c-5.53-.49-8.56-.79-10.64-.43-2.61,2.45-4.29,9-4,10.12a209.32,209.32,0,0,1,22.76,1.76c2.15.27,4.71.42,6.84.54,3.32.2,5.59.32,3.6.68-3.26.58-29.78-1.94-31.45-2.05S.16,160.36.06,160.75s.83,1.17,3.38,1.15,9.28.23,17.61.9c73.29,7.74,213.85,12.85,213.85,12.85s0-.75,0-1.81c0-.12,0-.24,0-.36,0-.57,0-1.19,0-1.83,0-.88-.07-1.78-.15-2.55a7.26,7.26,0,0,0-.33-1.73c-.1-.28-.22-.45-.38-.46-1.1-.07-11.37-.88-13-1.09s-.16-.52,4-.23a41.21,41.21,0,0,0,8.5,0c.51-.14.81-1.54,1-2.72.12-.89.14-1.57.14-1.57s-.94-.75-4.25-1.08-4.58-.91-1.25-.69,3.28.09,3.74-.14.19-.53.19-.8c0,0-.34-2.27-1.38-2.34s-5.95-.18-5.95-.18Z"/><path class="025b4dbc-7b41-4655-ba3c-9cff39a07b61" d="M232.38,160.44l-.59-.05H232l.34,0Z"/><path class="025b4dbc-7b41-4655-ba3c-9cff39a07b61" d="M232.44,160.44Z"/><path class="025b4dbc-7b41-4655-ba3c-9cff39a07b61" d="M234.43,163.35H235l-.53,0v0Z"/><path class="025b4dbc-7b41-4655-ba3c-9cff39a07b61" d="M234.92,172.52l.22,0-.22,0Z"/><path class="023800e3-6a00-4f28-8c92-22147d258cd0" d="M5.31,148s24.26,1.46,28.78,1.47c4.26,0,66.86,3.54,80.69,4.49l2.23.16c2.83.26,7.36.6,12.38.94,11.19.76,24.89,1.58,28,1.73,4.3.2,68.91,3.27,74.52,3.62h-.1c-1-.09-3.18-.27-6-.47-4.74-.32-11.47-.7-18.3-.78-9.12-.12-55-3-64.93-3.68-3.9-.27-7.68-.58-11.17-1-1.12-.13-2.79-.27-4.9-.41-21-1.44-97.66-5.2-104-5.63-7-.47-17.16-.47-17.16-.47Z"/><path class="023800e3-6a00-4f28-8c92-22147d258cd0" d="M232.85,157.73h0ZM41,146.9s19.51,1.18,23.16,1.19c3.4,0,56.11,3.14,67.21,3.9l1.8.14c2.28.2,5.92.47,10,.75,9,.61,20,1.28,22.49,1.39,3.49.16,62.71,3.15,66.91,3.44l.28,0c-.35,0-2.36-.21-5.34-.41-3.82-.27-9.22-.57-14.71-.64-7.34-.1-51.08-2.92-59.08-3.47-3.16-.21-6.19-.47-9-.78-.9-.09-2.24-.2-3.94-.32-16.91-1.16-80.89-4.47-86-4.82C49.18,146.9,41,146.9,41,146.9Z"/><path class="023800e3-6a00-4f28-8c92-22147d258cd0" d="M2.35,154c.73,0,15.85.15,20.89.31,5.33.16,63.72,2.23,70.45,2.49s49.94,1.7,55.81,2c4.55.24,67.35,3.87,79.62,4.35-13.62-.72-88.19-5.37-102.68-6-17.63-.8-61.93-2.62-72-2.91s-50.88-.25-52-.23h0Z"/><path class="023800e3-6a00-4f28-8c92-22147d258cd0" d="M147.88,171.67c-4.27-1-63.18-6.53-72.92-7.2s-56-3.33-61.32-3.69a51.31,51.31,0,0,0-9.64,0c.91-.23,49.36,2.88,70.53,4.23.91,0,13.74,1.52,14.73,1.59,21.73,1.49,58.62,5,58.62,5Z"/><path class="023800e3-6a00-4f28-8c92-22147d258cd0" d="M1.73,157.54h0s1.73-.08,3.16-.19c0,0,44.89.45,56.33,1.13s41.46,1.82,45.68,1.91h.31c-1-.07-46.36-2.54-53.63-3-7.47-.52-47.71-1.41-51.78-1.1a4,4,0,0,0-.07,1.28Z"/><path class="023800e3-6a00-4f28-8c92-22147d258cd0" d="M207.93,170.72c12.15.83,25.15,1.68,27,1.8h0c-3.26-.26-76.58-5.89-80.58-6.16-4.17-.28-43.58-3.29-43.58-3.29s25.26-1.4,29.56-1.61,69.22,2.77,73.17,2.83,20.74-.29,20.74-.29-13.79-.34-22-.4S152,160,137.61,161,104,162.82,104,162.82,143.4,166,155.89,167c4.16.32,45.49,3.3,52,3.75Z"/><path class="023800e3-6a00-4f28-8c92-22147d258cd0" d="M216.93,166c2.78-.07,4.09-.18,4.09-.18l-4.09.18Zm17.14,4.05h0s-17.65-1.82-23.48-2.22-55.91-4-51.15-3.75c3.46.17,50.94,2.21,57.48,1.92-1.14,0-2.54.06-4.19.06-5.66,0-71.21-2.7-64.57-2.14s85.37,6.09,85.9,6.13Z"/><path class="a54ba82a-640b-445e-b959-647365131565" d="M227.06,172.93c-5.86.48-148.62-6.79-167.18-8.38s-30.6-2.35-19.43-3-20.59-3.2-32.55-4.26C5,157,3,156.74,1.77,156.51a3.13,3.13,0,0,0,0,1,209.32,209.32,0,0,1,22.76,1.76c2.15.27,4.71.42,6.84.54,3.32.2,5.59.32,3.6.68-3.26.58-29.78-1.94-31.45-2.05S.16,160.36.06,160.75s.83,1.17,3.38,1.15,9.28.23,17.61.9c73.29,7.74,213.85,12.85,213.85,12.85s0-.75,0-1.81c0-.12,0-.24,0-.36,0-.57,0-1.19,0-1.83v-.2C233.38,172.63,231.25,172.58,227.06,172.93Z"/><path class="92f50204-9a3a-4925-beee-ea472979d406" d="M12,148.71c11.66.31,51.86,2.62,39.58.79s33.47.3,61.06,2.14,95.71,6.75,84.49,6.58-3.66.29,10.67,1.51,20.77,2.37,24.89,3.26c.66.15,1.23.26,1.74.35,0-.16,0-.33.07-.49.12-.89.14-1.57.14-1.57s-.94-.75-4.25-1.08-4.58-.91-1.25-.69,3.28.09,3.74-.14.19-.53.19-.8c0,0-.34-2.27-1.38-2.34s-5.95-.18-5.95-.18c-2.08-.07-4.18-.19-6.25-.27-6-.22-47-3-53-3.31-3.75-.17-7.49-.37-11.24-.58C134.17,150.15,48.77,145.22,31,144s-22.59-.24-22.59-.24l-1.54,2.72s2.22.16,6.73.27A97.05,97.05,0,0,1,24.85,148a49.2,49.2,0,0,1-8.46-.17c-5.53-.49-8.56-.79-10.64-.43A9.7,9.7,0,0,0,3.93,150C5.56,149.18,8.07,148.61,12,148.71Z"/><path class="e4e4285b-88bd-4f48-aedf-d5e35c99308c" d="M66,146.17c-15.89-1-29.17-1.77-35-2.17-14.25-1-20.15-.54-21.94-.33-.12,1-.28,1.94-.46,2.91,1.11,0,2.77.12,5,.17A97.05,97.05,0,0,1,24.85,148a49.2,49.2,0,0,1-8.46-.17c-3.54-.31-6.06-.54-8-.58-.36,1.72-.79,3.43-1.21,5.15s-.69,3.49-1,5.23c6.75.29,13.82,1.1,18.3,1.65,2.15.27,4.71.42,6.84.54,3.32.2,5.59.32,3.6.68C32.2,161,13.06,159.31,6,158.68c-.2,1.08-.37,2.16-.48,3.24,3.31.07,8.91.34,15.52.88,14.31,1.51,31.18,2.92,49.07,4.21C68.64,160.07,67.86,153.09,66,146.17Z"/><path class="da44c3bf-e982-448d-8fcd-167b4ffbb401" d="M29.4,163.92c1.28.57.65,8.68.67,9.22s3.14,2.14,3.89,2.15,5.59-1.39,5.15-2.22a18.32,18.32,0,0,1-1.47-5.88c-2.38-25-2.49-51.5-5-77.06a16.61,16.61,0,0,0-3.25.71c-4.51,22.79,1.92,48.47-13.22,70.3,5.48,3.09,7.21,2.74,12.6,3.21,0-.45.1-.68.65-.43Z"/><path class="2e21518a-a870-484e-89b7-45cf0700ea25" d="M28.61,173.74c-.94-2.57-.25-5.22.18-6.8a5.47,5.47,0,0,0,0-1.89,6.84,6.84,0,0,1-.06-.7c-5.39-.47-7.12-.12-12.6-3.21a40.07,40.07,0,0,0-4.59,8.52,5.84,5.84,0,0,1-.09.78c-.37,1.88,14.55,4.06,15.39,4.35.57.2.82-.41,1.75-1Z"/><path class="2e21518a-a870-484e-89b7-45cf0700ea25" d="M18.43,93c0-.27,0-.78,0-.78S18.45,94.06,18.43,93Z"/><path class="2e21518a-a870-484e-89b7-45cf0700ea25" d="M9.93,171.61c-.14-1.55,1.2-3.91,1.2-3.91a3.06,3.06,0,0,1,.43,2c2.62-7.67,8.68-14.74,10.85-22.44,5.21-18.52,3.2-37.73,7-56.38a16.61,16.61,0,0,1,3.25-.71s-13-.91-13.32-.67c-.5.47-.69.47-.83,1.11a9.79,9.79,0,0,0-.07,1.62c0,.25,0,.51,0,.78,0,1.09,0,.2,0-.78a5.09,5.09,0,0,0-.87-3c-.48-.48-9.16-2-9.16-2s-1.69.25-1.84,1.56-.23,1.36-.29,0-.81-1.45-1.35-1.52C1.86,86.9.8,88.73.83,89.51c.34,9.52,3,19.59,3.92,29.14a332.21,332.21,0,0,1,.88,47.26c-.33,6.75,3,9.53,3,9.53.39-.4.59-.61,1-1a7.43,7.43,0,0,0,.33-2.83Z"/><path class="6501a458-144f-48d3-a3cd-b689a96b47e9" d="M1.09,91.79c.11.78.18,1.59.28,2.39.31,2.28,1.73,18.74,2.07,21.11.21,1.49.44,3,.55,4.46a414.15,414.15,0,0,1,1,47.57c-.27,6.82.35,8.32.35,8.32,1,0,1.73-.07,3.38-.2a15.83,15.83,0,0,0,0-2.46,10.61,10.61,0,0,1,1.19-4.12,3.76,3.76,0,0,1,.31,2.87c-.38,2-.59,3.6,0,3.79,1.88.56,16.8-.46,17.07-.65.9-.62-.15-5.35.32-6.89a5.3,5.3,0,0,0,.09-1.85c-.07-.86-.15-1.43.63-1.07,1.27.61.42,8.63.42,9.19s4,1,4.73,1,2-.33,1.59-1.18A14.77,14.77,0,0,1,34,168.38c-.39-24.82-2.2-52-4.6-77.54,0,0-1,0-2.42,0h-.47c-.74,0-1.56.07-2.37.09A24.11,24.11,0,0,1,21,90.85c-.86-.09-1.52-.26-2-.31s-.57,0-.56,0c0,.45-.11,4.91-.25,5.64s-.79-.12-.81-2a6.24,6.24,0,0,0-1-3.92,28.34,28.34,0,0,0-5.5-1.58c-1.88-.41-3.28-.61-3.28-.61A1.73,1.73,0,0,0,6.09,89.6C6,90.92,5.09,91.33,5,90s-.31-1.34-.77-1.54A3.19,3.19,0,0,0,3,88.37s-2.2.82-2.18,1.22.26,2.2.26,2.2Z"/><path class="025b4dbc-7b41-4655-ba3c-9cff39a07b61" d="M6.24,88.82s0,.23,0,.23a.07.07,0,0,0,0,0s0,0,0-.05v-.14Z"/><path class="025b4dbc-7b41-4655-ba3c-9cff39a07b61" d="M6.24,88.79h0s0,0,0,0v0Z"/><path class="025b4dbc-7b41-4655-ba3c-9cff39a07b61" d="M11.88,88.94l-.1-.24s0,.18,0,.23Z"/><path class="025b4dbc-7b41-4655-ba3c-9cff39a07b61" d="M25.23,90.9a.21.21,0,0,0,0-.09v.09Z"/><path class="023800e3-6a00-4f28-8c92-22147d258cd0" d="M11.25,175.47s.41-8.3.24-9.66c-1-8,0-17,.32-25.43a5.64,5.64,0,0,1,.07-.75,26.3,26.3,0,0,0,.12-4.41c-.18-4.35-.75-10.55-1-12C9.45,111.82,6.25,89,6.25,89a.14.14,0,0,1,0,0,18.35,18.35,0,0,0,0,2.46,46,46,0,0,0,1.33,8c2.36,9.63,2.72,19.77,3.34,29.6a20.67,20.67,0,0,1-.08,4.17,11.45,11.45,0,0,0,0,1.76c.37,11.44.86,23.19-.05,34.51a28.62,28.62,0,0,0,.49,5.88Z"/><path class="023800e3-6a00-4f28-8c92-22147d258cd0" d="M2,88.57s0,0,0,0v0ZM7.4,163.28s.1-7,0-8.35c-.86-8-.06-16.64-.44-25,0-.27,0-.5,0-.66,0-.81,0-2.19-.15-3.78-.25-3.52-.79-8.14-1-9.19C4.36,107.16,2.9,97.93,2,88.7a.51.51,0,0,1,0-.1s0,.92.08,2.09a45.56,45.56,0,0,0,.88,5.86c1.67,8,2.26,16.32,3,24.47a22.23,22.23,0,0,1,0,3.44A9.83,9.83,0,0,0,6,126a320,320,0,0,1,1,32.29,38,38,0,0,0,.39,5Z"/><path class="023800e3-6a00-4f28-8c92-22147d258cd0" d="M21.47,174.89c0-.27-1.17-5-1.35-6.3s-1.6-14-1.8-15.85c-.78-7.45-2-15-2.74-22.42-1.3-12.89-3.42-39.1-3.42-39.1s2.05,32.67,3.51,48.87c.68,7.55,1.48,19,1.84,21.29s3.81,13.09,3.95,13.5h0Z"/><path class="023800e3-6a00-4f28-8c92-22147d258cd0" d="M29.82,123A116.09,116.09,0,0,0,29,153.07c.25,2.94,2.51,16.17,2.63,17.83A5.12,5.12,0,0,0,33.08,174c2.78-3.79-2.4-14.32-3.47-21.48,0-.29,0-5.34-.05-5.68A107,107,0,0,1,29.82,123Z"/><path class="023800e3-6a00-4f28-8c92-22147d258cd0" d="M27.34,174.87h0s-.36-.57-.72-1c0,0-3.54-11.14-3.42-13.28a82.49,82.49,0,0,0-.65-9.83c0-.08,0-.1,0-.08,0,.29-.14,10.07-.33,11.39s1.95,12.55,2.9,12.89a11.28,11.28,0,0,0,2.24,0Z"/><path class="023800e3-6a00-4f28-8c92-22147d258cd0" d="M25.36,102.26c0-5.43-.11-10.64-.13-11.36h0c-.27,12.5-.44,25-.2,37.48,0,2,.13,19.08.13,19.08s-3.72-7.61-4.25-9.7c-3-12.11-2.33-25.81-4.32-38.35-.31-2-3.35-10.1-3.35-10.1s1.5,6.3,2.28,10.4c2.4,12.65.56,26.5,5,39.15,2.58,7.41,4.81,10.49,4.81,10.49.42-7.45.19-14.92.15-22.36-.06-8.23-.11-16.49-.1-24.73Z"/><path class="023800e3-6a00-4f28-8c92-22147d258cd0" d="M18.88,98.25a14.69,14.69,0,0,0-.7-2s.3.81.7,2Zm3.31-7h0s-.54,7.64-.46,10.46c.25,8.82.61,26.5.61,26.5L18.88,98.25s.36,1.28.5,2.1c1.85,10.8,3.81,33.15,3.81,33.15s-.79-28.17-1-42.26Z"/><path class="60c4e11b-8a55-40fa-abee-31e24ffe01c2" d="M515.6,175.7c-3,1-29.8,1.2-31.47,1.26s-6,2-6,2.46,5.07,3.43,7.56,3.12,9.13-.78,17.51-1c74.51.27,213.52-9.77,213.52-9.77l-3.84-2.5-185.27-4.15-13.19,10.1c1.68,0,2.41,0,1.16.45Z"/><path class="2e21518a-a870-484e-89b7-45cf0700ea25" d="M482.06,176.15a192.6,192.6,0,0,1,22.87-.62c2.2.06,4.77-.06,6.89-.16l2.62-.12,13.19-10.1L494.84,164l-2.35.08c-5.59.09-12,10.56-13.84,11.18-.23.67,1.31.45,3.41.94Z"/><path class="2e21518a-a870-484e-89b7-45cf0700ea25" d="M702.87,160.14c.63,0,1.21,0,1.78-.09C702.32,160.14,700.37,160.23,702.87,160.14Z"/><path class="2e21518a-a870-484e-89b7-45cf0700ea25" d="M489.3,163.14a93.13,93.13,0,0,1,11.49.14,36.28,36.28,0,0,1-6,.67L712.9,169.3l3.84,2.5s-3.63-11-4.58-11.23a12.77,12.77,0,0,0-3.56-.6c-.68,0-2.39,0-4,.08-.57,0-1.15.07-1.78.09-2.5.09-.55,0,1.78-.09a27.84,27.84,0,0,0,6.5-.88c.79-.36-1.55-5-1.55-5a11.05,11.05,0,0,0-5-.86c-3.36,0-3.53,0-.19-.16s3.29-.56,3.24-.89c-.25-1.87-3.48-3.56-5.45-3.6s-55.62,3.57-72.86,4.42c-21.22.45-106.39,4.56-124.23,5.21s-26.06,4.61-26.06,4.61l2.39.58a74,74,0,0,0,7.81-.29Z"/><path class="43f82e59-5a96-41bb-8b8f-3c6bf8f12832" d="M696.18,149.08c-2.06.16-4.14.26-6.2.41-5.93.42-47,1.91-53,2.27-3.73.23-7.47.44-11.2.62-21.23.45-106.4,4.57-124.23,5.22s-22.11,2.25-22.11,2.25l-.42,3.11s2.22-.07,6.65-.46a94.2,94.2,0,0,1,11.51.13,43.26,43.26,0,0,1-8.31.75c-5.58.09-8.66.1-10.54.72-1.56,2.94-.61,10.22.12,11.41a190.4,190.4,0,0,1,22.87-.62c2.2.05,4.76-.06,6.89-.17,3.3-.15,5.57-.27,3.77.34-2.95,1-29.8,1.2-31.47,1.25s-2.49,2.42-2.42,2.87,1.27,1.17,3.76.86,9.13-.78,17.5-1c74.51.27,213.52-9.76,213.52-9.76s-.27-.82-.68-2c-.05-.13-.1-.26-.16-.4-.23-.6-.48-1.28-.76-2-.37-.95-.77-1.92-1.16-2.75a12.85,12.85,0,0,0-1-1.83c-.22-.29-.4-.46-.55-.46-1.12,0-11.44.31-13.13.26s-.35-.54,3.83-.69a35.54,35.54,0,0,0,8.27-1c.45-.21.19-1.76-.14-3-.24-1-.49-1.73-.49-1.73s-1.21-.7-4.57-.69-4.83-.49-1.49-.62,3.23-.26,3.57-.56,0-.59-.12-.89c0,0-1.24-2.42-2.28-2.38s-5.86.46-5.86.46Z"/><path class="e4e4285b-88bd-4f48-aedf-d5e35c99308c" d="M696.53,160.84c.05-.22.1-.43.16-.65h-1.23c-1.28,0-.79-.33,1.36-.54.54-2.29,1.09-4.57,1.84-6.84a22,22,0,0,0,1.07-4c-1.66.13-3.55.3-3.55.3-2.06.16-4.14.26-6.2.41-3.63.26-20.5.91-34.37,1.47-2.05,7.51-4.69,15-6.72,22.47,18.1-1.06,33.87-2.08,45.24-2.84C695,167.34,695.74,164.09,696.53,160.84Z"/><path class="025b4dbc-7b41-4655-ba3c-9cff39a07b61" d="M704.4,153.1l-.6,0h.6Z"/><path class="025b4dbc-7b41-4655-ba3c-9cff39a07b61" d="M704.46,153.1h-.06a.09.09,0,0,0,.06,0Z"/><path class="025b4dbc-7b41-4655-ba3c-9cff39a07b61" d="M707.55,156l.51-.07-.52,0a0,0,0,0,1,0,0Z"/><path class="025b4dbc-7b41-4655-ba3c-9cff39a07b61" d="M711.68,165.91h0Z"/><g class="03cca5cc-11b6-4f8a-b811-ee3e912bcbff"><path class="023800e3-6a00-4f28-8c92-22147d258cd0" d="M478.17,164.77s24.21-1.11,28.63-1.6c4.14-.46,66.55-3.57,80.41-4.08.91,0,1.67-.06,2.24-.06,2.87,0,7.4-.17,12.44-.36,11.21-.41,24.88-1,28-1.22,4.27-.27,68.45-4.1,74.06-4.33h-.1c-1,0-3.19,0-6.07.16-4.76.17-11.46.51-18.15,1.17-8.93.89-54.75,2.85-64.73,3.21-3.92.14-7.72.22-11.27.19-1.15,0-2.82,0-4.93.11-21.08.76-97.26,5.19-103.59,5.41-7,.26-16.89,1.4-16.89,1.4Z"/><path class="023800e3-6a00-4f28-8c92-22147d258cd0" d="M703.79,150.12h0Zm-191.31,9.52s19.48-.89,23-1.28c3.33-.37,55.93-2.82,67.06-3.22.74,0,1.35,0,1.81,0,2.3,0,6-.15,10-.29,9-.33,20-.83,22.48-1,3.46-.2,62.36-3.53,66.57-3.68h.28c-.35,0-2.39,0-5.36.14-3.83.14-9.22.42-14.6.94-7.19.71-50.93,2.5-58.95,2.8-3.15.11-6.21.17-9.07.15-.93,0-2.27,0-4,.08-16.95.62-80.6,4.11-85.7,4.3-5.6.21-13.6,1.11-13.6,1.11Z"/><path class="023800e3-6a00-4f28-8c92-22147d258cd0" d="M477.64,171.55c.73,0,15.51-1.58,20.49-2,5.26-.41,63-4.64,69.65-5.11s49.34-3.68,55.18-4c4.52-.25,67.17-3.27,79.32-4.11-13.57.73-88.08,3.95-102.46,4.84-17.5,1.08-61.4,4-71.36,4.84s-49.69,5.35-50.79,5.51Z"/><path class="023800e3-6a00-4f28-8c92-22147d258cd0" d="M626.52,174.63c-4.56-.61-64.19-.08-73.93.27s-55.93,2.6-61.23,2.79-9.66,1-9.37,1.12c.8-.36,49.24-2.35,70.4-3.23.93,0,14,.13,15,.09,21.77-.8,59.13-1,59.13-1Z"/><path class="023800e3-6a00-4f28-8c92-22147d258cd0" d="M478.48,175.51h0s1.64-.29,3-.56c0,0,43.92-4.48,55.33-5s41.15-2.62,45.29-3l.3,0c-1,0-46.2,2.39-53.47,2.65-7.5.28-47.07,3.76-50.89,4.56a4.33,4.33,0,0,0,.44,1.39Z"/><path class="023800e3-6a00-4f28-8c92-22147d258cd0" d="M684.66,167c12.16-.45,25.17-1,27-1h0c-3.27.07-77,2.1-81,2.25-4.19.15-43.8,1.26-43.8,1.26s24.07-4.3,28.18-5,68.56-4.67,72.43-5,20.08-2.62,20.08-2.62-13.56,1.17-21.57,2-60.12,2.82-73.78,5.42-32,5.71-32,5.71,39.64-.9,52.19-1.24c4.2-.12,45.66-1.46,52.22-1.7Z"/><path class="023800e3-6a00-4f28-8c92-22147d258cd0" d="M691.54,160.84c2.69-.38,3.92-.65,3.92-.65l-3.92.65Zm18.33,2.48h0s-17.93,0-23.78.21-56.05,1.88-51.32,1.6c3.43-.21,50.5-3.25,56.76-4.29-1.09.16-2.43.34-4,.53-5.51.64-70.47,5-63.77,4.83s85.62-2.86,86.15-2.88Z"/></g><path class="72c7ac8d-44e3-4ddd-9f97-702d313db6ad" d="M697.32,107.9c-.66-1.19,3.16-10.75,3.35-11.35s-1.35-2.44-1.85-2.49-4.6,1.3-4.62,2.22a27.42,27.42,0,0,1-1.56,6.35C681.07,129,671.28,179.8,671.28,179.8l3.38-1,32.64-65.07L698,107.56c-.2.6-.38.84-.67.34Z"/><path class="2e21518a-a870-484e-89b7-45cf0700ea25" d="M701.89,95.94c-.24,2.86-1.78,6.23-2.77,8.2a13.7,13.7,0,0,0-.86,2.47c-.09.36-.18.69-.27,1l9.31,6.18,6.3-11.45a8.14,8.14,0,0,1,.27-.85c.74-2-10-5.81-10.41-6.57-.72-.18-.71.4-1.57,1.07Z"/><path class="2e21518a-a870-484e-89b7-45cf0700ea25" d="M686.42,176.62a5.78,5.78,0,0,0-.18.65C686.5,176.43,686.69,175.72,686.42,176.62Z"/><path class="2e21518a-a870-484e-89b7-45cf0700ea25" d="M715.34,100.44a13.51,13.51,0,0,1-1.9,4.06,4.73,4.73,0,0,1,.16-2.21l-38.94,76.52-3.38,1s12.85.36,13.24.06c.74-.57.9-.59,1.22-1.18a12.9,12.9,0,0,0,.5-1.41,5.78,5.78,0,0,1,.18-.65c.27-.9.08-.19-.18.65a3.57,3.57,0,0,0,0,2.43c.28.33,5.88.21,5.88.21a3.22,3.22,0,0,0,1.71-1.63c.49-1.19.57-1.25.21,0s.13,1.25.5,1.28c2.13.19,4.51-.7,4.85-1.4s4.42-20.25,6.07-26.49c2.72-7.59,11-38.41,12.95-44.83s-1.21-9.92-1.21-9.92l-1,.76a9.73,9.73,0,0,0-.85,2.8Z"/><path class="6501a458-144f-48d3-a3cd-b689a96b47e9" d="M699.8,175.9c.13-.75.33-1.51.48-2.26.42-2.17,5-17,5.45-19.12.32-1.36.65-2.71,1-4.06,2.71-7.59,11-38.41,12.94-44.83s.83-8.18.83-8.18l-3.43-.61a19.14,19.14,0,0,0-.48,2.43,13.22,13.22,0,0,1-1.89,4,5.35,5.35,0,0,1,.42-3c.74-2,1.2-3.08.79-3.85-3-1-11.33-1.73-12.77-1.66-.23,2.87-1.78,6.24-2.77,8.21a12.83,12.83,0,0,0-.85,2.46c-.33,1.2-.54,2-.95,1.29-.66-1.19,3.17-10.74,3.35-11.34s-2.33-1.24-2.84-1.29-1.49.28-1.51,1.2a27.12,27.12,0,0,1-1.57,6.36c-11.56,26.38-21.35,77.16-21.35,77.16l2.29.05h.47l2.32,0c1.12,0,2.26,0,3.25,0s1.7,0,2.2-.08.58-.08.59-.13c.13-.4,1.4-4.1,1.7-4.69s.66-.05.2,1.46-.45,2.74-.17,3.08a13.9,13.9,0,0,0,3.42.4c1.13.06,2,.08,2,.08a2.66,2.66,0,0,0,1.46-1.52c.49-1.19,1.28-1.63.91-.43s-.19,1.18.1,1.35a2.8,2.8,0,0,0,1,.09s2.9-.08,3-.45.38-2.15.38-2.15Z"/><path class="025b4dbc-7b41-4655-ba3c-9cff39a07b61" d="M694.05,178.21s.05-.11.08-.21a.05.05,0,0,1,0,0,.11.11,0,0,1,0,.05s0,.09-.05.12Z"/><path class="025b4dbc-7b41-4655-ba3c-9cff39a07b61" d="M694.05,178.24h0v0Z"/><path class="025b4dbc-7b41-4655-ba3c-9cff39a07b61" d="M690.3,178.9v.18a1.32,1.32,0,0,0,0-.18Z"/><path class="025b4dbc-7b41-4655-ba3c-9cff39a07b61" d="M678.63,178.89a.24.24,0,0,0,0,.08.18.18,0,0,1,0-.08Z"/><path class="023800e3-6a00-4f28-8c92-22147d258cd0" d="M715.2,96.26s-2.43,8.75-2.53,10.38-6.07,24.14-7.6,29.13c-.1.33-.19.6-.26.81-.4,1-.94,2.64-1.48,4.45-1.25,4-2.61,9-2.86,10.1-.36,1.55-5.78,24.88-6.36,26.91a.05.05,0,0,0,0,0c.14-.37.42-1.14.73-2.18a36.43,36.43,0,0,0,1.43-6.61c.36-3.29,5.11-19.84,6.2-23.43a34.54,34.54,0,0,1,1.49-4,14.51,14.51,0,0,0,.63-1.77c2.32-7.58,8.89-35.25,9.59-37.53a33,33,0,0,0,1-6.2Z"/><path class="023800e3-6a00-4f28-8c92-22147d258cd0" d="M697.48,178.44v0Zm18.27-69.25s-2,7-2,8.36-5.31,20.25-6.54,24.26c-.08.26-.14.48-.21.65-.31.82-.74,2.13-1.18,3.59-1,3.25-2.1,7.22-2.3,8.12-.3,1.26-5.48,22.64-6,24.15a.62.62,0,0,1,0,.1c0-.12.32-.85.65-1.92a29.45,29.45,0,0,0,1.15-5.32c.31-2.65,4.91-18.43,5.8-21.32a28.17,28.17,0,0,1,1.2-3.24c.14-.32.31-.81.5-1.41,1.86-6.11,7.59-29.2,8.15-31a26.76,26.76,0,0,0,.81-5Z"/><path class="023800e3-6a00-4f28-8c92-22147d258cd0" d="M707.69,95.06c-.05.27-.57,5.74-.89,7.56s-4.32,23-4.81,25.46-3.34,18-3.86,20.16c-.4,1.64-6.5,24.3-7.41,28.74,1.25-4.92,8.91-31.82,10.09-37.06,1.43-6.36,4.77-22.36,5.37-26s1.52-18.42,1.52-18.83h0Z"/><path class="023800e3-6a00-4f28-8c92-22147d258cd0" d="M681.75,147.39c1.37-1.53,9.8-22.75,10.87-26.26s5.55-20.22,6.14-22.12.32-3.58.17-3.49c.28.33-4.82,17.81-7,25.45-.09.33-2.26,4.94-2.38,5.3-2.39,7.83-7.77,21.12-7.77,21.12Z"/><path class="023800e3-6a00-4f28-8c92-22147d258cd0" d="M703.15,94.76h0s.07.63.17,1.15c0,0-1.63,16.25-2.76,20.37s-3.29,15-3.49,16.5c0,.11,0,.14,0,.12.12-.36,4.32-16.74,5.13-19.36s2.9-17.25,2.59-18.73c-.75,0-1.32-.06-1.62,0Z"/><path class="023800e3-6a00-4f28-8c92-22147d258cd0" d="M681.55,169.15c-1.34,4.38-2.73,9.07-2.92,9.74h0c.41-1.18,9.28-27.61,9.72-29.06s5.2-15.71,5.2-15.71,1.18,9.18,1.35,10.74-5.13,25-5.32,26.43-.1,7.51-.1,7.51.75-5,1-7.94,5.94-21.74,5.1-27-1.56-12.2-1.56-12.2-5,14.19-6.49,18.69c-.51,1.51-5.27,16.41-6,18.77Z"/><path class="023800e3-6a00-4f28-8c92-22147d258cd0" d="M687.34,172.5a7.48,7.48,0,0,0,.14,1.49s-.06-.59-.14-1.49Zm-5.54,6.13h0s2.72-6.35,3.37-8.46,6.36-20.15,6-18.43c-.29,1.24-4,18.39-3.79,20.76,0-.41,0-.91,0-1.51.11-2.05,5.1-25.73,4.23-23.34s-9.73,30.79-9.8,31Z"/><path class="a54ba82a-640b-445e-b959-647365131565" d="M678.3,176c-.48-2.13,12.12-53.67,14.57-60.36s3.71-11,4.31-7,4.55-7.38,6.19-11.7a9.81,9.81,0,0,1,1.09-2.2c-.6,0-1.07,0-1.31,0-.23,2.87-1.78,6.24-2.77,8.21a12.83,12.83,0,0,0-.85,2.46c-.33,1.2-.54,2-.95,1.29-.66-1.19,3.17-10.74,3.35-11.34s-2.33-1.24-2.84-1.29-1.49.28-1.51,1.2a27.12,27.12,0,0,1-1.57,6.36c-11.56,26.38-21.35,77.16-21.35,77.16l2.29.05h.47l2.32,0a2.25,2.25,0,0,0,.26,0C678.53,178.32,678.65,177.55,678.3,176Z"/><path class="92f50204-9a3a-4925-beee-ea472979d406" d="M714.14,98.66c-.67,4.22-4.55,18.72-1.94,14.32S711,125.09,708.05,135s-10.82,34.51-10.34,30.45-.3-1.32-2.18,3.84-3.5,7.47-4.74,8.94a7.28,7.28,0,0,0-.47.62l.61,0c1.13.06,2,.08,2,.08a2.66,2.66,0,0,0,1.46-1.52c.49-1.19,1.28-1.63.91-.43s-.19,1.18.1,1.35a2.8,2.8,0,0,0,1,.09s2.9-.08,3-.45.38-2.15.38-2.15c.13-.75.33-1.51.48-2.26.42-2.17,5-17,5.45-19.12.32-1.36.65-2.71,1-4.06,2.71-7.59,11-38.41,12.94-44.83s.83-8.18.83-8.18l-3.43-.61a19.14,19.14,0,0,0-.48,2.43,13.22,13.22,0,0,1-1.89,4,5.35,5.35,0,0,1,.42-3c.74-2,1.2-3.08.79-3.85a24.43,24.43,0,0,0-3.22-.71A2.74,2.74,0,0,1,714.14,98.66Z"/><path class="e4e4285b-88bd-4f48-aedf-d5e35c99308c" d="M691,114.82c2-.13,4-.39,6-.68,1.5-.23,7-.48,7.45-1.41.08-.2.52-.34.86-.27a25.72,25.72,0,0,0,9.22-.38,15.54,15.54,0,0,0,3.68-1.16c.66-2.33,1.19-4.18,1.53-5.29,2-6.42.83-8.18.83-8.18l-3.43-.61a19.14,19.14,0,0,0-.48,2.43,13.22,13.22,0,0,1-1.89,4,5.35,5.35,0,0,1,.42-3c.74-2,1.2-3.08.79-3.85-3-1-11.33-1.73-12.77-1.66-.23,2.87-1.78,6.24-2.77,8.21a12.83,12.83,0,0,0-.85,2.46c-.33,1.2-.54,2-.95,1.29-.66-1.19,3.17-10.74,3.35-11.34s-2.33-1.24-2.84-1.29-1.49.28-1.51,1.2a27.12,27.12,0,0,1-1.57,6.36C694.29,105.58,692.61,110.06,691,114.82Z"/><path class="2b464e23-3dc0-4734-a95c-bb0a17429cc1" d="M532.32,27.55c2.9.82,28.49-.05,30.09-.06s5.92,1.66,5.9,2.08-4.51,3.44-6.9,3.24-8.78-.37-16.76-.22c-70.93,3.22-315.2-2.39-315.2-2.39l3.41-2.51,287.06-9.6,13.46,9c-1.6,0-2.28.12-1.06.46Z"/><path class="2e21518a-a870-484e-89b7-45cf0700ea25" d="M564.3,26.64a185.76,185.76,0,0,0-21.83.33c-2.09.14-4.55.13-6.58.12-1,0-1.82,0-2.51,0l-13.46-9L551,15.65c.69,0,1.44,0,2.25,0,5.33-.13,12.35,9.48,14.2,10,.27.62-1.22.47-3.17,1Z"/><path class="2e21518a-a870-484e-89b7-45cf0700ea25" d="M241.59,18.65c-.59,0-1.15,0-1.7,0C242.11,18.63,244,18.64,241.59,18.65Z"/><path class="2e21518a-a870-484e-89b7-45cf0700ea25" d="M556.24,14.67a89.78,89.78,0,0,0-10.94.59,36,36,0,0,0,5.72.39l-318.16,12-3.41,2.51s2.44-10.52,3.33-10.77a11.49,11.49,0,0,1,3.35-.71c.64,0,2.28-.07,3.76-.08.55,0,1.11,0,1.7,0,2.4,0,.52,0-1.7,0a28.25,28.25,0,0,1-6.26-.57c-.79-.31,1-4.82,1-4.82a10.13,10.13,0,0,1,4.63-1c3.19-.13,3.36-.18.17-.16s-3.18-.4-3.17-.72c.07-1.77,3-3.49,4.86-3.6S294.42,8.9,310.91,9c20.25-.42,212.74,1.77,229.77,1.68S565.9,14,565.9,14l-2.2.64a71.33,71.33,0,0,1-7.46,0Z"/><path class="990bf82c-f952-4192-b168-c8de727ecdec" d="M247,8c2,.06,4,.08,5.93.13,5.68.17,45-.07,50.65,0,3.57.07,7.14.11,10.71.14C334.52,7.84,527,10,544,9.93s21.26,1.24,21.26,1.24l.68,2.92s-2.13,0-6.37-.17a90.47,90.47,0,0,0-10.94.58,41.54,41.54,0,0,0,8,.38c5.34-.14,8.27-.26,10.11.25,1.76,2.71,1.51,9.61.92,10.76a186,186,0,0,0-21.84.33c-2.08.14-4.53.13-6.56.12-3.17,0-5.33,0-3.56.46,2.88.82,28.47-.05,30.07-.06s2.58,2.17,2.56,2.6-1.1,1.15-3.49.95-8.78-.36-16.77-.21c-70.91,3.22-315.2-2.39-315.2-2.39s.2-.78.49-1.88c0-.12.06-.25.11-.38.15-.58.34-1.23.53-1.89.28-.91.58-1.84.86-2.64a11,11,0,0,1,.8-1.77c.18-.28.33-.45.49-.45,1.06,0,10.9-.17,12.51-.28s.28-.52-3.71-.5a34.51,34.51,0,0,1-8-.58c-.45-.18-.33-1.65-.14-2.88.14-.93.31-1.64.31-1.64s1.09-.71,4.29-.83,4.55-.66,1.36-.64-3.1-.12-3.45-.4,0-.55,0-.83c0,0,1-2.34,2-2.34S247,8,247,8Z"/><path class="025b4dbc-7b41-4655-ba3c-9cff39a07b61" d="M239.51,12.08l.57,0h-.57Z"/><path class="025b4dbc-7b41-4655-ba3c-9cff39a07b61" d="M239.44,12.08Z"/><path class="025b4dbc-7b41-4655-ba3c-9cff39a07b61" d="M236.77,15l-.5-.05h.5v0Z"/><path class="025b4dbc-7b41-4655-ba3c-9cff39a07b61" d="M233.73,24.44h0Z"/><g class="03cca5cc-11b6-4f8a-b811-ee3e912bcbff"><path class="023800e3-6a00-4f28-8c92-22147d258cd0" d="M567,15.76s-23.15-.08-27.4-.37c-4-.27-174.7-2.41-188-2.33-.86,0-1.59,0-2.13,0-2.73.07-7.06.13-11.87.15-10.72.07-23.79,0-26.73,0-4.1-.08-65.56-1.13-70.92-1.13h.11c1,0,3-.07,5.79-.08,4.54,0,10.95,0,17.38.38,8.59.48,52.4.5,61.93.44,3.74,0,7.38-.1,10.75-.26,1.09-.06,2.7-.09,4.71-.1,20.13-.11,204.07,2.71,210.12,2.68,6.66,0,16.21.64,16.21.64Z"/><path class="023800e3-6a00-4f28-8c92-22147d258cd0" d="M239.81,9.24h0Zm294,3s-7.69-.53-13.05-.51c-4.87,0-176.81-2.42-193-2.33-1.62,0-2.91,0-3.78.08-2.72.13-5.65.2-8.66.22-7.66,0-49.47.09-56.38-.29-5.17-.28-10.33-.32-14-.3-2.84,0-4.79.07-5.11.08h.26c4,0,60.4.76,63.72.82,2.36,0,12.88.08,21.49,0,3.88,0,7.39-.06,9.57-.13l1.72,0c10.64-.06,172,1.84,175.15,2.06,3.44.23,22.06.29,22.06.29Z"/><path class="023800e3-6a00-4f28-8c92-22147d258cd0" d="M568.09,22.13c-.7,0-14.92-.88-19.69-1-5-.18-60.39-1.87-66.77-2S323.3,15.84,317.71,15.77c-4.33,0-64.24-.4-75.9-.71,13,.14,84.23.22,98,.49,16.76.32,169.83,3,179.4,3.41S567,22,568.06,22.13Z"/><path class="023800e3-6a00-4f28-8c92-22147d258cd0" d="M315.6,29.27c4.29-.76,172.11-.94,181.43-1s53.5.23,58.55.19,9.3.58,9,.69c-.79-.31-47.11-.26-67.33-.25-.89,0-13.32.68-14.28.69-20.79.11-167.4-.32-167.4-.32Z"/><path class="023800e3-6a00-4f28-8c92-22147d258cd0" d="M567.65,25.89h0s-1.58-.2-2.9-.4c0,0-42.24-2.48-53.14-2.53s-39.41-.82-43.4-1l-.29,0c1,0,44.21.41,51.16.37,7.16,0,45.16,1.67,48.87,2.26a4.15,4.15,0,0,1-.3,1.33Z"/><path class="023800e3-6a00-4f28-8c92-22147d258cd0" d="M259.55,24.34c-11.63.07-24.06.09-25.82.1h0c3.12-.06,73.48-1.09,77.31-1.1,4,0,41.81-.56,41.81-.56s-23.32-3.1-27.29-3.61-65.7-1.67-69.42-1.85-19.36-1.67-19.36-1.67,13,.55,20.72,1,57.51.26,70.73,2.17,142,5.8,142,5.8-148.83-1-160.82-.78c-4,.05-43.6.43-49.87.47Z"/><path class="023800e3-6a00-4f28-8c92-22147d258cd0" d="M252.44,18.86l-3.79-.46s1.19.2,3.79.46Zm-17.22,3.06c.51,0,75.93-.57,82.29-.71s-55.86-1.63-61.17-2q-2.31-.17-3.9-.33c6.05.73,51.15,1.72,54.44,1.78,4.52.08-43.42.5-49,.53s-22.65.76-22.65.76Z"/></g><path class="e4e4285b-88bd-4f48-aedf-d5e35c99308c" d="M565.76,26.74c-.83,0-8.08.24-15.28.35.94.53,1.19,1.22,3.36,1.23,4.91,0,9.62.09,14.32.44C567.82,28,567,26.73,565.76,26.74Z"/><path class="e4e4285b-88bd-4f48-aedf-d5e35c99308c" d="M536.84,13.5c-.64,1.39-3.61,4.48-1,5.29.39.12.42.4.18.62-1.26,1.13-3.73,2.45-1.51,3.68.53.3,1.1.59,1,1.09s-1.19,1.24-2.15,1.79c4.14.33,8.29-.27,12.43.14l.7.07a183.18,183.18,0,0,1,21.18-.29c.59-1.15.84-8-.92-10.76-1.84-.51-4.77-.39-10.11-.25a41.54,41.54,0,0,1-8-.38,90.47,90.47,0,0,1,10.94-.58c4.24.19,6.37.17,6.37.17l-.68-2.92S561.08,9.84,544,9.93h-5.69C537.85,11.13,537.38,12.32,536.84,13.5Z"/><path class="e4e4285b-88bd-4f48-aedf-d5e35c99308c" d="M265,25.3c.06-2-1-3.79-2-5.63-.47-.81-.43-1-.07-1.83a4.1,4.1,0,0,0,.24-2.2c-.42.17-1,.19-1.12-.15-.94-2.12-1.9-4.23-2.85-6.34a.26.26,0,0,1,.05-.26c-.13-.25-.28-.5-.43-.74-2.78,0-4.9,0-5.92-.06-2-.05-4-.07-5.93-.13,0,0-4.64-.21-5.64-.2s-2,2.34-2,2.34c-.07.28-.28.62,0,.83s.25.42,3.45.4,1.84.51-1.36.64-4.29.83-4.29.83-.17.71-.31,1.64c-.19,1.23-.31,2.7.14,2.88a34.51,34.51,0,0,0,8,.58c4,0,5.31.39,3.71.5s-11.45.28-12.51.28c-.16,0-.31.17-.49.45a11,11,0,0,0-.8,1.77c-.28.8-.58,1.73-.86,2.64-.19.66-.38,1.31-.53,1.89-.05.13-.07.26-.11.38-.21.8-.38,1.43-.44,1.72A191.74,191.74,0,0,1,265,25.3Z"/><path class="68283aa0-9c08-4e08-b9cf-e97cb58f8579" d="M559.58,24.14c-2.9.61-25.3-2.09-26.7-2.22s-5.94,1.23-6.08,1.64,2.66,3.73,4.85,3.71,7.94.26,15,1c61.73,8.28,181.7,14,181.7,14l-2.05-2.74L574.35,15.65l-15.53,8c1.42.13,2,.28.76.53Z"/><path class="2e21518a-a870-484e-89b7-45cf0700ea25" d="M531.52,21a142.57,142.57,0,0,1,19.27,1.89c1.81.29,4,.45,5.79.59.86.07,1.63.12,2.24.18l15.53-8L547.67,11q-.92-.06-2-.18C541,10.3,531,19.33,529.12,19.71c-.5.6.88.55,2.4,1.24Z"/><path class="2e21518a-a870-484e-89b7-45cf0700ea25" d="M722.11,29.88l1.51.12C721.66,29.82,720,29.7,722.11,29.88Z"/><path class="2e21518a-a870-484e-89b7-45cf0700ea25" d="M543.43,9.66A65.35,65.35,0,0,1,552.92,11a29.63,29.63,0,0,1-5.25,0L726.28,39.46l2.05,2.74s2-10.6,1.31-10.91a7.49,7.49,0,0,0-2.71-.94c-.54-.1-2-.24-3.31-.35l-1.51-.12c-2.12-.18-.45-.06,1.51.12a24.37,24.37,0,0,0,5.79-.12c.82-.25,1-4.86,1-4.86s-.92-1-3.72-1.33-2.91-.41-.1-.16,3-.17,3.1-.48c.65-1.77-1.27-3.68-2.88-3.93s-47.79-2.69-62.5-3.75c-17.82-1.88-90.4-7.23-105.5-8.55s-23.72,1.47-23.72,1.47l1.71.79a54.63,54.63,0,0,0,6.61.58Z"/><path class="6501a458-144f-48d3-a3cd-b689a96b47e9" d="M721.56,18.9c-1.78-.07-3.54-.21-5.32-.29-5.12-.24-39.92-3.3-45-3.6-3.21-.19-6.39-.4-9.58-.63-17.83-1.87-90.41-7.23-105.5-8.54s-19.37-.3-19.37-.3L535,8.39s1.88.17,5.73.29A65.12,65.12,0,0,1,550.22,10,34.78,34.78,0,0,1,543,9.83c-4.68-.51-7.22-.84-9.08-.46-2.62,2.55-5.13,9.41-5.08,10.59a141,141,0,0,1,19.28,1.9c1.81.28,4,.45,5.79.58,2.81.21,4.75.35,3,.72-2.9.61-25.27-2.1-26.69-2.22s-3.16,2-3.31,2.39.53,1.22,2.73,1.2,7.94.27,15,1c61.73,8.28,181.69,14,181.69,14s.15-.78.33-1.89a2.47,2.47,0,0,1,0-.38c.09-.6.17-1.25.27-1.92.11-.92.21-1.86.28-2.67a9.41,9.41,0,0,0,0-1.81c0-.29-.12-.47-.24-.48-.93-.09-9.63-.95-11-1.18s-.05-.54,3.48-.23a29.26,29.26,0,0,0,7.31,0c.48-.14.95-1.61,1.27-2.84.24-.93.37-1.65.37-1.65s-.69-.78-3.48-1.13-3.79-1-1-.73,2.8.1,3.22-.15.26-.55.31-.83c0,0,.08-2.38-.81-2.45s-5.09-.21-5.09-.21Z"/><path class="025b4dbc-7b41-4655-ba3c-9cff39a07b61" d="M726.57,23.51l-.5-.05h0l.15,0,.3,0Z"/><path class="025b4dbc-7b41-4655-ba3c-9cff39a07b61" d="M726.61,23.53h0s0,0,0,0Z"/><path class="025b4dbc-7b41-4655-ba3c-9cff39a07b61" d="M727.86,26.58h.45l-.45,0v0Z"/><path class="025b4dbc-7b41-4655-ba3c-9cff39a07b61" d="M726.8,36.19l.19,0-.19,0Z"/><path class="023800e3-6a00-4f28-8c92-22147d258cd0" d="M533.46,10s20.6,1.58,24.49,1.6c3.65,0,56.88,3.85,68.61,4.88.78.06,1.4.13,1.88.18,2.41.27,6.23.64,10.49,1,9.5.83,21.13,1.72,23.77,1.87,3.66.22,58.68,3.58,63.44,4h-.07c-.86-.09-2.69-.29-5.12-.49-4-.36-9.74-.76-15.6-.87-7.81-.14-46.75-3.26-55.2-4-3.31-.29-6.5-.63-9.44-1-1-.13-2.36-.28-4.14-.43-17.84-1.56-83.09-5.67-88.46-6.13C542.22,10,533.46,10,533.46,10Z"/><path class="023800e3-6a00-4f28-8c92-22147d258cd0" d="M727.41,20.69h0ZM564.27,8.9s16.57,1.28,19.7,1.3c2.94,0,47.71,3.42,57.15,4.23l1.52.16c1.92.22,5,.51,8.45.8,7.63.67,17,1.39,19.1,1.51,3,.18,53.37,3.45,56.93,3.76l.25,0c-.29,0-2-.23-4.52-.45-3.24-.28-7.84-.6-12.54-.7-6.3-.12-43.41-3.17-50.22-3.76-2.66-.23-5.23-.51-7.6-.84-.76-.1-1.9-.22-3.33-.34-14.34-1.25-68.78-4.87-73.1-5.25-4.75-.42-11.79-.44-11.79-.44Z"/><path class="023800e3-6a00-4f28-8c92-22147d258cd0" d="M529.94,16.21c.63,0,13.6.2,17.9.37,4.56.19,54.41,2.48,60.15,2.77s42.63,1.9,47.63,2.23c3.86.25,57.24,4.2,67.71,4.74-11.6-.8-74.92-5.83-87.26-6.56-15-.88-52.79-2.87-61.44-3.2s-43.69-.38-44.67-.36h0Z"/><path class="023800e3-6a00-4f28-8c92-22147d258cd0" d="M652.15,35.1c-3.5-1.06-53.25-7-61.51-7.71s-47.61-3.62-52.09-4a35.54,35.54,0,0,0-8.29,0c.83-.25,41.94,3.12,59.93,4.58.77.07,11.55,1.63,12.4,1.71,18.43,1.61,49.56,5.4,49.56,5.4Z"/><path class="023800e3-6a00-4f28-8c92-22147d258cd0" d="M528.83,20h0s1.5-.08,2.75-.19c0,0,38.5.58,48.22,1.31s35.34,2,39,2.11c.25,0,.32,0,.26,0-.85-.07-39.44-2.76-45.6-3.29-6.34-.56-40.78-1.58-44.32-1.26a5.8,5.8,0,0,0-.27,1.33Z"/><path class="023800e3-6a00-4f28-8c92-22147d258cd0" d="M703.9,34.24c10.3.9,21.34,1.82,22.9,1.95h0c-2.77-.28-64.86-6.34-68.25-6.63S621.62,26,621.62,26s21.94-1.4,25.67-1.61,59,3.05,62.41,3.13,17.88-.27,17.88-.27-11.79-.38-18.83-.46-51.19-3.87-63.7-2.92-29.17,1.85-29.17,1.85,33.32,3.44,43.9,4.47c3.53.34,38.57,3.56,44.12,4.05Z"/><path class="023800e3-6a00-4f28-8c92-22147d258cd0" d="M712.39,29.31c2.4-.06,3.55-.18,3.55-.18l-3.55.18Zm14.09,4.28h0s-14.87-1.94-19.83-2.37-47.39-4.29-43.33-4c2.94.17,43.4,2.42,49.07,2.13-1,0-2.18.05-3.61.06-4.86,0-60.75-3-55.13-2.4s72.37,6.58,72.83,6.62Z"/><path class="a54ba82a-640b-445e-b959-647365131565" d="M720,36.59c-5.12.49-126.63-7.45-142.31-9.15s-25.92-2.53-16.21-3.21-17.17-3.41-27.29-4.55a49,49,0,0,1-5.15-.79,4.49,4.49,0,0,0-.2,1.07,141,141,0,0,1,19.28,1.9c1.81.28,4,.45,5.79.58,2.81.21,4.75.35,3,.72-2.9.61-25.27-2.1-26.69-2.22s-3.16,2-3.31,2.39.53,1.22,2.73,1.2,7.94.27,15,1c61.73,8.28,181.69,14,181.69,14s.15-.78.33-1.89a2.47,2.47,0,0,1,0-.38c.09-.6.17-1.25.27-1.92,0-.07,0-.14,0-.21C725.46,36.3,723.64,36.24,720,36.59Z"/><path class="92f50204-9a3a-4925-beee-ea472979d406" d="M539.09,10.73c10,.35,44.12,2.86,33.88.92s28.7.39,52.12,2.38,81.15,7.29,71.54,7.08-3.19.31,8.92,1.62S723,25.25,726.42,26.2c.55.15,1,.27,1.44.36,0-.17.1-.34.14-.51.24-.93.37-1.65.37-1.65s-.69-.78-3.48-1.13-3.79-1-1-.73,2.8.1,3.22-.15.26-.55.31-.83c0,0,.08-2.38-.81-2.45s-5.09-.21-5.09-.21c-1.78-.07-3.54-.21-5.32-.29-5.12-.24-39.92-3.3-45-3.6-3.21-.19-6.39-.4-9.58-.63-17.83-1.87-90.41-7.23-105.5-8.54s-19.37-.3-19.37-.3L535,8.39s1.88.17,5.73.29A65.12,65.12,0,0,1,550.22,10,34.78,34.78,0,0,1,543,9.83c-4.68-.51-7.22-.84-9.08-.46a13,13,0,0,0-2,2.69A13.63,13.63,0,0,1,539.09,10.73Z"/><path class="e4e4285b-88bd-4f48-aedf-d5e35c99308c" d="M719,28.86c-1-.91-2.53-1.57-5.24-1.72-5.46-.29-10.86.3-16.27.63-1.36.08-4.5.52-5.83.18a3.76,3.76,0,0,1-1.09-.34c-1.15-.85-1.77-.31-3.1-.1-1.85.28-4.43-.5-6.57-.27a54.28,54.28,0,0,0-7.3,1.13c-4.42,1.11-2.48,5.19-1.35,8.09,23,1.42,41.52,2.38,49.64,2.79a24.69,24.69,0,0,0-1.18-7.38,8.59,8.59,0,0,0-1.1-2.31c-1.69-.18-3.14-.35-3.63-.43C714.63,28.92,715.79,28.63,719,28.86Z"/><path class="805e3032-970c-48be-ae84-3f978491bc1c" d="M46,23.76c-2.76.9-26.71.23-28.21.23s-5.64,1.84-5.64,2.29,4,3.61,6.3,3.38,8.24-.48,15.72-.4c66.34,2.72,228-2.22,228-2.22l-3.06-2.64L58.1,13.54,45,23.28c1.49,0,2.13.1,1,.48Z"/><path class="2e21518a-a870-484e-89b7-45cf0700ea25" d="M16,23.11a150.43,150.43,0,0,1,20.46.14c2,.11,4.24.08,6.16.05.89,0,1.71,0,2.36,0l13.1-9.74-29-2.3c-.65,0-1.35,0-2.11,0-5-.08-12.1,10.25-13.85,10.81-.29.67,1.12.5,2.92,1.06Z"/><path class="2e21518a-a870-484e-89b7-45cf0700ea25" d="M251.37,14.85l1.6,0C250.88,14.82,249.12,14.86,251.37,14.85Z"/><path class="2e21518a-a870-484e-89b7-45cf0700ea25" d="M24.23,10.26a72.75,72.75,0,0,1,10.21.51,29,29,0,0,1-5.38.47l230,13.16L262.13,27s-1.72-11.2-2.53-11.45a9.69,9.69,0,0,0-3.11-.73c-.6,0-2.14,0-3.52,0l-1.6,0c-2.25,0-.49,0,1.6,0a23.32,23.32,0,0,0,5.9-.68c.77-.33-.68-5.13-.68-5.13a8.35,8.35,0,0,0-4.29-1c-3-.1-3.15-.15-.16-.16s3-.47,3-.8c0-1.89-2.61-3.7-4.37-3.8s-50,1.75-65.5,2C167.92,5,55,5.77,39,5.84S15.19,9.63,15.19,9.63l2,.66a59.63,59.63,0,0,0,7,0Z"/><path class="6501a458-144f-48d3-a3cd-b689a96b47e9" d="M246.91,3.49c-1.86.09-3.73.12-5.58.2-5.34.24-42.16.37-47.5.55-3.35.11-6.7.2-10.06.25-19-.25-131.88.52-147.85.59s-20,1.53-20,1.53l-.79,3.13s2,0,6-.25A73.12,73.12,0,0,1,31.35,10a34.86,34.86,0,0,1-7.5.48c-5-.09-7.73-.19-9.49.37-1.8,2.91-1.93,10.27-1.45,11.49a152.07,152.07,0,0,1,20.46.14c2,.12,4.25.09,6.16.06,3-.05,5-.1,3.32.45-2.76.91-26.72.23-28.21.24S12.11,25.58,12.1,26s1,1.23,3.22,1,8.25-.47,15.73-.4c66.34,2.72,228-2.21,228-2.21s-.14-.83-.36-2a2.83,2.83,0,0,0-.08-.4c-.12-.62-.25-1.31-.4-2-.21-1-.44-1.95-.67-2.8a12.89,12.89,0,0,0-.64-1.88c-.15-.3-.3-.47-.43-.47-1,0-10.23-.07-11.73-.18s-.23-.55,3.5-.57a29.77,29.77,0,0,0,7.51-.7c.42-.2.39-1.76.28-3.08-.07-1-.2-1.74-.2-1.74s-1-.75-4-.85-4.23-.65-1.24-.67,2.92-.15,3.26-.45.07-.6,0-.9c0,0-.76-2.47-1.7-2.47s-5.29.27-5.29.27Z"/><path class="025b4dbc-7b41-4655-ba3c-9cff39a07b61" d="M253.68,7.82l-.54,0h.54Z"/><path class="025b4dbc-7b41-4655-ba3c-9cff39a07b61" d="M253.74,7.82Z"/><path class="025b4dbc-7b41-4655-ba3c-9cff39a07b61" d="M256.1,10.86l.46,0-.47,0s0,0,0,0Z"/><path class="025b4dbc-7b41-4655-ba3c-9cff39a07b61" d="M258.43,20.94h0Z"/><path class="023800e3-6a00-4f28-8c92-22147d258cd0" d="M14.1,11.52s21.71-.31,25.72-.66c3.74-.33,96.24-.83,108.65-.88h2c2.55.06,6.62.07,11.13,0,10,0,22.3-.23,25.07-.32,3.83-.12,61.53-1.86,66.56-1.91h-.1c-.9,0-2.84,0-5.42,0-4.26,0-10.27.14-16.33.58-8.07.6-49.16,1.06-58.1,1.1-3.51,0-6.9,0-10.06-.18-1,0-2.53-.07-4.41-.06C139.94,9.29,35,10.65,29.33,10.68c-6.24,0-15.23.84-15.23.84Z"/><path class="023800e3-6a00-4f28-8c92-22147d258cd0" d="M253.55,4.78h0ZM45.36,7.49S62.83,7.23,66.06,7c3-.27,86.67-.41,96.65-.46h1.61c2.05,0,5.33.06,9,0,8.07,0,17.93-.18,20.15-.25,3.12-.1,56-1.5,59.81-1.51h.24c-.29,0-2.11,0-4.78,0-3.44,0-8.27.12-13.14.46-6.49.48-45.71.84-52.9.88-2.82,0-5.56,0-8.1-.15-.82,0-2-.05-3.54-.05-15.19.07-108.84.91-113.4.93-5,0-12.27.67-12.27.67Z"/><path class="023800e3-6a00-4f28-8c92-22147d258cd0" d="M12.71,18.34c.65,0,14-1.09,18.51-1.32,4.75-.24,93.22-2,99.22-2.26s44.45-2.08,49.7-2.22c4.07-.1,60.28-1.07,71.22-1.52-12.18.28-79,1.08-91.94,1.5C143.69,13,67.71,14,58.72,14.46s-45,3.75-46,3.87h0Z"/><path class="023800e3-6a00-4f28-8c92-22147d258cd0" d="M181.39,26.91c-4-.76-93.64-2.77-102.38-2.74S28.83,25,24.09,25s-8.74.71-8.49.82c.75-.34,44.18-.75,63.16-.94.82,0,48.91,1.17,49.81,1.17,19.49-.08,52.82.89,52.82.89Z"/><path class="023800e3-6a00-4f28-8c92-22147d258cd0" d="M12.91,22.34h0s1.5-.23,2.75-.45c0,0,39.74-3.08,50-3.23s73.48-.71,77.24-.94l.26,0L58.65,18c-6.7,0-42.43,2.24-45.94,2.91a5.05,5.05,0,0,0,.2,1.41Z"/><path class="023800e3-6a00-4f28-8c92-22147d258cd0" d="M234.22,21.1c10.9-.05,22.56-.14,24.21-.16h0c-2.94,0-68.85-.42-72.44-.4-3.75,0-39.19-.16-39.19-.16s22-3.56,25.78-4.13,61.71-2.45,65.22-2.69,18.25-2,18.25-2-12.25.72-19.5,1.31-53.94.85-66.45,3-29.29,4.7-29.29,4.7,35.43.4,46.67.46c3.73,0,40.86,0,46.74,0Z"/><path class="023800e3-6a00-4f28-8c92-22147d258cd0" d="M241.19,15.18c2.44-.3,3.57-.53,3.57-.53l-3.57.53Zm16,3.09h0s-16-.59-21.21-.57-50.19.05-45.94-.07c3.09-.1,45.45-1.61,51.16-2.45-1,.12-2.22.26-3.68.39-5,.47-63.46,2.68-57.47,2.76s76.65,0,77.13-.06Z"/><path class="948c7cde-bb3a-4fb7-a035-9c03d2d71b60" d="M702.3,24.37c-.95-1.31.63-12.74.68-13.46S701,8.24,700.52,8.24s-4.32,2-4.13,3a34.57,34.57,0,0,1-.06,7.5c-5.38,31.7-3.19,91.38-3.19,91.38l3.17-1.5L713.73,30l-10.84-6.13c-.06.71-.19,1-.59.46Z"/><path class="2e21518a-a870-484e-89b7-45cf0700ea25" d="M704.06,10.07a30.63,30.63,0,0,1-.84,9.77,16.52,16.52,0,0,0-.28,2.94c0,.43,0,.81-.05,1.13L713.73,30l3.63-13.89c0-.3,0-.64.07-1,.27-2.39-11.45-5.65-12-6.48-.76-.13-.6.54-1.32,1.4Z"/><path class="2e21518a-a870-484e-89b7-45cf0700ea25" d="M707.64,104.89a6.49,6.49,0,0,0,0,.76C707.67,104.65,707.7,103.82,707.64,104.89Z"/><path class="2e21518a-a870-484e-89b7-45cf0700ea25" d="M718.67,13.83a15.42,15.42,0,0,1-.94,4.89,6.14,6.14,0,0,1-.37-2.57l-21.05,92.52-3.17,1.5s13-1,13.36-1.35c.61-.73.77-.78.94-1.49a15.64,15.64,0,0,0,.18-1.68,6.49,6.49,0,0,1,0-.76c.06-1.07,0-.24,0,.76a5,5,0,0,0,.58,2.81c.36.35,6-.4,6-.4a3,3,0,0,0,1.34-2c.21-1.44.27-1.51.19-.08s.43,1.43.82,1.43c2.19,0,4.37-1.3,4.54-2.13s-.36-23.86-.17-31.24c.93-9,1.94-45.52,2.39-53.15S719.7,9.51,719.7,9.51l-.83,1a12.06,12.06,0,0,0-.2,3.33Z"/><path class="6501a458-144f-48d3-a3cd-b689a96b47e9" d="M720.93,102.62c0-.89,0-1.78,0-2.66-.09-2.55,1-20.12,1-22.67,0-1.59,0-3.19,0-4.8.93-9,1.94-45.52,2.39-53.14s-1.1-9.52-1.1-9.52l-3.59-.35a23.63,23.63,0,0,0,.08,2.86,15.13,15.13,0,0,1-.94,4.89,7,7,0,0,1-.29-3.57c.26-2.39.47-3.7-.12-4.53-3.31-.82-11.83-.79-13.26-.55a30.37,30.37,0,0,1-.84,9.77,16.43,16.43,0,0,0-.28,2.94c0,1.41-.06,2.39-.64,1.59-1-1.31.64-12.75.68-13.46s-2.64-1.18-3.16-1.18a1.29,1.29,0,0,0-1.25,1.55,34.57,34.57,0,0,1-.06,7.5c-5.38,31.7-3.19,91.38-3.19,91.38l2.33-.19.47,0,2.34-.22c1.13-.11,2.28-.23,3.27-.35s1.7-.23,2.2-.33.57-.15.57-.21c0-.48.42-4.88.59-5.6s.66-.12.54,1.66.2,3.22.57,3.57a12.51,12.51,0,0,0,3.54.11l2-.12a2.55,2.55,0,0,0,1.11-1.91c.22-1.44.9-2,.82-.6s.08,1.39.41,1.54a2.42,2.42,0,0,0,1,0s2.9-.4,2.92-.84-.14-2.52-.14-2.52Z"/><path class="025b4dbc-7b41-4655-ba3c-9cff39a07b61" d="M715.7,105.9a2.1,2.1,0,0,0,0-.25.06.06,0,0,1,0,0v.06a.61.61,0,0,1,0,.15Z"/><path class="025b4dbc-7b41-4655-ba3c-9cff39a07b61" d="M715.7,105.93h0v0Z"/><path class="025b4dbc-7b41-4655-ba3c-9cff39a07b61" d="M712.09,107.09l0,.22v-.22Z"/><path class="025b4dbc-7b41-4655-ba3c-9cff39a07b61" d="M700.34,108.33a.62.62,0,0,0,0,.09v-.09Z"/><path class="023800e3-6a00-4f28-8c92-22147d258cd0" d="M717.54,9s-.36,10.37-.09,12.27-.38,28.51-.73,34.43c0,.4-.05.72-.08,1-.16,1.22-.3,3.16-.43,5.31-.29,4.8-.49,10.65-.47,12,0,1.83.09,29.34,0,31.74a.06.06,0,0,0,0,0c.06-.44.15-1.36.22-2.59a46.2,46.2,0,0,0-.13-7.79c-.42-3.85.43-23.45.68-27.72a44.45,44.45,0,0,1,.54-4.81,17.42,17.42,0,0,0,.22-2.1c.54-9,.59-41.65.75-44.36A44.42,44.42,0,0,0,717.54,9Z"/><path class="023800e3-6a00-4f28-8c92-22147d258cd0" d="M719.21,105.8v0Zm1.95-81.91s-.28,8.33-.08,9.87-.53,24-.81,28.71c0,.31,0,.57-.07.77-.13,1-.24,2.54-.34,4.27-.23,3.86-.4,8.57-.39,9.62,0,1.49-.14,26.73-.25,28.53,0,0,0,.08,0,.12,0-.15.13-1,.2-2.29a38.46,38.46,0,0,0-.1-6.27c-.33-3.09.57-21.8.77-25.23a35.16,35.16,0,0,1,.44-3.87,15,15,0,0,0,.17-1.69c.44-7.24.71-34.52.84-36.7a35.67,35.67,0,0,0-.37-5.84Z"/><path class="023800e3-6a00-4f28-8c92-22147d258cd0" d="M709.69,8.44c0,.31.79,6.68.9,8.82s1.11,27.05,1.2,29.9.92,21.2.9,23.7c0,1.94-.77,28.76-.62,34,.08-5.81,1.4-37.69,1.34-43.86-.07-7.5-.5-26.34-.76-30.62S709.8,8.92,709.7,8.45h0Z"/><path class="023800e3-6a00-4f28-8c92-22147d258cd0" d="M696,71.63c1-1.91,4.46-27.31,4.71-31.48s.79-23.93.92-26.2-.52-4.16-.66-4c.36.35-.62,21.08-1,30.13,0,.39-1.1,6-1.13,6.37-.56,9.31-2.81,25.22-2.81,25.22Z"/><path class="023800e3-6a00-4f28-8c92-22147d258cd0" d="M705.05,8.58h0s.21.72.44,1.31c0,0,2.22,18.93,2,23.81s.26,17.65.41,19.43c0,.12,0,.16,0,.13,0-.43.36-19.78.55-22.9s-1.17-20.22-1.83-21.89a13.84,13.84,0,0,0-1.64.11Z"/><path class="023800e3-6a00-4f28-8c92-22147d258cd0" d="M701,96.78c-.31,5.2-.6,10.76-.63,11.55h0c.13-1.4,2.79-32.87,2.89-34.58s1.5-18.7,1.5-18.7,3.38,10.47,3.92,12.25.76,29.42.92,31.09,1.68,8.68,1.68,8.68-.43-5.83-.87-9.28.82-25.74-1.27-31.68-4.46-13.92-4.46-13.92S703,69.11,702.54,74.47c-.15,1.78-1.4,19.5-1.57,22.31Z"/><path class="023800e3-6a00-4f28-8c92-22147d258cd0" d="M707.59,100a10.93,10.93,0,0,0,.49,1.7s-.2-.68-.49-1.7Zm-4.12,7.67h0s1.23-7.63,1.38-10.13,1.62-23.95,1.62-21.93c0,1.48.35,21.67,1.12,24.39-.11-.48-.22-1.06-.33-1.75-.37-2.38-1-30.26-1.28-27.4s-2.49,36.59-2.51,36.82Z"/><path class="36742d97-31d6-43f2-9820-34e2af1f94bf" d="M24.5,156.28c-.08,2-2.13,3.52-4.61,3.47s-4.41-1.7-4.33-3.67,2.14-3.53,4.61-3.48S24.58,154.31,24.5,156.28Z"/><path class="e27fa91c-e514-4777-b6fc-3ebfe47c4aa8" d="M23.32,157.49a3.73,3.73,0,0,1-4.55,1.95,3.07,3.07,0,0,1-2.29-3.95A3.74,3.74,0,0,1,21,153.55,3,3,0,0,1,23.32,157.49Z"/><path class="7ed37c49-99a5-42bd-8078-9fa4e0d3e296" d="M22.72,157.41a3.73,3.73,0,0,1-4.55,2,3.06,3.06,0,0,1-2.28-4,3.71,3.71,0,0,1,4.54-1.94A3,3,0,0,1,22.72,157.41Z"/><path class="c13771a6-0fb5-4bab-9430-b0b6865bb428" d="M22.14,157.24a3.1,3.1,0,0,1-3.78,1.61,2.54,2.54,0,0,1-1.89-3.27A3.09,3.09,0,0,1,20.24,154,2.55,2.55,0,0,1,22.14,157.24Z"/><polygon class="805cab16-0eb6-407f-95ea-19520261818d" points="17.16 158.89 21.47 154.02 21.18 153.84 16.88 158.68 17.16 158.89"/><path class="36742d97-31d6-43f2-9820-34e2af1f94bf" d="M205.83,164c-.08,2-2.14,3.53-4.61,3.47s-4.41-1.69-4.33-3.66,2.14-3.53,4.61-3.48S205.91,162,205.83,164Z"/><path class="e27fa91c-e514-4777-b6fc-3ebfe47c4aa8" d="M204.65,165.23a3.73,3.73,0,0,1-4.55,1.94,3.06,3.06,0,0,1-2.29-3.94,3.73,3.73,0,0,1,4.55-1.95A3.06,3.06,0,0,1,204.65,165.23Z"/><path class="7ed37c49-99a5-42bd-8078-9fa4e0d3e296" d="M204.05,165.14a3.72,3.72,0,0,1-4.55,2,3,3,0,0,1-2.28-3.94,3.73,3.73,0,0,1,4.54-2A3,3,0,0,1,204.05,165.14Z"/><path class="c13771a6-0fb5-4bab-9430-b0b6865bb428" d="M203.47,165a3.1,3.1,0,0,1-3.78,1.62,2.54,2.54,0,0,1-1.89-3.27,3.1,3.1,0,0,1,3.77-1.62A2.55,2.55,0,0,1,203.47,165Z"/><polygon class="805cab16-0eb6-407f-95ea-19520261818d" points="198.48 166.63 202.8 161.76 202.5 161.58 198.21 166.41 198.48 166.63"/><path class="36742d97-31d6-43f2-9820-34e2af1f94bf" d="M509.31,169.43c-.08,2-2.13,3.52-4.61,3.47s-4.4-1.7-4.33-3.67,2.15-3.53,4.62-3.47S509.39,167.46,509.31,169.43Z"/><path class="e27fa91c-e514-4777-b6fc-3ebfe47c4aa8" d="M508.14,170.64a3.74,3.74,0,0,1-4.56,2,3.06,3.06,0,0,1-2.28-4,3.73,3.73,0,0,1,4.55-1.94A3.06,3.06,0,0,1,508.14,170.64Z"/><path class="7ed37c49-99a5-42bd-8078-9fa4e0d3e296" d="M507.53,170.56a3.72,3.72,0,0,1-4.54,1.95,3.06,3.06,0,0,1-2.29-3.95,3.72,3.72,0,0,1,4.55-1.94A3,3,0,0,1,507.53,170.56Z"/><path class="c13771a6-0fb5-4bab-9430-b0b6865bb428" d="M507,170.39a3.1,3.1,0,0,1-3.78,1.61,2.53,2.53,0,0,1-1.88-3.27,3.08,3.08,0,0,1,3.76-1.61A2.54,2.54,0,0,1,507,170.39Z"/><polygon class="805cab16-0eb6-407f-95ea-19520261818d" points="501.97 172.04 506.28 167.17 505.99 166.99 501.7 171.83 501.97 172.04"/><path class="36742d97-31d6-43f2-9820-34e2af1f94bf" d="M693.58,163.24c-.08,2-2.14,3.53-4.61,3.47s-4.41-1.7-4.33-3.67,2.14-3.53,4.61-3.47S693.65,161.27,693.58,163.24Z"/><path class="e27fa91c-e514-4777-b6fc-3ebfe47c4aa8" d="M692.4,164.45a3.73,3.73,0,0,1-4.55,2,3.07,3.07,0,0,1-2.29-4,3.74,3.74,0,0,1,4.55-1.94A3.06,3.06,0,0,1,692.4,164.45Z"/><path class="7ed37c49-99a5-42bd-8078-9fa4e0d3e296" d="M691.79,164.37a3.72,3.72,0,0,1-4.54,1.95,3.05,3.05,0,0,1-2.29-3.94,3.73,3.73,0,0,1,4.55-1.95A3,3,0,0,1,691.79,164.37Z"/><path class="c13771a6-0fb5-4bab-9430-b0b6865bb428" d="M691.21,164.2a3.08,3.08,0,0,1-3.77,1.61,2.53,2.53,0,0,1-1.89-3.27,3.09,3.09,0,0,1,3.76-1.61A2.53,2.53,0,0,1,691.21,164.2Z"/><polygon class="805cab16-0eb6-407f-95ea-19520261818d" points="686.23 165.85 690.54 160.98 690.25 160.8 685.96 165.64 686.23 165.85"/><path class="36742d97-31d6-43f2-9820-34e2af1f94bf" d="M712,29.41c-.08,2-2.14,3.53-4.61,3.47s-4.41-1.69-4.33-3.66,2.14-3.53,4.61-3.48S712.08,27.44,712,29.41Z"/><path class="e27fa91c-e514-4777-b6fc-3ebfe47c4aa8" d="M710.82,30.63a3.73,3.73,0,0,1-4.55,1.94A3.06,3.06,0,0,1,704,28.63a3.73,3.73,0,0,1,4.55-1.95A3.06,3.06,0,0,1,710.82,30.63Z"/><path class="7ed37c49-99a5-42bd-8078-9fa4e0d3e296" d="M710.22,30.54a3.72,3.72,0,0,1-4.55,2,3,3,0,0,1-2.28-3.94,3.73,3.73,0,0,1,4.54-1.95A3,3,0,0,1,710.22,30.54Z"/><path class="c13771a6-0fb5-4bab-9430-b0b6865bb428" d="M709.64,30.37A3.1,3.1,0,0,1,705.86,32,2.54,2.54,0,0,1,704,28.72a3.1,3.1,0,0,1,3.77-1.62A2.55,2.55,0,0,1,709.64,30.37Z"/><polygon class="805cab16-0eb6-407f-95ea-19520261818d" points="704.65 32.03 708.97 27.16 708.67 26.98 704.38 31.81 704.65 32.03"/><path class="36742d97-31d6-43f2-9820-34e2af1f94bf" d="M549.09,17.81c-.07,2-2.13,3.53-4.61,3.47s-4.4-1.7-4.33-3.67,2.15-3.53,4.62-3.47S549.17,15.84,549.09,17.81Z"/><path class="e27fa91c-e514-4777-b6fc-3ebfe47c4aa8" d="M547.92,19A3.74,3.74,0,0,1,543.37,21,3.06,3.06,0,0,1,541.08,17a3.74,3.74,0,0,1,4.55-1.94A3.06,3.06,0,0,1,547.92,19Z"/><path class="7ed37c49-99a5-42bd-8078-9fa4e0d3e296" d="M547.31,18.94a3.72,3.72,0,0,1-4.54,1.95A3,3,0,0,1,540.48,17,3.73,3.73,0,0,1,545,15,3,3,0,0,1,547.31,18.94Z"/><path class="c13771a6-0fb5-4bab-9430-b0b6865bb428" d="M546.73,18.77A3.09,3.09,0,0,1,543,20.38a2.53,2.53,0,0,1-1.88-3.27,3.09,3.09,0,0,1,3.76-1.61A2.54,2.54,0,0,1,546.73,18.77Z"/><polygon class="805cab16-0eb6-407f-95ea-19520261818d" points="541.75 20.43 546.06 15.55 545.77 15.38 541.48 20.21 541.75 20.43"/><path class="36742d97-31d6-43f2-9820-34e2af1f94bf" d="M247.52,17c-.07,2-2.13,3.52-4.6,3.47s-4.41-1.7-4.33-3.67,2.14-3.53,4.61-3.48S247.6,15.07,247.52,17Z"/><path class="e27fa91c-e514-4777-b6fc-3ebfe47c4aa8" d="M246.35,18.25a3.72,3.72,0,0,1-4.55,1.94,3.06,3.06,0,0,1-2.29-3.94,3.73,3.73,0,0,1,4.55-1.94A3.06,3.06,0,0,1,246.35,18.25Z"/><path class="7ed37c49-99a5-42bd-8078-9fa4e0d3e296" d="M245.74,18.16a3.71,3.71,0,0,1-4.54,2,3.06,3.06,0,0,1-2.29-3.95,3.72,3.72,0,0,1,4.55-1.94A3,3,0,0,1,245.74,18.16Z"/><path class="c13771a6-0fb5-4bab-9430-b0b6865bb428" d="M245.16,18a3.09,3.09,0,0,1-3.77,1.61,2.53,2.53,0,0,1-1.89-3.27,3.07,3.07,0,0,1,3.76-1.61A2.54,2.54,0,0,1,245.16,18Z"/><polygon class="805cab16-0eb6-407f-95ea-19520261818d" points="240.18 19.65 244.49 14.78 244.2 14.6 239.91 19.43 240.18 19.65"/><path class="36742d97-31d6-43f2-9820-34e2af1f94bf" d="M39,14.72c-.07,2-2.13,3.52-4.6,3.47s-4.41-1.7-4.33-3.67S32.25,11,34.72,11,39.12,12.75,39,14.72Z"/><path class="e27fa91c-e514-4777-b6fc-3ebfe47c4aa8" d="M37.87,15.93a3.73,3.73,0,0,1-4.55,1.94A3.06,3.06,0,0,1,31,13.93,3.72,3.72,0,0,1,35.58,12,3.06,3.06,0,0,1,37.87,15.93Z"/><path class="7ed37c49-99a5-42bd-8078-9fa4e0d3e296" d="M37.26,15.84a3.71,3.71,0,0,1-4.54,1.95,3,3,0,0,1-2.29-3.94A3.72,3.72,0,0,1,35,11.91,3,3,0,0,1,37.26,15.84Z"/><path class="c13771a6-0fb5-4bab-9430-b0b6865bb428" d="M36.68,15.68a3.09,3.09,0,0,1-3.77,1.61A2.53,2.53,0,0,1,31,14a3.08,3.08,0,0,1,3.76-1.62A2.55,2.55,0,0,1,36.68,15.68Z"/><polygon class="805cab16-0eb6-407f-95ea-19520261818d" points="31.7 17.33 36.01 12.46 35.72 12.28 31.43 17.11 31.7 17.33"/></g></g></g></svg>