<svg xmlns="http://www.w3.org/2000/svg" xmlns:xlink="http://www.w3.org/1999/xlink" viewBox="0 0 236.58 201.28"><defs><style>.cls-1{fill:none;}.cls-2{isolation:isolate;}.cls-3{clip-path:url(#clip-path);}.cls-4,.cls-5{fill:#21bfe7;}.cls-5{opacity:0.7;}.cls-5,.cls-9{mix-blend-mode:multiply;}.cls-6{fill:#87defd;}.cls-10,.cls-7{fill:#fff;}.cls-8,.cls-9{fill:#00dce8;}.cls-10{opacity:0.5;}</style><clipPath id="clip-path" transform="translate(0 -71.17)"><polygon class="cls-1" points="253.97 281.18 23.41 282.54 20.43 1.36 250.99 0 253.97 281.18"/></clipPath></defs><title>bubble_group</title><g class="cls-2"><g id="Layer_2" data-name="Layer 2"><g id="Layer_1-2" data-name="Layer 1"><g class="cls-3"><path class="cls-4" d="M236.58,182.9c.1,9.29-9.41,16.88-21.22,16.95s-21.48-7.41-21.58-16.69,9.4-16.88,21.22-16.95S236.48,173.62,236.58,182.9Z" transform="translate(0 -71.17)"/><path class="cls-5" d="M215,166.21c-11.82.07-21.32,7.66-21.22,16.95s9.76,16.76,21.58,16.69,21.32-7.66,21.22-16.95S226.81,166.14,215,166.21Zm1.1,29.9c-10.35.06-18.8-6.48-18.89-14.61s8.23-14.78,18.57-14.84,18.81,6.48,18.9,14.61S226.45,196.05,216.1,196.11Z" transform="translate(0 -71.17)"/><path class="cls-6" d="M196.69,179.35c1.77-5.41,7.49-10.09,14.7-10.65,6.15-.47,7.36,7.2,1.53,8.36-6.87,1.36-9.5,8.37-9.1,13.36.09,1.08-1.47,1.6-2.56,1.17C195.6,189.4,195.29,183.59,196.69,179.35Z" transform="translate(0 -71.17)"/><path class="cls-6" d="M223.29,170.56a4.27,4.27,0,0,1,1.88.53c4.2,1,7.81,4.36,7,7.8a4.23,4.23,0,0,1-4.65,3.12c-4.82-.32-10.71-5.39-8.48-9.31A4.4,4.4,0,0,1,223.29,170.56Z" transform="translate(0 -71.17)"/><path class="cls-7" d="M223.53,169.32c5.18,0,5.25,6.28.07,6.31S218.36,169.36,223.53,169.32Z" transform="translate(0 -71.17)"/><path class="cls-8" d="M115.14,207.5c.11,10.28-10.41,18.67-23.48,18.75s-23.76-8.2-23.87-18.47S78.19,189.11,91.27,189,115,197.22,115.14,207.5Z" transform="translate(0 -71.17)"/><path class="cls-9" d="M91.27,189c-13.08.08-23.59,8.47-23.48,18.75s10.8,18.54,23.87,18.47,23.59-8.47,23.48-18.75S104.34,189,91.27,189Zm1.21,33.08c-11.45.07-20.81-7.17-20.9-16.17s9.11-16.35,20.55-16.42S112.94,196.7,113,205.7,103.93,222,92.48,222.11Z" transform="translate(0 -71.17)"/><path class="cls-10" d="M71,203.57c2-6,8.29-11.17,16.26-11.79,6.81-.51,8.15,8,1.69,9.25-7.59,1.51-10.49,9.27-10,14.79.09,1.19-1.63,1.77-2.84,1.3C69.8,214.68,69.46,208.26,71,203.57Z" transform="translate(0 -71.17)"/><path class="cls-10" d="M100.44,193.84a5,5,0,0,1,2.08.58c4.65,1.08,8.64,4.83,7.77,8.65a4.67,4.67,0,0,1-5.14,3.44c-5.33-.35-11.85-6-9.38-10.3A4.87,4.87,0,0,1,100.44,193.84Z" transform="translate(0 -71.17)"/><path class="cls-7" d="M100.71,192.47c5.73,0,5.8,6.95.07,7S95,192.51,100.71,192.47Z" transform="translate(0 -71.17)"/><ellipse class="cls-8" cx="17.84" cy="258.43" rx="14.02" ry="17.84" transform="translate(-240.62 204.65) rotate(-89.9)"/><path class="cls-9" d="M17.69,244.41C7.84,244.47-.08,250.79,0,258.54s8.14,14,18,13.91,17.77-6.38,17.69-14.12S27.54,244.35,17.69,244.41Zm.92,24.92c-8.63.05-15.68-5.4-15.75-12.18s6.86-12.31,15.49-12.36S34,250.19,34.1,257,27.23,269.28,18.61,269.33Z" transform="translate(0 -71.17)"/><path class="cls-10" d="M2.42,255.37c1.48-4.52,6.25-8.42,12.26-8.89,5.12-.38,6.13,6,1.27,7-5.73,1.13-7.91,7-7.58,11.13.07.9-1.22,1.34-2.13,1C1.52,263.74,1.26,258.9,2.42,255.37Z" transform="translate(0 -71.17)"/><path class="cls-10" d="M24.6,248a3.75,3.75,0,0,1,1.57.43c3.5.82,6.5,3.64,5.85,6.52a3.52,3.52,0,0,1-3.87,2.59c-4-.26-8.93-4.49-7.07-7.76A3.68,3.68,0,0,1,24.6,248Z" transform="translate(0 -71.17)"/><path class="cls-7" d="M24.8,247c4.32,0,4.38,5.23.05,5.26S20.49,247,24.8,247Z" transform="translate(0 -71.17)"/><path class="cls-4" d="M56.32,109c.12,11.55-11.7,21-26.4,21.08S3.21,120.9,3.08,109.34s11.7-21,26.4-21.07S56.19,97.48,56.32,109Z" transform="translate(0 -71.17)"/><path class="cls-5" d="M29.48,88.27c-14.7.09-26.52,9.52-26.4,21.07s12.14,20.86,26.84,20.77,26.52-9.53,26.4-21.08S44.18,88.18,29.48,88.27Zm1.36,37.19c-12.87.08-23.39-8.06-23.5-18.18S17.58,88.9,30.45,88.82,53.85,96.89,54,107,43.71,125.39,30.84,125.46Z" transform="translate(0 -71.17)"/><path class="cls-6" d="M6.69,104.61C8.89,97.88,16,92.06,25,91.36c7.65-.58,9.16,9,1.9,10.41-8.54,1.69-11.8,10.41-11.3,16.61.09,1.35-1.84,2-3.2,1.46C5.35,117.11,5,109.88,6.69,104.61Z" transform="translate(0 -71.17)"/><path class="cls-6" d="M39.78,93.68a5.54,5.54,0,0,1,2.36.65c5.22,1.21,9.7,5.43,8.72,9.72a5.25,5.25,0,0,1-5.77,3.87c-6-.4-13.33-6.71-10.56-11.59A5.51,5.51,0,0,1,39.78,93.68Z" transform="translate(0 -71.17)"/><path class="cls-7" d="M40.08,92.14c6.45,0,6.54,7.81.09,7.85S33.65,92.17,40.08,92.14Z" transform="translate(0 -71.17)"/><path class="cls-8" d="M66.79,173.1c.06,6.13-6.21,11.14-14,11.18s-14.18-4.89-14.25-11,6.21-11.14,14-11.19S66.72,167,66.79,173.1Z" transform="translate(0 -71.17)"/><path class="cls-9" d="M52.54,162.07c-7.8.05-14.07,5.06-14,11.19s6.45,11.07,14.25,11,14.07-5.05,14-11.18S60.35,162,52.54,162.07Zm.73,19.74c-6.83,0-12.42-4.28-12.47-9.64s5.43-9.76,12.26-9.8,12.42,4.28,12.48,9.65S60.11,181.77,53.27,181.81Z" transform="translate(0 -71.17)"/><path class="cls-10" d="M40.45,170.75c1.17-3.58,4.95-6.67,9.71-7,4.06-.32,4.86,4.75,1,5.52-4.53.89-6.27,5.52-6,8.82,0,.71-1,1.05-1.7.77C39.74,177.38,39.53,173.55,40.45,170.75Z" transform="translate(0 -71.17)"/><path class="cls-10" d="M58,164.94a3,3,0,0,1,1.25.35c2.77.65,5.16,2.88,4.64,5.16a2.78,2.78,0,0,1-3.07,2.05c-3.18-.21-7.07-3.55-5.6-6.15A2.92,2.92,0,0,1,58,164.94Z" transform="translate(0 -71.17)"/><path class="cls-7" d="M58.17,164.13c3.43,0,3.47,4.14,0,4.16S54.76,164.15,58.17,164.13Z" transform="translate(0 -71.17)"/><path class="cls-8" d="M141.46,79.15c0,4.44-4.49,8.06-10.14,8.09s-10.26-3.53-10.31-8,4.49-8.07,10.14-8.1S141.41,74.71,141.46,79.15Z" transform="translate(0 -71.17)"/><path class="cls-9" d="M131.15,71.17c-5.65,0-10.19,3.66-10.14,8.1s4.66,8,10.31,8,10.18-3.65,10.14-8.09S136.8,71.14,131.15,71.17Zm.53,14.29c-5,0-9-3.1-9-7s3.93-7.06,8.88-7.09,9,3.1,9,7S136.62,85.43,131.68,85.46Z" transform="translate(0 -71.17)"/><path class="cls-10" d="M122.4,77.45a8,8,0,0,1,7-5.09c2.93-.22,3.51,3.44.73,4-3.28.65-4.54,4-4.35,6.38,0,.51-.7.76-1.22.55C121.88,82.25,121.73,79.47,122.4,77.45Z" transform="translate(0 -71.17)"/><path class="cls-10" d="M135.11,73.25a2.08,2.08,0,0,1,.9.25c2,.47,3.73,2.09,3.36,3.73a2,2,0,0,1-2.22,1.49c-2.31-.15-5.12-2.57-4.06-4.45A2.1,2.1,0,0,1,135.11,73.25Z" transform="translate(0 -71.17)"/><path class="cls-7" d="M135.22,72.66c2.48,0,2.51,3,0,3S132.75,72.68,135.22,72.66Z" transform="translate(0 -71.17)"/></g></g></g></g></svg>