<svg xmlns="http://www.w3.org/2000/svg" viewBox="0 0 119.19 115.98"><defs><style>.cls-chat-1{fill:#3eb49e;}.cls-chat-2{fill:#ffd15f;}.cls-chat-3{fill:#dbd9dd;}.cls-chat-4{fill:#2d2d2d;opacity:0.11;}.cls-chat-5{fill:#343d50;}</style></defs><title>chat</title><g id="Layer_2" data-name="Layer 2"><g id="Layer_1-2" data-name="Layer 1"><ellipse class="cls-chat-1" cx="59.6" cy="57.99" rx="59.6" ry="57.99"/><path class="cls-chat-2" d="M101.77,49.1v1.27A19,19,0,0,1,82.43,69.19h-7l4.37,11.25L63.18,69.19H60.9a19.85,19.85,0,0,1-3.81-.36c-.58-.11-1.15-.25-1.71-.41A18.79,18.79,0,0,1,41.65,50.37V49.1c0-.16,0-.31,0-.46A19,19,0,0,1,60.9,30.22H82.43A19.07,19.07,0,0,1,101.77,49.1Z"/><path class="cls-chat-3" d="M60.2,66v.84a12.13,12.13,0,0,1-1.06,5,12.63,12.63,0,0,1-11.62,7.38H46L35.23,86.47l-.14.1,2.52-6.51.35-.88H33.38A12.51,12.51,0,0,1,20.65,66.83V66A12.52,12.52,0,0,1,33.38,53.62H47.52A12.48,12.48,0,0,1,60.2,66Z"/><path class="cls-chat-4" d="M62.12,65.59v.92a13.26,13.26,0,0,1-1.27,5.7c-.58-.11-1.15-.25-1.71-.41a12.13,12.13,0,0,0,1.06-5V66A12.48,12.48,0,0,0,47.52,53.62H45.41V52.48c0-.16,0-.31,0-.46h2.79A13.68,13.68,0,0,1,62.12,65.59Z"/><ellipse class="cls-chat-5" cx="31.01" cy="66.75" rx="2.81" ry="2.73"/><ellipse class="cls-chat-5" cx="40.11" cy="66.75" rx="2.81" ry="2.73"/><ellipse class="cls-chat-5" cx="49.2" cy="66.75" rx="2.81" ry="2.73"/></g></g></svg>