<svg id="ghitar" xmlns="http://www.w3.org/2000/svg" viewBox="0 0 119.39 112.85"><defs><style>.cls-ghitar-1{fill:#ffd364;}.cls-ghitar-2{fill:#706f6f;}.cls-ghitar-3{fill:#9d9d9c;}.cls-ghitar-4{fill:#dadada;}.cls-ghitar-5{fill:#994c19;}.cls-ghitar-6{fill:#432918;}.cls-ghitar-7{fill:#7d4e24;}.cls-ghitar-8{fill:#ca9e67;}.cls-ghitar-9{fill:#3c3c3b;}.cls-ghitar-10{fill:#c6c6c6;}.cls-ghitar-11{fill:#936037;}</style></defs><title>ghitar</title><g id="Layer_2" data-name="Layer 2"><g id="Layer_1-2" data-name="Layer 1"><ellipse class="cls-ghitar-1" cx="59.69" cy="56.42" rx="59.69" ry="56.42"/><polygon class="cls-ghitar-2" points="25.51 86.75 27.86 83.52 28.93 84.54 25.51 86.75"/><polygon class="cls-ghitar-3" points="92.06 24 94.25 26.07 94.59 25.76 92.39 23.68 92.06 24"/><path class="cls-ghitar-4" d="M94,26.57l.44.41a.39.39,0,0,0,.53,0l.65-.6a.36.36,0,0,0,0-.51l-.44-.42a.4.4,0,0,0-.54,0l-.64.61A.35.35,0,0,0,94,26.57Z"/><polygon class="cls-ghitar-3" points="88.96 26.93 91.16 29 91.49 28.69 89.3 26.61 88.96 26.93"/><path class="cls-ghitar-4" d="M90.86,29.5l.44.41a.4.4,0,0,0,.54,0l.64-.61a.35.35,0,0,0,0-.51L92,28.38a.4.4,0,0,0-.54,0l-.64.61A.35.35,0,0,0,90.86,29.5Z"/><polygon class="cls-ghitar-3" points="89.16 26.44 86.97 24.36 86.64 24.68 88.83 26.75 89.16 26.44"/><path class="cls-ghitar-4" d="M87.26,23.87l-.43-.42a.4.4,0,0,0-.54,0l-.64.61a.35.35,0,0,0,0,.51l.43.41a.4.4,0,0,0,.54,0l.64-.6A.35.35,0,0,0,87.26,23.87Z"/><polygon class="cls-ghitar-3" points="92.26 23.51 90.07 21.44 89.73 21.75 91.93 23.82 92.26 23.51"/><path class="cls-ghitar-4" d="M90.36,20.94l-.43-.41a.4.4,0,0,0-.54,0l-.64.6a.35.35,0,0,0,0,.51l.43.41a.38.38,0,0,0,.54,0l.64-.6A.35.35,0,0,0,90.36,20.94Z"/><path class="cls-ghitar-5" d="M72.08,42.74c-7.16.66-12.73-6.11-22.91,4.24-.15.15-.21.36,0,.48.87.65,2.37,2.53-1.62,6.34-3.66,3.51-6.64,1.62-8,.06-.14-.16-6-.17-13.51,7-6.12,5.79-5.36,15.9,1.7,22.57.23.22.45.42.68.62s.43.43.66.65c7.06,6.67,17.75,7.39,23.88,1.6,7.56-7.14,7.55-12.63,7.38-12.77-1.65-1.27-3.65-4.09.06-7.55,4-3.77,6-2.35,6.71-1.53.13.16.35.1.52,0C78.54,54.77,71.38,49.5,72.08,42.74Z"/><polygon class="cls-ghitar-5" points="88.17 30.38 85.15 27.53 94.33 20.19 95.93 21.71 88.17 30.38"/><polygon class="cls-ghitar-6" points="95.16 21.8 94.23 20.92 86.26 27.43 88.28 29.34 95.16 21.8"/><polygon class="cls-ghitar-5" points="95.42 23.5 92.43 20.67 95.7 17.59 98.69 20.41 95.42 23.5"/><polygon class="cls-ghitar-7" points="94.7 22.82 93.15 21.35 96.42 18.27 97.97 19.73 94.7 22.82"/><polygon class="cls-ghitar-3" points="55.54 54.47 86.29 27.46 88.25 29.3 59.67 58.37 55.54 54.47"/><polygon class="cls-ghitar-8" points="45.4 61.85 46.29 61.01 52.75 67.11 51.86 67.96 45.4 61.85"/><path class="cls-ghitar-9" d="M52.24,56.23a.78.78,0,0,0,0-.18,1.34,1.34,0,0,0-.26-.82,1.64,1.64,0,0,0-1-.65,2.66,2.66,0,0,0-1.44.15,8.35,8.35,0,0,0-1.3.66c-.83.48-1.73,1-2.57,1.59l-1.24.88c-.4.28-.82.6-1.18.88-.18.14-.36.26-.53.38a3.41,3.41,0,0,1-.54.28,2.2,2.2,0,0,1-1,.17,1.46,1.46,0,0,1-.22,0,1,1,0,0,1-.21-.08,1,1,0,0,1-.34-.21l-.09-.11a.81.81,0,0,0,.83-.06.69.69,0,0,0,.21-1A.78.78,0,0,0,40.32,58a.68.68,0,0,0-.12.12l0-.06a.59.59,0,0,0-.13.13.9.9,0,0,0-.22.49,1.29,1.29,0,0,0,.18.85,1.35,1.35,0,0,0,.4.43,1.92,1.92,0,0,0,.27.16,1.85,1.85,0,0,0,.33.12,2.63,2.63,0,0,0,1.47,0,4.23,4.23,0,0,0,.71-.27,6.84,6.84,0,0,0,.65-.37c.42-.28.82-.52,1.24-.81l1.26-.86c.41-.3.84-.57,1.25-.84l1.2-.84a12.19,12.19,0,0,1,1.09-.73,1.93,1.93,0,0,1,1-.29,1.1,1.1,0,0,1,.78.28.8.8,0,0,0-.63.13.69.69,0,0,0-.21,1,.8.8,0,0,0,1.38-.35Z"/><path class="cls-ghitar-9" d="M57.91,61.59l.19,0a1.44,1.44,0,0,1,.87.25,1.51,1.51,0,0,1,.69,1,2.19,2.19,0,0,1-.16,1.37,7.25,7.25,0,0,1-.69,1.22c-.52.79-1.08,1.64-1.69,2.44L56.19,69c-.3.38-.64.77-.93,1.11a5.93,5.93,0,0,0-.4.51,3,3,0,0,0-.3.5,1.92,1.92,0,0,0-.18,1,.71.71,0,0,0,0,.21.8.8,0,0,0,.07.2.9.9,0,0,0,.23.31l.11.09a.7.7,0,0,1,.07-.78.78.78,0,0,1,1.05-.2.69.69,0,0,1,.13,1A1.42,1.42,0,0,1,56,73l.06,0a.41.41,0,0,1-.13.13,1,1,0,0,1-.53.21,1.49,1.49,0,0,1-.9-.17,1.47,1.47,0,0,1-.45-.38,1.3,1.3,0,0,1-.17-.26c-.06-.1-.08-.2-.13-.3a2.39,2.39,0,0,1,0-1.4,4.59,4.59,0,0,1,.29-.66,6.73,6.73,0,0,1,.4-.63c.29-.39.54-.77.85-1.17l.9-1.19c.33-.39.61-.79.9-1.18L58,64.81a11,11,0,0,0,.77-1,1.82,1.82,0,0,0,.3-.94,1,1,0,0,0-.29-.73.75.75,0,0,1-.13.59.79.79,0,0,1-1.05.2.68.68,0,0,1-.13-1A.79.79,0,0,1,57.91,61.59Z"/><path class="cls-ghitar-10" d="M36.2,74.15a.18.18,0,0,1-.12-.05.17.17,0,0,1,0-.25L47,62.56,86.23,27.8l2-1.88a.2.2,0,0,1,.27,0,.17.17,0,0,1,0,.26l-2,1.88L47.31,62.82l-11,11.27A.2.2,0,0,1,36.2,74.15Z"/><path class="cls-ghitar-10" d="M39,76.83a.2.2,0,0,1-.14-.06.18.18,0,0,1,0-.26L50.85,66.15,87.63,29.08l2-1.87a.2.2,0,0,1,.27,0,.19.19,0,0,1,0,.26l-2,1.86L51.11,66.4,39.17,76.78A.24.24,0,0,1,39,76.83Z"/><path class="cls-ghitar-10" d="M37.24,75.09a.15.15,0,0,1-.13,0,.17.17,0,0,1,0-.25L48.25,63.71,86.7,28.15l4.83-4.95a.2.2,0,0,1,.27,0,.18.18,0,0,1,0,.26l-4.84,5L48.52,64,37.38,75A.24.24,0,0,1,37.24,75.09Z"/><path class="cls-ghitar-10" d="M38,75.85a.24.24,0,0,1-.14,0,.18.18,0,0,1,0-.26L49.63,65,87.22,28.68l5.27-4.6a.21.21,0,0,1,.27,0,.17.17,0,0,1,0,.26l-5.27,4.59L49.9,65.25,38.17,75.8A.15.15,0,0,1,38,75.85Z"/><path class="cls-ghitar-9" d="M27.16,83.68a24.19,24.19,0,0,0,8.72-10.76l4.27,4a25.31,25.31,0,0,0-11.39,8.24Z"/><polygon class="cls-ghitar-11" points="87.94 29.65 85.92 27.74 86.26 27.43 88.28 29.34 87.94 29.65"/></g></g></svg>