<svg xmlns="http://www.w3.org/2000/svg" viewBox="0 0 114.24 111.16"><defs><style>.cls-lightball-1{fill:#dc4844;}.cls-lightball-2{fill:#fdba14;}.cls-lightball-3{fill:#ffd15f;}.cls-lightball-4{fill:#020608;}.cls-lightball-5{fill:#fdfefe;}.cls-lightball-6{fill:#19334b;}</style></defs><title>lightball</title><g id="Layer_2" data-name="Layer 2"><g id="Layer_1-2" data-name="Layer 1"><ellipse class="cls-lightball-1" cx="57.12" cy="55.58" rx="57.12" ry="55.58"/><rect class="cls-lightball-2" x="26.01" y="49.69" width="9.03" height="0.8" rx="0.34" ry="0.34" transform="translate(-0.46 0.28) rotate(-0.52)"/><path class="cls-lightball-2" d="M37.9,39.39l-7.26-4a.34.34,0,0,1-.13-.46l.07-.11a.35.35,0,0,1,.47-.13l7.25,4a.33.33,0,0,1,.13.46l-.06.11A.35.35,0,0,1,37.9,39.39Z"/><path class="cls-lightball-3" d="M76.07,50a16.25,16.25,0,0,0-6.93-12.31s-3.86-3.21-10.86-3.25-10.83,3.25-10.83,3.25A16.18,16.18,0,0,0,40.53,50c-.81,6.11,6.28,16.74,6.28,16.74a32.73,32.73,0,0,1,4.8,12.43H65a32.65,32.65,0,0,1,4.81-12.43S76.88,56.08,76.07,50Z"/><path class="cls-lightball-4" d="M64.26,55.85h0a.07.07,0,0,1,0,.1,49.78,49.78,0,0,0-3.45,12.71A52.57,52.57,0,0,0,61.13,79,.08.08,0,0,1,61,79a54.05,54.05,0,0,1-.24-10.33A49.85,49.85,0,0,1,64.19,55.9.08.08,0,0,1,64.26,55.85Z"/><path class="cls-lightball-4" d="M51.53,56a.08.08,0,0,1,.07.05A50.64,50.64,0,0,1,55.14,68.7,58.7,58.7,0,0,1,55.26,79a.07.07,0,0,1-.08.07.07.07,0,0,1-.07-.08A59.48,59.48,0,0,0,55,68.72a50.57,50.57,0,0,0-3.53-12.64.07.07,0,0,1,0-.1Z"/><path class="cls-lightball-4" d="M64.26,55.84a.09.09,0,1,1,0,.18c-.34,0-.52.32-.71.65s-.41.74-.87.74h0c-.45,0-.67-.37-.88-.72s-.38-.64-.72-.64h0c-.35,0-.52.32-.71.65s-.42.74-.87.74h0c-.44,0-.66-.37-.87-.72s-.38-.64-.72-.64h0c-.35,0-.53.32-.71.65s-.42.74-.87.74h0c-.45,0-.66-.37-.88-.73s-.37-.63-.71-.63h0c-.34,0-.52.31-.71.65s-.41.74-.86.74-.68-.37-.89-.73-.38-.64-.72-.63a.09.09,0,1,1,0-.18h0c.44,0,.66.37.87.72s.38.64.72.64h0c.35,0,.52-.32.71-.65s.42-.74.87-.74h0c.45,0,.66.37.87.72s.38.64.72.64h0c.34,0,.52-.32.7-.65s.42-.74.87-.74h0c.45,0,.67.37.88.73s.37.63.71.63h0c.34,0,.52-.31.71-.65s.41-.74.87-.74h0c.45,0,.67.37.88.73s.38.63.72.63h0c.35,0,.52-.31.71-.65s.42-.74.87-.74Z"/><path class="cls-lightball-2" d="M45.62,31l-4.24-7a.33.33,0,0,1,.13-.46l.11-.07a.35.35,0,0,1,.47.12l4.23,7a.33.33,0,0,1-.12.46l-.11.06A.35.35,0,0,1,45.62,31Z"/><rect class="cls-lightball-2" x="52.62" y="22.92" width="8.78" height="0.82" rx="0.34" ry="0.34" transform="translate(79.82 -33.89) rotate(89.48)"/><path class="cls-lightball-2" d="M68,29.68l4.1-7.07a.35.35,0,0,1,.47-.12l.12.06a.34.34,0,0,1,.13.46l-4.11,7.06a.35.35,0,0,1-.47.12l-.11-.06A.32.32,0,0,1,68,29.68Z"/><rect class="cls-lightball-5" x="52.68" y="81.61" width="11.41" height="6.89" transform="translate(116.77 170.1) rotate(180)"/><rect class="cls-lightball-5" x="51.33" y="79.22" width="13.96" height="2.38" rx="1.03" ry="1.03" transform="translate(116.63 160.83) rotate(180)"/><rect class="cls-lightball-6" x="52.63" y="85.83" width="11.49" height="0.43" rx="0.19" ry="0.19" transform="translate(116.76 172.09) rotate(-180)"/><rect class="cls-lightball-6" x="52.63" y="84.36" width="11.49" height="0.43" rx="0.19" ry="0.19" transform="translate(116.76 169.15) rotate(180)"/><rect class="cls-lightball-6" x="52.63" y="82.9" width="11.49" height="0.43" rx="0.19" ry="0.19" transform="translate(116.76 166.22) rotate(180)"/></g></g></svg>