<svg xmlns="http://www.w3.org/2000/svg" viewBox="0 0 115.76 112.64"><defs><style>.b082699e-51a6-4c27-a6f6-b9e9cede11e5{fill:#cccbc9;}.d8b75f71-37c7-4ddd-8e81-6dd7a5c8fe2a{fill:#058486;}.\37 b6dc562-3d88-4166-8eff-6d7cfe64da99{fill:#102f41;}.\38 bc97996-98fd-4d05-a727-90e46df76b63{fill:#fff;}.\32 a4ff295-e997-4b74-a58d-b2a009e30239{fill:#f05c42;}.\36 1ae35dd-40de-487f-ac1a-3a1462543fb9{fill:#0c5054;}.a96b6822-c8a8-488c-835d-0014699f5d85{fill:#faaf3d;}.\32 28c9a70-6758-46a0-b840-93a69bfc3b9f{fill:#f1e4c4;}</style></defs><title>memory</title><g id="86753051-f80c-494b-b4ca-5226303eb5bc" data-name="Layer 2"><g id="b4f41e47-b23a-4954-9ee8-cd74fa0e482a" data-name="Layer 1"><g id="14683abe-1f98-42e6-aaf1-df0e723444c6" data-name="memory"><ellipse class="b082699e-51a6-4c27-a6f6-b9e9cede11e5" cx="57.88" cy="56.32" rx="57.88" ry="56.32"/><g id="noteb" data-name="noteb"><path class="d8b75f71-37c7-4ddd-8e81-6dd7a5c8fe2a" d="M24.28,27.53a1.84,1.84,0,0,0-1.81,1.85l.29,31.68a1.85,1.85,0,0,0,1.86,1.82l23.78-.23a1.83,1.83,0,0,0,1.81-1.85l-.29-31.68a1.85,1.85,0,0,0-1.85-1.82Zm.85,32.82a.86.86,0,0,1-.87-.86.88.88,0,0,1,.86-.87.87.87,0,0,1,0,1.73Zm0-4.64a.86.86,0,0,1-.87-.86.87.87,0,0,1,.85-.87.88.88,0,0,1,.88.86A.86.86,0,0,1,25.09,55.71Zm0-4.64a.87.87,0,1,1,.85-.87A.85.85,0,0,1,25.05,51.07ZM25,46.43a.87.87,0,1,1,.86-.87A.86.86,0,0,1,25,46.43Zm0-4.64a.87.87,0,0,1,0-1.73.87.87,0,1,1,0,1.73Zm0-4.64a.88.88,0,0,1-.88-.86.87.87,0,1,1,.88.86Zm-.05-4.64a.87.87,0,1,1,.86-.87A.87.87,0,0,1,24.87,32.51Z"/><path class="7b6dc562-3d88-4166-8eff-6d7cfe64da99" d="M21.42,32.47a.73.73,0,0,1-.7-.63.79.79,0,0,1,.55-.94,11.17,11.17,0,0,1,3.49,0,.78.78,0,0,1,.61.89.72.72,0,0,1-.8.68,10.21,10.21,0,0,0-3,0Z"/><path class="7b6dc562-3d88-4166-8eff-6d7cfe64da99" d="M21.47,37.08a.74.74,0,0,1-.71-.63.79.79,0,0,1,.55-.94,11,11,0,0,1,3.49,0,.79.79,0,0,1,.61.9.73.73,0,0,1-.8.68,9.45,9.45,0,0,0-3,0Z"/><path class="7b6dc562-3d88-4166-8eff-6d7cfe64da99" d="M21.51,41.75a.75.75,0,0,1-.72-.72.78.78,0,0,1,.64-.86,23.76,23.76,0,0,1,3.36,0,.78.78,0,0,1,.67.84.75.75,0,0,1-.75.75,23.24,23.24,0,0,0-3.14,0Z"/><path class="7b6dc562-3d88-4166-8eff-6d7cfe64da99" d="M23.21,60.4a7.7,7.7,0,0,1-1.59-.13.8.8,0,0,1-.56-.94.7.7,0,0,1,.83-.62,10,10,0,0,0,3,0,.73.73,0,0,1,.82.66.79.79,0,0,1-.6.91A13.3,13.3,0,0,1,23.21,60.4Z"/><path class="7b6dc562-3d88-4166-8eff-6d7cfe64da99" d="M23.13,55.8a7.65,7.65,0,0,1-1.59-.14.8.8,0,0,1-.57-.93.73.73,0,0,1,.84-.63,9.62,9.62,0,0,0,3,0,.74.74,0,0,1,.81.67.77.77,0,0,1-.59.9A12.54,12.54,0,0,1,23.13,55.8Z"/><path class="7b6dc562-3d88-4166-8eff-6d7cfe64da99" d="M23.07,51.05c-.49,0-1,0-1.53,0a.78.78,0,0,1-.66-.86.75.75,0,0,1,.76-.73,22.3,22.3,0,0,0,3.14,0,.76.76,0,0,1,.77.74.78.78,0,0,1-.66.85C24.84,51,24,51,23.07,51.05Z"/><path class="7b6dc562-3d88-4166-8eff-6d7cfe64da99" d="M24.8,46.39h0s-.67,0-3.21,0h0a.75.75,0,0,1-.72-.78.76.76,0,0,1,.7-.81c2.62,0,3.26,0,3.29,0a.77.77,0,0,1,.68.83A.74.74,0,0,1,24.8,46.39Z"/><rect class="8bc97996-98fd-4d05-a727-90e46df76b63" x="28.53" y="33.43" width="16.61" height="7.36" rx="0.92" ry="0.92" transform="translate(-0.34 0.35) rotate(-0.54)"/></g><g id="camera" data-name="camera"><path class="2a4ff295-e997-4b74-a58d-b2a009e30239" d="M64.39,44.34H90.71a3.4,3.4,0,0,1,3.4,3.4v5.39a3.41,3.41,0,0,1-3.41,3.41H64.4A3.41,3.41,0,0,1,61,53.13V47.75A3.41,3.41,0,0,1,64.39,44.34Z"/><rect class="61ae35dd-40de-487f-ac1a-3a1462543fb9" x="41.54" y="46.19" width="7.12" height="4.72" rx="1.38" ry="1.38"/><path class="61ae35dd-40de-487f-ac1a-3a1462543fb9" d="M60,50.29c0,.76-.63.69-1.38.69H51.71c-.76,0-1.38.07-1.38-.69V47.64a1.38,1.38,0,0,1,1.38-1.38h6.91A1.39,1.39,0,0,1,60,47.64Z"/><path class="2a4ff295-e997-4b74-a58d-b2a009e30239" d="M94.11,81.72a3.4,3.4,0,0,1-3.4,3.4H41.82a3.41,3.41,0,0,1-3.41-3.4V53.44A3.41,3.41,0,0,1,41.82,50H94.16C94.16,54.06,94.11,81.72,94.11,81.72Z"/><rect class="7b6dc562-3d88-4166-8eff-6d7cfe64da99" x="38.4" y="58.36" width="55.76" height="21.94"/><path class="a96b6822-c8a8-488c-835d-0014699f5d85" d="M84.62,68.81a15,15,0,1,1-15-15A15,15,0,0,1,84.62,68.81Z"/><path class="7b6dc562-3d88-4166-8eff-6d7cfe64da99" d="M78.32,68.86a8.51,8.51,0,1,1-8.51-8.51A8.51,8.51,0,0,1,78.32,68.86Z"/><path class="228c9a70-6758-46a0-b840-93a69bfc3b9f" d="M70.31,51a1.92,1.92,0,1,1-1.92-1.91A1.92,1.92,0,0,1,70.31,51Z"/><rect class="228c9a70-6758-46a0-b840-93a69bfc3b9f" x="82.79" y="48.07" width="8.3" height="5.45" rx="1.38" ry="1.38"/></g></g></g></g></svg>