<svg xmlns="http://www.w3.org/2000/svg" viewBox="0 0 859 126.5"><defs><style>.cls-1{isolation:isolate;}.cls-2{fill:#4ec9f5;opacity:0.7;}.cls-2,.cls-6{mix-blend-mode:multiply;}.cls-3{fill:#8bd7f8;}.cls-4{fill:#9adbf9;}.cls-5{fill:#f7fcfe;}.cls-6{fill:#76d1f7;opacity:0.5;}</style></defs><title>wave</title><g class="cls-1"><g id="Layer_2" data-name="Layer 2"><g id="Layer_1-2" data-name="Layer 1"><path class="cls-2" d="M816.62,12.41c-13.32-1.74-26.53-4.9-40-5.67a214.21,214.21,0,0,0-40,1.75c-24.07,3.15-47.84,9-72.29,10.12C633.59,20,604,13.6,574.36,8.31,543.27,2.76,512.23,0,480.61,4.69a395.16,395.16,0,0,0-42.21,8.9c-14.56,3.8-28.84,8.63-43.67,11.7a266.92,266.92,0,0,1-89.62,2.85c-28.47-4-54.36-14.89-82.56-19.64A138.93,138.93,0,0,0,176.16,8c-14.84,2.48-29.07,6.66-43.73,9.68-14.1,2.9-29,4.5-43.43,5.95C75,25,60.44,25.88,46.56,23c-13.3-2.8-25.29-9-36.07-15.56C7.59,5.61,5.78,1.88,3,0L2,124.55l853,.26L858,9.73A109.78,109.78,0,0,1,816.62,12.41Z"/><path class="cls-3" d="M825.48,25.53c-14.09-2.87-27.41-7.58-41.42-10.62C736.37,4.54,694.89,26.63,649.57,33.07c-13.34,1.89-27.12,2.4-40.45.11-15-2.57-29.34-7.55-43.78-11.54-27.88-7.7-58.18-14.92-88.07-12.07-26.28,2.51-49.8,12.09-73.41,20.88-23.23,8.64-47.11,15.93-73.09,16.85a123.36,123.36,0,0,1-41.56-5.17c-12.88-4-24.72-10.31-36.92-15.44-25.76-10.83-55-20.37-84.69-15-25.79,4.68-47.48,17.78-73.09,22.76C64.85,40.23,25.46,31.6,2,15.57L5,126.24l853,.26V27.25C846.2,29.73,837.16,27.92,825.48,25.53Z"/><path class="cls-4" d="M811.32,29.09C795.54,25.83,779.44,22.28,763,22a131.26,131.26,0,0,0-43.5,6.79C695,36.79,672,48.85,644.65,49.82c-29.18,1-57.46-3.28-85-10.55-29.7-7.83-63.45-22.12-95.25-13-28.49,8.14-53.05,22.72-81.64,30.7-29.22,8.16-60.59,7.32-90.31,1.23a244.7,244.7,0,0,1-39.85-11.3c-12.86-5-25.31-10.78-38.54-15.18-13.7-4.55-28.06-7.5-42.94-5.17-14.39,2.25-27.69,7.2-40.9,12.05-11.31,4.15-23,8.75-35.31,10.65a107.18,107.18,0,0,1-30.72.2C44.61,46.78,20,37,3,27.25V126.5H858L859,35C841.08,35.2,828.86,32.71,811.32,29.09Z"/><path class="cls-5" d="M64.37,97.25c26.61,2,50.23-7.38,72-18.39,18-9.12,36.6-18.09,59-16,14.2,1.29,28.05,5.35,41.55,8.87,15,3.91,30,8,45.34,11.21,15.91,3.3,31.9,5.58,48.42,4.69A236,236,0,0,0,376,80.15c27.7-7,54.92-18.19,84.75-17.5,30.44.72,59,12.35,87.45,19.85s59.71,14.46,90,9.84c50.21-7.66,90.67-38.27,143.07-39.66,29-.76,52.48,10.85,76.79,21.27V34.06a237.22,237.22,0,0,1-51.68-5C790.54,25.83,774.44,22.28,758,22a131.26,131.26,0,0,0-43.5,6.79C690,36.79,667,48.85,639.65,49.82c-29.18,1-57.46-3.28-85-10.55-29.7-7.83-63.45-22.12-95.25-13-28.49,8.14-53.05,22.72-81.64,30.7-29.22,8.16-60.59,7.32-90.31,1.23a244.7,244.7,0,0,1-39.85-11.3c-12.86-5-25.31-10.78-38.54-15.18-13.7-4.55-28.06-7.5-42.94-5.17-14.39,2.25-27.69,7.2-40.9,12.05-11.31,4.15-23,8.75-35.31,10.65a107.18,107.18,0,0,1-30.72.2A157.68,157.68,0,0,1,3,30.27V70.41C19.37,83.9,40.23,95.39,64.37,97.25Z"/><path class="cls-6" d="M201,56.26c-15.9-2.65-32.5-3.62-48.62-1.49-15.39,2-29.18,6.69-43,12.24-22.76,9.13-46.62,17.32-71.59,7.9C23.18,69.4,11.55,60.77,0,52.05V68.47C16.4,82,37.26,93.44,61.4,95.3c26.61,2,50.22-7.37,72-18.38,18-9.13,36.59-18.1,59-16.06,14.2,1.3,28.05,5.36,41.55,8.87,15,3.92,30,8,45.34,11.21q2.42.5,4.83,1C256.42,73.24,230.28,61.16,201,56.26Z"/><path class="cls-6" d="M750.44,48.82c-23.1,2.4-43.18,11.81-65,17.58-20.77,5.51-43.78,8.66-65.75,7.73a190.58,190.58,0,0,1-39-5.71c-14.42-3.68-28-8.86-42-13.39-28-9.07-59.51-17.2-89.43-9-26.16,7.17-47.1,22-71.07,32.47l-8,3.49c2.57-.59,5.14-1.2,7.7-1.85,27.7-7,54.92-18.19,84.75-17.5,30.44.72,59,12.35,87.45,19.85s59.71,14.46,90,9.84c50.21-7.66,90.67-38.27,143.07-39.66a141.27,141.27,0,0,1,14.92.42A130.26,130.26,0,0,0,750.44,48.82Z"/></g></g></g></svg>