<svg id="wavebg" xmlns="http://www.w3.org/2000/svg" viewBox="0 0 1398.75 1209"><defs><style>.cls-wbg-1{isolation:isolate;}.cls-wbg-2{font-size:31.75px;font-family:HoboStd, Hobo Std;}.cls-wbg-2,.cls-wbg-6{fill:#fff;}.cls-wbg-3{letter-spacing:-0.04em;}.cls-wbg-4{fill:#9adbf9;}.cls-wbg-5{fill:#009fe2;mix-blend-mode:multiply;}.cls-wbg-5,.cls-wbg-7{opacity:0.5;}.cls-wbg-7{fill:#bce6fb;}.cls-wbg-8{fill:#97cee7;}</style></defs><title>wavebg</title><g class="cls-wbg-1"><g id="Layer_2" data-name="Layer 2"><g id="Layer_1-2" data-name="Layer 1"><text class="cls-wbg-2" transform="translate(1235.77 1160.89) scale(1.13 1)"><tspan xml:space="preserve">   FOR</tspan><tspan class="cls-wbg-3" x="0" y="38.1">P</tspan><tspan x="18.64" y="38.1">ARENTS</tspan></text><path class="cls-wbg-4" d="M818.5,98.79c-23.12,1.1-42.52-8.65-61.28-20.61-17.3-11-33.66-23.44-51.32-33.94-21.42-12.73-45.13-22.47-70.74-21.93-13.59.29-27.6,2.37-39.93,8.15C585,35.26,576.06,42,567.94,49.69,550.81,65.87,535.43,85.6,513,95.28c-22.83,9.86-52.25,12.32-75.89,3.5-22.31-8.34-38.94-25-55.9-40.65-20.43-18.82-43.48-36-71-43.82-29.4-8.37-59-4.45-84.95,11.42-23.55,14.43-42.6,34.12-63.8,51.4-20.32,16.57-44.44,31.51-70.37,38.29-21.82,5.71-47.67,3.91-66.63-8.91A80.31,80.31,0,0,1,3.84,86L2.92,807.75c-.06,44.06,36.71,79.77,82,79.62l683.79-2.22c50.19-.16,90.77-39.82,90.71-88.65l-.73-690.7c0-9-9.41-15.17-18-11.79A69.09,69.09,0,0,1,818.5,98.79Z"/><path class="cls-wbg-5" d="M759.15,92.18C746,100.69,795,106.31,808.39,113.47c21.88,11.71,29.54,9.58,42.67,42.58,3.71,9.33-2.89,25.09-12,30.88-5.26,3.32-7.63,17.36,4.38,24.48,8.44,5,10.11,6.38,17.5,13.84,2.69,2.71,14.19,34.56,15.32,38.33,5.3-6.29-3.92-39.06,1.09-45.78.11-1-1.55-31-1.09-31.94,3.54-7.25,1.65-30.72-7.46-50.9-12.16-10.89-10.94-30-25.36-36.4-19-8.41-29.54-6.38-54.71-18.1-5.8-2.7-23-8.51-31.73-5.32C734.86,84.54,767.55,86.73,759.15,92.18Z"/><path class="cls-wbg-6" d="M908,252.93c13.13-24.48-3.81-56.41-12-72.9,2.71-3.3,5.67-5.36,6.56-9.07,1.45-6.06,1.09-4.26,0-11.71-.41-2.78-2.19-4.26-5.47-8.52-.09-.12-7.53-5.26-7.66-5.32,2.23-.82,5.82-5.22,7.66-7.46,4.38-5.32,4.38-16,2.19-21.29-9.48-23-21.86-34.89-42.67-42.58C829.3,64,788.85,60.69,758.06,63.43c-26.87,2.39-9.41,1.7-41.77,6.38-33,4.23-35.31,22.7-10.48,28.94,8.32,2.09,10.33.15,29-.36,13.87-.37,27.8-3.79,41.56-2.81a192.72,192.72,0,0,1,39.84,6.8C828.58,106,838,113.12,843.9,124.94c4.51,9,8.66,23.58,3.35,35.59a20.92,20.92,0,0,0-17.31.36c-8.78,4.17-14.28,10.94-14.33,20.55,0,.59,0,1.18,0,1.75a18.14,18.14,0,0,0-9.9,1.41c-6.34,3-11.52,10-10.86,16.9,0,.24.07.46.11.69a22.71,22.71,0,0,0-13.47.42c-11.44,3.51-16.23,16.38-16.17,26.85.06,11.19,8.31,18.52,17.6,19.9-.18.21-.36.41-.53.63a10,10,0,0,0-1,10.43c1.64,2.94,4.8,3.68,8.12,2.95,1.4,6.27,2.36,13,4.55,17.24,4.68,9.11,21.42,17.49,27.36,7.45,2.24,1.9,12.09,2,15.31,1.07,4-1.14,33.32,1.77,35-2.13C883,286.5,902.48,263.13,908,252.93Z"/><path class="cls-wbg-7" d="M847.18,258.78a17.44,17.44,0,0,1-5.86-2.58c-2.74,3-6.41,4.75-10.17,3.77a8.82,8.82,0,0,1-2.79-1.26c-3.91,5.79-10.52,10.18-16.29,9.28-5.5-.86-10.43-5.26-10-11.86-9.24,4.05-21.2-2.32-13.7-13.28.14-.21.31-.42.47-.63a12.61,12.61,0,0,1-7.87-3.77c-4.86-5.23-3.43-14.53.89-22,3.72-6.46,10.21-8.34,16.14-8.14a12.32,12.32,0,0,1,.31-2c3.38-14.09,19.37-17,28.65-14.13-1.57-2.86-2.11-6.71-1.21-11.42,2-10.32,8.88-18.44,17.49-21.47a21.23,21.23,0,0,0-13.35,1.63c-8.78,4.17-14.28,10.94-14.33,20.55,0,.59,0,1.18,0,1.75a18.14,18.14,0,0,0-9.9,1.41c-6.34,3-11.52,10-10.86,16.9,0,.24.07.46.11.69a22.71,22.71,0,0,0-13.47.42c-11.44,3.51-16.23,16.38-16.17,26.85.06,11.19,8.31,18.52,17.6,19.9-.18.21-.36.41-.53.63a10,10,0,0,0-1,10.43c1.64,2.94,4.8,3.68,8.12,2.95a23.28,23.28,0,0,0,10.6,14.78c9,5.22,21.63.17,27.57-9.87a9,9,0,0,0,8.44,1.86c4-1.14,7-4.56,8.74-8.47A29.58,29.58,0,0,0,855,259,21,21,0,0,1,847.18,258.78Z"/><path class="cls-wbg-8" d="M767.39,233.5c-.63-7.93.9-17,7.47-23.64a25.4,25.4,0,0,1,20.07-7.16,22,22,0,0,1,2.87-6.29c5.92-9.2,15.27-14.07,23.15-11.56,1.38-12.07,9.83-25.62,20.77-25.85a21.25,21.25,0,0,0-11.78,1.89c-8.78,4.17-14.28,10.94-14.33,20.55,0,.59,0,1.18,0,1.75a18.14,18.14,0,0,0-9.9,1.41c-6.34,3-11.52,10-10.86,16.9,0,.24.07.46.11.69a22.71,22.71,0,0,0-13.47.42c-11.44,3.51-16.23,16.38-16.17,26.85a19.53,19.53,0,0,0,5.19,13.45A18.61,18.61,0,0,1,767.39,233.5Z"/><path class="cls-wbg-7" d="M843.67,103.1c-14.34-14.88-21.92-20.88-45.13-23.7-8.75-1.06-18.6-1.06-28.45-1.06-2.25.06-25.17,1.91-28.44,2.12-49.24,3.2-57.31,12-40.49,17,14.23,4.26,35,0,43.77,0,9.85,0,23-2.13,31.73-2.13s2.19,0,23,3.19A99.48,99.48,0,0,1,815,102.82c.13.07,3.14,1,3.28,1.07a46.92,46.92,0,0,1,25.17,21.29c4.37,8.52,8,19.48,5.49,30.32C860.12,136.51,855,114.83,843.67,103.1Z"/><path class="cls-wbg-5" d="M346.09,90.35C342.33,77,336,64,329.44,51.2c-.95-.47-1.89-1-2.87-1.4-25.64-11.75-51-14.34-76.06-12.69a217.7,217.7,0,0,0-48.35,29.33c-19.21,15.51-38.46,32-63,42.18-23.82,9.92-55.49,16.49-84.38,12.13,22.2,11.64,47.39,18.05,73.31,15.16,33.1-3.69,62.85-16,96.7-17.74,8.65-.44,17.86-.58,26.63,1,9.53,1.66,18.63,4.59,27.93,7.12,15.36,4.18,33.41,6.93,48.56,3.43C349.53,124.67,350.7,106.71,346.09,90.35Z"/><path class="cls-wbg-5" d="M148.82,120.54c18.93-.33,34.59-5.8,51.46-11.09a135.3,135.3,0,0,1,25.78-5.81c7.46-.82,15.23-.29,22.84.17,18.31,1.09,34.44.16,48.35-9,9.79-6.44,18.2-15.06,29.8-19.6a30.38,30.38,0,0,1,12.91-2c-3.15-7.42-6.78-14.76-10.52-22-.95-.47-1.89-1-2.87-1.4-25.64-11.75-51-14.34-76.06-12.69a217.7,217.7,0,0,0-48.35,29.33c-19.21,15.51-38.46,32-63,42.18a178.72,178.72,0,0,1-22.64,7.63A112.28,112.28,0,0,0,148.82,120.54Z"/><path class="cls-wbg-6" d="M390.92,79.19c3.25-17-8-31.1-12-35.95-9.39-15-34.26-26.58-52.3-32.37C277.59-4.88,247.46,7.43,209.16,36.49c-10.7,8.11-33.45,25.37-44.16,33-25.32,18.09-47,40.59-83.82,43.95-30.42,2.77-53.3-13-76.92-29.45-.64-.44-2.38-.16-3.34.65-2.63,2.19,1.16,6.37,1.75,7,9.12,9.59,8.5,8.83,15.62,14.18,7.59,5.7,15.92,11.17,25.16,14.58C93.76,139,147.33,126.93,187,103.69c19.05-11.17,36.39-27.9,60.69-32.26a33.23,33.23,0,0,1,12-.35c1.19.23,10.07,4.09,10.08,4.09-1,.5-2,1-2.87,1.56-8.08,4.81-10.61,14.94-3.34,22,3.7,3.6,9.26,5.7,14.76,6.17a10.18,10.18,0,0,0,1.43,3.73c5,8.18,16.72,12.81,27.1,12.82a33.15,33.15,0,0,0,7.63-1,23.7,23.7,0,0,0,24.85,9.67C362.71,124.84,387.52,97.05,390.92,79.19Z"/><path class="cls-wbg-7" d="M364,97.18c-3.34,6.42-9,11.68-17.54,12.63-6.85.76-10.55-4.41-14-8.41s-8.9-6.47-14-3.83c-2.54,1.3-4.72,3.2-7.47,4.24-4.42,1.67-10,1.37-13.56-2.17s-2.38-8.87-1.56-12.55c1.24-5.52,3.08-11.27-1.67-16.64s-12.33-8.78-19.86-10.83c-17.68-4.82-36-2.79-51.47,3.38-29.29,11.72-50.13,32.94-78.12,46.22-24.51,11.63-55,20.28-85.47,16.3-1.34-.18-2.66-.29-4-.46,47,15.91,95.16.07,131.74-21.37,19.05-11.17,36.39-27.9,60.69-32.26a33.23,33.23,0,0,1,12-.35c1.19.23,10.07,4.09,10.08,4.09-1,.5-2,1-2.87,1.56-8.08,4.81-10.61,14.94-3.34,22,3.7,3.6,9.26,5.7,14.76,6.17a10.18,10.18,0,0,0,1.43,3.73c5,8.18,16.72,12.81,27.1,12.82a33.15,33.15,0,0,0,7.63-1,23.7,23.7,0,0,0,24.85,9.67C357.51,126,363.63,111.76,364,97.18Z"/><path class="cls-wbg-8" d="M270.18,70.23c-1.69-2-4.58-3-7.32-3.65C233.15,60,208.59,73.91,189.1,88.37c-20.06,14.88-39.52,30.79-66.55,37.76-18.49,4.77-35.71,5.79-54.32,1-2.34-.09-6.66-1.41-9-1.62-1.34-.13-3.16-1.3-4.48-1.47,47,15.91,95.65,1.08,132.23-20.36,19.05-11.17,36.39-27.9,60.69-32.26a33.23,33.23,0,0,1,12-.35c1.18.22,9.88,4,10.06,4.08C270.79,73.53,271.44,71.75,270.18,70.23Z"/><path class="cls-wbg-8" d="M335.28,127.14a23.06,23.06,0,0,1-11.08-7.59c-4.54-6.15-9-7.11-16.77-6.42-6.7.59-17.27,0-20.23-6.68-1.92-4.31.51-12.22-7.71-12.76-4.73-.3-9.14,0-12.76-3.22-4.09-3.62-2.75-8.45,0-11.71a42.72,42.72,0,0,0,3-3.58c-1,.5-1.93,1-2.83,1.55-8.08,4.81-10.61,14.94-3.34,22,3.7,3.6,9.26,5.7,14.76,6.17a10.18,10.18,0,0,0,1.43,3.73c5,8.18,16.72,12.81,27.1,12.82a33.15,33.15,0,0,0,7.63-1,23.7,23.7,0,0,0,24.85,9.67,36,36,0,0,0,6.44-2.09A21.73,21.73,0,0,1,335.28,127.14Z"/><path class="cls-wbg-5" d="M725.75,89.35c-2.88-13.53-8.3-26.76-14-39.91-.92-.52-1.81-1-2.75-1.54-24.55-13-49.34-17-74.19-16.61A217.42,217.42,0,0,0,585.36,58c-19.9,14.47-39.9,29.87-64.76,38.8-24.1,8.65-55.72,13.57-83.93,7.71C457.83,117.31,482.26,125,508,123.47c32.86-2,63-12.73,96.42-12.67,8.56,0,17.65.35,26.2,2.33,9.28,2.15,18.07,5.54,27.08,8.55,14.89,5,32.5,8.64,47.66,5.94C727,123.76,729.28,105.9,725.75,89.35Z"/><path class="cls-wbg-5" d="M529.42,109.22c18.68.66,34.46-4,51.41-8.38a132.35,132.35,0,0,1,25.78-4.47c7.4-.42,15,.51,22.51,1.36,18,2,33.93,2,48.22-6.47,10-5.91,18.86-14.08,30.58-18A29.69,29.69,0,0,1,720.77,72c-2.64-7.57-5.77-15.07-9-22.54-.92-.52-1.81-1-2.75-1.54-24.55-13-49.34-17-74.19-16.61A217.42,217.42,0,0,0,585.36,58c-19.9,14.47-39.9,29.87-64.76,38.8a177.45,177.45,0,0,1-22.79,6.44A109.25,109.25,0,0,0,529.42,109.22Z"/><path class="cls-wbg-6" d="M770.64,80.55c4.25-16.82-6-31.43-9.58-36.48-8.33-15.46-32.12-28.29-49.54-35-47.38-18.25-77.84-7.54-117.4,19.45-11,7.54-34.54,23.57-45.58,30.65-26.08,16.73-48.86,38-85.35,39.48-30.17,1.19-51.74-15.78-74-33.37-.6-.47-2.33-.27-3.33.48-2.73,2,.75,6.41,1.29,7.06,8.4,10,7.83,9.25,14.51,15,7.14,6.08,15,12,23.9,15.85,48.44,21.11,102,11.9,142.52-9.23,19.47-10.15,37.6-25.94,61.84-29a32.1,32.1,0,0,1,11.79.28c1.16.28,9.67,4.6,9.68,4.59-1,.45-2,.92-2.92,1.41C640.21,76,637.08,86,643.81,93.44c3.43,3.78,8.77,6.16,14.17,6.92a10,10,0,0,0,1.17,3.8c4.42,8.41,15.69,13.64,25.92,14.18a32.17,32.17,0,0,0,7.58-.55,23.07,23.07,0,0,0,23.9,10.93C740,124.61,766.18,98.18,770.64,80.55Z"/><path class="cls-wbg-7" d="M743,97.09c-3.69,6.24-9.61,11.18-18.07,11.69-6.81.41-10.13-4.94-13.32-9.11s-8.36-6.92-13.6-4.56c-2.58,1.17-4.84,3-7.62,3.85-4.46,1.44-9.91.84-13.23-2.88s-1.79-9-.75-12.59c1.55-5.45,3.73-11.08-.62-16.69S664.18,57.41,656.88,55c-17.12-5.72-35.34-4.65-50.94.71-29.6,10.17-51.46,30.24-79.87,42-24.89,10.32-55.48,17.37-85.27,11.82-1.31-.25-2.61-.43-3.9-.66,45.37,18.31,93.79,5,131.18-14.49,19.47-10.15,37.6-25.94,61.84-29a32.1,32.1,0,0,1,11.79.28c1.16.28,9.67,4.6,9.68,4.59-1,.45-2,.92-2.92,1.41C640.21,76,637.08,86,643.81,93.44c3.43,3.78,8.77,6.16,14.17,6.92a10,10,0,0,0,1.17,3.8c4.42,8.41,15.69,13.64,25.92,14.18a32.17,32.17,0,0,0,7.58-.55,23.07,23.07,0,0,0,23.9,10.93C734.79,125.53,741.71,111.62,743,97.09Z"/><path class="cls-wbg-8" d="M652.17,65.35c-1.53-2.11-4.32-3.27-7-4-28.87-8.13-53.95,4.5-74,17.91-20.71,13.8-40.88,28.66-67.95,34.2-18.53,3.8-35.56,3.92-53.61-1.81-2.3-.21-6.48-1.75-8.77-2.08-1.32-.2-3-1.46-4.33-1.7,45.38,18.31,94.22,6,131.61-13.45,19.47-10.15,37.6-25.94,61.84-29a32.1,32.1,0,0,1,11.79.28c1.15.28,9.49,4.51,9.67,4.59C652.57,68.67,653.32,66.93,652.17,65.35Z"/><path class="cls-wbg-8" d="M712.81,125.48a22.5,22.5,0,0,1-10.45-8.14c-4.09-6.38-8.4-7.56-16.13-7.28-6.64.25-17-.89-19.53-7.71-1.62-4.4,1.26-12.16-6.81-13.12-4.64-.55-9-.49-12.38-3.88-3.8-3.83-2.18-8.57.69-11.68a45.17,45.17,0,0,0,3.16-3.41c-1,.44-2,.91-2.89,1.39C640.21,76,637.08,86,643.81,93.44c3.43,3.78,8.77,6.16,14.17,6.92a10,10,0,0,0,1.17,3.8c4.42,8.41,15.69,13.64,25.92,14.18a32.17,32.17,0,0,0,7.58-.55,23.07,23.07,0,0,0,23.9,10.93A35.52,35.52,0,0,0,723,127,21.16,21.16,0,0,1,712.81,125.48Z"/></g></g></g></svg>