<svg xmlns="http://www.w3.org/2000/svg" viewBox="0 0 118.6 115.4"><defs><style>.cls-zoom-1{fill:#f57d1f;}.cls-zoom-2{fill:#eaf6e9;}.cls-zoom-3{fill:#34495e;}.cls-zoom-4{fill:#fdfefe;opacity:0.12;}</style></defs><title>zoom</title><g id="Layer_2" data-name="Layer 2"><g id="Layer_1-2" data-name="Layer 1"><ellipse class="cls-zoom-1" cx="59.3" cy="57.7" rx="59.3" ry="57.7"/><path class="cls-zoom-2" d="M53.83,67.9c-1.18,1.33-3.46,1.3-5.09-.07h0c-1.63-1.36-2-3.55-.82-4.88l7.8-8.82c.54-1.07,6.51,4.38,5.91,4.94Z"/><path class="cls-zoom-3" d="M55.46,69l0,0a.67.67,0,0,0,0-1l-8.2-6.86a.72.72,0,0,0-1,.13l-1.62,1.83h0L33,76.31c-3,3.34-3.3,7.78-.76,9.9s7,1.14,10-2.2L55.46,69Z"/><path class="cls-zoom-2" d="M84,27.62a21.78,21.78,0,0,0-30.13,2.2,20.4,20.4,0,0,0,2.26,29.32,21.78,21.78,0,0,0,30.13-2.2A20.41,20.41,0,0,0,84,27.62ZM59.74,55a15,15,0,0,1-1.67-21.61,16,16,0,0,1,22.21-1.63A15,15,0,0,1,82,53.38a15.85,15.85,0,0,1-4.27,3.39A16.1,16.1,0,0,1,59.74,55Z"/><ellipse class="cls-zoom-4" cx="70.01" cy="43.38" rx="15.75" ry="15.33"/><path class="cls-zoom-4" d="M82,53.29a14.27,14.27,0,0,1-4.2,3.31h0C79.64,38.05,69.4,28.26,69.11,28a16,16,0,0,1,11.24,3.68A15,15,0,0,1,82,53.29Z"/></g></g></svg>