<svg xmlns="http://www.w3.org/2000/svg" viewBox="0 0 119.93 116.7"><defs><style>.cls-atom-1{fill:#ae87be;}.cls-atom-2{fill:#9adaf6;}</style></defs><title>atom</title><g id="Layer_2" data-name="Layer 2"><g id="Layer_1-2" data-name="Layer 1"><ellipse class="cls-atom-1" cx="59.97" cy="58.35" rx="59.97" ry="58.35"/><path class="cls-atom-2" d="M90.87,79.34a26.14,26.14,0,0,0-2.68-9.58c-3.21-6.91-9-14.55-16.31-21.51A85.28,85.28,0,0,0,54.46,35.16c-6-3.27-11.41-5-15.67-5,0,0-5,0-8,2.78-1.43,1.31-3,3.78-2.84,8a25.83,25.83,0,0,0,2.67,9.55c3.21,6.91,9,14.54,16.31,21.5A85.9,85.9,0,0,0,64.44,85.13c6,3.28,11.47,5,15.83,5A11,11,0,0,0,88,87.41C89.42,86.07,91.06,83.58,90.87,79.34Zm-5.14,5.89a7.7,7.7,0,0,1-5.46,1.82c-7.63,0-19.9-6.53-31.1-17.19C34.62,56,27.4,40.43,33,35.06a7.7,7.7,0,0,1,5.46-1.82c7.63,0,19.9,6.53,31.1,17.19C84.14,64.28,91.36,79.86,85.73,85.23Z"/><path class="cls-atom-2" d="M91.49,45.32a28.32,28.32,0,0,0-9.79-2.77c-7.74-.93-17.46-.1-27.38,2.35a87.4,87.4,0,0,0-20.58,7.71c-6,3.27-10.35,7-12.57,10.49l.22.14-.07.12C19.65,66,19,68.65,19.55,71.14c.44,1.86,1.71,4.48,5.53,6.53a28,28,0,0,0,9.76,2.74c7.73.94,17.44.1,27.36-2.35a87.08,87.08,0,0,0,20.61-7.78c6-3.26,10.36-6.91,12.64-10.53a10.3,10.3,0,0,0,1.64-7.86C96.64,50,95.31,47.37,91.49,45.32ZM94,52.65a7.19,7.19,0,0,1-1.24,5.49c-4,6.34-16.1,13.13-31.28,16.87-19.73,4.88-37.16,2.76-38.93-4.72a7.17,7.17,0,0,1,1.24-5.48c4-6.34,16.09-13.13,31.27-16.88C74.78,43.06,92.21,45.18,94,52.65Z"/><path class="cls-atom-2" d="M60.46,22.44a27.3,27.3,0,0,0-7.17,7.06C48.76,35.67,44.88,44.39,42.36,54a81.58,81.58,0,0,0-2.84,21.28C39.62,82,40.87,87.49,43,91.08l.23-.13.07.12c1.61,2.69,3.66,4.54,6.19,5.22,1.9.51,4.86.68,8.53-1.62a27,27,0,0,0,7.14-7c4.53-6.17,8.4-14.87,10.91-24.52a82,82,0,0,0,2.8-21.35c-.1-6.68-1.31-12.15-3.5-15.82a10.73,10.73,0,0,0-6.32-5.15C67.16,20.28,64.13,20.15,60.46,22.44Zm7.81,1.37a7.48,7.48,0,0,1,4.36,3.68c3.83,6.42,4.19,20,.35,34.79-5,19.2-15.22,33.11-22.82,31.06a7.44,7.44,0,0,1-4.36-3.67c-3.84-6.42-4.2-20-.35-34.8C50.45,35.67,60.67,21.76,68.27,23.81Z"/><ellipse class="cls-atom-2" cx="58.62" cy="60.18" rx="6.04" ry="5.88"/><ellipse class="cls-atom-2" cx="29.65" cy="76.82" rx="6.04" ry="5.88"/><ellipse class="cls-atom-2" cx="89.56" cy="76.82" rx="6.04" ry="5.88"/><ellipse class="cls-atom-2" cx="58.25" cy="26.36" rx="6.04" ry="5.88"/></g></g></svg>