<svg xmlns="http://www.w3.org/2000/svg" viewBox="0 0 115.76 112.64"><defs><style>.cls-brain-1{fill:#cccbc9;}.cls-brain-2{fill:#f04f3d;}.cls-brain-3{fill:#edf8fe;}</style></defs><title>brain</title><g id="Layer_2" data-name="Layer 2"><g id="Layer_1-2" data-name="Layer 1"><ellipse class="cls-brain-1" cx="57.88" cy="56.32" rx="57.88" ry="56.32"/><path class="cls-brain-2" d="M68.36,27.49c1.6.4,3.2.77,4.79,1.22,1.31.37,2.59.83,3.88,1.28a51,51,0,0,1,6.13,2.75,20.9,20.9,0,0,1,5.06,3.19c1,.92,1.91,1.91,2.87,2.87a25.83,25.83,0,0,1,4.09,5.35c.39.66.65,1.39,1,2.07A18.63,18.63,0,0,1,97.64,50a27,27,0,0,1,.59,5.22,12.66,12.66,0,0,1-.84,5.14c-.45,1.26-1,2.49-1.59,3.71a9.72,9.72,0,0,1-7.34,5.84,20.07,20.07,0,0,1-7.25.07c-.49-.09-1-.2-1.48-.32a.38.38,0,0,0-.51.22,11.63,11.63,0,0,1-.67,1,4.9,4.9,0,0,0-.81,2.33,5.09,5.09,0,0,1-3.13,4.32,12.86,12.86,0,0,1-3.78.88,20,20,0,0,1-5.47.12,18,18,0,0,1-6.83-2.33.41.41,0,0,0-.61.08,6.23,6.23,0,0,1-3.44,2,4.79,4.79,0,0,0-1.21.32,27.34,27.34,0,0,0-2.58,1.48c-1.37.88-2.75,1.75-4,2.73s-2.34,2-3.49,3a.78.78,0,0,1-.72.22,5,5,0,0,1-2.86-1.58,1.23,1.23,0,0,1-.09-1.91c.57-.71,1.22-1.36,1.84-2a5.91,5.91,0,0,0,1.48-2.18.37.37,0,0,0-.27-.53c-1.25-.39-2.49-.82-3.75-1.16a29.5,29.5,0,0,1-4.6-1.52A6.7,6.7,0,0,1,30,69.89c-.1-.65-.15-1.31-.21-2,0-.21-.06-.35-.32-.41-.69-.17-1.39-.35-2.06-.58a5.49,5.49,0,0,1-2.46-1.45,9,9,0,0,1-.9-1.37,12.7,12.7,0,0,1-1.6-3.82,17,17,0,0,1,0-7.23,24.82,24.82,0,0,1,1.13-3.55A26.66,26.66,0,0,1,27.15,43a50.11,50.11,0,0,1,6.16-6.54A32.9,32.9,0,0,1,38,32.79q2.13-1.37,4.38-2.57a39.31,39.31,0,0,1,4.21-2,30.69,30.69,0,0,1,8.32-1.85,35.42,35.42,0,0,1,8.61.25c1.62.25,3.21.64,4.81,1Z"/><path class="cls-brain-3" d="M58.7,66.9c0,.33-.09.66-.13,1a1.08,1.08,0,0,0,.56,1c.92.55,1.87,1.06,2.81,1.57.55.3,1.14.52,1.65.85a4,4,0,0,1,.88.91,4,4,0,0,0-2.2-.8,1.42,1.42,0,0,0-1.45,1.15,3.3,3.3,0,0,0,.3,2.38L61,75A8.45,8.45,0,0,1,60.47,74a3.28,3.28,0,0,1-.08-2,1.69,1.69,0,0,0-.78-2A8.5,8.5,0,0,0,57,68.76a.31.31,0,0,0-.29.09,5.56,5.56,0,0,1-3.3,2.29l-.16.09c.31.24.59.47.89.67a34.58,34.58,0,0,0,6.48,3.77,21.67,21.67,0,0,0,5.74,1.55,19.14,19.14,0,0,0,4.6,0,7.78,7.78,0,0,0,3.73-1.48,1.52,1.52,0,0,0,.42-.55c.24-.47,0-.77-.51-.72s-.79.1-1.18.14a1.58,1.58,0,0,1-1.21-.26,7.09,7.09,0,0,0,4.52-2.23c1.43-1.61,2.19-3.49,1.27-5.62a11,11,0,0,0-1.36-2.13q-1.21-1.65-2.49-3.24a7.1,7.1,0,0,0-3.94-2.69,15.55,15.55,0,0,0-2.65-.24c-.28,0-.53.33-.52.72,0,.78.11,1.55.16,2.32a5,5,0,0,1-.66,3.21c-.28.42-.63.8-.94,1.2-.55.72-.48,1.16.3,1.63a4.57,4.57,0,0,1,1.83,2,2.77,2.77,0,0,1,.16.66,4.74,4.74,0,0,0-2.41-2.38,1.42,1.42,0,0,0-1.7.12,2,2,0,0,1-1.5.52,10.43,10.43,0,0,0,1.41-.82A1.41,1.41,0,0,0,64,65.29a3.55,3.55,0,0,1-.63-2.14l.54,1.37s0,.09.07.14c.61.86.91.79,1.5.15a3.7,3.7,0,0,0,.93-2.15,6.54,6.54,0,0,0-.66-4.07,7.21,7.21,0,0,0-.93-1.15c-.79-.9-1.61-1.78-2.41-2.69a34.89,34.89,0,0,0-3.93-4,7,7,0,0,0-3.62-1.37l-2.17-.31a3.1,3.1,0,0,0-2.5.49A11.12,11.12,0,0,0,49,50.76a3.51,3.51,0,0,1,.17-.75,3,3,0,0,1,1.58-1.52c.46-.21.56-.36.34-.81a9.31,9.31,0,0,0-.72-1.16c-.3-.44-.63-.87-.91-1.32a2.17,2.17,0,0,1-.16-1.73,5.29,5.29,0,0,0-.87-4.27,3.42,3.42,0,0,1,1.31,2.43c.16,1,.26,2.1.47,3.14a3.85,3.85,0,0,0,2.63,3.06,5.6,5.6,0,0,0,3.21.33,4.26,4.26,0,0,0,3-4s0-.1,0-.18a2.09,2.09,0,0,1,0,2.22c-.16.29-.31.58-.49.85A2.09,2.09,0,0,0,59,49.93c.55.63,1.27,1.12,1.89,1.71.88.82,1.74,1.68,2.6,2.52.22.21.42.47.78.3a.73.73,0,0,0,.43-.8c-.08-.59-.19-1.17-.31-1.75,0-.19,0-.3.16-.41a3.3,3.3,0,0,0,1.74-2.63,13.65,13.65,0,0,0-.94-6.62,4.25,4.25,0,0,0-2.88-2.68,16.32,16.32,0,0,1-1.77-.77,2.22,2.22,0,0,1-.62-.43c-.44-.43-.6-.93.14-1.3a8.84,8.84,0,0,1,.84-.36,1.12,1.12,0,0,0,.57-1.83,8.33,8.33,0,0,0-4.2-3.25l-.48-.19c-.21-.07-.5-.08-.62-.23s0-.41,0-.59a2.11,2.11,0,0,0-.44-.84,5.74,5.74,0,0,0-2.62-1.33,7.78,7.78,0,0,0-3-.17,3.19,3.19,0,0,0-1.15.54c-.24.15-.18.41,0,.6a2.8,2.8,0,0,0,2.9.77c.37-.12.74-.21,1.07-.29A4,4,0,0,1,50.49,31a1.83,1.83,0,0,1-.86-.49c-.48-.39-.9-.84-1.39-1.2a.88.88,0,0,0-1-.15c-.37.26-.25.69-.14,1a3.35,3.35,0,0,1-.84,3.08A7.15,7.15,0,0,0,46.48,32,1.54,1.54,0,0,0,44,30.63c-1.25.72-2.45,1.53-3.66,2.31a1.41,1.41,0,0,0-.6,1.17c0,.39.36.75.86.9.77.23,1.54.46,2.31.71a.88.88,0,0,0,1-.21,2.67,2.67,0,0,1,2-.89,3.64,3.64,0,0,1,.85.16,2.05,2.05,0,0,0-1.74.73,6.23,6.23,0,0,0-1.79,4c-.07.68-.16,1.36-.24,2a19.34,19.34,0,0,0,.46,7.72A9.64,9.64,0,0,0,45,53a8.86,8.86,0,0,0,2.75,2.52l-.05.13c-.44-.14-.88-.25-1.31-.41a8.46,8.46,0,0,1-.85-.43c-.45-.21-.67-.11-.78.36a3,3,0,0,0,1,3,11.75,11.75,0,0,0,3.39,2.18A5.72,5.72,0,0,1,46,59.14c-.38-.26-.75-.53-1.11-.82a3,3,0,0,0-2.81-.52,7.91,7.91,0,0,1-4.47-.17c-.84-.25-1.28-.28-1.71.73a21.78,21.78,0,0,0-.87,2.28,4,4,0,0,0,1,3.84,4.43,4.43,0,0,0,2.51,1.39c.86.19,1.72.38,2.58.53a9.51,9.51,0,0,0,5.09-.48A2.64,2.64,0,0,1,48,65.68a6.08,6.08,0,0,1,1.19.61,5.54,5.54,0,0,0,2.46.92c1.12.08,1.78-.58,1.6-1.66a.6.6,0,0,1,0-.37c.13.23.26.46.37.69a1.43,1.43,0,0,1,.09.34,1.66,1.66,0,0,0,1.36,1.53,2.9,2.9,0,0,0,2.62-.29,2.1,2.1,0,0,0,.67-2.08c0-.15-.06-.3-.1-.55A3.25,3.25,0,0,1,58.7,66.9Z"/><path class="cls-brain-3" d="M71.6,49.72a5.23,5.23,0,0,0,.82-.95,2.71,2.71,0,0,0,.3-1.12c0-.57-.13-1.15-.06-1.7a4.17,4.17,0,0,1,.53-1.48c.51-.91.53-1.23-.42-2.09-.73-.66-1.59-1.2-2.38-1.81a6.11,6.11,0,0,1-2-2.3,1.8,1.8,0,0,1-.08-.21c0-.07,0-.15,0-.31a4.65,4.65,0,0,0,2.34,2.15,2.92,2.92,0,0,0,1,.22,1.06,1.06,0,0,0,1-.59,4,4,0,0,0,.38-2.34,9.27,9.27,0,0,1,0-1.58A2.74,2.74,0,0,1,73.83,34a4.77,4.77,0,0,0-.25,2.79A5.47,5.47,0,0,1,73.09,40a1.28,1.28,0,0,0,.4,1.88,1.84,1.84,0,0,0,2.24,0,17.2,17.2,0,0,1,2.32-1.43A1.49,1.49,0,0,0,79,39a5,5,0,0,0-1.33-3l.08-.07,1.38,1.43a3.48,3.48,0,0,1,.24-.62,1.78,1.78,0,0,1,1.52-.85,4,4,0,0,1,1.88.19.81.81,0,0,0,.7-.06.79.79,0,0,0,.09-.67,2.38,2.38,0,0,0-1.21-1.48c-1.12-.58-2.23-1.19-3.38-1.71C78,31.7,77,31.41,76,31.06a5.61,5.61,0,0,0-.79-.26c-.14,0-.37-.05-.43,0a.56.56,0,0,0-.06.46,1.73,1.73,0,0,0,1.38,1.1,3.6,3.6,0,0,1,2.08,1.68,6.62,6.62,0,0,0-3.15-1.54.43.43,0,0,1-.4-.39,3.18,3.18,0,0,0-2.53-2.2.62.62,0,0,0-.63.39c-.45.88-.46.87-1,1.17a1.75,1.75,0,0,0-.83-2.68A6.41,6.41,0,0,0,68,28.15a17.11,17.11,0,0,0-4.77-.66,7.91,7.91,0,0,0-1.67.3c-.42.12-.49.45-.22.79.15.18.33.33.54.54a5.36,5.36,0,0,1-2.29-.76,6,6,0,0,0-2.85-1,5.16,5.16,0,0,0-1.51.22.74.74,0,0,0-.44.53c0,.16.2.41.38.52a3,3,0,0,0,1.91.34l-.16.15c-.5.43-.57.91,0,1.31a15.83,15.83,0,0,0,2.3,1.43,7.18,7.18,0,0,1,3.64,3.56l1.12-.21a2.79,2.79,0,0,0-1.74,2.36,1.1,1.1,0,0,0,.65,1.25c.4.22.85.35,1.27.55a5.7,5.7,0,0,1,3.4,5.34A28.35,28.35,0,0,1,67.36,48a4.36,4.36,0,0,1-1.53,3.1c-1.09.88-.93,2-.55,3.09a7.85,7.85,0,0,0,.79,1.52,3.27,3.27,0,0,0,2.5,1.34c.94.14,1.89.25,2.84.39a2.59,2.59,0,0,1,1.46.74.34.34,0,0,0,.54,0,1.27,1.27,0,0,0,.41-1.4,8.46,8.46,0,0,1-.41-1.61,5.1,5.1,0,0,1,1.31-3.54,6.73,6.73,0,0,0-.47,3.56c.25.91.65,1.78.82,2.73.09.53.83.86,1.47.83a6,6,0,0,0,2.64-.94c.44-.26.87-.57,1.33-.81a6,6,0,0,1-5.17,3,11.4,11.4,0,0,0,.77,1.25,19.62,19.62,0,0,1,2.34,3.24A3.93,3.93,0,0,0,82,66.44a15.26,15.26,0,0,0,5.23-.85,4.71,4.71,0,0,0,1.11-.53,2.48,2.48,0,0,0,1.13-1.85c.07.34.16.69.2,1,.13,1.06.91,1.47,1.94,1.6a2.31,2.31,0,0,0,2.17-.74,5.28,5.28,0,0,0,.87-1.64c.32-.92.54-1.87.78-2.81a3,3,0,0,0,.06-.85.83.83,0,0,0-.64-.89,3.39,3.39,0,0,0,.6-2.11,9.15,9.15,0,0,0-.87-4.53,14.32,14.32,0,0,0-1.81-2.41,14.6,14.6,0,0,0-1.49-1.45,1.58,1.58,0,0,0-2.05-.14c-.25.15-.49.3-.73.47a1.64,1.64,0,0,1-1.78.26,1.11,1.11,0,0,0-.33-.07c0,.82.08,1.59.12,2.36l-.13,0a2.77,2.77,0,0,1-.57-1.73c0-.4,0-.8,0-1.2a1.88,1.88,0,0,0-1.36-1.93,5.26,5.26,0,0,0-3.09-.19,3.5,3.5,0,0,1-2.89-.66c.39.08.77.18,1.17.24a3.8,3.8,0,0,0,2-.26,4.23,4.23,0,0,1,3.07.18,8.66,8.66,0,0,1,1.07.5.57.57,0,0,0,.89-.24,2.76,2.76,0,0,0,.19-1.93,5,5,0,0,0-3.65-3.84,1.83,1.83,0,0,1-.59-.3,3.77,3.77,0,0,1,1,0A1.06,1.06,0,0,0,85,38.58a2.55,2.55,0,0,0-1.14-1.36,5.76,5.76,0,0,0-2.56-.88,1.41,1.41,0,0,0-1.65,1.17,8.24,8.24,0,0,0,0,1.65c0,.33.09.66.11,1a.56.56,0,0,1-.53.65,5.81,5.81,0,0,0-3.66,2.25,10.15,10.15,0,0,1-1.1,1.17,2.15,2.15,0,0,0,.05,3.52c.29.25.61.46.89.72a17,17,0,0,1,1.49,1.45,6.55,6.55,0,0,0,2.92,1.93c.9.31,1.83.56,2.72.89A2.73,2.73,0,0,1,84,54.53a4.94,4.94,0,0,0,.55,1.16,3,3,0,0,0,3.55.92,2.91,2.91,0,0,1,.77-.27,6.24,6.24,0,0,1-.75.61,4.7,4.7,0,0,1-.93.35c-.54.16-.63.39-.28.83a3,3,0,0,0,1.71,1,6.73,6.73,0,0,0,2.67.33c.49-.06,1-.18,1.42-.26a2.29,2.29,0,0,1-1.61.79c-.65.06-1.3.07-1.94.07a3.23,3.23,0,0,0-2.13.85,10.65,10.65,0,0,1-1.8,1.34,4.56,4.56,0,0,1-2.92.31c-.49-.07-1-.19-1.45-.29.72-.1,1.45-.15,2.15-.3a9.12,9.12,0,0,0,1.87-.62,1.83,1.83,0,0,0,.78-2.87,4.32,4.32,0,0,0-.73-.87,4.29,4.29,0,0,1-1.42-2.25,3,3,0,0,0-2.15-2.2,25,25,0,0,1-5.93-2.94,4.67,4.67,0,0,0-1.36-.62,2.35,2.35,0,0,0-2.48.77c-.5.51-.91,1.09-1.3,1.57A4.36,4.36,0,0,1,71.6,49.72Z"/><path class="cls-brain-3" d="M34.45,51.17a3.38,3.38,0,0,0-1.26-1.92c-.47-.41-.95-.27-1.17.33a8.47,8.47,0,0,0-.34,3.67c.09,1.13.28,2.25.41,3.26-1.68-2.16-1.6-7.54.66-10.74,0,.42,0,.79,0,1.16A3.61,3.61,0,0,0,37.82,50a6.58,6.58,0,0,0,3.54-3.14,7.16,7.16,0,0,0,.6-2.72c.13-1.55.13-3.12.26-4.67a20.18,20.18,0,0,1,.46-2.29,1.18,1.18,0,0,0-1-1.48,5.13,5.13,0,0,0-1.18-.1c-1,0-2,0-2.93.07A6.28,6.28,0,0,0,34.16,37c-.75.55-1.46,1.17-2.17,1.77a.61.61,0,0,0,.26,1.1,3.2,3.2,0,0,0,.67.14c1,.08,1.25.77,1.3,1.61,0,.32,0,.65.05,1a1.89,1.89,0,0,0,2.54,1.43,1.35,1.35,0,0,0,.38-2.19,1.27,1.27,0,0,0-.12-.1C35.91,41,36,40,36.62,38.85a5.73,5.73,0,0,1,.47-.63A3.24,3.24,0,0,0,36.61,40a1.88,1.88,0,0,0,1.32,1.73c.21.08.31.05.38-.17A2.63,2.63,0,0,1,40,39.82l.15,0h.07A2.23,2.23,0,0,0,39,41.17c-.31.83-.55,1.7-.81,2.55a2.12,2.12,0,0,1-3,1.34,3,3,0,0,1-1.11-1.35c-.29-.56-.56-1.14-.84-1.72a2.25,2.25,0,0,0-4-.2A4.1,4.1,0,0,0,29.67,47l0,.06a7.2,7.2,0,0,0-1.25.89,2.25,2.25,0,0,0-.54,2c.09.52.25,1,.35,1.55,0,.1,0,.27-.06.32-1.23.86-1.28,2-1,3.34,0,0,0,.07,0,.11-.49-.47-.59-1.21-.39-3.18a3.67,3.67,0,0,0-2,.62,3.45,3.45,0,0,0-1.56,2.67c-.05.41-.11.82-.12,1.23a.46.46,0,0,0,.77.4,3.58,3.58,0,0,1,2-.59,3.8,3.8,0,0,0-2.21,1.78,1.83,1.83,0,0,0,.66,2.34,2.49,2.49,0,0,0,1.86.51.53.53,0,0,1,.44.15,3.51,3.51,0,0,0,3.54,1.27l0,.12a10.83,10.83,0,0,1-1.12.29c-.38.07-.54.22-.37.56a7.54,7.54,0,0,0,.71,1.06c.08.12.19.21.26.33-.85-.47-1.71-.95-1.81-2.06a.24.24,0,0,0-.11-.19c-.61-.37-1.22-.74-1.84-1.07a1,1,0,0,0-1.37.19.81.81,0,0,0-.13.58,3.93,3.93,0,0,0,1.27,2.11A6.51,6.51,0,0,0,28.81,66a10.35,10.35,0,0,0,4.5.09,2,2,0,0,0,1.4-2.59,9.24,9.24,0,0,1-.4-1.65,3.2,3.2,0,0,1,0-.73,5.41,5.41,0,0,1-4-.7A5,5,0,0,1,28,57.26l-.13.08c.3.36.57.74.89,1.09a8.28,8.28,0,0,0,1.06,1,5.12,5.12,0,0,0,3.3,1.06,2.1,2.1,0,0,0,2.2-1.69,4.87,4.87,0,0,0,.24-1.17,1,1,0,0,0-.33-.65c-.33-.32-.74-.58-1.1-.89a2.63,2.63,0,0,1-.46-.62c1,1,2.4,1.17,3.69,1.59a10.57,10.57,0,0,0,5,.08,4.48,4.48,0,0,1,.64-.08c1,0,1.2-.41,1.28-1.42a5.38,5.38,0,0,0-.76-2.91,22.39,22.39,0,0,1-1-2.82c-.11-.34-.15-.71-.28-1a.56.56,0,0,0-1-.28c-.47.35-.89.78-1.38,1.11a5.12,5.12,0,0,1-4.29.9c-.52-.14-.69,0-.7.53a5.68,5.68,0,0,0,.66,2.41c.06.14.14.28.24.5A6,6,0,0,1,34.45,51.17Z"/><path class="cls-brain-3" d="M86.26,41.63a11.1,11.1,0,0,1,1.34,1.91,2.72,2.72,0,0,0,1.72,1.28A8,8,0,0,1,92,46c-.65-.18-1.36-.42-2.09-.57a2.7,2.7,0,0,0-2.74.94A1.15,1.15,0,0,0,87.23,48a.79.79,0,0,0,1,.17,3.17,3.17,0,0,0,.45-.23,2.49,2.49,0,0,1,2.81,0,7.54,7.54,0,0,1,2.64,2.31,7.74,7.74,0,0,1,.7,1.12.6.6,0,0,0,.71.33c.36-.06.71-.15.79-.54a1.88,1.88,0,0,0,0-.88,11.35,11.35,0,0,0-2.61-4.66,4.46,4.46,0,0,0-1.1-.75c-.26-.14-.45-.25-.51-.59a3,3,0,0,0-1.24-1.74c-.56-.43-1.16-.82-1.69-1.18a3.73,3.73,0,0,1,2.66,1.55c.31.42.63.84,1,1.24a1.46,1.46,0,0,0,.53.39.74.74,0,0,0,.55,0,.5.5,0,0,0,.11-.47,4.76,4.76,0,0,0-.79-1.37c-1.2-1.23-2.49-2.37-3.71-3.58-.8-.79-1.57-1.62-2.31-2.46a7.73,7.73,0,0,0-2.73-1.9c-.27-.12-.44,0-.5.24,0,0,0,.06,0,.08a4.1,4.1,0,0,0,1.61,3c.28.13.6.21.94.33A2,2,0,0,0,86.26,41.63Z"/><path class="cls-brain-3" d="M52.34,67.88A3.91,3.91,0,0,1,49,66.81a2.09,2.09,0,0,0-1.28-.73,2.21,2.21,0,0,0-.8.14c-.46.18-.9.44-1.37.61-.72.25-.86.82-.29,1.32a6.39,6.39,0,0,0,2.45,1.24c.86.26,1.75.41,2.62.64a8.86,8.86,0,0,1,1.7.54,1.33,1.33,0,0,0,1.24,0,3.36,3.36,0,0,0,1.68-1.31c.38-.68.15-1.19-.63-1.36l-.19,0v-.08C53.5,67.82,52.91,67.81,52.34,67.88Z"/><path class="cls-brain-3" d="M90.14,68.11a3.29,3.29,0,0,0,2-1c.18-.14.33-.31.46-.43-.79-.16-1.56-.33-2.35-.48A6.09,6.09,0,0,0,88.78,66,6.43,6.43,0,0,0,86,67,11.59,11.59,0,0,0,90.14,68.11Z"/><path class="cls-brain-3" d="M86.24,68.7c.57-.08.7-.48.32-.91-.08-.09-.17-.17-.25-.25a.85.85,0,0,0-1-.25,4.91,4.91,0,0,1-2.44.09c-.44-.07-.88-.18-1.32-.27a1.37,1.37,0,0,0-.28,0c-.31,0-.69-.09-.85.25s.18.57.45.7c.62.28,1.26.52,1.9.77A12.13,12.13,0,0,0,86.24,68.7Z"/><path class="cls-brain-3" d="M92.56,58.65a10,10,0,0,0,.09-5.34c0-.12-.15-.29-.24-.3a.57.57,0,0,0-.44.16,1.37,1.37,0,0,0-.19.68c0,.92.16,1.84.16,2.76,0,1.11-.09,2.23-.14,3.34,0,.13,0,.26,0,.39l.12,0C92.12,59.8,92.36,59.23,92.56,58.65Z"/><path class="cls-brain-3" d="M28.88,46.78c-.25-.34-.51-.72-.79-1.07s-.8-.5-1.14,0a9.84,9.84,0,0,0-.9,1.62c-.45,1-.85,2-1.28,3a1.21,1.21,0,0,0-.05.18c-.25.91.07,1.27,1,1.13l2-.33C27.28,48.67,27.36,48.33,28.88,46.78Z"/></g></g></svg>