<svg xmlns="http://www.w3.org/2000/svg" viewBox="0 0 114.24 111.16"><defs><style>.abc51657-1193-4ea0-a02c-f5bcf0f75d66{fill:#dc4844;}.\30 683cfd7-6423-4015-bdb2-4ce5e0d1ab49{fill:#f7dfbf;}.d6fa8b08-8a7d-4c98-ad6e-d23a871fea26{fill:#058486;}.f7180ad9-dccc-401b-bd40-96bc8b676d5c{fill:#6e7cf9;}.fc436431-307d-461a-b40c-8752d7982989{fill:#f05c42;}.yellow{fill:#f6b344;}.\31 0aa44b5-8f8e-4773-af90-aadbb997de5a{fill:#102f41;}.\36 04825e9-0420-4589-84c9-bf88bdb22f86{fill:#403833;}.a23bc613-5062-4ee8-a8b8-cf2115203630{fill:#f7f1e6;}</style></defs><title>creative</title><g id="9769a56f-686c-4028-aeb1-c48343273f70" data-name="Layer 2"><g id="f563f032-534c-4826-a683-2a3ec0986ced" data-name="Layer 1"><g id="cf0503bb-06c0-416d-95e6-40a5439deede" data-name="creative"><ellipse class="abc51657-1193-4ea0-a02c-f5bcf0f75d66" cx="57.12" cy="55.58" rx="57.12" ry="55.58"/><path class="0683cfd7-6423-4015-bdb2-4ce5e0d1ab49" d="M67.39,41.38A29.79,29.79,0,0,0,52.28,52.21a29.14,29.14,0,0,0-5.73,20.05,24.88,24.88,0,0,0,2.86,9.52A22.81,22.81,0,0,0,56,89.36c2.3,1.7,11.15,8.38,20.37,2.19,8.08-5.43,2.37-13.36,8.33-17.07s10.77-5.7,11.73-10.36C101,42.09,75.58,38.63,67.39,41.38ZM90.24,59.62c.23,2.25-2.16,4.34-5.34,4.67s-6-1.24-6.18-3.5,2.16-4.34,5.34-4.66S90,57.37,90.24,59.62Z"/><path id="dot3" data-name="dot3" class="d6fa8b08-8a7d-4c98-ad6e-d23a871fea26" d="M54.41,67a5.23,5.23,0,1,0,7.39.12A5.23,5.23,0,0,0,54.41,67Z"/><path id="dot2" data-name="dot2" class="f7180ad9-dccc-401b-bd40-96bc8b676d5c" d="M65.32,78.21a5.23,5.23,0,1,0,7.39.12A5.24,5.24,0,0,0,65.32,78.21Z"/><path id="dot1" data-name="dot1" class="fc436431-307d-461a-b40c-8752d7982989" d="M60.57,52.76a5.23,5.23,0,1,0,7.39.12A5.24,5.24,0,0,0,60.57,52.76Z"/><g id="lightball" data-name="lightball"><path class="yellow" d="M50.4,33.51c0,5-4.52,11-8.08,13.44-4.15,2.8-10-8.44-10-13.44a9.06,9.06,0,1,1,18.12,0Z"/><path class="yellow" d="M55,23.8A1,1,0,0,0,54.8,23c-.1-.12-.2-.25-.31-.37a1,1,0,0,0-.7-.35.94.94,0,0,0-.73.27l-1.77,1.68a1,1,0,0,0-.08,1.34l.06.07a1,1,0,0,0,1.33.18l2-1.39A1,1,0,0,0,55,23.8Z"/><path class="yellow" d="M41.09,20.93h.09a1,1,0,0,0,1-.92l.16-2.43a1,1,0,0,0-.27-.74,1,1,0,0,0-.71-.31h-.49a1,1,0,0,0-.71.33,1,1,0,0,0-.25.74L40.1,20A1,1,0,0,0,41.09,20.93Z"/><path class="yellow" d="M28.79,36.73A1,1,0,0,0,27.68,36l-2.41.4a1,1,0,0,0-.66.42,1,1,0,0,0-.15.77l.12.47a1,1,0,0,0,.48.61,1,1,0,0,0,.78.08L28.16,38a1,1,0,0,0,.65-1.17A.31.31,0,0,0,28.79,36.73Z"/><path class="yellow" d="M31.13,25.92l.06-.07a1,1,0,0,0-.12-1.34l-1.8-1.64a1,1,0,0,0-.74-.25,1,1,0,0,0-.69.37l-.3.38a1,1,0,0,0-.19.76,1,1,0,0,0,.43.66l2,1.35A1,1,0,0,0,31.13,25.92Z"/><path class="yellow" d="M58,36.46a1,1,0,0,0-.67-.41L55,35.71a1,1,0,0,0-1.1.77l0,.09a1,1,0,0,0,.68,1.15l2.33.69a1,1,0,0,0,.78-.09,1,1,0,0,0,.47-.62c0-.17.07-.32.1-.48A1,1,0,0,0,58,36.46Z"/><path class="10aa44b5-8f8e-4773-af90-aadbb997de5a" d="M41.87,22.55H40.53A11,11,0,0,0,30.3,33.49a10.24,10.24,0,0,0,4.81,9.08s0,7.27,0,7.37c0,2.07,2.73,3.75,6.1,3.75s6.09-1.68,6.09-3.75c0,0,0-7.37,0-7.37a10.25,10.25,0,0,0,4.82-9.08A11,11,0,0,0,41.87,22.55ZM45,40.19l-.62.32v2.92c0,.5-.27,2-3.18,2S38,43.93,38,43.43V40.51l-.61-.32a6.88,6.88,0,0,1-3.73-6.5,7.53,7.53,0,1,1,15,0A6.87,6.87,0,0,1,45,40.19Z"/></g><g id="pen" data-name="pen"><polygon class="10aa44b5-8f8e-4773-af90-aadbb997de5a" points="44.21 73.98 46.92 72.03 50.26 76.76 47.55 78.71 44.21 73.98"/><path class="604825e9-0420-4589-84c9-bf88bdb22f86" d="M29.38,52.48a1.52,1.52,0,0,1,.34-2.09l.15-.11a1.48,1.48,0,0,1,2.07.35S46.35,69.35,47.43,70.69a1.72,1.72,0,0,1-.14,2.68l-2,1.41a1.88,1.88,0,0,1-2.62-.51Z"/><path class="a23bc613-5062-4ee8-a8b8-cf2115203630" d="M52.78,86.46a22.84,22.84,0,0,1-5.54-4.9,3.58,3.58,0,1,1,5.83-4.14,21,21,0,0,1,2.38,5.29A5.09,5.09,0,0,0,52.78,86.46Z"/><path class="fc436431-307d-461a-b40c-8752d7982989" d="M55.88,87.55c-.47.32-1.69-.19-3.1-1.09a5.09,5.09,0,0,1,2.67-3.75C56.16,85,56.48,87.12,55.88,87.55Z"/></g></g></g></g></svg>