<svg xmlns="http://www.w3.org/2000/svg" viewBox="0 0 1083.44 94.31"><defs><style>.\31 bcd197f-3f84-48cd-aa84-8f1b685a22dc{fill:#07add3;}.\36 349e9b0-6b81-4e6f-880b-af34c894768f{fill:#9adbf9;}</style></defs><title>navbg</title><g id="9b07d3cc-d797-4f9d-bfd8-7def5840b85a" data-name="Layer 2"><g id="13f5c5c3-53b3-4d84-9d6b-9d954e343422" data-name="Layer 1"><path class="1bcd197f-3f84-48cd-aa84-8f1b685a22dc" d="M34.47,91.18a721.33,721.33,0,0,0,81.86,3c27.69-.49,56.5-2.21,80.27-6,25-4,44.26-9.65,65.64-14.71a386.18,386.18,0,0,1,72.09-10.36A915.1,915.1,0,0,1,446.71,65c18.14,1.35,35.86,3,53.24,4.93,19,2.06,37.37,4.61,56.86,6.32C634.5,83,712.18,76,785.91,69.38,823.25,66,860.18,63,899.75,61.91c35.94-1,70.93-.92,105.26,2.26,28.24,2.61,54.35,6.46,78.43,11.08V24.59H0V86.22C10.36,88.28,22,90,34.47,91.18Z"/><path class="6349e9b0-6b81-4e6f-880b-af34c894768f" d="M34.47,73.79a653,653,0,0,0,81.86,3.33c27.69-.54,56.5-2.44,80.27-6.62,25-4.4,44.26-10.69,65.64-16.31a352,352,0,0,1,72.09-11.47,825.46,825.46,0,0,1,112.38,2c18.14,1.5,35.86,3.37,53.24,5.46,19,2.28,37.37,5.1,56.86,7,77.69,7.56,155.37-.2,229.1-7.55,37.34-3.72,74.27-7.06,113.84-8.28,35.94-1.11,70.93-1,105.26,2.5a737.55,737.55,0,0,1,78.43,12.28V0H0V68.29A324.37,324.37,0,0,0,34.47,73.79Z"/></g></g></svg>