<svg xmlns="http://www.w3.org/2000/svg" viewBox="0 0 27.94 29.46"><defs><style>.cls-1{isolation:isolate;}.cls-2{fill:#21bfe7;opacity:0.7;mix-blend-mode:multiply;}.cls-3{fill:#87defd;}.cls-4{fill:#fff;}</style></defs><title>b3</title><g class="cls-1"><g id="Layer_2" data-name="Layer 2"><g id="Layer_1-2" data-name="Layer 1"><path class="cls-2" d="M14,0C6.26,0,0,6.6,0,14.73S6.26,29.46,14,29.46s14-6.59,14-14.73S21.68,0,14,0Zm.51,26.2c-6.75,0-12.23-5.78-12.23-12.9S7.73.39,14.48.39,26.71,6.17,26.71,13.3,21.23,26.2,14.48,26.2Z"/><path class="cls-3" d="M1.93,11.42c1.19-4.74,5-8.81,9.67-9.26,4-.38,4.75,6.34.93,7.33-4.49,1.16-6.25,7.29-6,11.65a1.12,1.12,0,0,1-1.68,1C1.15,20.21,1,15.12,1.93,11.42Z"/><path class="cls-3" d="M19.34,3.85a2.37,2.37,0,0,1,1.24.47c2.73.87,5.06,3.86,4.53,6.88-.3,1.57-1.42,2.86-3.06,2.7-3.14-.31-7-4.78-5.47-8.2A2.77,2.77,0,0,1,19.34,3.85Z"/><path class="cls-4" d="M19.52,2.77c3.38,0,3.38,5.53,0,5.53S16.14,2.77,19.52,2.77Z"/></g></g></g></svg>