<svg xmlns="http://www.w3.org/2000/svg" viewBox="0 0 38.28 38.74"><defs><style>.cls-1{isolation:isolate;}.cls-2{fill:#21bfe7;opacity:0.7;mix-blend-mode:multiply;}.cls-3{fill:#87defd;}.cls-4{fill:#fff;}</style></defs><title>b5</title><g class="cls-1"><g id="Layer_2" data-name="Layer 2"><g id="Layer_1-2" data-name="Layer 1"><path class="cls-2" d="M19.14,0A19.26,19.26,0,0,0,0,19.37,19.26,19.26,0,0,0,19.14,38.74,19.26,19.26,0,0,0,38.28,19.37,19.26,19.26,0,0,0,19.14,0Zm.7,34.45a16.87,16.87,0,0,1-16.76-17A16.87,16.87,0,0,1,19.84.52a16.86,16.86,0,0,1,16.76,17A16.87,16.87,0,0,1,19.84,34.45Z"/><path class="cls-3" d="M2.64,15C4.27,8.78,9.44,3.43,15.89,2.84c5.5-.5,6.51,8.34,1.28,9.64C11,14,8.61,22.06,8.92,27.8a1.54,1.54,0,0,1-2.3,1.34C1.57,26.57,1.35,19.88,2.64,15Z"/><path class="cls-3" d="M26.5,5.06a3.38,3.38,0,0,1,1.7.62c3.74,1.15,6.93,5.08,6.2,9.05-.4,2.06-1.93,3.76-4.18,3.55-4.31-.4-9.53-6.28-7.5-10.79A3.79,3.79,0,0,1,26.5,5.06Z"/><path class="cls-4" d="M26.74,3.64c4.64,0,4.64,7.27,0,7.27S22.11,3.64,26.74,3.64Z"/></g></g></g></svg>