<svg xmlns="http://www.w3.org/2000/svg" viewBox="0 0 349.25 237.42"><defs><style>.cls-1{isolation:isolate;}.cls-2{fill:#c63900;}.cls-3{fill:#222860;}.cls-4{fill:#fbe52c;}.cls-5{fill:#262424;}.cls-6{fill:#381d0c;}.cls-7{fill:#ffc580;}.cls-8{fill:#ffd9ab;}.cls-9{opacity:0.96;mix-blend-mode:multiply;}.cls-10{fill:#c4eeff;}.cls-11{fill:#745fed;}.cls-12{fill:#48250f;}.cls-13{fill:#ff9970;}.cls-14{fill:#2e346b;}.cls-15{fill:#3c4385;}.cls-16{fill:#f2c111;}.cls-17{fill:#fff;}</style></defs><title>boy</title><g class="cls-1"><g id="Layer_2" data-name="Layer 2"><g id="Layer_1-2" data-name="Layer 1"><path class="cls-2" d="M245.46,16.6c-1.13,2.3-2.61,4.36-3.68,6.68a34.23,34.23,0,0,0-2.91,9.4,79.53,79.53,0,0,0-1.11,14.43c.08,3.15.21,6.29.43,9.42.07,1,.15,2,.24,3s.66,2.82.39,3.75q-.07-2.94-.18-.75l.27-1.68a6.29,6.29,0,0,1,2-3A11.43,11.43,0,0,1,239.57,59c1.7-1.19,1.93-1.38.67-.57l-.77.46c-1.05.6-2.13,1.15-3.21,1.67s-1.95.91-2.94,1.33l-1.28.53.57-.22c-1.63,1.07-4.39,1.48-6.21,2-4.25,1.24-8.55,2.23-12.85,3.16s-8.63,1.81-12.93,2.8c-5.92,1.35-12.52,2.44-17.26,6.89a14.17,14.17,0,0,0-3.65,14.07c1.6,5.35,5.61,7.88,10.59,8.72,3.14.53,6.32-.63,9.39-1.43,2.41-.63,4.83-1.2,7.25-1.74,4.62-1,9.26-2,13.88-3,9.73-2.21,19.69-5,28.67-9.88,6.25-3.41,11.64-8.39,13.81-15.76,1.89-6.42.31-12.9-.39-19.26-.54-4.89-.92-9.84-1.27-14.76a44.46,44.46,0,0,0-1-7.66c-.84-3.4-1.68-5.09-2.07-7.28A7.18,7.18,0,0,0,253,13.11c-2.61-.44-6.12.69-7.49,3.49Z"/><path class="cls-2" d="M301,76c-10-.69-19.26,5-28.16,9.61-3.47,1.79-6.94,3.57-10.47,5.23q-2.58,1.2-5.2,2.33c-.87.37-1.75.74-2.63,1.09-3.08,1.23,2.23-.74-.27.1-8.58,2.88-17.39,4.6-26.18,6.39q-14.43,2.94-28.94,5.28c-6.69,1.08-11.83,9.53-10.39,16.41,1.59,7.61,7.75,11.69,14.89,10.53q14.5-2.36,28.94-5.28c8.89-1.81,17.94-3.4,26.57-6.53a174.8,174.8,0,0,0,23.27-10.68c3.67-2,7.33-4,11-5.87,2-1,3.91-2.23,5.84-3.4A29,29,0,0,0,304,97.8a9.8,9.8,0,0,0,2.83-3.16c-1,1.24-1,1.3-.1.2,2.85-3.37,4.33-7.21,3-11.64A9.83,9.83,0,0,0,301,76Z"/><path class="cls-3" d="M186.85,93.13a19.47,19.47,0,0,1,20.22-1.36c1.05.55,2.12-1.14,1.05-1.71-7-3.8-15.31-3-21.94,2-.58.43.07,1.5.67,1.09Z"/><path class="cls-2" d="M184.3,69.72c5.14-.29,10.43.07,15,2.43,10.12,5.22,13.88,18.54,14.88,30.69.63,7.6,3.83,18.64-1.56,23.88-9,8.79-23.65,10.13-34.5,14.19-24.89,9.33-42,12.54-55.52,11.41-21.13-1.76-40.53-16.53-43.81-28.53-.34-8.47,2.93-28.87,9.72-33.5S124,82.5,131.81,80.67l29.79-7C169.11,71.92,176.67,70.16,184.3,69.72Z"/><path class="cls-2" d="M20.15,144.75c3.62-1.95,7.21-3.94,10.89-5.77,5.86-2.91,11.91-5.39,18-7.8.66-.26,1.32-.54,2-.78-1.65.61.79-.24,1.12-.35q2.58-.84,5.21-1.45c1.77-.41,3.54-.71,5.33-.95.22,0,2.59-.32,1.43-.19-1,.1,1.56-.11,1.87-.13,7-.39,14,.44,21.06.12a10.62,10.62,0,0,0,10.32-8.76c1-5-1.58-10.48-6.28-11.85-15.59-4.52-33.7-.71-48.66,6.22-11,5.1-22.27,11.63-30,21.63C10.46,137.11,17.59,146.13,20.15,144.75Z"/><path class="cls-2" d="M143,219.46a86.76,86.76,0,0,0,3-14.13,164.43,164.43,0,0,0,.66-27.43c-.57-9.27-2.86-18.26-5.69-26.91a83,83,0,0,0-12.62-24.54c-3.53-4.58-10.12-5-14.69-1.65-4.22,3.09-7.22,10.46-4.2,15.45,1.42,2.34,2.79,4.7,4.26,7l.9,1.42q-1.39-2.27-.36-.54c.42.73.85,1.46,1.26,2.2,1.91,3.45,3.57,7,5.15,10.68a68.22,68.22,0,0,1,4.12,11.17c-.65-2.75.1.4.25,1,.26,1,.51,2,.75,2.93.47,2,1,3.92,1.38,5.89a116.34,116.34,0,0,1,2,11.93c.09.85.17,1.71.25,2.57.05.57.09,1.14.14,1.72,0-.91,0-.82,0,.26,0,2-.05,4.08-.16,6.12-.23,4.07-.3,8.13-.73,12.2S141.71,224,143,219.46Z"/><path class="cls-4" d="M221.34,96.06l-1.57-9.88c-1.33-8.35-8.75-13.7-16.59-12L135.61,89.35c-10.39,2.32-17.38,13.19-15.62,24.27h0c1.76,11.08,11.61,18.17,22,15.85l67.57-15.12C217.4,112.6,222.67,104.41,221.34,96.06Z"/><path class="cls-5" d="M194,98.43a130.88,130.88,0,0,1-1.57-21.79l10.78-2.41c7.84-1.75,15.26,3.6,16.59,12l1.57,9.88c1.33,8.35-3.94,16.54-11.78,18.29l-10.68,2.39A101.88,101.88,0,0,1,194,98.43Z"/><path class="cls-5" d="M198.57,117.34l-.14-.39a103.21,103.21,0,0,1-4.94-18.41,132.94,132.94,0,0,1-1.58-21.88v-.43l11.19-2.51c8.09-1.8,15.78,3.74,17.15,12.36L221.82,96c1.37,8.62-4.09,17.1-12.18,18.91Zm-5.69-40.28a129,129,0,0,0,1.57,21.26h0a100.74,100.74,0,0,0,4.74,17.83l10.29-2.3c7.56-1.69,12.67-9.63,11.39-17.69l-1.57-9.87c-1.28-8.06-8.48-13.24-16-11.55Z"/><path class="cls-5" d="M161.49,77.37c-8.38,3.91-10,16.84-9.62,25.27.43,9.54,4,19.47,10.2,26.21,5.63,6.12,15.09-2.73,9.74-9.3A34.58,34.58,0,0,1,164,100.67a45.68,45.68,0,0,1,.14-10.77c.45-3.8,1.06-7.11.48-10.9a2.17,2.17,0,0,0-3.15-1.63Z"/><path class="cls-6" d="M167.72,113.76c6.86-8.3,10.59-19.56,14.59-29.56a.8.8,0,0,0-1.29-.89c-2.76,2.61-6.29,5.79-10,4.79a29.09,29.09,0,0,0,8.43-27.88.78.78,0,0,0-1.32-.45c-3.68,4.19-7.91,8.75-13.39,8.89A36.43,36.43,0,0,0,169.59,58c.7-2.59,2.15-6.95-.34-8.71a.79.79,0,0,0-1.12.27c-4.27,6.72-11.25,12.35-18.93,9.72C143.31,57.27,139,52,134,48.43s-10.52-4.9-16.55-3.1c-6.89,2.05-13.32,6.76-18.4,12.16A49.81,49.81,0,0,0,87.21,77.83c-1.68,6.09-1.8,14.81,2.86,19.34,2.09,2,4.91,3.57,7.24,5.29,2.63,1.94,5.27,3.86,8,5.71,6.25,4.29,12.59,8.5,19.47,11.58C138.41,125.86,156.32,126.61,167.72,113.76Z"/><path class="cls-7" d="M146.06,127.21c3.12-3.31,4.11-9,1.54-12.6a7.13,7.13,0,0,0-5.91-3,7.8,7.8,0,0,0-6,3.32,32,32,0,0,0-5.86,8.1c-1,2.36-.78,5.45,1.09,6.93a6.09,6.09,0,0,0,3.07,1.09A14,14,0,0,0,146.06,127.21Z"/><path class="cls-8" d="M135.2,125.91c5.62-13.69,14.51-26.47,8.85-42.26-3.46-9.66-22.58-18.15-30.12-17.8a26.71,26.71,0,0,0-19.78,11C90,82.46,87.83,89.64,83.32,95c-3.92,4.65-5.47,8.46-6.51,14.55a15.07,15.07,0,0,0,1,7.69c5.05,13.69,15,20.11,28.46,23.31,6.72,1.6,14.53,2.42,20-2.36A45.52,45.52,0,0,0,135.2,125.91Z"/><g class="cls-9"><path class="cls-10" d="M138.22,114c2.13-6.67-2.9-12.63-8-16.37-8.62-6.36-20.32-12.46-30.84-13.93-3.48-.48-7.18-.65-10.45.92s-4.31,7.32-3.69,11c.5,3,2.9,5.1,5.43,6.39a13.14,13.14,0,0,0,8.9,1.35,20.32,20.32,0,0,0,5.3-3c3.79-2.66,8.72-.38,9.35,4.33.48,3.6,1.21,7,2.37,9,3.12,5.23,8.9,8.89,15,6.9A10.34,10.34,0,0,0,138.22,114Z"/></g><path class="cls-7" d="M105.23,104.46c-1.84,1.61-5,2.4-5.74,5.16a5.08,5.08,0,0,0,3.07,5.56c.6.24,1.3-.57,1-1.19-.89-1.67-3.15-3.13-1.4-5.21,1.17-1.38,2.9-2,3.75-3.73.23-.46-.24-1-.65-.59Z"/><g class="cls-9"><path class="cls-10" d="M108,118.24a56.18,56.18,0,0,0,5.94-11.44,6.51,6.51,0,0,0,.51-2,4.11,4.11,0,0,0-1.71-3.3c-1-.75-4.6-1.26-5.78-1.62-4.58,3.53-9.12,7.64-11.32,13.19a1.84,1.84,0,0,0-.19,1.14,1.66,1.66,0,0,0,.66.82,19.08,19.08,0,0,0,10.2,4,1.84,1.84,0,0,0,1-.14A2.19,2.19,0,0,0,108,118.24Z"/></g><path class="cls-11" d="M140,114.57c3.22-11.41-8.06-18.81-15.68-23.39a78.2,78.2,0,0,0-16.27-7.6c-5.1-1.65-10.92-3-16.35-2-5.24,1-8,4.91-8.51,10.5-.49,6,2.63,10.09,7.58,12.29a15,15,0,0,0,7.47,1.3c2.9-.3,4.94-2,7.43-3.43,2.21-1.31,4.93-1.16,6.19,1.39.67,1.36.67,3.2.95,4.69a26.21,26.21,0,0,0,1.38,5c4.46,10.81,20.91,14.49,25.81,1.28a1.93,1.93,0,1,0-3.65-1.22,8.76,8.76,0,0,1-11.8,4.94c-4.24-1.78-6.87-5.7-7.83-10.38-.82-4-1.06-7.9-4.86-9.88s-6.73-.06-10.11,2A10.56,10.56,0,0,1,88.7,98c-1.65-1.79-1.88-4.18-1.53-6.63.44-3,1.63-4.91,4.45-5.62,4.42-1.11,9.36,0,13.57,1.27a68.5,68.5,0,0,1,13.59,5.7c6.38,3.47,20.46,10.49,17.61,20.6C135.67,115.92,139.31,117.16,140,114.57Z"/><path class="cls-12" d="M101.92,97.48a4,4,0,0,1-5.87-.27,4.74,4.74,0,0,1,.47-6.32,4,4,0,0,1,5.88.26A4.74,4.74,0,0,1,101.92,97.48Z"/><path class="cls-12" d="M125.87,108.91a4,4,0,0,1-5.87-.27,4.74,4.74,0,0,1,.47-6.32,4,4,0,0,1,5.88.26A4.74,4.74,0,0,1,125.87,108.91Z"/><path class="cls-13" d="M116.24,125.4c-2.28-.11-4.54.82-6.88.62a16.69,16.69,0,0,1-7.33-2.56c-.84-.52-1.59.75-.85,1.38a13.07,13.07,0,0,0,7.72,3.09c2.31.15,5.73,0,7.51-2,.18-.2.1-.55-.17-.56Z"/><path class="cls-13" d="M140.17,120.5c.28-1.5,1.89-2.78,3.2-1.82s.6,2.84-.34,3.94a10.39,10.39,0,0,1-2.32,2c-.13.08-1.16.8-1.3.7.12-.44.24-.88.35-1.31a2.79,2.79,0,0,1,1.38,1.39.89.89,0,0,0,1.57-.85,3.54,3.54,0,0,0-3.48-2.35,2.79,2.79,0,0,0-2.45,2.25,2.32,2.32,0,0,0,1.57,2.68c1.32.29,2.88-.87,3.91-1.68,2.21-1.73,4.85-5.31,2.19-7.76-2-1.82-5,0-4.95,2.75,0,.47.58.49.67,0Z"/><path class="cls-4" d="M91.42,121.8c-.87-1.76-2.3-2.49-3.86-3.46-2.22-1.37-4.44-2.74-6.6-4.21a108.85,108.85,0,0,1-11.23-8.79A106.44,106.44,0,0,1,59.32,94.63c-3-3.59-6.29-7.4-8.26-11.84-2.13-4.81-1.39-9.43.82-14.21a102.14,102.14,0,0,1,7-12.74c2.8-4.3,6.25-8.45,10.74-10.71C74,43,78.7,42.93,83.26,43.57c10.47,1.48,19.79,6.74,27.35,14.32,1.42,1.42,3.79-.74,2.39-2.28-12.4-13.57-38-24-52.66-7.08a72.72,72.72,0,0,0-9.08,14.21c-2.26,4.31-4.72,8.92-4.79,13.94s2.19,9.24,4.79,13a99.83,99.83,0,0,0,11,13.14A109.87,109.87,0,0,0,76,114.74a91.57,91.57,0,0,0,8.2,5.36c2.11,1.2,4.4,2.85,6.91,2.4a.52.52,0,0,0,.33-.7Z"/><path class="cls-12" d="M157.17,110c6,.6,11.06-4.47,11.54-10.81a.82.82,0,0,0-.59-1l-.13,0h0a.59.59,0,0,0-.26,0,.69.69,0,0,0-.29.16c-3.59,3.1-8.76,1.92-11.42-1.66-2.9-3.91-2.72-9.17-1.8-13.92s1.37-14.15-4.7-15a8.14,8.14,0,0,0-3.12.44A4.52,4.52,0,0,1,141,66c-2-3.14-2.05-7.37-4.59-10.15-2.08-2.29-5.09-2.62-7.86-3.4-5.23-1.48-6.89-6.19-8.17-11.38a.79.79,0,0,0-1.55-.07,103.2,103.2,0,0,0-3.25,13,19.1,19.1,0,0,0-7.35-7.14c-2.48-1.37-6.73-2.44-6.43-6.21.09-1.06-1.18-1.13-1.56-.29-2.8,6.12,2.55,10.7,2.54,16.61A22,22,0,0,1,86.81,45.87a.81.81,0,0,0-1.53.36A26.3,26.3,0,0,0,88.6,60.92a33.4,33.4,0,0,0,4.47,5.68l.64.69h-.12A30.6,30.6,0,0,1,84,64.52c-.62-.3-1.3.62-1,1.23,4.18,8.19,11.39,14,20.15,15.32,5.9.9,10.8-.89,15.23-4.84.09,4.72,3.72,8.84,8.37,8.56a.9.9,0,0,0,.86-1.05A18,18,0,0,1,128,75c3.62,10,1.35,22.14,7.71,31,4,5.63,10.79,10.13,17.66,7.21a.93.93,0,0,0,.45-1c-.2-1.46-2-2.43-2.89-3.32-2.15-2.06-3.2-4.37-2.7-7.27.88,1.62,1.33,3.39,2.41,4.91A9.43,9.43,0,0,0,157.17,110Z"/><path class="cls-14" d="M109.13,136.28c2.73-3.61,4.11-12.11-.93-16.85-4-4.41-10.57-6.39-16.09-4s-9.23,9.6-7.33,15.49A13.84,13.84,0,0,0,87,135a15.54,15.54,0,0,0,10.7,6.32A13,13,0,0,0,109.13,136.28Z"/><path class="cls-4" d="M105.61,133.57c1.85-2.45,2.79-8.22-.63-11.44-2.75-3-7.18-4.34-10.93-2.7s-6.27,6.52-5,10.52a9.2,9.2,0,0,0,1.49,2.76A10.57,10.57,0,0,0,97.84,137,8.84,8.84,0,0,0,105.61,133.57Z"/><path class="cls-8" d="M.42,142c-.21,1.52,1,2.07,2.43,1.88a22,22,0,0,0,3.4-1.17c.18-.07.3.18.15.31L3.25,145.6C1.58,147,.49,148.05.11,149a2.08,2.08,0,0,0,.33,1.93c.74,1,1.87.82,3.35-.11.53-.33,3.3-2.22,4.91-3.32.16-.11.34.11.2.27-1,1.14-2.57,2.89-3.2,3.68-1.35,1.71-1.39,4,.55,4.38a3.79,3.79,0,0,0,2.43-1c2.49-2.14,3.19-2.81,5.44-4.94a.16.16,0,0,1,.26.19c-.64,1.76-1,3.62.41,5,1.07,1,2.68,1.13,4.53-4.38.61-1.82,1.43-5.66.85-8.13s-2.64-5.83-5.85-7.05C10.81,134.2,5.78,137,3,139,1.74,140,.54,141.14.42,142Z"/><path class="cls-8" d="M138.83,234.87c-1.33.63-2.15-.49-2.36-2a26.78,26.78,0,0,1,.15-3.79.16.16,0,0,0-.32-.07c-.4,1.06-1,2.65-1.48,3.9-.8,2.08-1.48,3.49-2.25,4.13a1.75,1.75,0,0,1-1.84.18c-1.07-.5-1.24-1.69-.8-3.45.16-.64,1.13-4,1.7-5.92a.17.17,0,0,0-.3-.14c-.76,1.35-1.93,3.41-2.48,4.27-1.19,1.84-3.24,2.48-4.11.6a4.29,4.29,0,0,1,.24-2.75c1.27-3.12,1.69-4,3-6.89a.17.17,0,0,0-.24-.22c-1.42,1.14-3,2-4.63.92-1.22-.82-1.75-2.44,2.75-5.81,1.49-1.11,4.75-3,7.15-3A9.71,9.71,0,0,1,141,218.9c2.15,3.24,1,9.14-.14,12.49C140.32,233,139.59,234.51,138.83,234.87Z"/><path class="cls-4" d="M291.7,30c-1.94-6.35-4-14.08.06-20.24a1,1,0,0,0,0-.1.71.71,0,0,0-.1-.94C286.21,3.33,279.49,0,271.78,0c-4.22,0-8.22,1.13-12.3,2.35S250.94,4.48,247,6.61c-3,1.65-5.25,4.21-5.53,7.94a9.87,9.87,0,0,0,5.16,9.5c5.13,2.7,11.51,3.63,17.22,4.18,9.05.89,18.05,1.58,27,3.07C291.57,31.41,291.86,30.57,291.7,30Z"/><path class="cls-3" d="M240.16,63.53a12.9,12.9,0,0,0,12.34,4.16c1-.22,1-2-.09-1.93a14.25,14.25,0,0,1-11.15-3.6c-.7-.63-1.75.67-1.1,1.37Z"/><path class="cls-3" d="M249.33,100.31c-.71,5.14-1.71,11.57,3.13,14.61,1.12.7,2.06-1,1.12-1.81-3.47-3.14-3.49-8.14-2.92-12.74.12-.93-1.2-1-1.33-.06Z"/><path class="cls-15" d="M138.13,211.89a151.86,151.86,0,0,0-.78-29.78q-.87-7.32-2.36-14.5c-1-4.68-1.74-10.11-3.75-14.38a.91.91,0,0,0-1.68.64c.68,4.77,2.52,9.46,3.52,14.18s1.76,9.3,2.36,14A222.2,222.2,0,0,1,137,211.84a.58.58,0,1,0,1.16,0Z"/><path class="cls-15" d="M131.59,147.82c1.1-6.12,9.43-7.69,14-8.64,6.19-1.28,12.45-1.83,18.68-2.62,10.54-1.33,21.05-3.28,31.53-5.14,12.11-2.14,24.21-4.39,36.31-6.62,7.68-1.42,15.86-2.21,23.37-4.66,7.89-2.57,15.24-7.06,22.3-11.67,8.09-5.28,15.93-11,24-16.26,1.11-.73.27-2.64-.85-1.91-14,9.11-27.49,20.56-42.9,26.77-8,3.23-17.09,4.05-25.44,5.62-23,4.33-46.09,9.19-69.24,12.06-7.25.9-14.63,1.45-21.71,3.66-4.23,1.33-10.5,3.73-10.75,9.38,0,.45.56.45.63,0Z"/><path class="cls-4" d="M344.17,115.25c1.93-1.18,1.47-3.37,1.31-5.39a95,95,0,0,1-.28-10.41c.2-6.84,1.16-13.78,4-20.09a.84.84,0,0,0-.7-1.12c-5.09.41-10.28,1.82-15.36,1.21-2.67-.32-4.83-1.65-7.25-2.72-2.85-1.26-5.77-2.34-8.61-3.61-7.16-3.2-18.41-4-21.72,6.07-3.11,9.41,10.1,14.72,15.58,18.28,5,3.24,9,7.39,13.57,11.23a36.46,36.46,0,0,0,10.16,6.45,13.31,13.31,0,0,0,6.57,1,8.37,8.37,0,0,0,1.89-.5c.15-.06,1-.45.65-.33l0,0A.64.64,0,0,0,344.17,115.25Z"/><path class="cls-16" d="M278.58,13.49c2,.5,3.94,1,5.94,1.43,1.7.36,2.26-2.34.5-2.56-2-.26-4.06-.41-6.1-.58-.91-.08-1.24,1.48-.34,1.71Z"/><path class="cls-16" d="M278.68,20.41a67.26,67.26,0,0,0,8.29,2c1.25.18,1.62-1.94.45-2.33a66.86,66.86,0,0,0-8.09-1.73c-1.2-.22-1.9,1.69-.65,2Z"/><path class="cls-16" d="M334.67,98.66c1.62,3.83,6.44,5.3,10,5.61,1.08.1,1.45-1.73.4-2-1.79-.49-3.62-.94-5.36-1.56s-3.2-1.71-4.91-2.24a.15.15,0,0,0-.17.2Z"/><path class="cls-16" d="M335.41,91.45A10.75,10.75,0,0,0,344,94.39c1.16-.15,1-2-.09-2.09a18.83,18.83,0,0,1-7.68-2.15c-.81-.48-1.49.69-.81,1.3Z"/><path class="cls-6" d="M148.38,100.22c-1.43-5.58-1.1-11-1.17-16.74,0-3.18-.74-5.85-3-7.9-.4-.36-1,.4-.63.78,3.66,3.68,2.29,9.15,2.47,14a34,34,0,0,0,1.69,10.06c.13.37.74.15.64-.24Z"/><path class="cls-6" d="M128.78,72.75a10.64,10.64,0,0,1,4-6c.48-.35.11-1.21-.38-.86a9.62,9.62,0,0,0-4,6.81.23.23,0,0,0,.46.08Z"/><path class="cls-6" d="M119.52,74.26a12.25,12.25,0,0,1,7.91-6.63c.66-.18.48-1.28-.18-1.1A12.29,12.29,0,0,0,119,74c-.12.31.35.56.5.25Z"/><path class="cls-6" d="M95,68.23c8.61,5,17.86-5.69,27-1.75.37.16.62-.44.31-.67-8.34-6.07-18.22,6.47-26.85,1.73-.42-.23-.85.44-.43.69Z"/><path class="cls-6" d="M105.55,57.31A20.73,20.73,0,0,1,112,59.26c.41.2.64-.53.23-.73a20.37,20.37,0,0,0-6.61-1.89c-.4,0-.44.62,0,.67Z"/><path class="cls-6" d="M116,55.38c1.2,1.83,1.94,3.41,4.13,3.91s4.51-.11,6.74.08a.32.32,0,0,0,.12-.62c-1.83-.58-3.64-.12-5.53-.24A4.5,4.5,0,0,1,118,56.9a7.09,7.09,0,0,0-1.68-1.85c-.2-.13-.39.14-.27.33Z"/><path class="cls-6" d="M136.6,82.49c-3.67,6.88-3.63,15.17.74,21.35.36.52,1-.17.72-.69a20.47,20.47,0,0,1-1-20.33c.18-.35-.28-.68-.47-.33Z"/><path class="cls-6" d="M156.65,101.26c1.95,3.74,8.49,2.22,10.36-1.1.27-.48-.39-.94-.67-.46-1.54,2.62-7.6,4.53-9.29,1.35a.23.23,0,0,0-.4.21Z"/><path class="cls-17" d="M216.35,91.77a15.52,15.52,0,0,1-2,13.12c-.7,1.06.86,2.14,1.52,1a16.93,16.93,0,0,0,1.36-14.64c-.21-.61-1.07-.14-.87.47Z"/><path class="cls-17" d="M212.7,107.82c-.6.37-1.15.8-1.75,1.17a19.68,19.68,0,0,0-1.82,1.07.93.93,0,0,0,.73,1.62,5.49,5.49,0,0,0,3.57-3.18c.19-.45-.35-.92-.73-.68Z"/><path class="cls-17" d="M125.76,125.58c-.54-.32-1.08-.6-1.64-.87a11.1,11.1,0,0,0-1.79-.82,1,1,0,0,0-.63,2,10.78,10.78,0,0,0,1.88.37,17.13,17.13,0,0,0,1.89.24.5.5,0,0,0,.29-.89Z"/><path class="cls-17" d="M90.14,106.7c-1.42-1.64-3.5-3.4-5.79-3.26a1.12,1.12,0,0,0-.42,2.14c.87.36,1.86.46,2.77.77a15.13,15.13,0,0,1,2.8,1.15.52.52,0,0,0,.64-.8Z"/><path class="cls-17" d="M86.31,87.42c-3.78,4-3.7,11.81,1.69,13.84.78.29,1.5-.85.93-1.49-1.37-1.54-2.7-2.91-3.18-5.09a9.72,9.72,0,0,1,1.1-6.77c.21-.37-.22-.83-.54-.49Z"/><path class="cls-17" d="M90.36,101.94c.07.59.7.9,1.17,1.07a3.08,3.08,0,0,0,1.9.07c.78-.22.77-1.48-.07-1.52l-1.54,0a2.13,2.13,0,0,0-1.32.12.3.3,0,0,0-.14.3Z"/><path class="cls-17" d="M138.77,112.55a10,10,0,0,1-4.7,5.18c-1,.51-.27,2.07.7,1.57a9.08,9.08,0,0,0,4.72-6.51.38.38,0,1,0-.72-.24Z"/><path class="cls-17" d="M132.12,119.55a3.22,3.22,0,0,1-1.71.15c-.68-.07-.92,1.11-.25,1.27a2.56,2.56,0,0,0,2.37-.75.4.4,0,0,0-.41-.67Z"/><path class="cls-17" d="M105.27,85c5,1.25,9.46,3.41,14.19,5.33.5.2.88-.63.43-.92-4.3-2.77-9.44-4.19-14.36-5.23-.49-.1-.76.69-.26.82Z"/><path class="cls-17" d="M121.45,91.85a41.93,41.93,0,0,0,3.7,2.29c.69.28,1-.75.55-1.17a9.68,9.68,0,0,0-4-1.68c-.3-.08-.56.4-.26.56Z"/><path class="cls-17" d="M115.56,111.61c0,1.34.4,2.94,1.58,3.56.51.27,1.25-.42.75-.92a3.54,3.54,0,0,1-1.4-2.6.47.47,0,1,0-.93,0Z"/><path class="cls-17" d="M88.2,69.28c1.09,4.29,5.76,7,9.45,8.2,1.21.39,1.88-1.65.66-2a19.56,19.56,0,0,1-5.45-2.8c-1.5-1.11-2.7-2.61-4.23-3.67a.3.3,0,0,0-.43.32Z"/><path class="cls-17" d="M101.44,78.34c.56.15,1.08.4,1.63.55.9.26,1.38-1.27.48-1.48-.56-.14-1.14-.18-1.71-.33-.75-.19-1.16,1-.4,1.26Z"/><path class="cls-17" d="M122.31,75.25c-1.14,2.89-.77,6.13,1.92,7.71,1,.56,1.92-1,1-1.57-1.75-1.08-3.13-3.7-2.29-5.94a.32.32,0,1,0-.6-.2Z"/><path class="cls-17" d="M141.29,107.53c2.34,2.58,5.83,5.33,9.5,4.79.85-.13.81-1.4.12-1.66-1.47-.58-3.08-.66-4.56-1.29a16.81,16.81,0,0,1-4.43-2.62c-.41-.36-1,.37-.63.78Z"/><path class="cls-17" d="M155.82,106c1.53,1.26,3.94,2.82,6,1.81a.71.71,0,0,0-.06-1.26,12.4,12.4,0,0,0-2.59-.32,9.78,9.78,0,0,1-3-.82.35.35,0,0,0-.37.59Z"/><path class="cls-17" d="M164.41,105.71a2.17,2.17,0,0,1,.51,0c1.22-.06.48-1.95-.35-1.15-.19.17-.25.35-.47.45a.38.38,0,0,0,.31.7Z"/><path class="cls-17" d="M145.43,71.22c1.72-.5,3.18.53,4.37,1.66.54.52,1.66-.07,1.21-.88-1.18-2.13-3.64-2.41-5.75-1.79-.6.18-.43,1.19.17,1Z"/><path class="cls-17" d="M150.64,75c.22.45.09,1,.21,1.46a.68.68,0,0,0,1.34-.12,3,3,0,0,0-.83-1.87c-.28-.41-.94.08-.72.53Z"/><path class="cls-17" d="M130.24,55.77a5.11,5.11,0,0,1,1.67.49,10.18,10.18,0,0,0,1.48.81.76.76,0,0,0,.76-1.21c-.84-1-2.61-1.23-3.82-1.3-.73-.05-.8,1.12-.09,1.21Z"/><path class="cls-17" d="M105.5,48c1.73.51,2.8,1.89,4.26,2.82.65.41,1.39-.48.9-1.11-1.18-1.51-3.25-1.9-5-2.37-.39-.1-.61.55-.21.66Z"/><path class="cls-17" d="M87.42,51a7.51,7.51,0,0,0,.75,4.89c.33.53,1.19-.1.9-.66A7.61,7.61,0,0,1,87.89,51c0-.32-.43-.34-.47,0Z"/><path class="cls-17" d="M301.1,94.77a66,66,0,0,1-12,9.2c-.55.34-.15,1.25.42.94a42,42,0,0,0,11.87-9.72c.22-.27-.08-.67-.34-.42Z"/><path class="cls-17" d="M243.09,25.17a26.69,26.69,0,0,0-1.51,17.57.84.84,0,1,0,1.63-.38,30.65,30.65,0,0,1,.72-16.91.44.44,0,1,0-.84-.28Z"/><path class="cls-17" d="M242.9,45.23a13.05,13.05,0,0,0,.36,2.44c.28.75,1.29.27,1.22-.46a12.47,12.47,0,0,0-.72-2.19.44.44,0,1,0-.86.21Z"/><path class="cls-17" d="M313.19,74.82a14.34,14.34,0,0,0-12.65,1.28c-1,.64-.29,2.28.75,1.7,3.74-2.12,7.5-3.07,11.6-2.06.55.14.85-.73.3-.92Z"/><path class="cls-17" d="M299.67,79.71a4.9,4.9,0,0,0-.54.65,1.34,1.34,0,0,0-.16.9.7.7,0,0,0,1.18.4c.53-.44.42-1,.47-1.63s-.63-.73-.95-.32Z"/><path class="cls-17" d="M341.76,109.93c-3.36,2.62-6.94.31-9.82-1.66-.8-.55-1.6.77-.84,1.35,3.1,2.39,8.17,5.2,11.36.95.36-.49-.3-.95-.7-.64Z"/><path class="cls-17" d="M288.52,26.82a22.71,22.71,0,0,0-3.76.31,19.46,19.46,0,0,1-3.89-.15c-.69-.09-.91,1.09-.25,1.29,2.38.72,6.05.83,7.93-1.35a.06.06,0,0,0,0-.1Z"/><path class="cls-17" d="M258.92,3.73A24.57,24.57,0,0,0,247.14,9a.79.79,0,0,0,1,1.21,29.47,29.47,0,0,1,10.94-5.55.47.47,0,0,0-.16-.93Z"/><path class="cls-17" d="M264.6,2.64a15.37,15.37,0,0,0-2.94.31c-.89.19-.64,1.69.25,1.48a15.23,15.23,0,0,0,2.83-1c.38-.17.26-.83-.14-.83Z"/><path class="cls-17" d="M132.66,196c-.23,3.94-1.13,8.45-.36,12.32.16.79,1.19.67,1.3-.13a39.7,39.7,0,0,0-.07-6.07c0-2-.11-4.06,0-6.09a.43.43,0,1,0-.86,0Z"/><path class="cls-17" d="M133,209.7c-.27.48-.55.94-.86,1.39a.57.57,0,1,0,1,.5c.2-.47.41-.9.65-1.34s-.47-1.13-.79-.55Z"/><path class="cls-17" d="M28.38,121.86c-2.95,2.28-6.07,4.28-8.93,6.68a.75.75,0,0,0,.94,1.16c3-2.21,5.68-4.8,8.57-7.13a.46.46,0,0,0-.58-.71Z"/><path class="cls-17" d="M18.61,131.4a9.7,9.7,0,0,0-1.28,1c-.49.44-.93.84-.83,1.57a.72.72,0,0,0,.85.6c.63-.1.86-.71,1.1-1.28A9.48,9.48,0,0,0,19,131.8c.06-.27-.17-.56-.43-.4Z"/><path class="cls-17" d="M176.07,118.5a48,48,0,0,0,17.12-2.83c.83-.29.62-1.71-.24-1.43A101.11,101.11,0,0,1,176,118a.25.25,0,0,0,0,.49Z"/></g></g></g></svg>