<svg id="f4" xmlns="http://www.w3.org/2000/svg" xmlns:xlink="http://www.w3.org/1999/xlink" viewBox="0 0 79.26 49.73"><defs><style>.cls-f4-1{isolation:isolate;}.cls-f4-2{fill:#ffc022;}.cls-f4-3{fill:#ffb61e;}.cls-f4-4{fill:url(#linear-gradient);}.cls-f4-5{fill:#fff;}.cls-f4-6{fill:#75f9d6;}.cls-f4-7{fill:#cdbc5b;}.cls-f4-8{fill:#ffd621;}.cls-f4-11,.cls-f4-13,.cls-f4-9{opacity:0.5;}.cls-f4-10{fill:#ff0;}.cls-f4-11{fill:#ffbc15;}.cls-f4-11,.cls-f4-13{mix-blend-mode:multiply;}.cls-f4-12{fill:#ff8a2b;}.cls-f4-13{fill:#ffed12;}</style><linearGradient id="linear-gradient" x1="1624" y1="-942.78" x2="1682.27" y2="-942.78" gradientTransform="matrix(-1.51, 0.35, 0.44, 0.94, 2951.64, 343)" gradientUnits="userSpaceOnUse"><stop offset="0" stop-color="#fff11e"/><stop offset="1" stop-color="#ff7e23"/></linearGradient></defs><title>f4</title><g class="cls-f4-1"><g id="Layer_2" data-name="Layer 2"><g id="Layer_1-2" data-name="Layer 1"><path class="cls-f4-2" d="M33.93,37.75s-3.77,5.61-7.67,7.1-6.25,1.88-7.11,1,3.11-6.26,3.55-6.33S32.26,34.74,33.93,37.75Z"/><path class="cls-f4-3" d="M24.89,43.94c3.53-1.35,7-6.45,7-6.45a1.59,1.59,0,0,0-.83-.7c1.32-.12,2.43.1,2.91,1,0,0-3.77,5.61-7.67,7.1s-6.25,1.88-7.11,1a.83.83,0,0,1-.08-.67C20.13,45.46,22.05,45,24.89,43.94Z"/><path class="cls-f4-2" d="M59.59,3.31S56.41-2.18,49.9,1,30.29,14.71,27.77,17.84s-1.85,5.81-2.92,8.51c0,0,14.44-10.33,21-15.35A61.24,61.24,0,0,1,59.59,3.31Z"/><path class="cls-f4-3" d="M24.85,26.35l2.41-3,1.57-1.61-1.09-.31c-1.09-.31,2.54-2.31,3.19-2.38s1.45-.23,3.21-1.73,3.09-2.75,4.44-3.89,2.88-2.3,2.17-1.86-1.73.4,1-2.36S47.67,6.89,49.6,6s1.76-1.51.13-1.38-2.86.55.74-1.54c3.28-1.89,8.18-.22,9.07.1l.05.09A61.24,61.24,0,0,0,45.89,11C39.29,16,24.85,26.35,24.85,26.35Z"/><path class="cls-f4-4" d="M10,32.75s3.9.74,6.62-.52c4.34-2,21.86-19,28.26-22.54S71.06-4.85,79.26,9.38c0,0-3.77,4.19-6.15,5.59,0,0,3.85-1.66,4.91-2.28,0,0-11.6,13.75-26.47,20.09s-31.87,6-36.37,8.65S5.52,50.21,1.76,49.7c-5.8-.77,4.91-6.5,1-9.71C-3.2,35.15,4.57,31,10,32.75Z"/><path class="cls-f4-2" d="M61.21,27.46S60,33.2,56.35,35.72s-8.61,4.46-6.92,1.68a17.36,17.36,0,0,0,2.12-4.62S59.91,27,61.21,27.46Z"/><path class="cls-f4-3" d="M54.58,35.63c3-2.12,4.09-6.93,4.09-6.93a1.93,1.93,0,0,0-1.06.22c1.65-.94,3.12-1.64,3.6-1.46,0,0-1.24,5.74-4.86,8.26-3.19,2.23-7.47,4-7.24,2.46C50.22,38.14,52.64,37,54.58,35.63Z"/><path class="cls-f4-5" d="M64.68,13c.43,1.56,2.74,1.67,5.16.25s4-3.84,3.61-5.4-2.74-1.68-5.16-.25S64.25,11.38,64.68,13Z"/><path class="cls-f4-6" d="M68.25,11.66c.21.78,1.36.83,2.57.13s2-1.91,1.79-2.69S71.25,8.27,70.05,9,68,10.88,68.25,11.66Z"/><path class="cls-f4-5" d="M67.49,11.37c.08.3.53.32,1,.05s.79-.75.71-1.05-.54-.33-1,0S67.4,11.06,67.49,11.37Z"/><path class="cls-f4-7" d="M70.34,10.46c-.18.65.16,1,.78.86a2.41,2.41,0,0,0,1.44-1.5c.18-.66-.17-1-.78-.86A2.36,2.36,0,0,0,70.34,10.46Z"/><path class="cls-f4-8" d="M13.7,36.6a6.47,6.47,0,0,1-5.18-.93c-1.08-1-4.11-1.55-4.38.46s5.14,2.16,2.94,6.14S1.62,47.6,2.85,48.09s4.92-2.89,7.76-5.76S17.68,35.31,13.7,36.6Z"/><g class="cls-f4-9"><path class="cls-f4-10" d="M41.76,16.68c-1.59,4.31-.45,6.58-4.29,9.12s-4.73,0-4.09-2.13c.5-1.69-2.55-2.33-3.71-1.83,5.82-5,12-10.33,15.24-12.15,3.88-2.15,12.67-7,20.83-7.38h0s-5.35,3.45-5.26,7.17-4.73,8.53-8,6.85-2.47-5.92-4.66-5.69C44.93,11,43.34,12.38,41.76,16.68Z"/><path class="cls-f4-10" d="M28.66,22.92c-1.55,2.77.62,8.44-3.36,10.77s-6.9,2.22-6.27-3h0c2.5-1.85,6.11-4.95,9.93-8.25A4.81,4.81,0,0,0,28.66,22.92Z"/></g><path class="cls-f4-11" d="M45.48,29.13c6.77-3.56,13.23-12.66,13.23-12.66-9.28,20.93,12.19,3.39,12.2,3.38-4.79,4.34-11.62,9.63-19.36,12.93-14.87,6.35-31.87,6-36.37,8.65-.44.26-.88.56-1.33.87h0C22.75,33.2,38.71,32.68,45.48,29.13Z"/><path class="cls-f4-12" d="M50.69,21.78s-2.89-2.67-7,1.51-2.24,5.29-1.15,7,5.52,3.3,7-.16a34.32,34.32,0,0,0,1.93-5.3s-2,5-3.84,5.06-4.25-2.06-3.49-4.27S47,21.56,50.69,21.78Z"/><path class="cls-f4-3" d="M50.1,23.29a6.62,6.62,0,0,0-3.5,1S47.69,24.57,50.1,23.29Z"/><path class="cls-f4-3" d="M50.2,24.27a10.45,10.45,0,0,0-3.4,2.41A9,9,0,0,0,50.2,24.27Z"/><path class="cls-f4-3" d="M50,25.28a8.71,8.71,0,0,0-2.35,3.06A7.76,7.76,0,0,0,50,25.28Z"/><path class="cls-f4-13" d="M47.05,32.18C60.49,29,78,12.69,78,12.69S66.42,26.44,51.55,32.78s-31.87,6-36.37,8.65c-.44.26-.88.56-1.33.87h0C20.27,37.27,33.61,35.37,47.05,32.18Z"/></g></g></g></svg>