<svg xmlns="http://www.w3.org/2000/svg" xmlns:xlink="http://www.w3.org/1999/xlink" viewBox="0 0 339.1 215.55"><defs><style>.cls-1{fill:url(#radial-gradient);}.cls-2{isolation:isolate;}.cls-3{fill:url(#radial-gradient-2);}.cls-121,.cls-123,.cls-31,.cls-4,.cls-45,.cls-48,.cls-49,.cls-50,.cls-51,.cls-52,.cls-53,.cls-54,.cls-61,.cls-63,.cls-66,.cls-69,.cls-72,.cls-75,.cls-78,.cls-81,.cls-85{opacity:0.5;}.cls-29,.cls-31,.cls-33,.cls-36,.cls-39,.cls-4,.cls-42,.cls-45,.cls-46,.cls-58,.cls-61,.cls-63,.cls-66,.cls-69,.cls-72,.cls-75,.cls-78,.cls-81,.cls-84,.cls-86,.cls-90{mix-blend-mode:multiply;}.cls-5,.cls-61,.cls-84{fill:#038d3b;}.cls-6{fill:url(#radial-gradient-3);}.cls-7{fill:url(#linear-gradient);}.cls-8{fill:url(#linear-gradient-2);}.cls-9{clip-path:url(#clip-path);}.cls-10,.cls-85{fill:#fff;}.cls-11{fill:url(#radial-gradient-5);}.cls-12{fill:url(#radial-gradient-6);}.cls-13{fill:url(#radial-gradient-7);}.cls-14{fill:url(#radial-gradient-8);}.cls-15{fill:url(#radial-gradient-9);}.cls-16{fill:url(#radial-gradient-10);}.cls-17{fill:url(#radial-gradient-11);}.cls-18{fill:url(#radial-gradient-12);}.cls-19{fill:url(#radial-gradient-13);}.cls-20{fill:url(#radial-gradient-14);}.cls-21{fill:url(#radial-gradient-15);}.cls-22{fill:url(#radial-gradient-16);}.cls-23{fill:url(#radial-gradient-17);}.cls-24{fill:url(#radial-gradient-18);}.cls-25{fill:url(#radial-gradient-19);}.cls-26{fill:url(#radial-gradient-20);}.cls-121,.cls-123,.cls-124,.cls-27,.cls-49,.cls-50,.cls-51,.cls-53,.cls-54,.cls-85{mix-blend-mode:screen;}.cls-27{fill:url(#radial-gradient-21);}.cls-28{fill:url(#radial-gradient-22);}.cls-29{fill:url(#radial-gradient-23);}.cls-30{fill:url(#radial-gradient-24);}.cls-31{fill:url(#radial-gradient-25);}.cls-32{fill:url(#radial-gradient-26);}.cls-33{fill:url(#radial-gradient-27);}.cls-34{fill:url(#linear-gradient-3);}.cls-35{fill:url(#radial-gradient-28);}.cls-36{fill:url(#radial-gradient-29);}.cls-37{fill:url(#linear-gradient-4);}.cls-38{fill:url(#radial-gradient-30);}.cls-39{fill:url(#radial-gradient-31);}.cls-40{fill:url(#linear-gradient-5);}.cls-41{fill:url(#radial-gradient-32);}.cls-42{fill:url(#radial-gradient-33);}.cls-43{fill:url(#linear-gradient-6);}.cls-44{fill:url(#radial-gradient-34);}.cls-45{fill:url(#radial-gradient-35);}.cls-46{fill:url(#radial-gradient-36);}.cls-47{fill:url(#radial-gradient-37);}.cls-48{fill:url(#radial-gradient-38);}.cls-49{fill:url(#radial-gradient-39);}.cls-50{fill:url(#radial-gradient-40);}.cls-51{fill:url(#radial-gradient-41);}.cls-52{fill:url(#radial-gradient-42);}.cls-53{fill:url(#radial-gradient-43);}.cls-54{fill:url(#radial-gradient-44);}.cls-55{fill:url(#radial-gradient-45);}.cls-56{fill:url(#radial-gradient-46);}.cls-57{fill:url(#linear-gradient-7);}.cls-58{fill:url(#radial-gradient-47);}.cls-59{fill:url(#radial-gradient-48);}.cls-60{fill:url(#linear-gradient-8);}.cls-62,.cls-63{fill:url(#radial-gradient-49);}.cls-64{fill:url(#radial-gradient-51);}.cls-65,.cls-66{fill:url(#radial-gradient-52);}.cls-67{fill:url(#radial-gradient-54);}.cls-68,.cls-69{fill:url(#radial-gradient-55);}.cls-70{fill:url(#radial-gradient-57);}.cls-71,.cls-72{fill:url(#radial-gradient-58);}.cls-73{fill:url(#radial-gradient-60);}.cls-74,.cls-75{fill:url(#radial-gradient-61);}.cls-76{fill:url(#radial-gradient-63);}.cls-77,.cls-78{fill:url(#radial-gradient-64);}.cls-79{fill:url(#radial-gradient-66);}.cls-80,.cls-81{fill:url(#radial-gradient-67);}.cls-82{fill:url(#radial-gradient-69);}.cls-83{fill:url(#radial-gradient-70);}.cls-86{fill:url(#radial-gradient-71);}.cls-87{fill:url(#radial-gradient-72);}.cls-88{fill:url(#radial-gradient-73);}.cls-89{fill:url(#radial-gradient-74);}.cls-91{fill:url(#radial-gradient-75);}.cls-92{fill:url(#radial-gradient-76);}.cls-93{fill:url(#radial-gradient-77);}.cls-94{fill:url(#radial-gradient-78);}.cls-95{fill:url(#radial-gradient-79);}.cls-96{fill:url(#radial-gradient-80);}.cls-97{fill:url(#radial-gradient-81);}.cls-98{fill:url(#radial-gradient-82);}.cls-99{fill:url(#radial-gradient-83);}.cls-100{fill:url(#radial-gradient-84);}.cls-101{fill:url(#radial-gradient-85);}.cls-102{fill:url(#radial-gradient-86);}.cls-103{fill:url(#radial-gradient-87);}.cls-104{fill:url(#radial-gradient-88);}.cls-105{fill:url(#radial-gradient-89);}.cls-106{fill:url(#radial-gradient-90);}.cls-107{fill:url(#radial-gradient-91);}.cls-108{fill:url(#radial-gradient-92);}.cls-109{fill:url(#radial-gradient-93);}.cls-110{fill:url(#radial-gradient-94);}.cls-111{fill:url(#radial-gradient-95);}.cls-112{fill:url(#radial-gradient-96);}.cls-113{fill:url(#radial-gradient-97);}.cls-114{fill:url(#radial-gradient-98);}.cls-115{fill:url(#radial-gradient-99);}.cls-116{fill:url(#radial-gradient-100);}.cls-117{fill:url(#radial-gradient-101);}.cls-118{fill:url(#radial-gradient-102);}.cls-119{fill:url(#radial-gradient-103);}.cls-120{fill:url(#radial-gradient-104);}.cls-121{fill:url(#radial-gradient-105);}.cls-122{fill:url(#radial-gradient-106);}.cls-123{fill:url(#radial-gradient-107);}.cls-124{fill:url(#radial-gradient-108);}</style><radialGradient id="radial-gradient" cx="1214.98" cy="-96.19" r="48.1" gradientTransform="matrix(-1.34, 0, 0, 1.32, 1778.25, 310.42)" gradientUnits="userSpaceOnUse"><stop offset="0" stop-color="#e73330"/><stop offset="0.22" stop-color="#e1322f"/><stop offset="0.53" stop-color="#cf2e2b"/><stop offset="0.89" stop-color="#b22925"/><stop offset="1" stop-color="#a72723"/></radialGradient><radialGradient id="radial-gradient-2" cx="1292.29" cy="-117.46" r="39.68" gradientTransform="matrix(-1.34, 0, 0, 1.32, 1778.25, 310.42)" gradientUnits="userSpaceOnUse"><stop offset="0" stop-color="#29a533"/><stop offset="1" stop-color="#007b2c"/></radialGradient><radialGradient id="radial-gradient-3" cx="1301.29" cy="-176.97" r="37.19" xlink:href="#radial-gradient-2"/><linearGradient id="linear-gradient" x1="1279.88" y1="54.08" x2="1280.71" y2="121.19" gradientTransform="matrix(-1.2, 0, 0, 1, 1606.89, 0)" gradientUnits="userSpaceOnUse"><stop offset="0" stop-color="#f9dcc4"/><stop offset="0.3" stop-color="#efd3bf"/><stop offset="0.63" stop-color="#eacebd"/><stop offset="1" stop-color="#dbae8e"/></linearGradient><linearGradient id="linear-gradient-2" x1="1140.51" y1="176.16" x2="1188.71" y2="144.03" xlink:href="#linear-gradient"/><clipPath id="clip-path"><path class="cls-1" d="M174.56,131s3.63-.53.67,10.42-5.12,16.48-17,26.38S117.34,181,93.72,166c-13.53-10.09-12.32-23.34-1.82-32.64s24.17-4.26,32.51-.6,29.15-3,36.55-7.38c2.42-1,4.58,2.51,4.58,2.51A32.27,32.27,0,0,0,174.56,131Z"/></clipPath><radialGradient id="radial-gradient-5" cx="1214.98" cy="-96.2" r="48.1" gradientTransform="matrix(-1.34, 0, 0, 1.32, 1778.25, 310.42)" gradientUnits="userSpaceOnUse"><stop offset="0" stop-color="#ff2322"/><stop offset="1" stop-color="#a62623"/></radialGradient><radialGradient id="radial-gradient-6" cx="1368.42" cy="66.6" r="29.75" gradientTransform="matrix(-1.32, -0.18, -0.19, 1.3, 1922.62, 259.94)" gradientUnits="userSpaceOnUse"><stop offset="0" stop-color="#150a06"/><stop offset="1" stop-color="#573215"/></radialGradient><radialGradient id="radial-gradient-7" cx="1372.7" cy="64.95" r="10.97" xlink:href="#radial-gradient-6"/><radialGradient id="radial-gradient-8" cx="1367.37" cy="67.58" r="11.23" xlink:href="#radial-gradient-6"/><radialGradient id="radial-gradient-9" cx="1360.12" cy="67.72" r="11.76" xlink:href="#radial-gradient-6"/><radialGradient id="radial-gradient-10" cx="1356.35" cy="65.94" r="16.14" xlink:href="#radial-gradient-6"/><radialGradient id="radial-gradient-11" cx="3856.61" cy="-635.33" r="12.29" gradientTransform="matrix(-1.3, 0.32, 0.33, 1.27, 5290.67, -343.53)" gradientUnits="userSpaceOnUse"><stop offset="0" stop-color="#e73330"/><stop offset="1" stop-color="#a72723"/></radialGradient><radialGradient id="radial-gradient-12" cx="3581.1" cy="-657.28" r="13.13" gradientTransform="matrix(-1.16, 0.65, 0.67, 1.14, 4870.08, -1449.03)" xlink:href="#radial-gradient-6"/><radialGradient id="radial-gradient-13" cx="3583.2" cy="-659.86" r="16.78" gradientTransform="matrix(-1.16, 0.65, 0.67, 1.14, 4870.08, -1449.03)" xlink:href="#radial-gradient-6"/><radialGradient id="radial-gradient-14" cx="3585.59" cy="-661.34" r="22.82" gradientTransform="matrix(-1.16, 0.65, 0.67, 1.14, 4870.08, -1449.03)" xlink:href="#radial-gradient-6"/><radialGradient id="radial-gradient-15" cx="3588.02" cy="-664.16" r="28.74" gradientTransform="matrix(-1.16, 0.65, 0.67, 1.14, 4870.08, -1449.03)" xlink:href="#radial-gradient-6"/><radialGradient id="radial-gradient-16" cx="3584.56" cy="-661.68" r="21.14" gradientTransform="matrix(-1.16, 0.65, 0.67, 1.14, 4870.08, -1449.03)" xlink:href="#radial-gradient-6"/><radialGradient id="radial-gradient-17" cx="3585.48" cy="-667.68" r="8.18" gradientTransform="matrix(-1.16, 0.65, 0.67, 1.14, 4870.08, -1449.03)" xlink:href="#radial-gradient-11"/><radialGradient id="radial-gradient-18" cx="1161.36" cy="-168.42" r="48.1" gradientTransform="matrix(-1.34, 0, 0, 1.32, 1778.25, 310.42)" gradientUnits="userSpaceOnUse"><stop offset="0" stop-color="#f9dcc4"/><stop offset="0.22" stop-color="#efd3c0"/><stop offset="0.48" stop-color="#eacebe"/><stop offset="0.63" stop-color="#e7c6b4"/><stop offset="0.87" stop-color="#dfb19a"/><stop offset="1" stop-color="#daa38a"/></radialGradient><radialGradient id="radial-gradient-19" cx="1245.87" cy="49.01" r="11.19" gradientTransform="matrix(-1.32, -0.18, -0.19, 1.3, 1922.62, 259.94)" xlink:href="#radial-gradient-18"/><radialGradient id="radial-gradient-20" cx="1281.68" cy="100.27" r="108.92" xlink:href="#radial-gradient-6"/><radialGradient id="radial-gradient-21" cx="1311.56" cy="55.86" r="74.16" gradientTransform="matrix(-1.33, -0.18, -0.19, 1.3, 1929.68, 257.76)" xlink:href="#radial-gradient-6"/><radialGradient id="radial-gradient-22" cx="1274.12" cy="17.45" r="46.56" xlink:href="#radial-gradient-6"/><radialGradient id="radial-gradient-23" cx="1288.53" cy="41.62" fx="1279.3530108008988" fy="52.72206732678104" r="46.69" gradientTransform="matrix(-1.32, -0.18, -0.19, 1.3, 1922.62, 259.94)" xlink:href="#radial-gradient-18"/><radialGradient id="radial-gradient-24" cx="1225.54" cy="-195.66" r="30.14" gradientTransform="matrix(-1.34, 0, 0, 1.32, 1778.25, 310.42)" gradientUnits="userSpaceOnUse"><stop offset="0" stop-color="#ff2322"/><stop offset="0.23" stop-color="#fb2322"/><stop offset="0.44" stop-color="#f12322"/><stop offset="0.63" stop-color="#de2422"/><stop offset="0.82" stop-color="#c52523"/><stop offset="1" stop-color="#a62623"/></radialGradient><radialGradient id="radial-gradient-25" cx="1226.11" cy="-205.87" r="50.09" xlink:href="#radial-gradient-24"/><radialGradient id="radial-gradient-26" cx="-578.71" cy="-5.09" r="15.09" gradientTransform="matrix(1.34, 0.02, 0, 1.21, 979.34, 92.24)" xlink:href="#radial-gradient-6"/><radialGradient id="radial-gradient-27" cx="1215.92" cy="-23.29" r="20.89" gradientTransform="matrix(-1.34, -0.05, -0.05, 1.32, 1833.71, 163.24)" gradientUnits="userSpaceOnUse"><stop offset="0" stop-color="#fff"/><stop offset="0.21" stop-color="#f9eeea"/><stop offset="0.65" stop-color="#ebc3b3"/><stop offset="0.75" stop-color="#e7b9a6"/><stop offset="0.82" stop-color="#e5b3a0"/><stop offset="0.91" stop-color="#dea28f"/><stop offset="1" stop-color="#d58875"/></radialGradient><linearGradient id="linear-gradient-3" x1="1210.57" y1="483.41" x2="1212.79" y2="454.93" gradientTransform="matrix(-1.16, -0.26, -0.31, 0.97, 1745.08, -54.38)" gradientUnits="userSpaceOnUse"><stop offset="0" stop-color="#fff"/><stop offset="0.84" stop-color="#eaeaea"/><stop offset="1" stop-color="#e5e5e5"/></linearGradient><radialGradient id="radial-gradient-28" cx="1220.46" cy="-4.74" r="13.42" gradientTransform="matrix(-1.34, -0.05, -0.05, 1.32, 1833.71, 163.24)" gradientUnits="userSpaceOnUse"><stop offset="0.23" stop-color="#1e284a"/><stop offset="1" stop-color="#105299"/></radialGradient><radialGradient id="radial-gradient-29" cx="1219.43" cy="-7.38" r="9.96" gradientTransform="matrix(-1.34, -0.05, -0.05, 1.32, 1833.71, 163.24)" gradientUnits="userSpaceOnUse"><stop offset="0.25" stop-color="#084c57"/><stop offset="1" stop-color="#1a5f39"/></radialGradient><linearGradient id="linear-gradient-4" x1="903.49" y1="271.73" x2="897.16" y2="272.24" gradientTransform="matrix(-1.2, -0.06, -0.08, 1, 1296.44, -129.34)" xlink:href="#linear-gradient-3"/><radialGradient id="radial-gradient-30" cx="-558.5" cy="2.17" r="10.32" gradientTransform="matrix(1.34, 0.01, 0.01, 1.21, 998.68, 82.76)" xlink:href="#radial-gradient-6"/><radialGradient id="radial-gradient-31" cx="1220.18" cy="19.54" r="18.69" gradientTransform="matrix(-1.34, -0.1, -0.11, 1.31, 1886.34, 179.84)" xlink:href="#radial-gradient-27"/><linearGradient id="linear-gradient-5" x1="1189.71" y1="518.77" x2="1191.65" y2="493.88" gradientTransform="matrix(-1.14, -0.3, -0.36, 0.95, 1787.81, -37.65)" xlink:href="#linear-gradient-3"/><radialGradient id="radial-gradient-32" cx="1224.05" cy="35.9" r="11.75" gradientTransform="matrix(-1.34, -0.1, -0.11, 1.31, 1886.34, 179.84)" xlink:href="#radial-gradient-28"/><radialGradient id="radial-gradient-33" cx="1223.14" cy="33.6" r="8.72" gradientTransform="matrix(-1.34, -0.1, -0.11, 1.31, 1886.34, 179.84)" xlink:href="#radial-gradient-29"/><linearGradient id="linear-gradient-6" x1="891.74" y1="311.91" x2="886.18" y2="312.35" gradientTransform="matrix(-1.19, -0.1, -0.12, 0.99, 1345.23, -127.9)" xlink:href="#linear-gradient-3"/><radialGradient id="radial-gradient-34" cx="1161.13" cy="-169.18" r="28.96" gradientTransform="matrix(-1.34, 0, 0, 1.32, 1778.25, 310.42)" gradientUnits="userSpaceOnUse"><stop offset="0" stop-color="#054798"/><stop offset="0.5" stop-color="#00a0e4"/><stop offset="1" stop-color="#47c1f0"/></radialGradient><radialGradient id="radial-gradient-35" cx="1161.13" cy="-169.18" r="28.96" xlink:href="#radial-gradient-34"/><radialGradient id="radial-gradient-36" cx="1144.96" cy="-166.09" r="17.17" xlink:href="#radial-gradient-34"/><radialGradient id="radial-gradient-37" cx="168.33" cy="30.61" r="142.34" gradientTransform="translate(0 22.2) scale(1 0.97)" xlink:href="#radial-gradient-24"/><radialGradient id="radial-gradient-38" cx="1149.84" cy="-188.51" r="64.45" gradientTransform="matrix(-1.34, 0, 0, 1.32, 1778.25, 310.42)" gradientUnits="userSpaceOnUse"><stop offset="0" stop-color="#1eb3bd"/><stop offset="0.24" stop-color="#1badbb"/><stop offset="0.56" stop-color="#129cb5"/><stop offset="0.92" stop-color="#0480ac"/><stop offset="1" stop-color="#0079aa"/></radialGradient><radialGradient id="radial-gradient-39" cx="1149.84" cy="-188.51" r="64.45" xlink:href="#radial-gradient-38"/><radialGradient id="radial-gradient-40" cx="1149.84" cy="-188.51" r="64.44" xlink:href="#radial-gradient-38"/><radialGradient id="radial-gradient-41" cx="1149.84" cy="-188.51" r="64.45" xlink:href="#radial-gradient-38"/><radialGradient id="radial-gradient-42" cx="1149.85" cy="-188.51" r="64.45" xlink:href="#radial-gradient-38"/><radialGradient id="radial-gradient-43" cx="1149.84" cy="-188.51" r="64.42" xlink:href="#radial-gradient-38"/><radialGradient id="radial-gradient-44" cx="1149.85" cy="-188.51" r="64.45" xlink:href="#radial-gradient-38"/><radialGradient id="radial-gradient-45" cx="1141.21" cy="-187.85" r="22.57" xlink:href="#radial-gradient-24"/><radialGradient id="radial-gradient-46" cx="1175.85" cy="-196.06" r="24.81" xlink:href="#radial-gradient-24"/><linearGradient id="linear-gradient-7" x1="1259.56" y1="185.9" x2="1210.24" y2="134.62" xlink:href="#linear-gradient"/><radialGradient id="radial-gradient-47" cx="1217.5" cy="-139.79" r="21.74" gradientTransform="matrix(-1.34, 0, 0, 1.32, 1778.25, 310.42)" gradientUnits="userSpaceOnUse"><stop offset="0" stop-color="#fff"/><stop offset="0.21" stop-color="#f9eeea"/><stop offset="0.65" stop-color="#eac2b3"/><stop offset="0.75" stop-color="#e6b8a6"/><stop offset="0.81" stop-color="#e4b2a0"/><stop offset="0.9" stop-color="#dea18f"/><stop offset="1" stop-color="#d48774"/></radialGradient><radialGradient id="radial-gradient-48" cx="1209.69" cy="-114.76" r="30.17" xlink:href="#radial-gradient-18"/><linearGradient id="linear-gradient-8" x1="1316.58" y1="67.62" x2="1261.88" y2="159.85" xlink:href="#linear-gradient"/><radialGradient id="radial-gradient-49" cx="1192.24" cy="-81.31" r="9.1" gradientTransform="matrix(-1.34, 0, 0, 1.32, 1778.25, 310.42)" gradientUnits="userSpaceOnUse"><stop offset="0" stop-color="#d9effd"/><stop offset="0.2" stop-color="#d3ecfb"/><stop offset="0.48" stop-color="#c1e3f7"/><stop offset="0.81" stop-color="#a3d6ef"/><stop offset="1" stop-color="#8fccea"/></radialGradient><radialGradient id="radial-gradient-51" cx="1191.67" cy="-81.78" r="8.18" xlink:href="#radial-gradient-49"/><radialGradient id="radial-gradient-52" cx="1167.6" cy="-85.02" r="7.41" xlink:href="#radial-gradient-49"/><radialGradient id="radial-gradient-54" cx="1167.14" cy="-85.4" r="6.67" xlink:href="#radial-gradient-49"/><radialGradient id="radial-gradient-55" cx="1200.11" cy="-97.17" r="4.73" xlink:href="#radial-gradient-49"/><radialGradient id="radial-gradient-57" cx="1199.81" cy="-97.42" r="4.25" xlink:href="#radial-gradient-49"/><radialGradient id="radial-gradient-58" cx="1078.98" cy="-180.39" r="12.04" xlink:href="#radial-gradient-49"/><radialGradient id="radial-gradient-60" cx="1078.23" cy="-181.01" r="10.83" xlink:href="#radial-gradient-49"/><radialGradient id="radial-gradient-61" cx="1107.82" cy="-157.94" r="6.72" xlink:href="#radial-gradient-49"/><radialGradient id="radial-gradient-63" cx="1107.4" cy="-158.28" r="6.05" xlink:href="#radial-gradient-49"/><radialGradient id="radial-gradient-64" cx="1107.2" cy="-173.66" r="2.91" xlink:href="#radial-gradient-49"/><radialGradient id="radial-gradient-66" cx="1107.02" cy="-173.82" r="2.62" xlink:href="#radial-gradient-49"/><radialGradient id="radial-gradient-67" cx="1241.31" cy="-194.96" r="4.55" xlink:href="#radial-gradient-49"/><radialGradient id="radial-gradient-69" cx="1241.03" cy="-195.19" r="4.09" xlink:href="#radial-gradient-49"/><radialGradient id="radial-gradient-70" cx="1218.43" cy="-178.27" r="22.43" xlink:href="#radial-gradient-34"/><radialGradient id="radial-gradient-71" cx="1149.62" cy="-163.57" r="41.56" xlink:href="#radial-gradient-47"/><radialGradient id="radial-gradient-72" cx="1162.06" cy="-165.79" r="23.33" gradientTransform="matrix(-1.34, 0, 0, 1.32, 1778.25, 310.42)" gradientUnits="userSpaceOnUse"><stop offset="0.16" stop-color="#f9ba0f"/><stop offset="1" stop-color="#f49910"/></radialGradient><radialGradient id="radial-gradient-73" cx="1155.16" cy="-143.94" r="37.88" xlink:href="#radial-gradient-72"/><radialGradient id="radial-gradient-74" cx="1185.82" cy="-205.39" r="114.19" xlink:href="#radial-gradient-72"/><radialGradient id="radial-gradient-75" cx="1169.24" cy="-197.1" r="114.66" xlink:href="#radial-gradient-72"/><radialGradient id="radial-gradient-76" cx="1169.24" cy="-197.16" r="114.61" xlink:href="#radial-gradient-72"/><radialGradient id="radial-gradient-77" cx="1169.24" cy="-197.1" r="114.67" xlink:href="#radial-gradient-72"/><radialGradient id="radial-gradient-78" cx="1169.23" cy="-197.12" r="114.67" xlink:href="#radial-gradient-72"/><radialGradient id="radial-gradient-79" cx="1169.24" cy="-197.12" r="114.65" xlink:href="#radial-gradient-72"/><radialGradient id="radial-gradient-80" cx="1169.24" cy="-197.11" r="114.66" xlink:href="#radial-gradient-72"/><radialGradient id="radial-gradient-81" cx="1169.25" cy="-197.11" r="114.64" xlink:href="#radial-gradient-72"/><radialGradient id="radial-gradient-82" cx="1169.25" cy="-197.1" r="114.64" xlink:href="#radial-gradient-72"/><radialGradient id="radial-gradient-83" cx="1169.24" cy="-197.12" r="114.66" xlink:href="#radial-gradient-72"/><radialGradient id="radial-gradient-84" cx="1169.24" cy="-197.13" r="114.66" xlink:href="#radial-gradient-72"/><radialGradient id="radial-gradient-85" cx="1169.24" cy="-197.15" r="114.68" xlink:href="#radial-gradient-72"/><radialGradient id="radial-gradient-86" cx="1169.24" cy="-197.06" r="114.6" xlink:href="#radial-gradient-72"/><radialGradient id="radial-gradient-87" cx="1169.24" cy="-197.11" r="114.66" xlink:href="#radial-gradient-72"/><radialGradient id="radial-gradient-88" cx="1169.24" cy="-197.17" r="114.72" xlink:href="#radial-gradient-72"/><radialGradient id="radial-gradient-89" cx="1169.24" cy="-197.12" r="114.67" xlink:href="#radial-gradient-72"/><radialGradient id="radial-gradient-90" cx="1169.24" cy="-197.22" r="114.78" xlink:href="#radial-gradient-72"/><radialGradient id="radial-gradient-91" cx="1169.23" cy="-197.07" r="114.61" xlink:href="#radial-gradient-72"/><radialGradient id="radial-gradient-92" cx="1169.24" cy="-197.11" r="114.65" xlink:href="#radial-gradient-72"/><radialGradient id="radial-gradient-93" cx="1169.25" cy="-197.06" r="114.59" xlink:href="#radial-gradient-72"/><radialGradient id="radial-gradient-94" cx="1169.24" cy="-197.16" r="114.72" xlink:href="#radial-gradient-72"/><radialGradient id="radial-gradient-95" cx="1169.24" cy="-197.15" r="114.7" xlink:href="#radial-gradient-72"/><radialGradient id="radial-gradient-96" cx="1169.24" cy="-197.08" r="114.61" xlink:href="#radial-gradient-72"/><radialGradient id="radial-gradient-97" cx="1169.25" cy="-197.13" r="114.67" xlink:href="#radial-gradient-72"/><radialGradient id="radial-gradient-98" cx="1169.25" cy="-197.09" r="114.62" xlink:href="#radial-gradient-72"/><radialGradient id="radial-gradient-99" cx="1169.25" cy="-197.08" r="114.61" xlink:href="#radial-gradient-72"/><radialGradient id="radial-gradient-100" cx="1169.24" cy="-197.16" r="114.72" xlink:href="#radial-gradient-72"/><radialGradient id="radial-gradient-101" cx="1169.24" cy="-197.12" r="114.66" xlink:href="#radial-gradient-72"/><radialGradient id="radial-gradient-102" cx="1169.24" cy="-197.1" r="114.64" xlink:href="#radial-gradient-72"/><radialGradient id="radial-gradient-103" cx="1169.24" cy="-197.17" r="114.75" xlink:href="#radial-gradient-72"/><radialGradient id="radial-gradient-104" cx="1169.24" cy="-197.06" r="114.56" xlink:href="#radial-gradient-72"/><radialGradient id="radial-gradient-105" cx="1217.67" cy="-206.24" r="20.12" xlink:href="#radial-gradient-72"/><radialGradient id="radial-gradient-106" cx="1185.82" cy="-205.39" r="114.19" xlink:href="#radial-gradient-72"/><radialGradient id="radial-gradient-107" cx="1151.25" cy="-138.25" r="3.62" xlink:href="#radial-gradient-72"/><radialGradient id="radial-gradient-108" cx="1294.5" cy="-174.62" r="10.25" xlink:href="#radial-gradient-2"/></defs><title>girl</title><g class="cls-2"><g id="Layer_2" data-name="Layer 2"><g id="Layer_1-2" data-name="Layer 1"><path class="cls-3" d="M21.83,141.45s6.06-19.39,16.56-32.84c3.63-3.56,7.07-5.34,3.43-8.7S26.27,97.53,14,111.38-1.8,129.38.83,133.54,19.61,148.38,21.83,141.45Z"/><g class="cls-4"><path class="cls-5" d="M15.35,114.54c3.59-3.74,6.59-5.44,10.76-2.84,4.46,2.8,2.66,4.77-.93,13.49-2.65,6.44-5.48,14.66-6.78,18.53-5.53.07-15.56-7-17.57-10.18a5.6,5.6,0,0,1-.58-1.18C3.81,128,12.53,117.49,15.35,114.54Z"/></g><g class="cls-4"><path class="cls-5" d="M24.7,117.76l-.53.8c-.32.52-.81,1.24-1.35,2.14s-1.18,1.93-1.83,3.07-1.33,2.34-2,3.56-1.33,2.44-1.93,3.6-1.13,2.25-1.61,3.18-.82,1.73-1.08,2.28l-.39.88.52-.81c.33-.52.82-1.24,1.35-2.14s1.19-1.93,1.83-3.07,1.34-2.33,2-3.55,1.33-2.44,1.93-3.61,1.13-2.25,1.6-3.18.82-1.73,1.08-2.27S24.7,117.76,24.7,117.76Z"/><path class="cls-5" d="M19.72,115.27l-.66.66c-.41.42-1,1-1.71,1.75s-1.5,1.6-2.34,2.55-1.74,1.94-2.62,3-1.75,2-2.55,3-1.51,1.91-2.15,2.7-1.12,1.48-1.48,2l-.54.75.66-.65c.41-.42,1-1,1.71-1.76s1.51-1.59,2.35-2.54,1.73-2,2.61-3,1.75-2,2.55-3,1.52-1.91,2.15-2.7,1.12-1.48,1.48-1.94Z"/></g><path class="cls-6" d="M64.29,91.8s3.81,2.52,5.26-3.08,1.79-7.78-1.45-9.2S52.44,72.4,25.59,80C9.26,85.11,7,87,7.69,93s6.82,23.56,17,16.66S53.89,90.15,64.29,91.8Z"/><path class="cls-7" d="M106.44,129.38s-4.65-.59-20.2-2.77-34.73-4.75-43-22.35c-1-1.78-5.65,2-4.84,4.35S55.55,142.84,92.3,144A29.46,29.46,0,0,1,106.44,129.38Z"/><path class="cls-8" d="M173.21,133.54s1.75-4.36,7.41,3.16,14.13,20.05,33.25,26.77c11.17,3.3,14,4.62,24,.92,6.87-2.5,9-1.31,7.27-.38s-6.87,3.29-6.87,3.29,11.72-1.58,12-.27-10.64,2-10.64,2,10.5,2.25,10.37,4.09-13.06-.92-13.06-.92c4.17,3.29,9.82,4.75,9.42,6.33s-10.77-1.58-14.81-4.62c-1.07-.79.14,4.23.81,5.81s-.81,2.37-3.23-.4a19.82,19.82,0,0,1-3.5-7.12s-27.33,3.29-54.52-21.37C172.13,146.2,173.21,133.54,173.21,133.54Z"/><path class="cls-1" d="M174.56,131s3.63-.53.67,10.42-5.12,16.48-17,26.38S117.34,181,93.72,166c-13.53-10.09-12.32-23.34-1.82-32.64s24.17-4.26,32.51-.6,29.15-3,36.55-7.38c2.42-1,4.58,2.51,4.58,2.51A32.27,32.27,0,0,0,174.56,131Z"/><g class="cls-9"><path class="cls-10" d="M170.71,173.91a1.3,1.3,0,1,0,1.44,1.18A1.32,1.32,0,0,0,170.71,173.91Z"/><path class="cls-10" d="M158.81,174.89a1.29,1.29,0,0,0-1.21,1.39,1.32,1.32,0,1,0,1.21-1.39Z"/><path class="cls-10" d="M146.9,175.85a1.32,1.32,0,0,0-1.2,1.41,1.32,1.32,0,0,0,2.64-.22A1.33,1.33,0,0,0,146.9,175.85Z"/><path class="cls-10" d="M135,176.84a1.3,1.3,0,0,0-1.21,1.4,1.32,1.32,0,0,0,1.43,1.18,1.3,1.3,0,1,0-.22-2.58Z"/><path class="cls-10" d="M123.09,177.81a1.3,1.3,0,0,0-1.21,1.4,1.33,1.33,0,1,0,1.21-1.4Z"/><path class="cls-10" d="M111.19,178.78a1.31,1.31,0,0,0-1.21,1.4,1.32,1.32,0,1,0,1.21-1.4Z"/><path class="cls-10" d="M99.28,179.76a1.29,1.29,0,0,0-1.2,1.4,1.32,1.32,0,1,0,1.2-1.4Z"/><path class="cls-10" d="M87.38,180.73a1.3,1.3,0,0,0-1.21,1.4,1.32,1.32,0,0,0,1.43,1.19,1.3,1.3,0,1,0-.22-2.59Z"/><path class="cls-10" d="M175.48,165.51a1.3,1.3,0,1,0,.23,2.58,1.29,1.29,0,0,0,1.21-1.39A1.32,1.32,0,0,0,175.48,165.51Z"/><path class="cls-10" d="M163.58,166.48a1.3,1.3,0,1,0,1.43,1.19A1.31,1.31,0,0,0,163.58,166.48Z"/><path class="cls-10" d="M151.67,167.46a1.3,1.3,0,1,0,1.44,1.18A1.33,1.33,0,0,0,151.67,167.46Z"/><path class="cls-10" d="M139.77,168.44a1.29,1.29,0,1,0,1.43,1.17A1.3,1.3,0,0,0,139.77,168.44Z"/><path class="cls-10" d="M127.86,169.41a1.3,1.3,0,0,0-1.21,1.4,1.32,1.32,0,0,0,2.64-.22A1.31,1.31,0,0,0,127.86,169.41Z"/><path class="cls-10" d="M116,170.38a1.31,1.31,0,0,0-1.21,1.4,1.32,1.32,0,1,0,1.21-1.4Z"/><path class="cls-10" d="M104.05,171.36a1.3,1.3,0,1,0,1.43,1.18A1.3,1.3,0,0,0,104.05,171.36Z"/><path class="cls-10" d="M92.14,172.33a1.3,1.3,0,0,0-1.2,1.4,1.32,1.32,0,1,0,1.2-1.4Z"/><path class="cls-10" d="M169.36,158a1.31,1.31,0,0,0-1.21,1.4,1.32,1.32,0,1,0,1.21-1.4Z"/><path class="cls-10" d="M157.45,159a1.3,1.3,0,1,0,1.43,1.18A1.31,1.31,0,0,0,157.45,159Z"/><path class="cls-10" d="M145.55,160a1.3,1.3,0,1,0,1.43,1.18A1.3,1.3,0,0,0,145.55,160Z"/><path class="cls-10" d="M133.64,160.92a1.3,1.3,0,1,0,1.43,1.18A1.32,1.32,0,0,0,133.64,160.92Z"/><path class="cls-10" d="M121.74,161.9a1.3,1.3,0,0,0-1.21,1.4,1.32,1.32,0,1,0,1.21-1.4Z"/><path class="cls-10" d="M109.83,162.87a1.3,1.3,0,1,0,1.43,1.19A1.31,1.31,0,0,0,109.83,162.87Z"/><path class="cls-10" d="M97.93,163.85a1.3,1.3,0,0,0-1.21,1.4,1.32,1.32,0,1,0,1.21-1.4Z"/><path class="cls-10" d="M86,164.82A1.3,1.3,0,1,0,87.45,166,1.31,1.31,0,0,0,86,164.82Z"/><path class="cls-10" d="M174.13,149.6a1.3,1.3,0,0,0-1.21,1.4,1.32,1.32,0,1,0,1.21-1.4Z"/><path class="cls-10" d="M162.22,150.57a1.3,1.3,0,1,0,1.43,1.19A1.31,1.31,0,0,0,162.22,150.57Z"/><path class="cls-10" d="M150.32,151.55a1.3,1.3,0,0,0-1.21,1.4,1.33,1.33,0,0,0,1.43,1.19,1.3,1.3,0,1,0-.22-2.59Z"/><path class="cls-10" d="M138.41,152.52a1.31,1.31,0,0,0-1.21,1.4,1.33,1.33,0,0,0,1.43,1.19,1.3,1.3,0,1,0-.22-2.59Z"/><path class="cls-10" d="M126.5,153.5a1.29,1.29,0,0,0-1.2,1.4,1.32,1.32,0,1,0,1.2-1.4Z"/><path class="cls-10" d="M114.6,154.47a1.31,1.31,0,0,0-1.21,1.4,1.32,1.32,0,0,0,1.43,1.19,1.3,1.3,0,1,0-.22-2.59Z"/><path class="cls-10" d="M102.7,155.45a1.3,1.3,0,0,0-1.22,1.4,1.33,1.33,0,0,0,1.43,1.18,1.29,1.29,0,1,0-.21-2.58Z"/><path class="cls-10" d="M90.79,156.42a1.3,1.3,0,0,0-1.21,1.4A1.32,1.32,0,0,0,91,159a1.3,1.3,0,1,0-.22-2.59Z"/><path class="cls-10" d="M168,142.09a1.3,1.3,0,0,0-1.21,1.4,1.32,1.32,0,1,0,1.21-1.4Z"/><path class="cls-10" d="M156.1,143.06a1.3,1.3,0,1,0,1.43,1.18A1.32,1.32,0,0,0,156.1,143.06Z"/><path class="cls-10" d="M144.19,144a1.31,1.31,0,0,0-1.21,1.4,1.32,1.32,0,1,0,1.21-1.4Z"/><path class="cls-10" d="M132.29,145a1.3,1.3,0,1,0,.22,2.59,1.3,1.3,0,1,0-.22-2.59Z"/><path class="cls-10" d="M120.38,146a1.3,1.3,0,1,0,1.43,1.18A1.3,1.3,0,0,0,120.38,146Z"/><path class="cls-10" d="M108.47,147a1.3,1.3,0,1,0,1.44,1.19A1.31,1.31,0,0,0,108.47,147Z"/><path class="cls-10" d="M96.57,147.93A1.3,1.3,0,1,0,98,149.12,1.31,1.31,0,0,0,96.57,147.93Z"/><path class="cls-10" d="M84.66,148.91a1.29,1.29,0,0,0-1.2,1.4,1.32,1.32,0,0,0,1.43,1.19,1.3,1.3,0,0,0,1.2-1.4A1.31,1.31,0,0,0,84.66,148.91Z"/><path class="cls-10" d="M172.77,133.69a1.3,1.3,0,0,0-1.21,1.4,1.32,1.32,0,1,0,1.21-1.4Z"/><path class="cls-10" d="M160.87,134.66a1.3,1.3,0,1,0,.21,2.59,1.3,1.3,0,1,0-.21-2.59Z"/><path class="cls-10" d="M149,135.64a1.3,1.3,0,1,0,1.43,1.18A1.3,1.3,0,0,0,149,135.64Z"/><path class="cls-10" d="M137.06,136.61a1.3,1.3,0,1,0,1.42,1.19A1.31,1.31,0,0,0,137.06,136.61Z"/><path class="cls-10" d="M125.15,137.58a1.3,1.3,0,1,0,1.43,1.19A1.31,1.31,0,0,0,125.15,137.58Z"/><path class="cls-10" d="M113.24,138.56A1.31,1.31,0,0,0,112,140a1.33,1.33,0,0,0,1.44,1.19,1.3,1.3,0,1,0-.23-2.59Z"/><path class="cls-10" d="M101.34,139.53a1.3,1.3,0,1,0,1.43,1.19A1.31,1.31,0,0,0,101.34,139.53Z"/><path class="cls-10" d="M89.43,140.51a1.29,1.29,0,1,0,.22,2.58,1.3,1.3,0,1,0-.22-2.58Z"/><path class="cls-10" d="M166.65,126.18a1.3,1.3,0,1,0,1.43,1.18A1.32,1.32,0,0,0,166.65,126.18Z"/><path class="cls-10" d="M154.74,127.15a1.3,1.3,0,1,0,1.43,1.19A1.31,1.31,0,0,0,154.74,127.15Z"/><path class="cls-10" d="M142.83,128.13a1.3,1.3,0,0,0-1.21,1.4,1.32,1.32,0,0,0,1.44,1.18,1.31,1.31,0,0,0,1.21-1.4A1.32,1.32,0,0,0,142.83,128.13Z"/><path class="cls-10" d="M130.93,129.1a1.3,1.3,0,1,0,1.43,1.19A1.3,1.3,0,0,0,130.93,129.1Z"/><path class="cls-10" d="M119,130.07a1.3,1.3,0,1,0,1.43,1.19A1.32,1.32,0,0,0,119,130.07Z"/><path class="cls-10" d="M107.12,131.05a1.31,1.31,0,0,0-1.21,1.4,1.32,1.32,0,1,0,1.21-1.4Z"/><path class="cls-10" d="M95.21,132a1.3,1.3,0,1,0,1.43,1.19A1.31,1.31,0,0,0,95.21,132Z"/><path class="cls-10" d="M83.31,133a1.3,1.3,0,0,0-1.21,1.4,1.32,1.32,0,1,0,1.21-1.4Z"/><path class="cls-10" d="M171.41,117.78a1.31,1.31,0,0,0-1.21,1.4,1.33,1.33,0,0,0,1.44,1.18,1.31,1.31,0,0,0,1.21-1.4A1.32,1.32,0,0,0,171.41,117.78Z"/><path class="cls-10" d="M159.51,118.75a1.3,1.3,0,1,0,1.43,1.19A1.31,1.31,0,0,0,159.51,118.75Z"/><path class="cls-10" d="M147.6,119.72a1.3,1.3,0,1,0,1.44,1.19A1.34,1.34,0,0,0,147.6,119.72Z"/><path class="cls-10" d="M135.7,120.7a1.3,1.3,0,0,0-1.21,1.4,1.32,1.32,0,0,0,1.43,1.19,1.3,1.3,0,1,0-.22-2.59Z"/><path class="cls-10" d="M123.79,121.67a1.3,1.3,0,1,0,1.43,1.19A1.31,1.31,0,0,0,123.79,121.67Z"/><path class="cls-10" d="M111.89,122.65a1.3,1.3,0,1,0,1.43,1.18A1.31,1.31,0,0,0,111.89,122.65Z"/><path class="cls-10" d="M100,123.62a1.3,1.3,0,1,0,1.43,1.19A1.32,1.32,0,0,0,100,123.62Z"/><path class="cls-10" d="M88.08,124.59a1.3,1.3,0,1,0,1.43,1.19A1.33,1.33,0,0,0,88.08,124.59Z"/></g><g class="cls-4"><path class="cls-11" d="M91.9,133.34c10.5-9.3,24.17-4.26,32.51-.6s29.15-3,36.55-7.38c2.42-1,4.58,2.51,4.58,2.51a32.27,32.27,0,0,0,9,3.16s3.63-.53.67,10.42c-1.67,6.17-3.09,10.63-6.13,15.11-.42-1.72-1.7-2.8-4.76-1.62-7.75,2.94-12.48-.43-13.12-7.17s-29.26,1.47-31.41,17.91c-1,7.56,4,10.21,10.78,10.56A66.78,66.78,0,0,1,93.72,166C80.19,155.89,81.4,142.64,91.9,133.34Z"/></g><path class="cls-12" d="M96.31,94.25c-4.35,2.33-11,1.31-14.9-2.06a17.9,17.9,0,0,0,3.75-.61A15.48,15.48,0,0,1,73.32,84.2a10.54,10.54,0,0,0,3.48.48,15.42,15.42,0,0,1-5.1-10.21,7,7,0,0,1,4.63,2s-2.94-2.94-2.91-8.93c0,0,7.08-.35,11.87,8a19.35,19.35,0,0,1-.47-4.07s8.6,2.24,9.47,12.68c0,0,.69-3.15,2.06-4.47A18.7,18.7,0,0,1,96.31,94.25Z"/><path class="cls-13" d="M107.68,99.3c-5.33,4.86-12.07,2.27-11.4-5.23C100.71,90.88,106.54,90.85,107.68,99.3Z"/><path class="cls-14" d="M115.69,99.28c-4.28,6.48-11.48,5.54-12.35-2.48C107.08,92.3,112.85,90.74,115.69,99.28Z"/><path class="cls-15" d="M125.64,98.88c-3.81,6.23-9.27,8.41-14.31-.45C111.33,98.43,118.24,85.47,125.64,98.88Z"/><path class="cls-16" d="M137.1,93.38c-4.83,20-17.39,4.18-17.39,4.18S124.93,82,137.1,93.38Z"/><path class="cls-17" d="M94,96.83a1.55,1.55,0,0,0,2.16-.14l3.22-3.6A1.49,1.49,0,0,0,99.21,91h0a1.56,1.56,0,0,0-2.16.14l-3.22,3.61A1.47,1.47,0,0,0,94,96.83Z"/><path class="cls-18" d="M273.13,136.12a9.22,9.22,0,0,1-1.94-3.12c-.45-1-.83-2.1-1.2-3.17a41.25,41.25,0,0,1,4.84-.14,5,5,0,0,1,3.8,1.62c.93,1.14.95,2.84.84,4.23a7.7,7.7,0,0,1-4.21,1.55A3.58,3.58,0,0,1,273.13,136.12Z"/><path class="cls-19" d="M266.3,132.92a11.55,11.55,0,0,1-2.49-4c-.58-1.33-1.06-2.7-1.53-4.06a51,51,0,0,1,6.18-.19,6.45,6.45,0,0,1,4.86,2.08c1.18,1.45,1.22,3.62,1.08,5.4a9.9,9.9,0,0,1-5.39,2A4.6,4.6,0,0,1,266.3,132.92Z"/><path class="cls-20" d="M258.09,130.11a15.75,15.75,0,0,1-3.38-5.41c-.78-1.8-1.44-3.66-2.08-5.52a73.67,73.67,0,0,1,8.4-.26,8.74,8.74,0,0,1,6.6,2.83c1.62,2,1.66,4.93,1.47,7.35,0,0-3.45,2.74-7.32,2.7A6.3,6.3,0,0,1,258.09,130.11Z"/><path class="cls-21" d="M249,125.84a20,20,0,0,1-4.26-6.8c-1-2.28-1.81-4.61-2.62-7a93.55,93.55,0,0,1,10.58-.32c3.14.15,6.28,1.07,8.31,3.56s2.1,6.21,1.86,9.26c0,0-4.36,3.44-9.22,3.39A7.87,7.87,0,0,1,249,125.84Z"/><path class="cls-22" d="M289.67,132a28.33,28.33,0,0,1,8.82,4.39c1,.27-1.42.92-3.24.75a7.81,7.81,0,0,1,5.28,4l-5.76-.83c-.67-.11,4.7.7,6.86,4.17a16.19,16.19,0,0,1-14.11-.45,28.39,28.39,0,0,0,4.05,2.52c1.07.35-17.67-1.23-13.24-11.36C280,131.31,283.66,130.07,289.67,132Z"/><path class="cls-23" d="M277.71,137.49a1.05,1.05,0,0,0,1.36-.48l1.4-2.87a1,1,0,0,0-.49-1.34h0a1,1,0,0,0-1.36.47l-1.4,2.88a1,1,0,0,0,.49,1.34Z"/><path class="cls-24" d="M152.7,96.76c-16.11,7.93-20.83-20.56-7.76-23.39,10.52-2.29,9.68,11.87,10.19,11.81S163.31,66.62,167.35,67c49.68,4.54,62.26-21.07,62.26-21.07,4.87,19.48,24.68,23.29,24.68,23.29a19,19,0,0,1,0,12.23C252.62,86.13,250,91.2,251,96.51s1.78,8.95,1.78,8.95,6.26,21.14-20.6,29.13-53.43-2.07-58.14-5.35C151.52,116.53,152.7,96.76,152.7,96.76Z"/><path class="cls-25" d="M254.28,90.43s9.06-.71,8.21,7.82-7.15,8.83-9.7,7.21c0,0-.82-3.65-1.78-8.95a14.08,14.08,0,0,1-.12-4A5.12,5.12,0,0,1,254.28,90.43Z"/><path class="cls-26" d="M191,4.19c50.73-5.61,97.31,45.71,63.33,86.24a5.12,5.12,0,0,0-3.39,2c.42-3.85,2.16-7.54,3.44-11a19,19,0,0,0,0-12.23s-19.81-3.81-24.68-23.29c0,0-12.58,25.61-62.26,21.07-4-.38-11.7,18.12-12.22,18.18s.33-14.1-10.19-11.81c-13.07,2.83-8.35,31.32,7.76,23.39,0,0-1.18,19.77,21.35,32.48,0,0-41.72-11.69-50.49-42.41C112.16,46.94,132.52-.2,191,4.19Z"/><path class="cls-27" d="M264.47,66s3.38-47.41-56.68-61.7C207.79,4.33,257.08,13.79,264.47,66Z"/><path class="cls-28" d="M229.61,45.93s-.06-.93-.33-2.56c-.14-.8-.33-1.78-.61-2.89s-.6-2.38-1-3.72-1-2.79-1.6-4.29a51,51,0,0,0-2.22-4.63,47.85,47.85,0,0,0-2.89-4.69L220.09,22l-.86-1.13c-.57-.77-1.21-1.49-1.83-2.23s-1.31-1.4-2-2.1-1.37-1.33-2.08-2a44.45,44.45,0,0,0-4.4-3.41,40.79,40.79,0,0,0-4.48-2.66c-.75-.37-1.46-.75-2.17-1.06s-1.42-.59-2.09-.85c-1.35-.51-2.61-.93-3.73-1.24s-2.12-.57-2.94-.71c-1.65-.3-2.59-.45-2.59-.45s.9.34,2.46.88c.79.26,1.71.68,2.77,1.08.54.2,1.09.48,1.67.75s1.21.53,1.83.85l1.93,1,2,1.17c1.36.83,2.75,1.78,4.14,2.81s2.74,2.2,4.1,3.41c.66.61,1.3,1.27,2,1.9s1.27,1.33,1.86,2,1.22,1.37,1.77,2.1l.85,1.08.81,1.09c.54.73,1,1.49,1.54,2.21s1,1.48,1.4,2.22c.88,1.49,1.71,2.95,2.43,4.36s1.36,2.77,1.92,4.05c1.11,2.54,1.92,4.73,2.44,6.27.26.78.46,1.39.58,1.8S229.61,45.93,229.61,45.93Z"/><path class="cls-29" d="M228.75,51.9s-18.16,27-63.37,16a2.76,2.76,0,0,1,2-.92c49.68,4.54,62.26-21.07,62.26-21.07,4.87,19.48,24.68,23.29,24.68,23.29a16.75,16.75,0,0,1,.78,3.08C246.19,70.39,231.14,64,228.75,51.9Z"/><polygon class="cls-30" points="169.04 61.52 138.54 69.04 138.14 84.48 162.58 96.94 169.04 61.52"/><path class="cls-31" d="M138.55,69l6-1.47c-.05.45-.11.89-.14,1.34-.27,3.21-.59,8.8,2.9,10.72,2.15,1.19,5.43.68,7.55-.38A8.83,8.83,0,0,0,159,73.82a48.08,48.08,0,0,0,1.71-10.23L169,61.52l-6.46,35.42L138.14,84.48Z"/><path class="cls-32" d="M196.93,66.73s5.59-2.12,9.88,1.89a5,5,0,0,0-4.46-4.49C198.18,63.69,196.93,66.73,196.93,66.73Z"/><path class="cls-33" d="M199.88,73.18c4.43,1.46,6.48,7.6,4.77,15.27-1.81,8.13-7.91,9-7.91,9s.79.7,2.74,2.69c0,0-1.21-1-6.17-2.92A35.63,35.63,0,0,0,185,95a16.47,16.47,0,0,1,5,0,18,18,0,0,1-1.55-12.75C190.19,75,195.93,71.9,199.88,73.18Z"/><path class="cls-34" d="M189.35,83.88c-1.06,6.46,1.42,12.33,5.53,13.09s8.32-3.84,9.38-10.31-1.41-12.32-5.53-13.09S190.41,77.42,189.35,83.88Z"/><path class="cls-35" d="M192.34,86.74c-.89,4.74.85,9.1,3.88,9.72s6.2-2.72,7.08-7.47-.84-9.1-3.87-9.72S193.23,82,192.34,86.74Z"/><path class="cls-36" d="M194.07,87.18c-.59,3.15.56,6,2.57,6.45s4.12-1.81,4.71-5-.57-6-2.58-6.45S194.66,84,194.07,87.18Z"/><path class="cls-37" d="M197.74,85.57c-.12,1.88.74,3.5,1.93,3.63s2.26-1.3,2.38-3.18-.74-3.5-1.93-3.62S197.86,83.69,197.74,85.57Z"/><path class="cls-38" d="M244.89,73a6.88,6.88,0,0,1,6.77,1.26A3.65,3.65,0,0,0,244.89,73Z"/><path class="cls-39" d="M247.75,78.94c3.91,1.45,5.5,7,3.69,13.82-1.93,7.2-7.42,7.77-7.42,7.77s.68.66,2.35,2.51c0,0-1-1-5.41-2.84a31.61,31.61,0,0,0-7.37-2.28,14.66,14.66,0,0,1,4.48.22,16.15,16.15,0,0,1-.9-11.46C239,80.19,244.27,77.63,247.75,78.94Z"/><path class="cls-40" d="M238.07,88.16c-1.18,5.61.77,10.84,4.35,11.65s7.42-3.08,8.59-8.69-.78-10.83-4.35-11.65S239.24,82.54,238.07,88.16Z"/><path class="cls-41" d="M240.8,90.69c-1,4.11.41,8,3,8.63s5.52-2.16,6.48-6.28-.41-8-3-8.65S241.76,86.55,240.8,90.69Z"/><path class="cls-42" d="M242.3,91.13c-.63,2.73.27,5.3,2,5.73s3.67-1.43,4.31-4.17-.27-5.31-2-5.74S242.93,88.39,242.3,91.13Z"/><path class="cls-43" d="M245.57,89.86c-.17,1.63.52,3.09,1.56,3.24s2-1.06,2.2-2.7-.52-3.09-1.55-3.25S245.75,88.21,245.57,89.86Z"/><path class="cls-44" d="M233.52,97.14l4.73,6s-2.88,4.81-11.08,6.83-17.43-7.2-17.43-7.2,11.54-11.53,17.55-12C229.6,91,233.52,97.14,233.52,97.14Z"/><path class="cls-45" d="M227.29,90.78c2.31.23,6.23,6.36,6.23,6.36l4.73,6a11.08,11.08,0,0,1-1.94,2.19c-1.62-2.72-2.52-5.93-5.09-8-3.89-3.11-9.54,1-10.93,4.84-.46,1.26-1.28,3-.07,4.06a19.56,19.56,0,0,0,7.14,3.67l-.19.05c-8.2,2-17.43-7.2-17.43-7.2S221.28,91.2,227.29,90.78Z"/><path class="cls-46" d="M228.2,92.49s0,.26,0,.71v1.88c0,.77,0,1.68,0,2.64s.05,2,.07,3c0,2.07.08,4.12.11,5.66,0,.78,0,1.43,0,1.88s0,.71,0,.71l.14-.7c.07-.44.2-1.09.31-1.86s.15-1.68.21-2.66,0-2,0-3-.08-2.08-.17-3-.17-1.87-.28-2.64C228.44,93.5,228.2,92.49,228.2,92.49Z"/><path class="cls-47" d="M165,66.27c1.44-6.4,8.62-5.94,25-6.09s38,1.56,61.41,5c15.64,3,19.46,3.44,19.62,10s-2.23,18.59-4.3,24.22-4.31,5.93-4.31,5.93-20.1,4.07-26-3.9C231,93.77,229.77,89.27,224,93c-8.27,5.32-10.05,7.5-12.44,9.06s-10.87,2.32-23,1.1c-15.47-1.57-25.52-3.28-26.48-7.82S163.54,72.68,165,66.27ZM240.39,100c2.15,2.77,13.33,4.22,17.9,3.56,3.87-.56,5.52-6.2,7.95-18.6,1.79-9.18.94-13.19-6.6-14.25s-26-3.82-26-3.82S231.1,81,231,83.29,238.23,97.27,240.39,100Zm-73.77-6.86c.13,2.63,3.91,3.31,11.3,4,12.12,1,25.72,1.84,29.75,1.58C209.56,98.58,223,82.37,223,82.37l1.62-16.1s-31.1-2.5-46.58-2.24c-7.14,0-9,1.45-9.69,6.86S166.48,90.54,166.62,93.18Z"/><path class="cls-48" d="M178.06,64c15.48-.26,46.58,2.24,46.58,2.24L223,82.37s-13.46,16.21-15.35,16.35c-4,.26-17.63-.53-29.75-1.58-7.39-.65-11.17-1.33-11.3-4s1.07-16.88,1.75-22.29S170.92,64,178.06,64Z"/><path class="cls-49" d="M210.14,65.24c8.27.53,14.5,1,14.5,1l-.81,8Q217,69.78,210.14,65.24Z"/><path class="cls-50" d="M167,86.18c.19-2.63.44-5.6.69-8.35Q182,88,196,98.43c-3.82-.2-8.15-.49-12.51-.84A173.86,173.86,0,0,0,167,86.18Z"/><path class="cls-51" d="M173.3,64.42a23,23,0,0,1,4.76-.39c3.84-.06,8.66,0,13.72.24,10.16,6.33,20.43,12.53,30.56,18.92C221,84.76,218,88.34,215,91.67,200.86,82.93,186.67,74.26,173.3,64.42Z"/><path class="cls-52" d="M259.64,70.75c7.54,1.06,8.39,5.07,6.6,14.25-2.43,12.4-4.08,18-7.95,18.6-4.57.66-15.75-.79-17.9-3.56S230.83,85.46,231,83.29s2.7-16.36,2.7-16.36S252.1,69.7,259.64,70.75Z"/><path class="cls-53" d="M265.53,88.49c-10.06-7-20.23-13.95-30.06-21.28,2.89.42,8.81,1.32,14.4,2.14,5.74,4.23,11.28,8.73,16.78,13.26-.11.75-.25,1.55-.41,2.39C266,86.24,265.76,87.39,265.53,88.49Z"/><path class="cls-54" d="M258.29,103.6a34.3,34.3,0,0,1-8.4-.27c-4.61-3.17-9.2-6.37-13.72-9.65-2.6-4.23-5.28-9.08-5.21-10.39,0-.69.32-2.51.67-4.69q3.24,2.48,6.56,4.85,9.57,6.89,19,13.93c1.53,1.14,3.06,2.28,4.58,3.44A4.92,4.92,0,0,1,258.29,103.6Z"/><path class="cls-55" d="M257.22,101.89c4.27-.63,4.44-7.39,7.94-24a6.27,6.27,0,0,0-2.05-6.23c4.29,1.8,4.59,5.85,3.13,13.35-2.43,12.4-4.08,18-7.95,18.6-4.57.66-15.75-.79-17.9-3.56-.2-.25-.44-.59-.71-1C244.84,100.13,255.21,102.18,257.22,101.89Z"/><path class="cls-56" d="M222,69.44A3.8,3.8,0,0,0,220.68,66l4,.3L223,82.37s-13.46,16.21-15.35,16.35c-.63,0-1.49,0-2.55,0,2.93-3,9.22-9.59,13.73-14.69C221.27,81.34,220.87,79.06,222,69.44Z"/><path class="cls-57" d="M161,125.36s-9.42-7.65-26.25-2-33.72,30.34-31.3,53.48c-4,3.76-3.46,8.85.26,10.91-1.74,8.74-.87,11.28.74,11.4s1.86-10.67,1.86-10.67,2.1,12.62,4.08,12.86-.74-12.61-.74-12.61,6.19,13.34,7.8,12.85-1.36-8.85-3.47-13c4.09,5.34,6.56,10.19,7.93,9.83s-.5-7.89-6.07-12c3.84-.12,8.3,1.58,8.17-.73s-6.81-3.27-10.28-3c-1.61-9.22,1.77-29.1,19.81-41.36A29.35,29.35,0,0,0,161,125.36Z"/><path class="cls-58" d="M144.16,135.38a16.28,16.28,0,0,0-1.85.57,29.6,29.6,0,0,0-3.85,1.76c-.66.4-1.34.76-1.93,1.18s-1.15.78-1.6,1.15-.8.7-1.05.92-.38.36-.38.36.18-.08.48-.24.72-.38,1.21-.66,1.1-.58,1.71-.94c.31-.18.64-.35,1-.53l1-.54c.66-.38,1.33-.73,1.95-1.09s1.2-.68,1.7-1l1.2-.71Z"/><path class="cls-59" d="M177.29,130.1l-1.74,3.7s-6,19-15.13,18.73c-8.75-1.19-6.86-9.1-2.29-14.12s6.76-8.89,7.41-10.54c1.22-2.55,1.73-3.4,1.73-3.4Z"/><path class="cls-60" d="M91.47,145S74.3,135.28,65.89,126.5,62,103.77,64.4,93.94c1.31-5.26.73-6.59-3.22-7.16s-6.71,2.31-8,8.51-6.73,32.31,9.28,46.43c12.93,11.73,28.68,23.73,34.34,15.42C100.65,151.08,96,147.84,91.47,145Z"/><path class="cls-61" d="M35.09,84.08c6.73.52,7.8,1.85,8.75,5.94s-9.56,10.28-17.37,14.64c-4.28,2.38-5.76,4.84-6.24,6.58-7.5.14-12-13.15-12.54-18.24a8,8,0,0,1,.5-4.54C16.75,85.46,29.23,83.62,35.09,84.08Z"/><g class="cls-4"><path class="cls-5" d="M16.21,103.33l1-.42c.64-.28,1.58-.65,2.68-1.15s2.4-1.05,3.76-1.69S26.5,98.74,28,98l4.22-2.11c1.34-.69,2.58-1.36,3.64-1.93s1.94-1.06,2.56-1.4l.95-.55-1,.41c-.65.28-1.59.65-2.69,1.15s-2.39,1-3.76,1.69-2.82,1.34-4.27,2-2.88,1.42-4.22,2.11-2.58,1.37-3.65,1.92-1.93,1.07-2.55,1.41Z"/><path class="cls-5" d="M15.62,93.19l.93-.16c.59-.12,1.44-.25,2.44-.47s2.18-.46,3.43-.76,2.57-.62,3.9-1,2.64-.7,3.87-1,2.38-.71,3.36-1,1.79-.58,2.36-.76l.89-.31-.93.16c-.59.12-1.44.26-2.44.48s-2.17.46-3.42.75-2.57.62-3.9,1-2.64.7-3.88,1-2.37.7-3.36,1-1.78.58-2.36.76Z"/></g><path class="cls-62" d="M162.59,205.08a10.68,10.68,0,1,0,10.68-10.46A10.57,10.57,0,0,0,162.59,205.08Z"/><path class="cls-63" d="M173.27,194.62a11,11,0,0,1,3.69.65,9.91,9.91,0,0,0-2.74-.39,9.41,9.41,0,1,0,9.6,9.41,9.29,9.29,0,0,0-.13-1.5,10.18,10.18,0,0,1,.26,2.29,10.68,10.68,0,1,1-10.68-10.46Z"/><path class="cls-64" d="M177,195.27a9.49,9.49,0,0,1,6.73,7.52A10.58,10.58,0,0,0,177,195.27Z"/><path class="cls-10" d="M175.57,201.61a3,3,0,1,0,3-2.94A3,3,0,0,0,175.57,201.61Z"/><path class="cls-10" d="M178.05,206.88a1.07,1.07,0,1,0,1.06-1A1.06,1.06,0,0,0,178.05,206.88Z"/><path class="cls-65" d="M198,199.87a8.71,8.71,0,1,0,8.7-8.53A8.61,8.61,0,0,0,198,199.87Z"/><path class="cls-66" d="M206.74,191.34a9.07,9.07,0,0,1,3,.53,8.25,8.25,0,0,0-2.24-.32,7.67,7.67,0,1,0,7.83,7.67,8.26,8.26,0,0,0-.11-1.22,8.18,8.18,0,0,1,.22,1.87,8.71,8.71,0,1,1-8.71-8.53Z"/><path class="cls-67" d="M209.75,191.87a7.74,7.74,0,0,1,5.48,6.13A8.6,8.6,0,0,0,209.75,191.87Z"/><path class="cls-10" d="M208.62,197a2.45,2.45,0,1,0,2.45-2.4A2.43,2.43,0,0,0,208.62,197Z"/><path class="cls-10" d="M210.64,201.33a.85.85,0,0,0,.86.85.85.85,0,1,0,0-1.7A.85.85,0,0,0,210.64,201.33Z"/><path class="cls-68" d="M158,183.34a5.56,5.56,0,1,0,5.55-5.45A5.5,5.5,0,0,0,158,183.34Z"/><path class="cls-69" d="M163.58,177.89a5.78,5.78,0,0,1,1.92.34,5.15,5.15,0,0,0-1.43-.21,4.9,4.9,0,1,0,5,4.9,5.14,5.14,0,0,0-.07-.78,5.26,5.26,0,0,1,.14,1.2,5.56,5.56,0,1,1-5.56-5.45Z"/><path class="cls-70" d="M165.5,178.23a4.92,4.92,0,0,1,3.5,3.91A5.48,5.48,0,0,0,165.5,178.23Z"/><path class="cls-10" d="M164.78,181.53a1.57,1.57,0,1,0,1.57-1.54A1.55,1.55,0,0,0,164.78,181.53Z"/><path class="cls-10" d="M166.07,184.27a.55.55,0,0,0,.55.54.54.54,0,0,0,.55-.54.55.55,0,0,0-.55-.55A.55.55,0,0,0,166.07,184.27Z"/><path class="cls-71" d="M310.82,75.15A14.14,14.14,0,1,0,325,61.29,14,14,0,0,0,310.82,75.15Z"/><path class="cls-72" d="M325,61.29a14.31,14.31,0,0,1,4.88.87,12.8,12.8,0,0,0-3.63-.53,12.46,12.46,0,1,0,12.72,12.46,12.9,12.9,0,0,0-.18-2,13.82,13.82,0,0,1,.35,3A14.14,14.14,0,1,1,325,61.29Z"/><path class="cls-73" d="M329.84,62.16a12.54,12.54,0,0,1,8.91,10A13.93,13.93,0,0,0,329.84,62.16Z"/><path class="cls-10" d="M328,70.55a4,4,0,1,0,4-3.9A3.94,3.94,0,0,0,328,70.55Z"/><path class="cls-10" d="M331.29,77.52a1.41,1.41,0,1,0,1.4-1.38A1.39,1.39,0,0,0,331.29,77.52Z"/><path class="cls-74" d="M279.37,103.68A7.9,7.9,0,1,0,287.26,96,7.81,7.81,0,0,0,279.37,103.68Z"/><path class="cls-75" d="M287.26,96a8.2,8.2,0,0,1,2.73.48,7.11,7.11,0,0,0-2-.29,7,7,0,1,0,7.1,7A6.74,6.74,0,0,0,295,102a7.24,7.24,0,0,1,.2,1.69,7.9,7.9,0,1,1-7.9-7.73Z"/><path class="cls-76" d="M290,96.43a7,7,0,0,1,5,5.56A7.76,7.76,0,0,0,290,96.43Z"/><path class="cls-10" d="M289,101.12a2.23,2.23,0,1,0,2.22-2.18A2.2,2.2,0,0,0,289,101.12Z"/><path class="cls-10" d="M290.8,105a.79.79,0,1,0,.78-.77A.78.78,0,0,0,290.8,105Z"/><path class="cls-77" d="M285.46,82.22a3.42,3.42,0,1,0,3.42-3.35A3.38,3.38,0,0,0,285.46,82.22Z"/><path class="cls-78" d="M288.88,78.87a3.3,3.3,0,0,1,1.18.22,2.84,2.84,0,0,0-.88-.13,3,3,0,1,0,3.08,3,2.61,2.61,0,0,0-.05-.48,3.74,3.74,0,0,1,.09.74,3.42,3.42,0,1,1-3.42-3.35Z"/><path class="cls-79" d="M290.06,79.09a3,3,0,0,1,2.15,2.39A3.34,3.34,0,0,0,290.06,79.09Z"/><path class="cls-10" d="M289.62,81.11a1,1,0,1,0,1-.94A1,1,0,0,0,289.62,81.11Z"/><path class="cls-10" d="M290.41,82.79a.34.34,0,1,0,.34-.33A.34.34,0,0,0,290.41,82.79Z"/><path class="cls-80" d="M102.88,54.49a5.34,5.34,0,1,0,5.34-5.23A5.28,5.28,0,0,0,102.88,54.49Z"/><path class="cls-81" d="M108.22,49.26a5.65,5.65,0,0,1,1.84.32,5.21,5.21,0,0,0-1.37-.19,4.77,4.77,0,1,0,4.73,4,5,5,0,0,1,.13,1.15,5.34,5.34,0,1,1-5.33-5.23Z"/><path class="cls-82" d="M110.06,49.58a4.74,4.74,0,0,1,3.36,3.76A5.28,5.28,0,0,0,110.06,49.58Z"/><path class="cls-10" d="M109.37,52.76a1.5,1.5,0,1,0,1.5-1.48A1.49,1.49,0,0,0,109.37,52.76Z"/><path class="cls-10" d="M110.6,55.38a.54.54,0,0,0,1.07,0,.54.54,0,0,0-1.07,0Z"/><path class="cls-83" d="M138.55,69l-17.81-.75a25.35,25.35,0,0,0,.4,7.26c4.2,1.18,17,3.19,17,3.19Z"/><path class="cls-84" d="M52.49,84.16A5.92,5.92,0,0,0,51,85.26a8.5,8.5,0,0,0-.6.68,5.13,5.13,0,0,0-.54.89,3.39,3.39,0,0,0-.2.51,2,2,0,0,0-.15.55c0,.19-.06.39-.08.58l0,.6a2,2,0,0,0,.13.58c.06.18.11.38.19.56a6.63,6.63,0,0,0,.6,1c.24.26.47.53.71.75s.5.38.73.55a3.85,3.85,0,0,0,.65.39l.53.26.46.21L53.08,93c-.22-.22-.6-.48-1-.87-.18-.2-.38-.41-.6-.62s-.35-.49-.55-.74a8.52,8.52,0,0,1-.46-.84c-.06-.15-.09-.31-.14-.47a1.46,1.46,0,0,1-.1-.47l0-.48.05-.47a4,4,0,0,1,.24-.92,6.5,6.5,0,0,1,.39-.84c.14-.26.31-.49.45-.71A11.4,11.4,0,0,1,52.49,84.16Z"/><path class="cls-85" d="M266.31,91.1s3.49-10.84,2.16-15.67-6.84-6.31-19.47-8.78c7.1,0,21.52,1.59,21.4,8.43S266.31,91.1,266.31,91.1Z"/><path class="cls-85" d="M245.35,66.33c0,.15.55.35,1.28.43s1.33,0,1.35-.14-.56-.35-1.28-.43S245.37,66.17,245.35,66.33Z"/><path class="cls-86" d="M203.8,123.93c-.22,5,7.11,9.42,16.36,9.8s17-3.37,17.17-8.39-7.11-9.41-16.37-9.81S204,118.9,203.8,123.93Z"/><path class="cls-87" d="M205,124c-.21,4.68,6.61,8.76,15.21,9.11s15.75-3.12,16-7.8-6.61-8.75-15.22-9.12S205.18,119.31,205,124Z"/><path class="cls-88" d="M204.58,126.12c-.21,4.68,6.61,8.76,15.22,9.12s15.75-3.13,15.95-7.81-6.61-8.76-15.21-9.12S204.78,121.44,204.58,126.12Z"/><path class="cls-89" d="M185.88,155.32q.62,0,1.23,0c17.79-.45,27-8.56,31.67-15.29,5-7.29,5.42-13.16,5.45-13.46.2-2.18-1.47-3.16-3.69-3.36s-4.14.44-4.35,2.61h0c-.1.91-2.3,20.91-29.29,21.6-33.55.81-41.48-39.58-43.33-57-3.54-33.32,4.94-85.29,5-85.81A4,4,0,0,0,145.25.05a4,4,0,0,0-4.63,3.27c0,.14-2.21,13.49-3.92,30.85-2.31,23.4-2.7,42.59-1.16,57.05,1.31,12.33,4.78,29.92,13.9,43.69C158.29,148.28,170.87,155.32,185.88,155.32Z"/><g class="cls-90"><path class="cls-91" d="M139.93,7.36a8,8,0,0,1,8,2.35c.16.2-.11.36-.27.18-1.89-2.13-4.79-2.37-7.47-2.13C140,7.78,139.69,7.43,139.93,7.36Z"/><path class="cls-92" d="M139.67,12.46c2.39-.35,5.93-.32,7.6,1.67.14.16-.07.25-.2.14-1.88-1.65-4.84-1.49-7.19-1.36C139.65,12.93,139.36,12.51,139.67,12.46Z"/><path class="cls-93" d="M138.61,19.59A8.4,8.4,0,0,1,145.89,21c.11.09,0,.26-.11.17A9.28,9.28,0,0,0,138.84,20C138.66,20,138.4,19.67,138.61,19.59Z"/><path class="cls-94" d="M137.32,27.82a10.34,10.34,0,0,1,4.29-.19,11.16,11.16,0,0,1,2.08.45,4.17,4.17,0,0,1,1.44,1c.12.09.16.39-.07.28a9.88,9.88,0,0,0-2.83-1.14,16.17,16.17,0,0,0-4.66,0C137.39,28.26,137.08,27.9,137.32,27.82Z"/><path class="cls-95" d="M136.78,34.68c2.67-1,5.25.32,7.55,1.51.17.09.16.41-.08.31-.93-.4-1.76-.9-2.74-1.22A8.42,8.42,0,0,0,137,35.1C136.84,35.15,136.55,34.76,136.78,34.68Z"/><path class="cls-96" d="M135.77,42.59A7.58,7.58,0,0,1,144.18,44c.21.2,0,.41-.23.23-2.35-1.93-5-2-7.81-1.09C135.87,43.2,135.45,42.72,135.77,42.59Z"/><path class="cls-97" d="M135.38,52c1.31-.72,3-.54,4.42-.46A5.48,5.48,0,0,1,143.12,53c.18.14,0,.39-.17.25a8.74,8.74,0,0,0-7.26-.76C135.47,52.52,135.12,52.17,135.38,52Z"/><path class="cls-98" d="M134.64,57.5a6.8,6.8,0,0,1,8.38.71c.2.21,0,.41-.23.23-2.49-2.11-5-1.51-7.84-.52C134.73,58,134.41,57.65,134.64,57.5Z"/><path class="cls-99" d="M134.51,64.24c2.35-1.79,6.15-1.14,8.27.6.15.12,0,.33-.14.22a7.8,7.8,0,0,0-7.81-.44C134.66,64.7,134.32,64.38,134.51,64.24Z"/><path class="cls-100" d="M134.44,70.5a8,8,0,0,1,8.1.09c.16.11.11.37-.11.24-2.39-1.39-5.26-.89-7.69.09C134.52,71,134.2,70.65,134.44,70.5Z"/><path class="cls-101" d="M134.91,78.26c2.14-1.73,5.37-1.33,7.69-.36.15.07.2.34,0,.27a9.06,9.06,0,0,0-4.07-.45,27.14,27.14,0,0,0-3.29,1C135,78.73,134.73,78.4,134.91,78.26Z"/><path class="cls-102" d="M134.74,87.62c2.54-1.51,5.57-1.24,8.28-.44.13,0,.22.33,0,.29-2.69-.52-5.5-.86-8,.58C134.85,88.17,134.5,87.76,134.74,87.62Z"/><path class="cls-103" d="M135.91,95.88c2.21-1.3,6-1,8.27.08.14.07.2.33,0,.27a12.43,12.43,0,0,0-7.95.07C136,96.38,135.67,96,135.91,95.88Z"/><path class="cls-104" d="M136.86,101.35a9.77,9.77,0,0,1,4.86-1,11.89,11.89,0,0,1,3.31.68c.17.06.28.43,0,.38a16.24,16.24,0,0,0-3.11-.57,12.6,12.6,0,0,0-4.78.89C136.94,101.84,136.61,101.48,136.86,101.35Z"/><path class="cls-105" d="M138.34,107.2c1.7-2.15,5.56-1.7,7.84-1,.1,0,.17.25,0,.22-2.58-.47-5.38-.67-7.56,1.06C138.48,107.59,138.22,107.35,138.34,107.2Z"/><path class="cls-106" d="M140.12,112.27a15.21,15.21,0,0,0,3.69.18,26.28,26.28,0,0,0,3.86-.85c.15,0,.37.26.19.33a11.53,11.53,0,0,1-7.71.79C139.94,112.65,139.8,112.21,140.12,112.27Z"/><path class="cls-107" d="M142.08,119.41a8.34,8.34,0,0,0,7.42-1.79c.15-.11.42.14.29.28-1.82,1.87-5.21,3.1-7.74,1.92C141.82,119.72,141.72,119.31,142.08,119.41Z"/><path class="cls-108" d="M146,127.54a7.39,7.39,0,0,0,3.66-.44,5.94,5.94,0,0,0,3.1-2.2c.07-.15.31,0,.26.17-.39,1.13-1.95,2.08-3,2.49a6.4,6.4,0,0,1-3.9.44C145.89,127.94,145.68,127.48,146,127.54Z"/><path class="cls-109" d="M149.33,133.32c2.52-.37,5-.84,6.46-3.08.12-.17.42,0,.34.21-1.11,2.4-4,3.41-6.59,3.32C149.33,133.76,149,133.37,149.33,133.32Z"/><path class="cls-110" d="M152.49,138.28a8.47,8.47,0,0,0,3.56-1.27,5.6,5.6,0,0,0,2.39-3c.07-.17.35,0,.31.2a5.29,5.29,0,0,1-2,3.06,6.7,6.7,0,0,1-4.05,1.51C152.48,138.72,152.18,138.31,152.49,138.28Z"/><path class="cls-111" d="M158.08,144.27a6.15,6.15,0,0,0,3.44-2.26c1-1.06.94-2.27,1.33-3.52.06-.19.36,0,.35.18a7.64,7.64,0,0,1-.11,1.57,6.76,6.76,0,0,1-1.11,2.21c-.73,1-2.38,2.51-3.76,2.25C158.05,144.67,157.79,144.31,158.08,144.27Z"/><path class="cls-112" d="M162.77,148.61a8.55,8.55,0,0,0,2.55-2.09,7.68,7.68,0,0,0,2.36-3.87c0-.23.37,0,.37.15a6.22,6.22,0,0,1-2,3.86c-.78.84-1.82,2.24-3.06,2.37C162.83,149.05,162.53,148.72,162.77,148.61Z"/><path class="cls-113" d="M172.05,152.92a10.09,10.09,0,0,0,2.06-7.44c0-.25.31-.12.35.05a8.51,8.51,0,0,1-2,7.8C172.28,153.53,171.88,153.14,172.05,152.92Z"/><path class="cls-114" d="M180.52,154.36c1.41-2.35,1.29-4.48,1-7.1,0-.27.34-.13.38.06.49,2.43.69,5.29-1,7.37C180.8,154.87,180.41,154.55,180.52,154.36Z"/><path class="cls-115" d="M188.43,154.87a7,7,0,0,0,.52-3.45,10.28,10.28,0,0,0-.44-4c-.12-.28.26-.22.37,0a8.28,8.28,0,0,1,.63,3.72c0,1.4.27,3-.59,4.17C188.77,155.47,188.31,155.09,188.43,154.87Z"/><path class="cls-116" d="M194.17,146.4c1,.24,1.5,1.37,1.91,2.14a10.18,10.18,0,0,1,1.24,4.36c0,.33-.51.07-.55-.15a15.56,15.56,0,0,0-.72-3.07c-.32-.89-.9-2.51-1.85-2.91C194.05,146.71,193.91,146.33,194.17,146.4Z"/><path class="cls-117" d="M202.29,143.92a7.28,7.28,0,0,1,3.94,2,3.76,3.76,0,0,1,.94,4.18c-.14.25-.52,0-.5-.25.13-1.51.09-2.69-1.06-3.84a9.43,9.43,0,0,0-3.3-1.74C202.18,144.19,202.05,143.89,202.29,143.92Z"/><path class="cls-118" d="M208.65,139.88a2.86,2.86,0,0,0,.92-.06,3.79,3.79,0,0,1,1.29.21,6.88,6.88,0,0,1,2,.9,5.26,5.26,0,0,1,2.38,3.26c.07.37-.45.22-.54,0a5.6,5.6,0,0,0-3-3.26,5.73,5.73,0,0,0-2.64-.5.71.71,0,0,1-.42-.14C208.49,140.19,208.38,139.81,208.65,139.88Z"/><path class="cls-119" d="M213.41,133.44c2.79-.52,7.14.36,7.47,3.73,0,.19-.22.12-.27,0a4.56,4.56,0,0,0-2.58-2.84c-1.51-.66-2.84-.4-4.4-.41C213.4,133.92,213.07,133.5,213.41,133.44Z"/><path class="cls-120" d="M215.87,128.73c2-1.84,7.11-1.95,7.67,1.38.05.29-.35.16-.42,0-1.08-2.61-4.83-2.44-6.66-.82C216.17,129.54,215.59,129,215.87,128.73Z"/></g><path class="cls-121" d="M142.85,3.3S136,47.57,136.66,70.61,132.64,36.35,142.85,3.3Z"/><g class="cls-4"><path class="cls-122" d="M219.25,126.81c-3,10.55-12.11,23.21-34.46,22.95s-37.43-17.14-42.85-48.88.31-74.83,3-90.66c.9-5.31.5-8.43-.46-10.21a4,4,0,0,1,.77,0,4,4,0,0,1,3.34,4.54c-.08.52-8.56,52.49-5,85.81,1.85,17.41,9.78,57.8,43.33,57,27-.69,29.19-20.69,29.29-21.6.21-2.17,2.14-2.81,4.35-2.61a7.23,7.23,0,0,1,1.47.28C220.7,123.78,219.61,124.72,219.25,126.81Z"/></g><path class="cls-123" d="M226.33,133.25a13.63,13.63,0,0,0,5.39-2.38c2.71-2.15,2.75-5.36.44-7.8-.13-.14,0-.29.16-.16,5,4.71-.36,10-5.78,10.83C226.3,133.78,226,133.34,226.33,133.25Z"/><path class="cls-124" d="M56.9,78.81S43.44,77,19.74,83C12.2,85.14,37.24,73.79,56.9,78.81Z"/></g></g></g></svg>