<?xml version="1.0" encoding="utf-8"?>
<!-- Generator: Adobe Illustrator 20.0.0, SVG Export Plug-In . SVG Version: 6.00 Build 0)  -->
<svg version="1.1" id="Layer_1" xmlns="http://www.w3.org/2000/svg" xmlns:xlink="http://www.w3.org/1999/xlink" x="0px" y="0px"
	 viewBox="0 0 206.6 110.4" style="enable-background:new 0 0 206.6 110.4;" xml:space="preserve">
<style type="text/css">
	.st0{fill:url(#SVGID_1_);}
	.st1{fill:url(#SVGID_2_);}
	.st2{fill:url(#SVGID_3_);}
	.st3{fill:url(#SVGID_4_);}
	.st4{fill:url(#SVGID_5_);}
	.st5{opacity:0.3;}
	.st6{fill:#D3B97D;}
	.st7{opacity:0.36;}
	.st8{fill:#DFBE6A;}
</style>
<g>
	<g>
		<path d="M24.6,72L2,10.8l9-4l16.8,48.2l6.4-17.3l-8.4-22.7l9-3.9l15.6,46.1c1.7-3.7,3.3-7.3,4.9-11c1.6-3.6,3.2-7.3,4.8-11
			c0.8-1.8,1.5-3.6,2-5.5c0.6-1.9,0.9-3.8,0.9-5.9c0-1.6-0.2-3.1-0.6-4.5c-0.4-1.4-1-2.8-1.7-4.1c-0.7-1.3-1.6-2.5-2.6-3.6
			c-1-1.1-2.1-2.2-3.2-3.2L61.8,0c1.1,0.8,2.1,1.8,3,3c0.9,1.2,1.7,2.5,2.3,3.8c0.7,1.4,1.2,2.8,1.5,4.2s0.5,2.8,0.5,4.2
			c0,2.6-0.4,5.1-1.2,7.6c-0.8,2.4-1.7,4.9-2.7,7.3c-3.1,7-6.1,14-9.2,21c-3.1,6.9-6.2,13.9-9.3,21L35.5,41.2L24.6,72z"/>
		<path d="M89.4,68.5l-9.2,3.3V8.2l9.2-3.3V68.5z"/>
		<path d="M154.3,64.3c-0.4,0.9-1,1.7-1.7,2.5c-0.7,0.8-1.4,1.5-2.3,2.1c-0.8,0.6-1.7,1.1-2.7,1.5c-0.9,0.4-1.9,0.6-2.9,0.6
			c-1.7,0-3.1-0.3-4.3-0.9c-1.2-0.6-2.3-1.5-3.1-2.5c-0.8-1.1-1.5-2.3-1.9-3.6s-0.6-2.8-0.6-4.3V21.2c0-0.7,0-1.5,0-2.3
			c0-0.8,0-1.7-0.1-2.5c-0.1-0.8-0.2-1.6-0.4-2.4s-0.5-1.4-0.9-2c-0.4-0.6-1-1-1.6-1.4c-0.7-0.4-1.5-0.5-2.5-0.5
			c-1.7,0-3.2,0.5-4.5,1.5c-1.3,1-2.5,2.3-3.5,3.9c-1,1.6-1.9,3.4-2.6,5.5c-0.7,2-1.3,4.1-1.8,6.1c-0.5,2-0.8,4-1,5.9
			c-0.2,1.9-0.3,3.4-0.3,4.7v30.7l-9.2,3.4V8.1l9.2-3.3v16.8c0.6-2.2,1.4-4.2,2.4-6.2c1-2,2.2-3.8,3.6-5.3c1.4-1.5,3.1-2.8,5.1-3.7
			c1.9-0.9,4.2-1.4,6.7-1.4c1.9,0,3.5,0.3,4.9,1c1.4,0.7,2.5,1.6,3.4,2.8c0.9,1.2,1.5,2.6,1.9,4.1c0.4,1.6,0.6,3.2,0.6,4.9v43.1
			c0,0.6,0.1,1.2,0.2,1.8c0.1,0.6,0.3,1.1,0.6,1.6c0.3,0.5,0.7,0.9,1.1,1.2c0.5,0.3,1.1,0.4,1.8,0.4c1,0,2-0.3,2.9-0.9
			c0.9-0.6,1.7-1.3,2.2-2.1L154.3,64.3z"/>
		<path d="M201.2,53c-1.3,2.4-2.9,4.7-4.7,6.8c-1.9,2.2-3.9,4.1-6.2,5.7c-2.3,1.7-4.7,3-7.3,4c-2.6,1-5.4,1.5-8.2,1.5
			c-2.2,0-4.4-0.4-6.5-1.1s-4-1.8-5.6-3.2c-1.6-1.4-3-3-4-4.9c-1-1.9-1.5-4-1.5-6.4c0-2.3,0.5-4.4,1.4-6.4c0.9-2,2.1-3.8,3.6-5.4
			c1.5-1.6,3.1-3.1,5-4.4c1.9-1.3,3.7-2.4,5.6-3.2c-1.3-0.2-2.5-0.7-3.6-1.5s-2-1.6-2.7-2.7c-0.7-1-1.3-2.2-1.7-3.5
			c-0.4-1.3-0.6-2.6-0.6-3.9c0-1.8,0.3-3.5,1-5.1c0.7-1.6,1.5-3.1,2.6-4.5c1.1-1.4,2.4-2.6,3.9-3.7c1.5-1.1,3-2.1,4.7-2.8
			c1.6-0.8,3.3-1.4,5.1-1.8c1.7-0.4,3.4-0.6,5-0.6c2.4,0,4.7,0.5,6.7,1.4c2,1,3.8,2.4,5.3,4.2l-6.4,4.7c-0.6-0.9-1.3-1.7-2-2.4
			c-0.7-0.8-1.5-1.4-2.4-2c-0.8-0.5-1.7-1-2.7-1.3c-1-0.3-2-0.5-3.1-0.5c-1.4,0-2.7,0.2-4,0.7c-1.3,0.5-2.5,1.2-3.5,2
			c-1,0.9-1.9,1.9-2.5,3.1c-0.6,1.2-1,2.5-1,4c0,1.5,0.3,2.9,1,4.2c0.7,1.3,1.5,2.4,2.6,3.4s2.3,1.7,3.7,2.2
			c1.4,0.5,2.8,0.8,4.2,0.8c1.7,0,3.2-0.3,4.6-0.8l0.7,1.8c-2.4,0.8-4.8,1.8-7.2,3c-2.4,1.2-4.5,2.6-6.4,4.3
			c-1.9,1.7-3.4,3.6-4.6,5.9c-1.2,2.2-1.8,4.7-1.8,7.6c0,1.6,0.2,3.1,0.7,4.5c0.5,1.4,1.2,2.6,2.1,3.6c0.9,1,2,1.9,3.3,2.4
			c1.3,0.6,2.8,0.9,4.5,0.9c1.7,0,3.6-0.3,5.8-1c2.1-0.7,4.2-1.6,6.3-2.8s3.9-2.5,5.6-4c1.7-1.5,3-3,3.8-4.5L201.2,53z"/>
	</g>
	<g>
		
			<linearGradient id="SVGID_1_" gradientUnits="userSpaceOnUse" x1="107.215" y1="142.8863" x2="36.3187" y2="20.0903" gradientTransform="matrix(1 0 0 1 34.3789 -49)">
			<stop  offset="0" style="stop-color:#222222"/>
			<stop  offset="1" style="stop-color:#DFBE6A"/>
		</linearGradient>
		<path class="st0" d="M24.6,72L2,10.8l9-4l16.8,48.2l6.4-17.3l-8.4-22.7l9-3.9l15.6,46.1c1.7-3.7,3.3-7.3,4.9-11
			c1.6-3.6,3.2-7.3,4.8-11c0.8-1.8,1.5-3.6,2-5.5c0.6-1.9,0.9-3.8,0.9-5.9c0-1.6-0.2-3.1-0.6-4.5c-0.4-1.4-1-2.8-1.7-4.1
			c-0.7-1.3-1.6-2.5-2.6-3.6c-1-1.1-2.1-2.2-3.2-3.2L61.8,0c1.1,0.8,2.1,1.8,3,3c0.9,1.2,1.7,2.5,2.3,3.8c0.7,1.4,1.2,2.8,1.5,4.2
			s0.5,2.8,0.5,4.2c0,2.6-0.4,5.1-1.2,7.6c-0.8,2.4-1.7,4.9-2.7,7.3c-3.1,7-6.1,14-9.2,21c-3.1,6.9-6.2,13.9-9.3,21L35.5,41.2
			L24.6,72z"/>
		
			<linearGradient id="SVGID_2_" gradientUnits="userSpaceOnUse" x1="107.215" y1="142.8863" x2="36.3187" y2="20.0903" gradientTransform="matrix(1 0 0 1 34.3789 -49)">
			<stop  offset="0" style="stop-color:#222222"/>
			<stop  offset="1" style="stop-color:#DFBE6A"/>
		</linearGradient>
		<path class="st1" d="M89.4,68.5l-9.2,3.3V8.2l9.2-3.3V68.5z"/>
		
			<linearGradient id="SVGID_3_" gradientUnits="userSpaceOnUse" x1="107.215" y1="142.8863" x2="36.3187" y2="20.0903" gradientTransform="matrix(1 0 0 1 34.3789 -49)">
			<stop  offset="0" style="stop-color:#222222"/>
			<stop  offset="1" style="stop-color:#DFBE6A"/>
		</linearGradient>
		<path class="st2" d="M154.3,64.3c-0.4,0.9-1,1.7-1.7,2.5c-0.7,0.8-1.4,1.5-2.3,2.1c-0.8,0.6-1.7,1.1-2.7,1.5
			c-0.9,0.4-1.9,0.6-2.9,0.6c-1.7,0-3.1-0.3-4.3-0.9c-1.2-0.6-2.3-1.5-3.1-2.5c-0.8-1.1-1.5-2.3-1.9-3.6s-0.6-2.8-0.6-4.3V21.2
			c0-0.7,0-1.5,0-2.3c0-0.8,0-1.7-0.1-2.5c-0.1-0.8-0.2-1.6-0.4-2.4s-0.5-1.4-0.9-2c-0.4-0.6-1-1-1.6-1.4c-0.7-0.4-1.5-0.5-2.5-0.5
			c-1.7,0-3.2,0.5-4.5,1.5c-1.3,1-2.5,2.3-3.5,3.9c-1,1.6-1.9,3.4-2.6,5.5c-0.7,2-1.3,4.1-1.8,6.1c-0.5,2-0.8,4-1,5.9
			c-0.2,1.9-0.3,3.4-0.3,4.7v30.7l-9.2,3.4V8.1l9.2-3.3v16.8c0.6-2.2,1.4-4.2,2.4-6.2c1-2,2.2-3.8,3.6-5.3c1.4-1.5,3.1-2.8,5.1-3.7
			c1.9-0.9,4.2-1.4,6.7-1.4c1.9,0,3.5,0.3,4.9,1c1.4,0.7,2.5,1.6,3.4,2.8c0.9,1.2,1.5,2.6,1.9,4.1c0.4,1.6,0.6,3.2,0.6,4.9v43.1
			c0,0.6,0.1,1.2,0.2,1.8c0.1,0.6,0.3,1.1,0.6,1.6c0.3,0.5,0.7,0.9,1.1,1.2c0.5,0.3,1.1,0.4,1.8,0.4c1,0,2-0.3,2.9-0.9
			c0.9-0.6,1.7-1.3,2.2-2.1L154.3,64.3z"/>
		
			<linearGradient id="SVGID_4_" gradientUnits="userSpaceOnUse" x1="107.215" y1="142.8863" x2="36.3187" y2="20.0903" gradientTransform="matrix(1 0 0 1 34.3789 -49)">
			<stop  offset="0" style="stop-color:#222222"/>
			<stop  offset="1" style="stop-color:#DFBE6A"/>
		</linearGradient>
		<path class="st3" d="M201.2,53c-1.3,2.4-2.9,4.7-4.7,6.8c-1.9,2.2-3.9,4.1-6.2,5.7c-2.3,1.7-4.7,3-7.3,4c-2.6,1-5.4,1.5-8.2,1.5
			c-2.2,0-4.4-0.4-6.5-1.1s-4-1.8-5.6-3.2c-1.6-1.4-3-3-4-4.9c-1-1.9-1.5-4-1.5-6.4c0-2.3,0.5-4.4,1.4-6.4c0.9-2,2.1-3.8,3.6-5.4
			c1.5-1.6,3.1-3.1,5-4.4c1.9-1.3,3.7-2.4,5.6-3.2c-1.3-0.2-2.5-0.7-3.6-1.5s-2-1.6-2.7-2.7c-0.7-1-1.3-2.2-1.7-3.5
			c-0.4-1.3-0.6-2.6-0.6-3.9c0-1.8,0.3-3.5,1-5.1c0.7-1.6,1.5-3.1,2.6-4.5c1.1-1.4,2.4-2.6,3.9-3.7c1.5-1.1,3-2.1,4.7-2.8
			c1.6-0.8,3.3-1.4,5.1-1.8c1.7-0.4,3.4-0.6,5-0.6c2.4,0,4.7,0.5,6.7,1.4c2,1,3.8,2.4,5.3,4.2l-6.4,4.7c-0.6-0.9-1.3-1.7-2-2.4
			c-0.7-0.8-1.5-1.4-2.4-2c-0.8-0.5-1.7-1-2.7-1.3c-1-0.3-2-0.5-3.1-0.5c-1.4,0-2.7,0.2-4,0.7c-1.3,0.5-2.5,1.2-3.5,2
			c-1,0.9-1.9,1.9-2.5,3.1c-0.6,1.2-1,2.5-1,4c0,1.5,0.3,2.9,1,4.2c0.7,1.3,1.5,2.4,2.6,3.4s2.3,1.7,3.7,2.2
			c1.4,0.5,2.8,0.8,4.2,0.8c1.7,0,3.2-0.3,4.6-0.8l0.7,1.8c-2.4,0.8-4.8,1.8-7.2,3c-2.4,1.2-4.5,2.6-6.4,4.3
			c-1.9,1.7-3.4,3.6-4.6,5.9c-1.2,2.2-1.8,4.7-1.8,7.6c0,1.6,0.2,3.1,0.7,4.5c0.5,1.4,1.2,2.6,2.1,3.6c0.9,1,2,1.9,3.3,2.4
			c1.3,0.6,2.8,0.9,4.5,0.9c1.7,0,3.6-0.3,5.8-1c2.1-0.7,4.2-1.6,6.3-2.8s3.9-2.5,5.6-4c1.7-1.5,3-3,3.8-4.5L201.2,53z"/>
	</g>
</g>
<linearGradient id="SVGID_5_" gradientUnits="userSpaceOnUse" x1="122.7922" y1="122.7841" x2="76.4481" y2="42.5138">
	<stop  offset="0" style="stop-color:#222222"/>
	<stop  offset="1" style="stop-color:#DFBE6A"/>
</linearGradient>
<rect x="8.8" y="81.6" class="st4" width="181.6" height="2.2"/>
<g class="st5">
	<g>
		<path class="st6" d="M27.3,101.9c-0.9,0.6-2.1,0.9-3.4,0.9c-0.9,0-1.7-0.1-2.4-0.5c-0.7-0.3-1.3-0.8-1.8-1.3
			c-0.5-0.6-0.9-1.2-1.2-2c-0.3-0.8-0.4-1.6-0.4-2.5c0-0.9,0.1-1.8,0.4-2.6c0.3-0.8,0.7-1.5,1.2-2.2c0.5-0.6,1.2-1.1,2-1.5
			c0.8-0.4,1.7-0.5,2.7-0.5c1,0,2,0.2,2.8,0.6v1.7c-0.9-0.6-1.9-0.9-3-0.9c-0.7,0-1.4,0.1-2,0.4c-0.6,0.3-1.1,0.7-1.5,1.1
			c-0.4,0.5-0.7,1-0.9,1.7c-0.2,0.6-0.3,1.3-0.3,2.1c0,0.7,0.1,1.3,0.3,1.9c0.2,0.6,0.4,1.1,0.8,1.6c0.4,0.5,0.8,0.8,1.4,1.1
			c0.6,0.3,1.2,0.4,2,0.4c1.2,0,2.2-0.3,3.2-1V101.9z"/>
		<path class="st6" d="M36.5,91.5c-0.4-0.3-0.8-0.4-1.4-0.4c-0.4,0-0.8,0.1-1.1,0.2c-0.3,0.2-0.6,0.4-0.8,0.6
			c-0.2,0.3-0.4,0.6-0.6,0.9c-0.2,0.4-0.3,0.7-0.4,1.1c-0.1,0.4-0.2,0.8-0.2,1.2c0,0.4-0.1,0.8-0.1,1.1v6.1h-1.6V89.9h1.6v2.7h0
			c0.1-0.5,0.3-0.9,0.6-1.2c0.2-0.4,0.5-0.7,0.8-0.9s0.6-0.4,1-0.6c0.3-0.1,0.7-0.2,1.1-0.2c0.3,0,0.5,0,0.7,0
			c0.2,0,0.4,0.1,0.5,0.1V91.5z"/>
		<path class="st6" d="M39.2,96.5c0,0.8,0.1,1.5,0.3,2.1s0.5,1.1,0.8,1.6c0.4,0.4,0.8,0.7,1.3,1c0.5,0.2,1.1,0.3,1.8,0.3
			c1.4,0,2.7-0.5,4-1.5v1.5c-1.2,0.9-2.6,1.3-4.3,1.3c-0.8,0-1.6-0.1-2.3-0.4s-1.3-0.7-1.7-1.3c-0.5-0.6-0.9-1.2-1.1-2.1
			c-0.3-0.8-0.4-1.7-0.4-2.8c0-0.9,0.1-1.8,0.4-2.6c0.3-0.8,0.7-1.5,1.2-2.1c0.5-0.6,1.1-1,1.8-1.4c0.7-0.3,1.4-0.5,2.3-0.5
			c0.8,0,1.5,0.1,2.1,0.4c0.6,0.3,1.1,0.7,1.6,1.2c0.4,0.5,0.7,1.2,1,1.9c0.2,0.7,0.3,1.6,0.3,2.5v0.8H39.2z M46.6,95.1
			c0-1.3-0.3-2.3-0.9-3c-0.6-0.7-1.4-1.1-2.5-1.1c-0.5,0-1,0.1-1.5,0.3c-0.5,0.2-0.8,0.5-1.2,0.8c-0.3,0.4-0.6,0.8-0.8,1.3
			c-0.2,0.5-0.4,1.1-0.5,1.7H46.6z"/>
		<path class="st6" d="M58.5,102.4v-2.2h0c-0.4,0.8-1,1.4-1.7,1.9c-0.7,0.4-1.5,0.7-2.4,0.7c-0.6,0-1.1-0.1-1.6-0.3
			c-0.5-0.2-0.9-0.4-1.2-0.7c-0.3-0.3-0.6-0.7-0.8-1.1c-0.2-0.4-0.3-0.9-0.3-1.5c0-1.1,0.3-2,1-2.7c0.7-0.7,1.8-1.1,3.2-1.3l3.8-0.5
			c0-2.4-0.9-3.6-2.8-3.6c-1.5,0-2.8,0.5-4.1,1.6v-1.7c0.3-0.2,0.6-0.4,0.9-0.5c0.3-0.2,0.7-0.3,1-0.4c0.4-0.1,0.7-0.2,1.1-0.3
			c0.4-0.1,0.8-0.1,1.1-0.1c1.4,0,2.4,0.4,3.2,1.2c0.7,0.8,1.1,1.9,1.1,3.5v8.1H58.5z M55.3,96.4c-0.6,0.1-1,0.2-1.4,0.3
			c-0.4,0.1-0.7,0.3-1,0.5c-0.3,0.2-0.5,0.5-0.6,0.8c-0.1,0.3-0.2,0.7-0.2,1.1c0,0.3,0.1,0.6,0.2,0.9c0.1,0.3,0.3,0.5,0.5,0.7
			c0.2,0.2,0.5,0.4,0.8,0.5c0.3,0.1,0.7,0.2,1.1,0.2c0.6,0,1.1-0.1,1.5-0.3s0.9-0.5,1.2-0.9c0.3-0.4,0.6-0.8,0.8-1.3
			c0.2-0.5,0.3-1.1,0.3-1.7v-1.2L55.3,96.4z"/>
		<path class="st6" d="M69.2,102.3c-0.5,0.3-1.1,0.4-1.8,0.4c-2,0-3-1.2-3-3.5v-7.9h-2.2v-1.4h2.2v-3.1l1.6-0.5v3.7h3.2v1.4H66V99
			c0,0.8,0.1,1.5,0.4,1.8c0.3,0.4,0.7,0.6,1.4,0.6c0.5,0,1-0.1,1.4-0.4V102.3z"/>
		<path class="st6" d="M72.6,86.8c-0.3,0-0.6-0.1-0.8-0.3c-0.2-0.2-0.3-0.5-0.3-0.8c0-0.3,0.1-0.6,0.3-0.8c0.2-0.2,0.5-0.3,0.8-0.3
			c0.2,0,0.3,0,0.4,0.1c0.1,0.1,0.3,0.1,0.4,0.2c0.1,0.1,0.2,0.2,0.2,0.3c0.1,0.1,0.1,0.3,0.1,0.4c0,0.2,0,0.3-0.1,0.4
			c-0.1,0.1-0.1,0.3-0.2,0.4c-0.1,0.1-0.2,0.2-0.4,0.2C72.9,86.7,72.7,86.8,72.6,86.8z M71.8,102.4V89.9h1.6v12.5H71.8z"/>
		<path class="st6" d="M81.8,102.4h-1.5l-4.8-12.5h1.7l3.5,9.5c0.2,0.6,0.3,1.1,0.4,1.5h0c0.1-0.6,0.2-1.1,0.4-1.5l3.6-9.6h1.7
			L81.8,102.4z"/>
		<path class="st6" d="M89.6,96.5c0,0.8,0.1,1.5,0.3,2.1s0.5,1.1,0.8,1.6c0.4,0.4,0.8,0.7,1.3,1c0.5,0.2,1.1,0.3,1.8,0.3
			c1.4,0,2.7-0.5,4-1.5v1.5c-1.2,0.9-2.6,1.3-4.3,1.3c-0.8,0-1.6-0.1-2.3-0.4s-1.3-0.7-1.7-1.3s-0.9-1.2-1.1-2.1
			c-0.3-0.8-0.4-1.7-0.4-2.8c0-0.9,0.1-1.8,0.4-2.6s0.7-1.5,1.2-2.1c0.5-0.6,1.1-1,1.8-1.4c0.7-0.3,1.4-0.5,2.3-0.5
			c0.8,0,1.5,0.1,2.1,0.4c0.6,0.3,1.1,0.7,1.6,1.2c0.4,0.5,0.7,1.2,1,1.9c0.2,0.7,0.3,1.6,0.3,2.5v0.8H89.6z M97,95.1
			c0-1.3-0.3-2.3-0.9-3c-0.6-0.7-1.4-1.1-2.5-1.1c-0.5,0-1,0.1-1.5,0.3c-0.5,0.2-0.8,0.5-1.2,0.8c-0.3,0.4-0.6,0.8-0.8,1.3
			c-0.2,0.5-0.4,1.1-0.5,1.7H97z"/>
		<path class="st6" d="M102.4,102.7c-0.3,0-0.6-0.1-0.8-0.3s-0.3-0.5-0.3-0.8c0-0.3,0.1-0.6,0.3-0.8c0.2-0.2,0.5-0.3,0.8-0.3
			c0.2,0,0.3,0,0.5,0.1c0.1,0.1,0.3,0.1,0.4,0.2c0.1,0.1,0.2,0.2,0.3,0.4c0.1,0.1,0.1,0.3,0.1,0.5c0,0.2,0,0.3-0.1,0.5
			c-0.1,0.1-0.2,0.3-0.3,0.4s-0.2,0.2-0.4,0.3C102.8,102.6,102.6,102.7,102.4,102.7z"/>
		<path class="st6" d="M114.4,102.4v-2.2h0c-0.4,0.8-1,1.4-1.7,1.9s-1.5,0.7-2.4,0.7c-0.6,0-1.1-0.1-1.6-0.3
			c-0.5-0.2-0.9-0.4-1.2-0.7s-0.6-0.7-0.8-1.1c-0.2-0.4-0.3-0.9-0.3-1.5c0-1.1,0.3-2,1-2.7c0.7-0.7,1.8-1.1,3.2-1.3l3.8-0.5
			c0-2.4-0.9-3.6-2.8-3.6c-1.5,0-2.8,0.5-4.1,1.6v-1.7c0.3-0.2,0.6-0.4,0.9-0.5c0.3-0.2,0.7-0.3,1-0.4c0.4-0.1,0.7-0.2,1.1-0.3
			c0.4-0.1,0.8-0.1,1.1-0.1c1.4,0,2.4,0.4,3.2,1.2c0.7,0.8,1.1,1.9,1.1,3.5v8.1H114.4z M111.2,96.4c-0.6,0.1-1,0.2-1.4,0.3
			c-0.4,0.1-0.7,0.3-1,0.5c-0.3,0.2-0.5,0.5-0.6,0.8c-0.1,0.3-0.2,0.7-0.2,1.1c0,0.3,0.1,0.6,0.2,0.9s0.3,0.5,0.5,0.7
			c0.2,0.2,0.5,0.4,0.8,0.5c0.3,0.1,0.7,0.2,1.1,0.2c0.6,0,1.1-0.1,1.5-0.3s0.9-0.5,1.2-0.9s0.6-0.8,0.8-1.3
			c0.2-0.5,0.3-1.1,0.3-1.7v-1.2L111.2,96.4z"/>
		<path class="st6" d="M130,101.5c0,2.3-0.5,4-1.6,5.2c-1.1,1.1-2.7,1.7-4.9,1.7c-1.4,0-2.7-0.3-3.9-0.9v-1.6
			c1.4,0.8,2.7,1.1,3.9,1.1c3.3,0,4.9-1.7,4.9-5.2v-1.5h0c-1,1.6-2.4,2.5-4.4,2.5c-0.8,0-1.5-0.1-2.1-0.4c-0.6-0.3-1.2-0.7-1.6-1.2
			c-0.5-0.5-0.8-1.2-1.1-2c-0.3-0.8-0.4-1.6-0.4-2.6c0-1,0.1-2,0.4-2.8c0.3-0.8,0.7-1.6,1.1-2.2c0.5-0.6,1.1-1.1,1.8-1.4
			c0.7-0.3,1.5-0.5,2.4-0.5c1.8,0,3.1,0.7,3.9,2.1h0v-1.9h1.6V101.5z M128.5,94.8c0-0.5-0.1-1-0.3-1.5c-0.2-0.5-0.4-0.9-0.8-1.2
			c-0.3-0.3-0.7-0.6-1.2-0.8c-0.5-0.2-1-0.3-1.5-0.3c-0.7,0-1.2,0.1-1.8,0.4c-0.5,0.3-1,0.6-1.3,1.1c-0.4,0.5-0.7,1-0.9,1.7
			c-0.2,0.7-0.3,1.4-0.3,2.2c0,0.8,0.1,1.5,0.3,2.1s0.5,1.1,0.8,1.6c0.3,0.4,0.8,0.8,1.2,1c0.5,0.2,1,0.4,1.6,0.4
			c0.6,0,1.2-0.1,1.7-0.3c0.5-0.2,0.9-0.5,1.3-0.9c0.4-0.4,0.6-0.9,0.8-1.4c0.2-0.5,0.3-1.1,0.3-1.7V94.8z"/>
		<path class="st6" d="M134.8,96.5c0,0.8,0.1,1.5,0.3,2.1s0.5,1.1,0.8,1.6c0.4,0.4,0.8,0.7,1.3,1c0.5,0.2,1.1,0.3,1.8,0.3
			c1.4,0,2.7-0.5,4-1.5v1.5c-1.2,0.9-2.6,1.3-4.3,1.3c-0.8,0-1.6-0.1-2.3-0.4s-1.3-0.7-1.7-1.3s-0.9-1.2-1.1-2.1
			c-0.3-0.8-0.4-1.7-0.4-2.8c0-0.9,0.1-1.8,0.4-2.6s0.7-1.5,1.2-2.1c0.5-0.6,1.1-1,1.8-1.4c0.7-0.3,1.4-0.5,2.3-0.5
			c0.8,0,1.5,0.1,2.1,0.4c0.6,0.3,1.1,0.7,1.6,1.2c0.4,0.5,0.7,1.2,1,1.9c0.2,0.7,0.3,1.6,0.3,2.5v0.8H134.8z M142.2,95.1
			c0-1.3-0.3-2.3-0.9-3c-0.6-0.7-1.4-1.1-2.5-1.1c-0.5,0-1,0.1-1.5,0.3c-0.5,0.2-0.8,0.5-1.2,0.8c-0.3,0.4-0.6,0.8-0.8,1.3
			c-0.2,0.5-0.4,1.1-0.5,1.7H142.2z"/>
		<path class="st6" d="M155.4,102.4v-7.2c0-2.8-1-4.2-3.1-4.2c-0.5,0-1,0.1-1.5,0.3s-0.9,0.5-1.2,0.9c-0.3,0.4-0.6,0.8-0.8,1.4
			c-0.2,0.5-0.3,1.1-0.3,1.7v7.2h-1.6V89.9h1.6v2.2h0c0.9-1.6,2.3-2.5,4.2-2.5c1.4,0,2.4,0.4,3.1,1.3c0.7,0.9,1.1,2.2,1.1,3.8v7.6
			H155.4z"/>
		<path class="st6" d="M169,101.9c-0.9,0.6-2.1,0.9-3.4,0.9c-0.9,0-1.7-0.1-2.4-0.5c-0.7-0.3-1.3-0.8-1.8-1.3
			c-0.5-0.6-0.9-1.2-1.2-2c-0.3-0.8-0.4-1.6-0.4-2.5c0-0.9,0.1-1.8,0.4-2.6c0.3-0.8,0.7-1.5,1.2-2.2c0.5-0.6,1.2-1.1,2-1.5
			c0.8-0.4,1.7-0.5,2.7-0.5c1,0,2,0.2,2.8,0.6v1.7c-0.9-0.6-1.9-0.9-3-0.9c-0.7,0-1.4,0.1-2,0.4c-0.6,0.3-1.1,0.7-1.5,1.1
			c-0.4,0.5-0.7,1-0.9,1.7c-0.2,0.6-0.3,1.3-0.3,2.1c0,0.7,0.1,1.3,0.3,1.9c0.2,0.6,0.4,1.1,0.8,1.6c0.4,0.5,0.8,0.8,1.4,1.1
			s1.2,0.4,2,0.4c1.2,0,2.2-0.3,3.2-1V101.9z"/>
		<path class="st6" d="M175.6,104.7c-0.5,1.2-1,2.1-1.7,2.7s-1.4,0.9-2.3,0.9c-0.4,0-0.8-0.1-1.1-0.2v-1.5c0.2,0.1,0.4,0.1,0.5,0.1
			c0.2,0,0.4,0,0.6,0c0.5,0,1-0.2,1.3-0.5c0.4-0.3,0.7-0.8,1-1.5l1.1-2.6l-4.8-12.4h1.7l3.6,9.9c0,0.1,0.1,0.3,0.1,0.4
			c0,0.2,0.1,0.3,0.1,0.5h0.1c0-0.1,0.1-0.3,0.1-0.4c0-0.1,0.1-0.3,0.2-0.5l3.8-9.9h1.6L175.6,104.7z"/>
	</g>
	<g class="st7">
		<path class="st8" d="M27.3,101.9c-0.9,0.6-2.1,0.9-3.4,0.9c-0.9,0-1.7-0.1-2.4-0.5c-0.7-0.3-1.3-0.8-1.8-1.3
			c-0.5-0.6-0.9-1.2-1.2-2c-0.3-0.8-0.4-1.6-0.4-2.5c0-0.9,0.1-1.8,0.4-2.6c0.3-0.8,0.7-1.5,1.2-2.2c0.5-0.6,1.2-1.1,2-1.5
			c0.8-0.4,1.7-0.5,2.7-0.5c1,0,2,0.2,2.8,0.6v1.7c-0.9-0.6-1.9-0.9-3-0.9c-0.7,0-1.4,0.1-2,0.4c-0.6,0.3-1.1,0.7-1.5,1.1
			c-0.4,0.5-0.7,1-0.9,1.7c-0.2,0.6-0.3,1.3-0.3,2.1c0,0.7,0.1,1.3,0.3,1.9c0.2,0.6,0.4,1.1,0.8,1.6c0.4,0.5,0.8,0.8,1.4,1.1
			c0.6,0.3,1.2,0.4,2,0.4c1.2,0,2.2-0.3,3.2-1V101.9z"/>
		<path class="st8" d="M36.5,91.5c-0.4-0.3-0.8-0.4-1.4-0.4c-0.4,0-0.8,0.1-1.1,0.2c-0.3,0.2-0.6,0.4-0.8,0.6
			c-0.2,0.3-0.4,0.6-0.6,0.9c-0.2,0.4-0.3,0.7-0.4,1.1c-0.1,0.4-0.2,0.8-0.2,1.2c0,0.4-0.1,0.8-0.1,1.1v6.1h-1.6V89.9h1.6v2.7h0
			c0.1-0.5,0.3-0.9,0.6-1.2c0.2-0.4,0.5-0.7,0.8-0.9s0.6-0.4,1-0.6c0.3-0.1,0.7-0.2,1.1-0.2c0.3,0,0.5,0,0.7,0
			c0.2,0,0.4,0.1,0.5,0.1V91.5z"/>
		<path class="st8" d="M39.2,96.5c0,0.8,0.1,1.5,0.3,2.1s0.5,1.1,0.8,1.6c0.4,0.4,0.8,0.7,1.3,1c0.5,0.2,1.1,0.3,1.8,0.3
			c1.4,0,2.7-0.5,4-1.5v1.5c-1.2,0.9-2.6,1.3-4.3,1.3c-0.8,0-1.6-0.1-2.3-0.4s-1.3-0.7-1.7-1.3c-0.5-0.6-0.9-1.2-1.1-2.1
			c-0.3-0.8-0.4-1.7-0.4-2.8c0-0.9,0.1-1.8,0.4-2.6c0.3-0.8,0.7-1.5,1.2-2.1c0.5-0.6,1.1-1,1.8-1.4c0.7-0.3,1.4-0.5,2.3-0.5
			c0.8,0,1.5,0.1,2.1,0.4c0.6,0.3,1.1,0.7,1.6,1.2c0.4,0.5,0.7,1.2,1,1.9c0.2,0.7,0.3,1.6,0.3,2.5v0.8H39.2z M46.6,95.1
			c0-1.3-0.3-2.3-0.9-3c-0.6-0.7-1.4-1.1-2.5-1.1c-0.5,0-1,0.1-1.5,0.3c-0.5,0.2-0.8,0.5-1.2,0.8c-0.3,0.4-0.6,0.8-0.8,1.3
			c-0.2,0.5-0.4,1.1-0.5,1.7H46.6z"/>
		<path class="st8" d="M58.5,102.4v-2.2h0c-0.4,0.8-1,1.4-1.7,1.9c-0.7,0.4-1.5,0.7-2.4,0.7c-0.6,0-1.1-0.1-1.6-0.3
			c-0.5-0.2-0.9-0.4-1.2-0.7c-0.3-0.3-0.6-0.7-0.8-1.1c-0.2-0.4-0.3-0.9-0.3-1.5c0-1.1,0.3-2,1-2.7c0.7-0.7,1.8-1.1,3.2-1.3l3.8-0.5
			c0-2.4-0.9-3.6-2.8-3.6c-1.5,0-2.8,0.5-4.1,1.6v-1.7c0.3-0.2,0.6-0.4,0.9-0.5c0.3-0.2,0.7-0.3,1-0.4c0.4-0.1,0.7-0.2,1.1-0.3
			c0.4-0.1,0.8-0.1,1.1-0.1c1.4,0,2.4,0.4,3.2,1.2c0.7,0.8,1.1,1.9,1.1,3.5v8.1H58.5z M55.3,96.4c-0.6,0.1-1,0.2-1.4,0.3
			c-0.4,0.1-0.7,0.3-1,0.5c-0.3,0.2-0.5,0.5-0.6,0.8c-0.1,0.3-0.2,0.7-0.2,1.1c0,0.3,0.1,0.6,0.2,0.9c0.1,0.3,0.3,0.5,0.5,0.7
			c0.2,0.2,0.5,0.4,0.8,0.5c0.3,0.1,0.7,0.2,1.1,0.2c0.6,0,1.1-0.1,1.5-0.3s0.9-0.5,1.2-0.9c0.3-0.4,0.6-0.8,0.8-1.3
			c0.2-0.5,0.3-1.1,0.3-1.7v-1.2L55.3,96.4z"/>
		<path class="st8" d="M69.2,102.3c-0.5,0.3-1.1,0.4-1.8,0.4c-2,0-3-1.2-3-3.5v-7.9h-2.2v-1.4h2.2v-3.1l1.6-0.5v3.7h3.2v1.4H66V99
			c0,0.8,0.1,1.5,0.4,1.8c0.3,0.4,0.7,0.6,1.4,0.6c0.5,0,1-0.1,1.4-0.4V102.3z"/>
		<path class="st8" d="M72.6,86.8c-0.3,0-0.6-0.1-0.8-0.3c-0.2-0.2-0.3-0.5-0.3-0.8c0-0.3,0.1-0.6,0.3-0.8c0.2-0.2,0.5-0.3,0.8-0.3
			c0.2,0,0.3,0,0.4,0.1c0.1,0.1,0.3,0.1,0.4,0.2c0.1,0.1,0.2,0.2,0.2,0.3c0.1,0.1,0.1,0.3,0.1,0.4c0,0.2,0,0.3-0.1,0.4
			c-0.1,0.1-0.1,0.3-0.2,0.4c-0.1,0.1-0.2,0.2-0.4,0.2C72.9,86.7,72.7,86.8,72.6,86.8z M71.8,102.4V89.9h1.6v12.5H71.8z"/>
		<path class="st8" d="M81.8,102.4h-1.5l-4.8-12.5h1.7l3.5,9.5c0.2,0.6,0.3,1.1,0.4,1.5h0c0.1-0.6,0.2-1.1,0.4-1.5l3.6-9.6h1.7
			L81.8,102.4z"/>
		<path class="st8" d="M89.6,96.5c0,0.8,0.1,1.5,0.3,2.1s0.5,1.1,0.8,1.6c0.4,0.4,0.8,0.7,1.3,1c0.5,0.2,1.1,0.3,1.8,0.3
			c1.4,0,2.7-0.5,4-1.5v1.5c-1.2,0.9-2.6,1.3-4.3,1.3c-0.8,0-1.6-0.1-2.3-0.4s-1.3-0.7-1.7-1.3s-0.9-1.2-1.1-2.1
			c-0.3-0.8-0.4-1.7-0.4-2.8c0-0.9,0.1-1.8,0.4-2.6s0.7-1.5,1.2-2.1c0.5-0.6,1.1-1,1.8-1.4c0.7-0.3,1.4-0.5,2.3-0.5
			c0.8,0,1.5,0.1,2.1,0.4c0.6,0.3,1.1,0.7,1.6,1.2c0.4,0.5,0.7,1.2,1,1.9c0.2,0.7,0.3,1.6,0.3,2.5v0.8H89.6z M97,95.1
			c0-1.3-0.3-2.3-0.9-3c-0.6-0.7-1.4-1.1-2.5-1.1c-0.5,0-1,0.1-1.5,0.3c-0.5,0.2-0.8,0.5-1.2,0.8c-0.3,0.4-0.6,0.8-0.8,1.3
			c-0.2,0.5-0.4,1.1-0.5,1.7H97z"/>
		<path class="st8" d="M102.4,102.7c-0.3,0-0.6-0.1-0.8-0.3s-0.3-0.5-0.3-0.8c0-0.3,0.1-0.6,0.3-0.8c0.2-0.2,0.5-0.3,0.8-0.3
			c0.2,0,0.3,0,0.5,0.1c0.1,0.1,0.3,0.1,0.4,0.2c0.1,0.1,0.2,0.2,0.3,0.4c0.1,0.1,0.1,0.3,0.1,0.5c0,0.2,0,0.3-0.1,0.5
			c-0.1,0.1-0.2,0.3-0.3,0.4s-0.2,0.2-0.4,0.3C102.8,102.6,102.6,102.7,102.4,102.7z"/>
		<path class="st8" d="M114.4,102.4v-2.2h0c-0.4,0.8-1,1.4-1.7,1.9s-1.5,0.7-2.4,0.7c-0.6,0-1.1-0.1-1.6-0.3
			c-0.5-0.2-0.9-0.4-1.2-0.7s-0.6-0.7-0.8-1.1c-0.2-0.4-0.3-0.9-0.3-1.5c0-1.1,0.3-2,1-2.7c0.7-0.7,1.8-1.1,3.2-1.3l3.8-0.5
			c0-2.4-0.9-3.6-2.8-3.6c-1.5,0-2.8,0.5-4.1,1.6v-1.7c0.3-0.2,0.6-0.4,0.9-0.5c0.3-0.2,0.7-0.3,1-0.4c0.4-0.1,0.7-0.2,1.1-0.3
			c0.4-0.1,0.8-0.1,1.1-0.1c1.4,0,2.4,0.4,3.2,1.2c0.7,0.8,1.1,1.9,1.1,3.5v8.1H114.4z M111.2,96.4c-0.6,0.1-1,0.2-1.4,0.3
			c-0.4,0.1-0.7,0.3-1,0.5c-0.3,0.2-0.5,0.5-0.6,0.8c-0.1,0.3-0.2,0.7-0.2,1.1c0,0.3,0.1,0.6,0.2,0.9s0.3,0.5,0.5,0.7
			c0.2,0.2,0.5,0.4,0.8,0.5c0.3,0.1,0.7,0.2,1.1,0.2c0.6,0,1.1-0.1,1.5-0.3s0.9-0.5,1.2-0.9s0.6-0.8,0.8-1.3
			c0.2-0.5,0.3-1.1,0.3-1.7v-1.2L111.2,96.4z"/>
		<path class="st8" d="M130,101.5c0,2.3-0.5,4-1.6,5.2c-1.1,1.1-2.7,1.7-4.9,1.7c-1.4,0-2.7-0.3-3.9-0.9v-1.6
			c1.4,0.8,2.7,1.1,3.9,1.1c3.3,0,4.9-1.7,4.9-5.2v-1.5h0c-1,1.6-2.4,2.5-4.4,2.5c-0.8,0-1.5-0.1-2.1-0.4c-0.6-0.3-1.2-0.7-1.6-1.2
			c-0.5-0.5-0.8-1.2-1.1-2c-0.3-0.8-0.4-1.6-0.4-2.6c0-1,0.1-2,0.4-2.8c0.3-0.8,0.7-1.6,1.1-2.2c0.5-0.6,1.1-1.1,1.8-1.4
			c0.7-0.3,1.5-0.5,2.4-0.5c1.8,0,3.1,0.7,3.9,2.1h0v-1.9h1.6V101.5z M128.5,94.8c0-0.5-0.1-1-0.3-1.5c-0.2-0.5-0.4-0.9-0.8-1.2
			c-0.3-0.3-0.7-0.6-1.2-0.8c-0.5-0.2-1-0.3-1.5-0.3c-0.7,0-1.2,0.1-1.8,0.4c-0.5,0.3-1,0.6-1.3,1.1c-0.4,0.5-0.7,1-0.9,1.7
			c-0.2,0.7-0.3,1.4-0.3,2.2c0,0.8,0.1,1.5,0.3,2.1s0.5,1.1,0.8,1.6c0.3,0.4,0.8,0.8,1.2,1c0.5,0.2,1,0.4,1.6,0.4
			c0.6,0,1.2-0.1,1.7-0.3c0.5-0.2,0.9-0.5,1.3-0.9c0.4-0.4,0.6-0.9,0.8-1.4c0.2-0.5,0.3-1.1,0.3-1.7V94.8z"/>
		<path class="st8" d="M134.8,96.5c0,0.8,0.1,1.5,0.3,2.1s0.5,1.1,0.8,1.6c0.4,0.4,0.8,0.7,1.3,1c0.5,0.2,1.1,0.3,1.8,0.3
			c1.4,0,2.7-0.5,4-1.5v1.5c-1.2,0.9-2.6,1.3-4.3,1.3c-0.8,0-1.6-0.1-2.3-0.4s-1.3-0.7-1.7-1.3s-0.9-1.2-1.1-2.1
			c-0.3-0.8-0.4-1.7-0.4-2.8c0-0.9,0.1-1.8,0.4-2.6s0.7-1.5,1.2-2.1c0.5-0.6,1.1-1,1.8-1.4c0.7-0.3,1.4-0.5,2.3-0.5
			c0.8,0,1.5,0.1,2.1,0.4c0.6,0.3,1.1,0.7,1.6,1.2c0.4,0.5,0.7,1.2,1,1.9c0.2,0.7,0.3,1.6,0.3,2.5v0.8H134.8z M142.2,95.1
			c0-1.3-0.3-2.3-0.9-3c-0.6-0.7-1.4-1.1-2.5-1.1c-0.5,0-1,0.1-1.5,0.3c-0.5,0.2-0.8,0.5-1.2,0.8c-0.3,0.4-0.6,0.8-0.8,1.3
			c-0.2,0.5-0.4,1.1-0.5,1.7H142.2z"/>
		<path class="st8" d="M155.4,102.4v-7.2c0-2.8-1-4.2-3.1-4.2c-0.5,0-1,0.1-1.5,0.3s-0.9,0.5-1.2,0.9c-0.3,0.4-0.6,0.8-0.8,1.4
			c-0.2,0.5-0.3,1.1-0.3,1.7v7.2h-1.6V89.9h1.6v2.2h0c0.9-1.6,2.3-2.5,4.2-2.5c1.4,0,2.4,0.4,3.1,1.3c0.7,0.9,1.1,2.2,1.1,3.8v7.6
			H155.4z"/>
		<path class="st8" d="M169,101.9c-0.9,0.6-2.1,0.9-3.4,0.9c-0.9,0-1.7-0.1-2.4-0.5c-0.7-0.3-1.3-0.8-1.8-1.3
			c-0.5-0.6-0.9-1.2-1.2-2c-0.3-0.8-0.4-1.6-0.4-2.5c0-0.9,0.1-1.8,0.4-2.6c0.3-0.8,0.7-1.5,1.2-2.2c0.5-0.6,1.2-1.1,2-1.5
			c0.8-0.4,1.7-0.5,2.7-0.5c1,0,2,0.2,2.8,0.6v1.7c-0.9-0.6-1.9-0.9-3-0.9c-0.7,0-1.4,0.1-2,0.4c-0.6,0.3-1.1,0.7-1.5,1.1
			c-0.4,0.5-0.7,1-0.9,1.7c-0.2,0.6-0.3,1.3-0.3,2.1c0,0.7,0.1,1.3,0.3,1.9c0.2,0.6,0.4,1.1,0.8,1.6c0.4,0.5,0.8,0.8,1.4,1.1
			s1.2,0.4,2,0.4c1.2,0,2.2-0.3,3.2-1V101.9z"/>
		<path class="st8" d="M175.6,104.7c-0.5,1.2-1,2.1-1.7,2.7s-1.4,0.9-2.3,0.9c-0.4,0-0.8-0.1-1.1-0.2v-1.5c0.2,0.1,0.4,0.1,0.5,0.1
			c0.2,0,0.4,0,0.6,0c0.5,0,1-0.2,1.3-0.5c0.4-0.3,0.7-0.8,1-1.5l1.1-2.6l-4.8-12.4h1.7l3.6,9.9c0,0.1,0.1,0.3,0.1,0.4
			c0,0.2,0.1,0.3,0.1,0.5h0.1c0-0.1,0.1-0.3,0.1-0.4c0-0.1,0.1-0.3,0.2-0.5l3.8-9.9h1.6L175.6,104.7z"/>
	</g>
</g>
</svg>
