<svg xmlns="http://www.w3.org/2000/svg" viewBox="0 0 119.39 112.85"><defs><style>.d2fa109d-1887-4481-9c20-8e0b4dd84a7f{fill:#ffd364;}.b1822cc8-5301-4582-8350-4c864ad75dae{fill:#102f41;}.\30 4aa408b-6cb5-4614-927e-ae5753dcb896{fill:#f6b344;}.ba0e072d-1646-44aa-9c97-02e4944f9fe2{fill:#82d9e8;}</style></defs><title>music</title><g id="e026f4d9-5325-4327-a773-f15734f3fb95" data-name="Layer 2"><g id="71dd654c-211f-4b8b-ad3e-47ca8d15c0a1" data-name="Layer 1"><g id="41003978-db5e-446a-ada4-70dc1564817c" data-name="music"><ellipse class="d2fa109d-1887-4481-9c20-8e0b4dd84a7f" cx="59.69" cy="56.42" rx="59.69" ry="56.42"/><path id="note2" data-name="note2" class="b1822cc8-5301-4582-8350-4c864ad75dae" d="M93.19,56.53A5.75,5.75,0,0,0,91.6,53.8c-.39-.38-1.38-1.12-2.26-1.78-.54-.41-1.21-.91-1.33-1a2.77,2.77,0,0,1-.52-1.62.51.51,0,0,0-.35-.66.59.59,0,0,0-.49.13,2,2,0,0,0-.71,1.27,5,5,0,0,0,.16,1.43v0c0,.17.07.33.09.45s0,.76.1,1.5h0v.1c.07,1.12.16,2.65.27,3.8.13,1.42.26,3.2.32,4.08a3.7,3.7,0,0,0-2.25.65,4,4,0,0,0-1.89,2.27,2,2,0,0,0,.33,1.47,2.1,2.1,0,0,0,1.29.76,3.32,3.32,0,0,0,2.59-.8,3.82,3.82,0,0,0,1.54-2.57A62.93,62.93,0,0,0,88,56.9c-.06-.46-.2-2-.27-3a4.43,4.43,0,0,0,.54.43A9.5,9.5,0,0,1,90.16,56a5.37,5.37,0,0,1,.93,2.12,7.21,7.21,0,0,1,0,1.77c0,.29,0,.36,0,.46a.43.43,0,0,0,.3.26c.37.09,1.17-.5,1.46-1.39A6.8,6.8,0,0,0,93.19,56.53Z"/><path id="note1" data-name="note1" class="b1822cc8-5301-4582-8350-4c864ad75dae" d="M101.3,64.18c0-.33,0-.66,0-1,0-3,.13-5.63.15-6a.11.11,0,0,0,0-.12l0,0a.11.11,0,0,0-.08,0l-7.21,2.64a.12.12,0,0,0-.09.1c0,.2,0,1-.06,2.19,0,1,0,2.34-.07,3.68,0,.33,0,.68,0,1,0,.82,0,1.67-.06,2.15a2.85,2.85,0,0,0-1.8.31,3.11,3.11,0,0,0-1.65,1.6,1.48,1.48,0,0,0,.13,1.17,1.57,1.57,0,0,0,.93.7l.16.05a2.77,2.77,0,0,0,1.92-.45,3,3,0,0,0,1.41-1.86,30.42,30.42,0,0,0,.17-4c0-.33,0-.66,0-1,0-.73,0-1.43,0-2.06v-.5l5.1-1.87c0,.71,0,1.6-.05,2.52,0,.33,0,.68,0,1,0,.83,0,1.69-.07,2.17a2.77,2.77,0,0,0-1.79.31,3.09,3.09,0,0,0-1.66,1.6,1.54,1.54,0,0,0,.13,1.16,1.65,1.65,0,0,0,.94.71l.16,0A2.69,2.69,0,0,0,99.72,70a3,3,0,0,0,1.41-1.86A30.31,30.31,0,0,0,101.3,64.18Zm-1.1-4.28-5.11,1.86c0-.29,0-.54,0-.75l5.11-1.87C100.21,59.37,100.2,59.62,100.2,59.9Z"/><g id="disc" data-name="disc"><path class="04aa408b-6cb5-4614-927e-ae5753dcb896" d="M28.49,46.92a9.77,9.77,0,1,0,9.73-9.81A9.78,9.78,0,0,0,28.49,46.92Z"/><g id="c478f201-6426-4bcd-a550-39f0c4d97780" data-name="Layer 7"><path class="b1822cc8-5301-4582-8350-4c864ad75dae" d="M17.16,47a21,21,0,1,0,20.9-21A21,21,0,0,0,17.16,47Zm12.65,0a8.32,8.32,0,1,1,8.35,8.29A8.32,8.32,0,0,1,29.81,47Zm8.31-2.84a2.81,2.81,0,1,1-2.8,2.82A2.81,2.81,0,0,1,38.12,44.12Z"/></g></g><g id="ghitar" data-name="ghitar"><path class="ba0e072d-1646-44aa-9c97-02e4944f9fe2" d="M63.35,86.52c4.38-6.27.93-10.23,3.12-13.37s3.23-2.4,4.69-4.5c2.69-3.84.19-7.79-2.63-10.84l-4.87,7A6,6,0,0,1,63.34,71a6.38,6.38,0,1,1-10.46-7.3,5.15,5.15,0,0,1,5.44-2.17l5.11-7.31c-3.58-1.86-8.39-2.51-11.08,1.34-1.46,2.09-.41,2.82-2.6,6S42.65,62.74,38.27,69s-3.85,14.41,4.52,20.25S59,92.79,63.35,86.52Z"/><path class="b1822cc8-5301-4582-8350-4c864ad75dae" d="M57.26,62.18a5.48,5.48,0,0,1,1.34,0l.76-1.08,4.56-6.53,13.26-19,4.18,2.92-13.26,19L63.54,64l-.8,1.14a4.77,4.77,0,0,1,.41,1.36,5.16,5.16,0,1,1-5.89-4.31Z"/><path class="b1822cc8-5301-4582-8350-4c864ad75dae" d="M63.14,70.84a6.29,6.29,0,1,1-1.42-8.79A6.3,6.3,0,0,1,63.14,70.84Z"/><rect class="b1822cc8-5301-4582-8350-4c864ad75dae" x="53.77" y="46.3" width="34.21" height="6.52" transform="translate(-10.8 77.99) rotate(-54.16)"/><rect class="b1822cc8-5301-4582-8350-4c864ad75dae" x="40.51" y="74.42" width="18.3" height="0.63" transform="translate(-40 71.23) rotate(-54.16)"/><rect class="b1822cc8-5301-4582-8350-4c864ad75dae" x="41.82" y="75.36" width="18.3" height="0.63" transform="translate(-40.22 72.68) rotate(-54.16)"/><rect class="b1822cc8-5301-4582-8350-4c864ad75dae" x="43.14" y="76.31" width="18.3" height="0.63" transform="translate(-40.44 74.14) rotate(-54.16)"/><rect class="b1822cc8-5301-4582-8350-4c864ad75dae" x="44.45" y="77.26" width="18.3" height="0.63" transform="translate(-40.67 75.6) rotate(-54.16)"/><rect class="ba0e072d-1646-44aa-9c97-02e4944f9fe2" x="75.38" y="25.54" width="17.41" height="11.4" rx="3.31" ry="3.31" transform="translate(9.53 81.11) rotate(-54.16)"/><rect class="b1822cc8-5301-4582-8350-4c864ad75dae" x="79.5" y="21.08" width="4.2" height="4.2" rx="0.68" ry="0.68" transform="translate(15.03 75.75) rotate(-54.16)"/><rect class="b1822cc8-5301-4582-8350-4c864ad75dae" x="76.53" y="25.19" width="4.2" height="4.2" rx="0.68" ry="0.68" transform="translate(10.46 75.05) rotate(-54.16)"/><rect class="b1822cc8-5301-4582-8350-4c864ad75dae" x="73.56" y="29.3" width="4.2" height="4.2" rx="0.68" ry="0.68" transform="translate(5.9 74.34) rotate(-54.16)"/><rect class="b1822cc8-5301-4582-8350-4c864ad75dae" x="90.38" y="28.94" width="4.2" height="4.2" rx="0.68" ry="0.68" transform="translate(13.17 87.83) rotate(-54.16)"/><rect class="b1822cc8-5301-4582-8350-4c864ad75dae" x="87.41" y="33.05" width="4.2" height="4.2" rx="0.68" ry="0.68" transform="translate(8.6 87.13) rotate(-54.16)"/><rect class="b1822cc8-5301-4582-8350-4c864ad75dae" x="84.44" y="37.17" width="4.2" height="4.2" rx="0.68" ry="0.68" transform="matrix(0.59, -0.81, 0.81, 0.59, 4.04, 86.42)"/><rect class="b1822cc8-5301-4582-8350-4c864ad75dae" x="44.18" y="78.61" width="4.2" height="9.93" rx="1.03" ry="1.03" transform="translate(-48.57 72.15) rotate(-54.16)"/></g></g></g></g></svg>