<svg xmlns="http://www.w3.org/2000/svg" viewBox="0 0 117.96 114.71"><defs><style>.\34 2cb4aed-1c9d-4b72-a691-4833a6fedefd{fill:#007535;fill-rule:evenodd;}.ec8b7b31-5088-4c4a-bd11-c80941927c6d{fill:#fff;}.feaf0ef1-0d03-4ce6-8112-92b3b20f40c8{fill:#faaf3d;}.\33 18c648e-611b-43fc-aa05-56ca54347146{fill:#f05c42;}.\33 32d6e62-481c-4174-be19-2738310c9c9f{fill:#102f41;}.\37 b2b49ff-e4ef-4f5c-b63d-768f97059d4d{fill:#c343ff;}.\36 6199feb-e474-49b6-9ab2-69843ff7a1d7{fill:#e4ff43;}.c649fe0b-f550-4005-87be-6b5807075462{fill:#ffaf42;}</style></defs><title>common</title><g id="ba76e3fc-3e27-4f7a-99b8-20a60530c605" data-name="Layer 2"><g id="327b87d0-49a1-49c3-b54d-06c4424256ba" data-name="Layer 1"><g id="9ed54dd9-93b8-49e2-9fbd-5b569deb5b0b" data-name="common"><path class="42cb4aed-1c9d-4b72-a691-4833a6fedefd" d="M118,56.14c.66,31.69-25.19,57.91-57.76,58.56S.68,90.19,0,58.49,25.2.66,57.77,0,117.28,24.52,118,56.14Z"/><g id="book" data-name="book"><path class="ec8b7b31-5088-4c4a-bd11-c80941927c6d" d="M77.13,27.32c-6.38.72-13.08,4.46-16.47,6.6v0c-1.41.89-2.25,1.5-2.25,1.5s-.54-.42-1.47-1.06v0c-3.5-2.46-12.68-8.27-20.25-7.77a54.23,54.23,0,0,0-15.47,3.05l-.61,50.3H95.39L97,29.64S86.16,26.3,77.13,27.32Zm-19,34.19h0Z"/><path class="feaf0ef1-0d03-4ce6-8112-92b3b20f40c8" d="M100.21,29.8s-1.45-.64-3.61-1.4S90.07,26,81.72,26c-7.32,0-17.55,4.8-21.06,6.55v3a1.31,1.31,0,0,1,.59-.78S73.47,28.3,81.72,28.3a53.59,53.59,0,0,1,12.52,1.75,1,1,0,0,1,.7.93V75.44a.54.54,0,0,1-.71.54s-6.67-1.74-11-1.74c-10.73,0-23.33,4.81-23.33,4.81a.47.47,0,0,1-.68-.47V60.9h-.81V78.6a.48.48,0,0,1-.68.49s-13.14-4.73-23.88-4.73A53.39,53.39,0,0,0,23.32,76a.54.54,0,0,1-.71-.55V31a1,1,0,0,1,.71-.93A53.26,53.26,0,0,1,35.84,28.3c8.24,0,20.46,6.49,20.46,6.49a1.31,1.31,0,0,1,.64,1.06V32.62C53.49,30.88,43.19,26,35.84,26a43.63,43.63,0,0,0-14.07,1.9c-2.86.72-5.84,1.79-5.84,1.79a1.12,1.12,0,0,0-.68,1V82a.74.74,0,0,0,.73.74l36.84.37a3.28,3.28,0,0,1,1.37.36,11.88,11.88,0,0,0,4.67,1.4,11.89,11.89,0,0,0,4.68-1.4,3.24,3.24,0,0,1,1.36-.36H100a.73.73,0,0,0,.73-.73l.13-51.51A1.14,1.14,0,0,0,100.21,29.8Z"/><path class="318c648e-611b-43fc-aa05-56ca54347146" d="M57,35.86v26c0,.4.23.49.51.2l.4-.41A3.43,3.43,0,0,1,58.8,61a3.84,3.84,0,0,1,.89.6l.41.42c.28.29.51.19.51-.21V35.86a1,1,0,0,1,0-.29v-3l-1.24.64a1.53,1.53,0,0,1-1.29,0l-1.19-.61v3.23Z"/><path class="332d6e62-481c-4174-be19-2738310c9c9f" d="M27.42,36.29l.5,1.76c12.66-3.12,24,2.66,24.16,2.71l1-1.59C52.55,38.91,40.86,33,27.42,36.29Z"/><path class="332d6e62-481c-4174-be19-2738310c9c9f" d="M27.42,41.46l.5,1.76c12.66-3.12,24,2.66,24.16,2.71l1-1.59C52.55,44.09,40.86,38.15,27.42,41.46Z"/><path class="332d6e62-481c-4174-be19-2738310c9c9f" d="M27.42,46.32l.5,1.77C40.58,45,52,50.74,52.08,50.8l1-1.6C52.55,49,40.86,43,27.42,46.32Z"/><path class="332d6e62-481c-4174-be19-2738310c9c9f" d="M27.42,51.65l.5,1.76c12.66-3.11,24,2.66,24.16,2.72l1-1.6C52.55,54.27,40.86,48.33,27.42,51.65Z"/><path class="332d6e62-481c-4174-be19-2738310c9c9f" d="M27.42,56.58l.5,1.77C40.58,55.24,52,61,52.08,61.07l1-1.6C52.55,59.21,40.86,53.28,27.42,56.58Z"/><path class="332d6e62-481c-4174-be19-2738310c9c9f" d="M27.42,61.65l.5,1.77c12.66-3.12,24,2.65,24.16,2.71l1-1.59C52.55,64.28,40.86,58.35,27.42,61.65Z"/><path class="332d6e62-481c-4174-be19-2738310c9c9f" d="M27.42,66.74l.5,1.77c12.66-3.12,24,2.65,24.16,2.71l1-1.59C52.55,69.37,40.86,63.43,27.42,66.74Z"/><path class="332d6e62-481c-4174-be19-2738310c9c9f" d="M66.05,40.9c.12-.06,11.51-5.83,24.16-2.71l.51-1.77C77.27,33.11,65.59,39.05,65.1,39.3Z"/><path class="332d6e62-481c-4174-be19-2738310c9c9f" d="M65.1,44.48l1,1.59c.12,0,11.51-5.83,24.16-2.71l.51-1.77C77.27,38.28,65.59,44.22,65.1,44.48Z"/><path class="332d6e62-481c-4174-be19-2738310c9c9f" d="M65.1,49.34l1,1.59c.12-.06,11.51-5.83,24.16-2.71l.51-1.77C77.27,43.15,65.59,49.09,65.1,49.34Z"/><path class="332d6e62-481c-4174-be19-2738310c9c9f" d="M65.1,54.67l1,1.59c.12-.06,11.51-5.83,24.16-2.71l.51-1.77C77.27,48.47,65.59,54.41,65.1,54.67Z"/></g><g id="adn" data-name="adn"><rect class="7b2b49ff-e4ef-4f5c-b63d-768f97059d4d" x="85.62" y="77.86" width="1.41" height="11.32" transform="translate(-26.98 123.38) rotate(-63.43)"/><rect class="66199feb-e474-49b6-9ab2-69843ff7a1d7" x="84.16" y="80.92" width="1.41" height="11.32" transform="translate(-30.52 123.76) rotate(-63.43)"/><rect class="c649fe0b-f550-4005-87be-6b5807075462" x="82.71" y="83.97" width="1.41" height="11.32" transform="translate(-34.06 124.15) rotate(-63.43)"/><rect class="66199feb-e474-49b6-9ab2-69843ff7a1d7" x="93.45" y="61.97" width="1.41" height="11.32" transform="translate(-8.44 121.6) rotate(-63.43)"/><rect class="c649fe0b-f550-4005-87be-6b5807075462" x="91.99" y="65.03" width="1.41" height="11.32" transform="translate(-11.98 121.98) rotate(-63.43)"/><rect class="66199feb-e474-49b6-9ab2-69843ff7a1d7" x="90.53" y="68.08" width="1.41" height="11.32" transform="translate(-15.52 122.37) rotate(-63.43)"/><path class="332d6e62-481c-4174-be19-2738310c9c9f" d="M87.12,77.7l3.5,1.75,0,0c5.11-1.83,10.4-3.73,11-11.31a1.35,1.35,0,0,0-2.7-.21c-.46,5.84-4.13,7.15-9.21,9l0,0v0C88.11,71.7,87,68,91.35,64.11a1.36,1.36,0,0,0-1.79-2c-5.71,5-4,10.4-2.45,15.59Z"/><path class="332d6e62-481c-4174-be19-2738310c9c9f" d="M90.62,79.45l-3.5-1.75,0,0C82,79.55,76.68,81.45,76.08,89a1.35,1.35,0,0,0,2.7.21c.46-5.84,4.13-7.15,9.21-9l0,0v0c1.59,5.16,2.74,8.89-1.65,12.75a1.36,1.36,0,0,0,1.79,2c5.71-5,4-10.4,2.45-15.59A.06.06,0,0,1,90.62,79.45Z"/></g></g></g></g></svg>