<svg xmlns="http://www.w3.org/2000/svg" viewBox="0 0 117.96 114.71"><defs><style>.cls-global-1,.cls-global-2{fill:#ffd05b;}.cls-global-1,.cls-global-10,.cls-global-11,.cls-global-12,.cls-global-3,.cls-global-4,.cls-global-5,.cls-global-6,.cls-global-7,.cls-global-8,.cls-global-9{fill-rule:evenodd;}.cls-global-3{fill:#f9b54c;}.cls-global-4{fill:#abcb57;}.cls-global-5{fill:#007535;}.cls-global-6{fill:#324a5e;}.cls-global-7{fill:#5f95dd;}.cls-global-8{fill:#2b3b4e;}.cls-global-9{fill:#fff;}.cls-global-10{fill:#e6e9ee;}.cls-global-11{fill:#f1543f;}.cls-global-12{fill:#ff7058;}</style></defs><title>global</title><g id="Layer_2" data-name="Layer 2"><g id="Layer_1-2" data-name="Layer 1"><polygon class="cls-global-1" points="93.21 50.2 86.67 50.2 88.04 44.82 91.77 44.82 93.21 50.2"/><rect class="cls-global-2" x="89.33" y="30.58" width="1.29" height="16.06"/><path class="cls-global-3" d="M92.56,44.82A2.6,2.6,0,0,0,90,42.24a2.66,2.66,0,0,0-2.66,2.58A2.61,2.61,0,0,0,90,47.34a2.54,2.54,0,0,0,2.58-2.52Z"/><path class="cls-global-4" d="M64.65,84.41a1.69,1.69,0,0,1-1.51.42,6,6,0,0,0-.93-.21,2.27,2.27,0,0,0-.93.7,5.9,5.9,0,0,1-1,1.25,1.48,1.48,0,0,0-.21.49c0,.42.5.49.86.49s.64-.28,1-.35.72,0,1.08-.14a2.45,2.45,0,0,0,1.22-.77,2.69,2.69,0,0,0,.64-.91.61.61,0,0,0-.21-1Z"/><path class="cls-global-5" d="M118,56.14c.66,31.69-25.19,57.91-57.76,58.56S.68,90.19,0,58.49,25.2.66,57.77,0,117.28,24.52,118,56.14Z"/><polygon class="cls-global-6" points="20.8 30.22 58.1 15.51 95.91 28.72 58.69 43.43 20.8 30.22"/><path class="cls-global-7" d="M89,61.68c-.33-15.71-13.8-28.29-30-28S29.84,47.15,30.17,62.85s13.81,28.36,30,28S89.33,77.45,89,61.68Z"/><path class="cls-global-4" d="M71.52,46.24c-.42.22-.34.71-.19,1.13v-.21a1.26,1.26,0,0,0,1.24,1A1.31,1.31,0,0,0,74,47.38c-.59-.33-1.24-.67-1.89-1.08-.08,0-.37-.13-.58-.06ZM89,61.68v-.35a4.46,4.46,0,0,1-1-.47,3,3,0,0,1-1.49-2.48c0-.42.13-.7.12-1.12a4,4,0,0,0-.89-1.38c-.88-.82-1.69-1.5-2.56-2.19s-2.47-1.34-3.38-.56c-.21.22-.35.43-.56.64a2.27,2.27,0,0,1-1.66,0c-.5-.2-1.36-.12-1.42.51s1,1,1.18,1.65c.08.21,0,.42.09.63a1.36,1.36,0,0,0,2.31.59c.41-.64.46-1.62,1.18-1.64a2,2,0,0,1,1.33,1.79c-.23-.55-1.08-.32-1.36.1s-.41,1.06-.69,1.34c-.7.71-2,.53-2.94.13-2.1-.66-4-1.31-6.14-2-.22-.07-.51-.2-.72-.06s-.42.5-.7.72a1.35,1.35,0,0,1-1.51-.11,5.48,5.48,0,0,0-1.31-.75,1,1,0,0,0-1.28.59,1,1,0,0,0,.16.62c1,1.73,3.27,2,4.8,3,.13-.7,1.13-.86,1.78-.52s.81,1.1,1,1.79a4,4,0,0,0,.55,2,2.42,2.42,0,0,0,2.82.86c.63-.37,1.34-.87,1.85-.46s.17,1.18.4,1.81c.07.21.29.41.3.69.08.49-.7.85-1.21.65s-.87-.68-1.31-1.09-1-.82-1.45-.6a1,1,0,0,0-.83,1.35c.23.62.88.89,1.38,1.16-.06.55-.55.71-1.13.72A3.07,3.07,0,0,1,73.29,69c-1.23-.6-2.69-1.48-2.86-2.8a4,4,0,0,0,0-1.33c-.09-1.25-1.19-2.28-2.21-3.1-1.82-.87-3.56-1.81-5.56-1.56a7.21,7.21,0,0,0-2.07.74,18.63,18.63,0,0,0-3.46,2.37,4.73,4.73,0,0,0-1.53,2.55c0,1.32,1,2.42,2.08,3.24a8.15,8.15,0,0,1,2.86,2.73c-.93.37-1,1.56-1.32,2.47-.67,2-3.38,2.93-4.49,4.84-.55,1.06-.67,2.32-1.36,3.24a4.9,4.9,0,0,0-.77,1.27c-.62,1.34.78,2.92,2.29,3.1a6.25,6.25,0,0,0,4.27-1.62,3.62,3.62,0,0,1,1-.65,4.71,4.71,0,0,1,.94-.09c.71,0,1.5-.17,2.22-.18-.36,0-.44-.48-.23-.69s.49-.3.71-.51a4.87,4.87,0,0,0,2-2.55c.53,1,2.1.72,3.24.35s2.13-.81,3.2-1.18a2,2,0,0,1-1.82-1.22,3.51,3.51,0,0,1,.17-2.24,11.15,11.15,0,0,0,.9-1.9c.2-.7.18-1.4.38-2s.48-1.41,1.19-1.63a6.31,6.31,0,0,1-.42,4.12c-.48,1.06-1.17,2.26-.43,3.08a1.94,1.94,0,0,0,1.3.54c1.29.18,2.52.37,3.67.55a17.43,17.43,0,0,1-.74-4.66,1,1,0,0,1,.41-.92,15,15,0,0,0,2.55,5,2.83,2.83,0,0,1,.37.76,3.19,3.19,0,0,1,0,.84,15.82,15.82,0,0,0-1.15,3.72v.49A28.39,28.39,0,0,0,89,61.68ZM78.65,40.52A30.62,30.62,0,0,0,67.4,34.67c-.27.7-.69,1.34-.89,2a7.35,7.35,0,0,1-1.08,3c-.28.36-.64.57-.78.93A1.66,1.66,0,0,0,65.42,43,2.54,2.54,0,0,0,68,42.41a1,1,0,0,1,.63-.37c.29,0,.58.34.81.62a5.22,5.22,0,0,0,5,1.71c.06-.63-.87-.89-.89-1.52s.7-.71,1.21-.51.88.68,1.31.88A2,2,0,0,0,77.77,43a1.4,1.4,0,0,0,.39-1.54.87.87,0,0,1-.15-.7c.06-.21.42-.22.64-.22ZM52.83,34.4A30,30,0,0,0,37.3,43.58c.46,1.17,1.35,2.27,1.73,3.52a16.26,16.26,0,0,0,.4,1.81,1.57,1.57,0,0,0,1.31,1.16,1.63,1.63,0,0,0,0-2.09c.43-.22.85-.3,1.06-.72s.2-.92-.24-1a4.23,4.23,0,0,0-.86,0c-.79,0-1.38-.88-1.75-1.64a3.87,3.87,0,0,1,4.54,1.31c-.22-.21-.29-.49-.51-.69a10.41,10.41,0,0,1,4.15-.57,2.06,2.06,0,0,0,1.14-.17c.5-.22.77-.78,1.35-.79a3.55,3.55,0,0,1,1.15.26c1.52.24,3.05-1.67,4.29-.93.13-.7-1-1.17-1.45-.74-.08-.13-.29-.2-.44-.34.56-.78,1.78-.52,2.52.09s1.25,1.51,2.12,1.84c.64,0,.91-.78,1-1.41a2.62,2.62,0,0,1,.32-1.82,3.34,3.34,0,0,1,.42-.64c.2-.77-1.1-1.1-1.4-1.79a2.77,2.77,0,0,1,.24-1.82c.21-.56.12-1.4-.53-1.45-.83,1.2-3.13,1-3.61,2.37-.2.7,0,1.61-.68,1.9-.49.22-1-.33-1.16-1s.19-1.12.17-1.75c0-.28-.08-.49-.08-.77a8.08,8.08,0,0,1,.33-1.33ZM30.29,65.08a21.67,21.67,0,0,0,.65,3.62,1.58,1.58,0,0,1,1.37.19.54.54,0,0,0,.51.33.53.53,0,0,0,.28-.14,3.19,3.19,0,0,0,.4-1.48c.74.69,1.47,1.44,2.2,2.12,1.14-.44,1.47-2,2.61-2.42s2.46,1,3.6.55c.85-.29,1.26-1.35,2-1.85.77-.65,2.07-.53,3.22-.34a4.85,4.85,0,0,0-1.45-4c-.65-.4-1.3-.74-1.1-1.3s.7-.71,1.05-1.14-.17-1.39-.55-2.08-.82-1.59,0-2a6.47,6.47,0,0,1-1.19-2.07c-.45-.68-1.11-1.44-1.89-1.29s-1.14.51-1.71.81a15.17,15.17,0,0,1-2.21.88,2.43,2.43,0,0,0-1.68,1.64c-.06.84.46,1.59.05,2.37s-1.7,1.22-1.4,2a4,4,0,0,0,.37.55c.3.56-.4,1.34-.89,1.7Z"/><path class="cls-global-8" d="M54.33,37.79c5.38-.46,18.73-.51,22.71,1.5l-.18-8.72c-.09-4.12-9.67-5.75-18.56-5.57s-18.47,2.19-18.38,6.3l.2,9.64c3.26-1.82,9.2-2.77,14.21-3.15Z"/><path class="cls-global-9" d="M75.82,86.73a.84.84,0,0,0-.52-.82A360,360,0,0,1,32.42,67.35a.76.76,0,0,0-1,.16,15.8,15.8,0,0,0-2.85,4.24.8.8,0,0,0,.38,1L73.42,92a.92.92,0,0,0,1.14-.37,14.41,14.41,0,0,0,1.26-4.92Z"/><path class="cls-global-10" d="M74.55,92.23a.89.89,0,0,0-.43-1L55,82.52a.78.78,0,0,0-1.07.35l-5.89-2.72a.81.81,0,0,0-.35-1.05L28.63,70.37a.91.91,0,0,0-1.08.35A17.12,17.12,0,0,0,25.47,79a.94.94,0,0,0,.43.7H26c5.88,2.24,11.76,4.68,17.43,7.19l3.45,1.54,4.8,2.23c5.67,2.65,11.34,5.52,16.79,8.45a.89.89,0,0,0,1.08-.14,17.88,17.88,0,0,0,5-6.7Z"/><polygon class="cls-global-11" points="49.15 85.11 50.44 86.57 43.27 92.72 43.05 90.34 40.68 89.85 47.93 83.71 49.15 85.11"/><polygon class="cls-global-11" points="49.73 86.5 47.72 86.64 48.43 96 50.3 94.46 52.31 95.72 51.59 86.36 49.73 86.5"/><path class="cls-global-12" d="M56.61,86h0a1.05,1.05,0,0,0,.58-1.32h0a.92.92,0,0,1,.21-1.12h0a1,1,0,0,0,0-1.4h0a.94.94,0,0,1-.21-1.11h0a1.09,1.09,0,0,0-.65-1.4h0a.83.83,0,0,1-.57-.91h0a1,1,0,0,0-1.08-1h0a1.14,1.14,0,0,1-.93-.63h0a1.07,1.07,0,0,0-1.37-.56h0a1.1,1.1,0,0,1-1.14-.21h0a1.06,1.06,0,0,0-1.51,0h0a1,1,0,0,1-1.08.21h0a1.15,1.15,0,0,0-1.43.56h0a.94.94,0,0,1-.94.63h0a1,1,0,0,0-1.07,1h0a.93.93,0,0,1-.57.91h0a1,1,0,0,0-.58,1.33h0a1.05,1.05,0,0,1-.21,1.11h0a.91.91,0,0,0,0,1.4h0a1.08,1.08,0,0,1,.21,1.12h0A1,1,0,0,0,44.85,86h0a1,1,0,0,1,.64,1h0a1,1,0,0,0,1.08,1h0a1.25,1.25,0,0,1,.93.63h0a1.1,1.1,0,0,0,1.36.56h0a1.15,1.15,0,0,1,1.15.21h0a1,1,0,0,0,1.44,0h0a1.13,1.13,0,0,1,1.14-.21h0A1.08,1.08,0,0,0,54,88.6h0A1.07,1.07,0,0,1,55,88h0a1,1,0,0,0,1-1h0a1,1,0,0,1,.64-.91Z"/><path class="cls-global-9" d="M55.18,84.69a4.72,4.72,0,0,0-2.66-6.22,5,5,0,0,0-6.38,2.59,4.78,4.78,0,0,0,2.65,6.21,5,5,0,0,0,6.39-2.58Z"/><path class="cls-global-12" d="M54.67,84.41A4.17,4.17,0,0,0,52.31,79a4.32,4.32,0,0,0-5.6,2.31,4.08,4.08,0,0,0,2.37,5.44,4.31,4.31,0,0,0,5.59-2.3Z"/></g></g></svg>