<svg xmlns="http://www.w3.org/2000/svg" viewBox="0 0 119.19 115.98"><defs><style>.f6628188-fd3e-4e62-8534-ff323147b308{fill:#3eb49e;}.\33 08362b5-3183-4be7-9a47-1cb2663f8c03{fill:#cfea34;}.\36 f3769d6-c4a1-4672-b40b-3713275048ce{fill:#ed6245;}.\33 0a81913-c4c7-4915-851f-7bea478cb26c{fill:#45f4f4;}.\38 94d7564-4909-4df0-ae42-9325e1d41360{fill:#fccc32;}</style></defs><title>language</title><g id="55cf74b6-01d6-4a6c-8914-cd43d056fbaf" data-name="Layer 2"><g id="c32da383-27ed-436d-8410-33c99c2a3294" data-name="Layer 1"><g id="3f905182-91a3-4d7a-aefe-ab822074252a" data-name="language"><ellipse class="f6628188-fd3e-4e62-8534-ff323147b308" cx="59.6" cy="57.99" rx="59.6" ry="57.99"/><path class="308362b5-3183-4be7-9a47-1cb2663f8c03" d="M14.79,41.57c0,14.81,14.81,26.82,33.08,26.82a38.6,38.6,0,0,0,18.31-4.48c2.06-1.11,15.44,7,17.14,5.56s-8-12.72-6.71-14.61A22.9,22.9,0,0,0,81,41.57c0-14.81-14.82-26.82-33.09-26.82S14.79,26.76,14.79,41.57Z"/><g id="chara" data-name="a"><path class="6f3769d6-c4a1-4672-b40b-3713275048ce" d="M65.44,51a2.51,2.51,0,0,1,2.45,2l3.66,21.14a1.76,1.76,0,0,1-1.74,2.11l-2.55.06a2.3,2.3,0,0,1-2.3-2l0-.38c-.12-1.15-.75-2.08-1.39-2.06s-1.24,1-1.32,2.12l0,.38A2.32,2.32,0,0,1,60,76.51l-2.62.07a1.8,1.8,0,0,1-1.87-2l2.31-21.27a2.47,2.47,0,0,1,2.32-2.13ZM62.33,67.4a1.85,1.85,0,0,0,1.83-2.13s-.56-4.33-1-8.54c-.56,4.87-.89,8.43-1,10.68Z"/></g><g id="charb" data-name="b"><path class="30a81913-c4c7-4915-851f-7bea478cb26c" d="M88.65,35.45a2.1,2.1,0,0,1,2-2.14l2.39-.06c1.15,0,3,0,4.19,0a13,13,0,0,1,2.64.33,4.65,4.65,0,0,1,2.63,1.9,8.73,8.73,0,0,1,1.1,4.74,5.13,5.13,0,0,1-.62,3.12,4.93,4.93,0,0,1-2.72,1.41,4.89,4.89,0,0,1,3.15,1.64,6.63,6.63,0,0,1,.9,3.65v.26c0,1.15,0,3,0,4.19a5.29,5.29,0,0,1-.4,1.73A3.2,3.2,0,0,1,102.07,58a18.69,18.69,0,0,1-5.25.58l-5.53.13a2.09,2.09,0,0,1-2.14-2Zm6.64,2.09.09,3.54c0,1.16.27,2.09.55,2.07h.15q1,0,1.23-.51a7.7,7.7,0,0,0,.2-2.74,4.49,4.49,0,0,0-.26-1.66,1,1,0,0,0-.58-.59A5.29,5.29,0,0,0,95.29,37.54Zm.23,9.58.12,5c0,1.15.73,2,1.56,1.88l.25-.27a3,3,0,0,0,.34-1.94v-.27c0-1.15-.13-2.88-.21-3.83l-.23-.23A3.17,3.17,0,0,0,95.52,47.12Z"/></g><g id="charc" data-name="c"><path class="894d7564-4909-4df0-ae42-9325e1d41360" d="M100.24,85.07a2.09,2.09,0,0,1-2,2.14l-2.4.06a2.09,2.09,0,0,1-2.14-2V85c0-1.15-.1-3-.17-4.18l-.15-.31a.9.9,0,0,0-.94-.45,1,1,0,0,0-1,.6,8.73,8.73,0,0,0-.16,2.51l.23,9.68c0,1.15.1,3,.17,4.13l.16.37a.92.92,0,0,0,1,.54.93.93,0,0,0,1-.58,9.56,9.56,0,0,0,.16-2.66l0-1.09a2.11,2.11,0,0,1,2-2.15l2.4-.06c1.15,0,2.1.18,2.11.45s0,1.43,0,2.59a17.86,17.86,0,0,1-.38,3.5,5.73,5.73,0,0,1-2.39,2.94,8.38,8.38,0,0,1-4.66,1.35,9.69,9.69,0,0,1-4.81-.93,5.1,5.1,0,0,1-2.55-2.85,18.94,18.94,0,0,1-.75-5.57l-.12-5.31c0-1.15-.06-3-.06-4.19a18.71,18.71,0,0,1,.1-2,5.76,5.76,0,0,1,1-2.67,6.22,6.22,0,0,1,2.54-2.05,10.59,10.59,0,0,1,8.62.19,5.38,5.38,0,0,1,2.55,2.75,16.79,16.79,0,0,1,.72,5.22Z"/></g></g></g></g></svg>