<svg xmlns="http://www.w3.org/2000/svg" xmlns:xlink="http://www.w3.org/1999/xlink" viewBox="0 0 118.6 115.4"><defs><style>.b9235abe-da72-4241-b5c7-43c1ada52098{fill:none;}.\35 00c2674-d427-4d85-a1cb-1dec81f50e20{fill:#f57d1f;}.\32 6b67bcf-a934-413e-9d94-f06a9d462780{fill:#058486;}.c1ec9fd5-6e79-4ba5-a082-4877cff202a5{fill:#102f41;}.\34 13645e3-586b-49d7-b40b-39e6adae8aa7{fill:#faaf3d;}.\35 fb07c04-9d3b-4d24-8b62-f4ff642619d7{clip-path:url(#3781bd4b-c4d1-4e5a-ad21-f42812fe903d);}.\33 55753fe-be65-49c3-aab3-0ff45f55eacf{fill:#fff;}.\35 02b52d4-82fa-421d-b49d-070bdc7dc89f{fill:#a34404;}.\38 dd6e04e-37a9-4575-80fc-ad7939d13dfe{clip-path:url(#1712e3cb-42be-4039-aa59-bc0e631518a7);}</style><clipPath id="3781bd4b-c4d1-4e5a-ad21-f42812fe903d"><rect class="b9235abe-da72-4241-b5c7-43c1ada52098" x="63.45" y="86.52" width="38.8" height="5.97" transform="translate(-14.66 16.24) rotate(-10.29)"/></clipPath><clipPath id="1712e3cb-42be-4039-aa59-bc0e631518a7"><path class="b9235abe-da72-4241-b5c7-43c1ada52098" d="M79.74,66.83a12.14,12.14,0,0,0-9.86,12.54l-2,.36,1.18,6.59,27.42-4.89L95.3,74.84l-2.13.38m-5.53,1L75.42,78.39a6.33,6.33,0,0,1,12.22-2.18Z"/></clipPath></defs><title>position</title><g id="01a5ab0a-9fb9-4b53-a98d-cea5fede240d" data-name="Layer 2"><g id="ee3f2b4c-c953-4600-a9a5-e77b7d7339aa" data-name="Layer 1"><g id="632fb603-7d39-46a8-a5cf-4180b19a48eb" data-name="position"><ellipse class="500c2674-d427-4d85-a1cb-1dec81f50e20" cx="59.3" cy="57.7" rx="59.3" ry="57.7"/><g id="globe" data-name="globe"><rect class="26b67bcf-a934-413e-9d94-f06a9d462780" x="46.36" y="76.2" width="13.75" height="8.12"/><polygon class="26b67bcf-a934-413e-9d94-f06a9d462780" points="65.46 74.99 70.33 72.56 41.63 19.03 36.89 21.57 65.46 74.99"/><path class="c1ec9fd5-6e79-4ba5-a082-4877cff202a5" d="M43.79,21.12A27.7,27.7,0,1,0,70.65,69c.67-.51,2.91-.69,3.5.56a2.39,2.39,0,0,1-.78,2.77A32,32,0,1,1,42,17.21c.56-.22,2.47-.47,3.22.83S44.45,20.87,43.79,21.12Z"/><path class="c1ec9fd5-6e79-4ba5-a082-4877cff202a5" d="M34.34,91.08c0-4.5,8.43-8.51,18.83-8.51S72,86.58,72,91.08Z"/><path class="c1ec9fd5-6e79-4ba5-a082-4877cff202a5" d="M34.46,59.11a22.74,22.74,0,0,0,10.56,9c.59.25,1.15.46,1.69.64A22.86,22.86,0,0,0,66,66.4l.11-.07A22.86,22.86,0,0,0,76.55,50.08c.08-.57.14-1.18.17-1.79a22.81,22.81,0,0,0-14-22.4c-.56-.24-1.13-.45-1.69-.64a22.9,22.9,0,0,0-19.18,2.24l-.12.09h0a22.83,22.83,0,0,0-10.52,16.3c-.08.56-.13,1.15-.17,1.8A22.78,22.78,0,0,0,34.46,59.11ZM66.73,48.69a35.07,35.07,0,0,0-8,3.42L56.17,48l8.08-5A34.08,34.08,0,0,1,66.73,48.69Zm7,1.64a20.2,20.2,0,0,1-3.13,7.88,22.85,22.85,0,0,0-.48-7.52A21,21,0,0,1,73.71,50.33Zm-6.26,1c1.17,5.21.5,9.57-1.82,11.87l-5.46-8.74A33.75,33.75,0,0,1,67.45,51.32ZM72,38.17a20.07,20.07,0,0,1,2,9.47,23.86,23.86,0,0,0-4.58.42,36.44,36.44,0,0,0-2.81-6.53Zm-9.86-9.53a19.84,19.84,0,0,1,8.48,7.14l-5.42,3.39a36.35,36.35,0,0,0-5.45-6.6A24.6,24.6,0,0,0,62.12,28.64ZM58,34.7a33.92,33.92,0,0,1,4.84,5.93L54.71,45.7,51.4,40.39A35.81,35.81,0,0,0,58,34.7Zm-.32-3.91A22.87,22.87,0,0,0,51.12,27a20.26,20.26,0,0,1,8.47.66A22.24,22.24,0,0,1,57.67,30.79Zm-1.73,2.1a33.06,33.06,0,0,1-6,5.16l-5.45-8.74C47.56,28.24,51.77,29.55,55.94,32.89ZM49.85,59.2a34.08,34.08,0,0,1-4-4.71l8-5,2.54,4.07A35,35,0,0,0,49.85,59.2Zm-1.67,7.06a21.81,21.81,0,0,1,2-3.16,23.13,23.13,0,0,0,6.67,3.79A20.1,20.1,0,0,1,48.18,66.26ZM51.89,61a33.68,33.68,0,0,1,5.94-5.09l5.45,8.72C60.19,65.64,56,64.31,51.89,61ZM41.14,45.24a35.13,35.13,0,0,0,7.91-3.39l3.32,5.31-8,5A34.64,34.64,0,0,1,41.14,45.24Zm-7.09-1.61a20.11,20.11,0,0,1,3.24-8,22.59,22.59,0,0,0,.48,7.65A19.57,19.57,0,0,1,34.05,43.63Zm6.37-1c-1.16-5.16-.52-9.5,1.73-11.82l5.44,8.72A33.31,33.31,0,0,1,40.42,42.61ZM43.5,56a36.24,36.24,0,0,0,4.6,5.36,24.68,24.68,0,0,0-2.46,4,20.13,20.13,0,0,1-7.62-6Zm-9.72-9.62a24.21,24.21,0,0,0,4.69-.45A36.13,36.13,0,0,0,42,53.64l-5.52,3.44A20,20,0,0,1,33.78,46.33Z"/><path class="413645e3-586b-49d7-b40b-39e6adae8aa7" d="M56.61,32.84a33.86,33.86,0,0,1-6.82,5.85l-6-9.61C47.27,27.52,52.09,29.09,56.61,32.84Z"/><path class="413645e3-586b-49d7-b40b-39e6adae8aa7" d="M65.53,63.91l-6-9.62a34,34,0,0,1,8.26-3.55C69.18,56.45,68.46,61.47,65.53,63.91Z"/><path class="413645e3-586b-49d7-b40b-39e6adae8aa7" d="M67.31,49a35,35,0,0,0-8.75,3.72l-3-4.84,8.87-5.54A33.83,33.83,0,0,1,67.31,49Z"/><path class="413645e3-586b-49d7-b40b-39e6adae8aa7" d="M63.47,40.77l-8.91,5.56-3.79-6.07A35.33,35.33,0,0,0,58,34,35.07,35.07,0,0,1,63.47,40.77Z"/><path class="413645e3-586b-49d7-b40b-39e6adae8aa7" d="M49.11,27a20.68,20.68,0,0,1,11.12.46,21.42,21.42,0,0,1-2.48,4A21.1,21.1,0,0,0,49.11,27Z"/><path class="413645e3-586b-49d7-b40b-39e6adae8aa7" d="M59.11,32.62A23.33,23.33,0,0,0,61.89,28a20.55,20.55,0,0,1,9.36,7.89L65,39.8A35.49,35.49,0,0,0,59.11,32.62Z"/><path class="413645e3-586b-49d7-b40b-39e6adae8aa7" d="M74.24,49.87a20.75,20.75,0,0,1-4.46,10.2,21,21,0,0,0-.24-9.74A21.35,21.35,0,0,1,74.24,49.87Z"/><path class="413645e3-586b-49d7-b40b-39e6adae8aa7" d="M42.62,53.79l-6.3,3.93a20.41,20.41,0,0,1-3-11.86,23.83,23.83,0,0,0,5.44-.51A36,36,0,0,0,42.62,53.79Z"/><path class="413645e3-586b-49d7-b40b-39e6adae8aa7" d="M66,41.38l6.18-3.86a20.38,20.38,0,0,1,2.26,10.59,23.35,23.35,0,0,0-5.34.48A35.16,35.16,0,0,0,66,41.38Z"/><path class="413645e3-586b-49d7-b40b-39e6adae8aa7" d="M48.72,61.26a23.33,23.33,0,0,0-2.85,4.67,20.44,20.44,0,0,1-8.52-6.68l6.28-3.92A35.49,35.49,0,0,0,48.72,61.26Z"/><path class="413645e3-586b-49d7-b40b-39e6adae8aa7" d="M45.19,54.35,54,48.87l3,4.84a34.91,34.91,0,0,0-7.13,6.15A34.25,34.25,0,0,1,45.19,54.35Z"/><path class="413645e3-586b-49d7-b40b-39e6adae8aa7" d="M58,55.27l6,9.6c-3.47,1.49-8.25-.09-12.74-3.82A34,34,0,0,1,58,55.27Z"/><path class="413645e3-586b-49d7-b40b-39e6adae8aa7" d="M58.82,67a20.67,20.67,0,0,1-11.28-.43,21.49,21.49,0,0,1,2.53-4.1A21,21,0,0,0,58.82,67Z"/><path class="413645e3-586b-49d7-b40b-39e6adae8aa7" d="M33.52,44.09a20.66,20.66,0,0,1,4.57-10.33,21.12,21.12,0,0,0,.23,9.86A22.27,22.27,0,0,1,33.52,44.09Z"/><path class="413645e3-586b-49d7-b40b-39e6adae8aa7" d="M42.24,30.07l6,9.6a33.78,33.78,0,0,1-8.15,3.52C38.69,37.52,39.38,32.54,42.24,30.07Z"/><path class="413645e3-586b-49d7-b40b-39e6adae8aa7" d="M40.56,44.93a35.44,35.44,0,0,0,8.65-3.7L53,47.31l-8.82,5.5A34.94,34.94,0,0,1,40.56,44.93Z"/></g><g id="ruler" data-name="ruler"><path class="413645e3-586b-49d7-b40b-39e6adae8aa7" d="M101.58,84.05a1,1,0,0,0-1.12-.78l-36.3,6.59A1,1,0,0,0,63.39,91l.73,4a1,1,0,0,0,1.11.77l36.3-6.59A1,1,0,0,0,102.3,88Z"/><g class="5fb07c04-9d3b-4d24-8b62-f4ff642619d7"><path class="355753fe-be65-49c3-aab3-0ff45f55eacf" d="M66.4,91.59a.15.15,0,0,0-.18-.13l-.49.09a.17.17,0,0,0-.13.18l.72,4a.17.17,0,0,0,.19.13l.49-.09a.16.16,0,0,0,.12-.18Z"/><rect class="355753fe-be65-49c3-aab3-0ff45f55eacf" x="68.48" y="92.4" width="0.64" height="2.98" rx="0.16" ry="0.16" transform="translate(-15.23 13.34) rotate(-9.98)"/><path class="355753fe-be65-49c3-aab3-0ff45f55eacf" d="M71,92.13a.16.16,0,0,0-.19-.12l-.32.06a.15.15,0,0,0-.12.18l.47,2.63a.16.16,0,0,0,.19.12l.32-.06a.15.15,0,0,0,.12-.18Z"/><rect class="355753fe-be65-49c3-aab3-0ff45f55eacf" x="72.78" y="91.62" width="0.64" height="2.99" rx="0.16" ry="0.16" transform="translate(-15.33 14.42) rotate(-10.2)"/><rect class="355753fe-be65-49c3-aab3-0ff45f55eacf" x="74.93" y="91.23" width="0.64" height="2.98" rx="0.16" ry="0.16" transform="translate(-15.45 15.04) rotate(-10.36)"/><path class="355753fe-be65-49c3-aab3-0ff45f55eacf" d="M77.69,89.54a.16.16,0,0,0-.18-.13L77,89.5a.16.16,0,0,0-.13.18l.72,4a.17.17,0,0,0,.19.13l.48-.09a.16.16,0,0,0,.13-.18Z"/><rect class="355753fe-be65-49c3-aab3-0ff45f55eacf" x="79.77" y="90.35" width="0.64" height="2.98" rx="0.16" ry="0.16" transform="translate(-15.58 16.36) rotate(-10.64)"/><path class="355753fe-be65-49c3-aab3-0ff45f55eacf" d="M82.31,90.08a.15.15,0,0,0-.18-.12l-.32.05a.17.17,0,0,0-.13.19l.48,2.63a.16.16,0,0,0,.18.12l.32-.06a.15.15,0,0,0,.13-.18Z"/><rect class="355753fe-be65-49c3-aab3-0ff45f55eacf" x="84.06" y="89.57" width="0.64" height="2.99" rx="0.16" ry="0.16" transform="translate(-15 16.66) rotate(-10.36)"/><rect class="355753fe-be65-49c3-aab3-0ff45f55eacf" x="86.21" y="89.18" width="0.64" height="2.99" rx="0.16" ry="0.16" transform="translate(-14.64 16.7) rotate(-10.17)"/><path class="355753fe-be65-49c3-aab3-0ff45f55eacf" d="M89,87.49a.17.17,0,0,0-.18-.13l-.49.09a.16.16,0,0,0-.13.19l.72,4a.16.16,0,0,0,.18.13l.49-.09a.16.16,0,0,0,.13-.18Z"/><path class="355753fe-be65-49c3-aab3-0ff45f55eacf" d="M100,85.48a.15.15,0,0,0-.18-.12l-.49.08a.17.17,0,0,0-.13.19l.72,4a.16.16,0,0,0,.19.13l.49-.09a.15.15,0,0,0,.12-.18Z"/><rect class="355753fe-be65-49c3-aab3-0ff45f55eacf" x="91.06" y="88.3" width="0.64" height="2.99" rx="0.16" ry="0.16" transform="translate(-14.29 17.35) rotate(-10.07)"/><path class="355753fe-be65-49c3-aab3-0ff45f55eacf" d="M93.6,88a.15.15,0,0,0-.18-.13L93.1,88a.15.15,0,0,0-.13.18l.48,2.63a.15.15,0,0,0,.18.12l.32-.05a.16.16,0,0,0,.13-.19Z"/><path class="355753fe-be65-49c3-aab3-0ff45f55eacf" d="M95.75,87.64a.16.16,0,0,0-.18-.12l-.32,0a.16.16,0,0,0-.13.19l.48,2.63a.15.15,0,0,0,.18.12l.32-.06a.15.15,0,0,0,.13-.18Z"/><path class="355753fe-be65-49c3-aab3-0ff45f55eacf" d="M97.9,87.25a.16.16,0,0,0-.18-.12l-.33.05a.16.16,0,0,0-.12.19L97.74,90a.16.16,0,0,0,.19.12l.32-.05a.16.16,0,0,0,.12-.19Z"/></g><path class="502b52d4-82fa-421d-b49d-070bdc7dc89f" d="M68.82,79.56a1,1,0,0,0-.77,1.11l.84,4.71a1,1,0,0,0,1.11.77L95.54,81.6a1,1,0,0,0,.77-1.11l-.84-4.71A1,1,0,0,0,94.36,75l-.25,0a1.79,1.79,0,0,1-1.54-.58s-5.26-9-12.83-7.64-9.55,11.64-9.55,11.64a1.78,1.78,0,0,1-1.25,1.07ZM87,75.5c.36.39.22.78-.29.88L76.36,78.22c-.52.09-.78-.23-.58-.72,0,0,.9-4.51,4.9-5.23S87,75.5,87,75.5Z"/><g class="8dd6e04e-37a9-4575-80fc-ad7939d13dfe"><rect class="355753fe-be65-49c3-aab3-0ff45f55eacf" x="70.87" y="81.91" width="0.81" height="4.35" rx="0.16" ry="0.16" transform="translate(-13.91 14.12) rotate(-10.32)"/><path class="355753fe-be65-49c3-aab3-0ff45f55eacf" d="M73.79,83a.16.16,0,0,0-.18-.12l-.33.06a.15.15,0,0,0-.12.18l.47,2.62a.16.16,0,0,0,.19.13l.32,0a.18.18,0,0,0,.13-.19Z"/><path class="355753fe-be65-49c3-aab3-0ff45f55eacf" d="M75.94,82.57a.16.16,0,0,0-.19-.12l-.32,0a.18.18,0,0,0-.13.19l.48,2.63a.16.16,0,0,0,.19.12l.32,0a.16.16,0,0,0,.12-.19Z"/><path class="355753fe-be65-49c3-aab3-0ff45f55eacf" d="M78.09,82.18a.16.16,0,0,0-.19-.12l-.32.06a.16.16,0,0,0-.13.18l.48,2.63a.16.16,0,0,0,.18.12l.33-.06a.15.15,0,0,0,.12-.18Z"/><rect class="355753fe-be65-49c3-aab3-0ff45f55eacf" x="79.84" y="81.67" width="0.64" height="2.99" rx="0.16" ry="0.16" transform="translate(-13.65 15.77) rotate(-10.36)"/><rect class="355753fe-be65-49c3-aab3-0ff45f55eacf" x="82.16" y="79.86" width="0.81" height="4.35" rx="0.16" ry="0.16" transform="translate(-13.34 16.09) rotate(-10.31)"/><rect class="355753fe-be65-49c3-aab3-0ff45f55eacf" x="93.21" y="77.86" width="0.81" height="4.35" rx="0.16" ry="0.16" transform="translate(-12.81 18.04) rotate(-10.3)"/><rect class="355753fe-be65-49c3-aab3-0ff45f55eacf" x="84.68" y="80.79" width="0.64" height="2.99" rx="0.16" ry="0.16" transform="translate(-13.43 16.66) rotate(-10.38)"/><path class="355753fe-be65-49c3-aab3-0ff45f55eacf" d="M87.22,80.52A.15.15,0,0,0,87,80.4l-.32.06a.15.15,0,0,0-.13.18l.48,2.63a.16.16,0,0,0,.18.12l.32-.06a.15.15,0,0,0,.13-.18Z"/><path class="355753fe-be65-49c3-aab3-0ff45f55eacf" d="M89.37,80.14a.15.15,0,0,0-.18-.13l-.32.06a.15.15,0,0,0-.13.18l.48,2.63a.15.15,0,0,0,.18.12l.32,0a.16.16,0,0,0,.13-.19Z"/><rect class="355753fe-be65-49c3-aab3-0ff45f55eacf" x="91.12" y="79.62" width="0.64" height="2.99" rx="0.16" ry="0.16" transform="translate(-13.13 17.83) rotate(-10.39)"/></g></g></g></g></g></svg>