<svg xmlns="http://www.w3.org/2000/svg" xmlns:xlink="http://www.w3.org/1999/xlink" viewBox="0 0 199.85 140.79"><defs><style>.e1459ce3-29e6-4ef2-920c-ed1b7a12d2f9{isolation:isolate;}.\37 73115ac-c20c-4be9-be3f-f187ac01bb09{fill:#fff;}.\30 c77c1e1-7445-4727-99d5-bd9c4f4e99e7,.\37 ac8e8b8-b4fb-4536-a0dd-4ebdfc511e42,.e1d19c4b-22a6-4596-8b67-a7612298b4eb{fill:#9a6885;}.e1d19c4b-22a6-4596-8b67-a7612298b4eb{opacity:0.4;}.\30 4cda34f-b29e-4951-8701-ff8590ee49f9,.\30 c77c1e1-7445-4727-99d5-bd9c4f4e99e7,.ab54997c-bf65-461a-bba7-748c606eea09,.badb231d-9ebd-432a-99bb-dbf0a8323a13,.e1d19c4b-22a6-4596-8b67-a7612298b4eb{mix-blend-mode:multiply;}.bfa8efdb-0f25-430e-b3a5-005462aa41e0{fill:url(#580789e5-d219-4081-803e-f89956828318);}.dd87603d-98f7-48aa-b6d0-01e2bb9b98e1{fill:#b96496;}.e174edd3-eb6f-4855-bba9-4ce0a78a759b{fill:url(#f82ee1e8-05eb-4eae-b3ba-54e39a595a95);}.\34 efb2558-b3d0-40f5-86c0-299eda332092{fill:#b75f93;}.badb231d-9ebd-432a-99bb-dbf0a8323a13,.e1f5cdf7-c2a9-4419-ad8f-578f0c4e0761{opacity:0.42;}.fdfc62fe-4dae-4cb1-ac99-4f81248b4a92{fill:#f868ba;}.\30 4cda34f-b29e-4951-8701-ff8590ee49f9,.ab54997c-bf65-461a-bba7-748c606eea09,.c7c0f894-6d03-4857-be7e-18d4413fba25,.e1f5cdf7-c2a9-4419-ad8f-578f0c4e0761{fill:#fc79bb;}.b5b36e6e-5529-45c4-878d-6daa0f0554bc{fill:url(#365d5252-b662-4000-8e37-aecb779c6c8f);}.b13d36ef-4c33-4a1c-adb2-928db0b2a3bc{fill:url(#336a1334-6c54-4b77-85c4-615b38d41e39);}.cf941b3e-9497-4698-9c90-92c0b78a7357{fill:url(#21eb6921-cf5c-4619-b2c1-c48d78a33da9);}.\30 4cda34f-b29e-4951-8701-ff8590ee49f9{opacity:0.36;}.e1f5cdf7-c2a9-4419-ad8f-578f0c4e0761{mix-blend-mode:screen;}.\31 2b00531-830d-4e31-aff7-f4a782707abb{fill:url(#888b7e3e-a5a7-4cea-af51-7b70ad0c90ec);}.bda41309-84fe-43c8-9a7d-e7a8d1f9eb92{fill:url(#2581d710-62fa-4628-84f9-da9ad387cb96);}.\34 2e5c5fe-34df-4501-b3f7-f2bc8ab44891{fill:url(#7737d0b2-a507-4112-bd3a-9dff6fe16ef3);}.\36 b25ed6c-14be-495f-a691-ab56e8d9e53a{fill:url(#969b30d2-b93c-4881-ac3b-6e9f9352379d);}.a5fbdef5-099b-43ce-b70c-608e049fcd1e{fill:url(#831b96bb-6889-4cc9-b65f-c1689e6fec5d);}.\39 64bd218-46dd-4581-88db-5953a015a6ca{fill:url(#53483a0c-1e0e-4934-920c-86c03fc01a9c);}.\32 1716a3f-b1de-4760-ae32-10763012443b{fill:url(#462d202b-4328-4e18-b850-76aed5f8222a);}.\33 23b4e32-bfc6-403d-8593-1691aee2fadb{fill:url(#10e7a6c2-1048-49f6-be27-97bc3d8c85b2);}.\33 309b83d-0218-4f2e-89c6-d935cff3b61c{fill:url(#003c1b55-aec6-4f2b-96d5-e1105b06ab32);}.d1f6212d-9e30-4848-802a-b814617ad507{fill:#7f687b;}.c1a436b3-8758-403b-8047-d5a8664ed16e{fill:#89667b;}.\30 c77c1e1-7445-4727-99d5-bd9c4f4e99e7{opacity:0.47;}</style><linearGradient id="580789e5-d219-4081-803e-f89956828318" x1="79.35" y1="-969.28" x2="90.57" y2="-969.28" gradientTransform="matrix(1.03, 0.6, -0.55, 1.17, -610.97, 1165.6)" gradientUnits="userSpaceOnUse"><stop offset="0" stop-color="#8c6880"/><stop offset="0.46" stop-color="#c97aa4"/><stop offset="1" stop-color="#9a6885"/></linearGradient><linearGradient id="f82ee1e8-05eb-4eae-b3ba-54e39a595a95" x1="63.46" y1="-998.25" x2="89.61" y2="-955.09" gradientTransform="matrix(1.03, 0.6, -0.55, 1.17, -610.97, 1165.6)" gradientUnits="userSpaceOnUse"><stop offset="0" stop-color="#af618d"/><stop offset="1" stop-color="#fc79bb"/></linearGradient><linearGradient id="365d5252-b662-4000-8e37-aecb779c6c8f" x1="-1237.24" y1="-4.57" x2="-1210.18" y2="-4.57" gradientTransform="matrix(-0.56, 1.16, -1.24, -0.53, -595.9, 1554.22)" xlink:href="#580789e5-d219-4081-803e-f89956828318"/><linearGradient id="336a1334-6c54-4b77-85c4-615b38d41e39" x1="-1268.26" y1="-71.57" x2="-1209.75" y2="25.01" gradientTransform="matrix(-0.56, 1.16, -1.24, -0.53, -595.9, 1554.22)" xlink:href="#f82ee1e8-05eb-4eae-b3ba-54e39a595a95"/><linearGradient id="21eb6921-cf5c-4619-b2c1-c48d78a33da9" x1="-700.58" y1="-1290.3" x2="-640.42" y2="-1290.3" gradientTransform="translate(542.76 1494.52) rotate(6.81)" xlink:href="#580789e5-d219-4081-803e-f89956828318"/><linearGradient id="888b7e3e-a5a7-4cea-af51-7b70ad0c90ec" x1="922.44" y1="-310.17" x2="929.74" y2="-310.17" gradientTransform="matrix(0.85, -0.03, 0.02, 1.34, -776.18, 560.05)" xlink:href="#580789e5-d219-4081-803e-f89956828318"/><linearGradient id="2581d710-62fa-4628-84f9-da9ad387cb96" x1="-624.29" y1="94.7" x2="-615.4" y2="94.7" gradientTransform="matrix(-0.96, 2.88, -2.82, -1, -168.11, 2019.47)" xlink:href="#580789e5-d219-4081-803e-f89956828318"/><linearGradient id="7737d0b2-a507-4112-bd3a-9dff6fe16ef3" x1="-635.11" y1="72.38" x2="-615.42" y2="104.88" gradientTransform="matrix(-0.96, 2.88, -2.82, -1, -168.11, 2019.47)" xlink:href="#f82ee1e8-05eb-4eae-b3ba-54e39a595a95"/><linearGradient id="969b30d2-b93c-4881-ac3b-6e9f9352379d" x1="-1299.82" y1="-1443.63" x2="-1263.85" y2="-1443.63" gradientTransform="translate(-1431.32 1171.76) rotate(98.67)" xlink:href="#580789e5-d219-4081-803e-f89956828318"/><linearGradient id="831b96bb-6889-4cc9-b65f-c1689e6fec5d" x1="-2240.02" y1="3236.8" x2="-2227.83" y2="3236.8" gradientTransform="matrix(1.16, 2.82, 2.77, -1.18, -6280.84, 10195.9)" xlink:href="#580789e5-d219-4081-803e-f89956828318"/><linearGradient id="53483a0c-1e0e-4934-920c-86c03fc01a9c" x1="-2253.98" y1="3206.41" x2="-2227.5" y2="3250.12" gradientTransform="matrix(1.16, 2.82, 2.77, -1.18, -6280.84, 10195.9)" xlink:href="#f82ee1e8-05eb-4eae-b3ba-54e39a595a95"/><linearGradient id="462d202b-4328-4e18-b850-76aed5f8222a" x1="412.41" y1="-795.12" x2="468.06" y2="-795.12" gradientTransform="matrix(0.99, 0.16, -0.16, 0.99, -391.92, 790.76)" xlink:href="#580789e5-d219-4081-803e-f89956828318"/><linearGradient id="10e7a6c2-1048-49f6-be27-97bc3d8c85b2" x1="894.74" y1="-1542.76" x2="902.85" y2="-1542.76" gradientTransform="matrix(1.07, 5.55, -2.86, 2.14, -5346.47, -1608.52)" xlink:href="#580789e5-d219-4081-803e-f89956828318"/><linearGradient id="003c1b55-aec6-4f2b-96d5-e1105b06ab32" x1="-690.73" y1="-384.02" x2="-677.92" y2="-384.02" gradientTransform="matrix(-0.78, 0.55, -0.25, -1.47, -438.22, -103.74)" xlink:href="#580789e5-d219-4081-803e-f89956828318"/></defs><title>smsvg</title><g class="e1459ce3-29e6-4ef2-920c-ed1b7a12d2f9"><g id="f3a080f4-90d2-49c0-a0da-ced7be78fda1" data-name="Layer 2"><g id="4bd07f75-af97-415f-92e6-fa20a3412fc9" data-name="Layer 1"><rect class="773115ac-c20c-4be9-be3f-f187ac01bb09" x="6.17" y="74.97" width="185.98" height="56.28"/><path class="e1d19c4b-22a6-4596-8b67-a7612298b4eb" d="M193.74,131.22a12.49,12.49,0,0,0-1.24-2.44,4.74,4.74,0,0,0-.93-.12s0,0,0,0l-1,0a9.86,9.86,0,0,0,1.66-.19c.21-.08-.42-1.09-.42-1.09a3.37,3.37,0,0,0-1.18-.19l-.36,0h.15c.9,0,.89-.12.88-.19-.07-.41-.95-.77-1.48-.78l-1.31,0c.32-.94.59-1.73.65-2,.12-.44.24-.89.38-1.33.85-2.09,3.17-9.54,4.34-13.13a.19.19,0,0,1,0-.07,1,1,0,0,0,0-.14,0,0,0,0,0,0,0,.49.49,0,0,0,.16-.18,2.84,2.84,0,0,0,0-.31.32.32,0,0,0,0-.09l0-.07c0-.06,0-.11.05-.16s0,0,0,0l.06-.18a0,0,0,0,1,0,0c0-.05,0-.09,0-.13s0,0,0,0l0-.14c.74-2.1.31-2.68.31-2.68l-.67-.1c.07-1.9.19-4.32.17-4.83s0-1,0-1.5c.32-2.84.45-14.27.58-16.66,0-.15,0-.28,0-.41l2.06.1a13.33,13.33,0,0,0,.33-2.64,1.86,1.86,0,0,0-.66-.23h0l-.76-.07a6.22,6.22,0,0,0,1.38,0c.21-.06.26-1.17.26-1.17a1.53,1.53,0,0,0-.82-.3,1.31,1.31,0,0,0-.27-.07h.12c.72.06.76,0,.79-.12.16-.43-.32-.89-.73-.95l-5.07-.29c-3.12-.24-8.12-.65-9.08-.7l-2.43-.16c-4.53-.45-23-1.75-26.83-2.06a20.79,20.79,0,0,0-4.93-.08l-.45.69h.1l.36.16a15.24,15.24,0,0,0,1.68.14c.36,0,.78.06,1.17.11a11.21,11.21,0,0,1-1.27-.07,9.65,9.65,0,0,0-2.31-.11,4.2,4.2,0,0,0-.8,1.18h-.21c-6.54,0-55.53-.45-60.47-.36l-2.84,0c-1.11,0-7,0-10.66,0l-1.8,0v0c0-.35-.7-.67-1.16-.7l-5.56.09c-3.44,0-9,0-10,0l-2.67,0c-3.62-.05-20.11-.06-30.69-.07.14-1.23.2-2,.2-2s-4.91.16-5,.28-.32.25-.41.46c0,0,0,0,0,0s-.05.25-.11.5a1.33,1.33,0,0,0-.1-.88,13.77,13.77,0,0,0-2.25,0,1.23,1.23,0,0,0-.56.58.88.88,0,0,0-.12.19s0,0,0-.08c.1-.47-.09-.48-.24-.48a2.33,2.33,0,0,0-1.8.64c0,.05-.05.29-.1.68a19.22,19.22,0,0,0-3.34.24l-.21.56h.1l.46.1s.79.05,1.86,0c.3,0,.66,0,1,0v0c-.3,0-.66,0-1.11,0a14.43,14.43,0,0,0-2.52,0,2.47,2.47,0,0,0-.44,1.36h0a2.26,2.26,0,0,0,0,.46h0v.06s0,0,0,0a.09.09,0,0,0,0,0,0,0,0,0,0,0,0v0a.17.17,0,0,1,0,0h.06a4.24,4.24,0,0,0,.77.14c.91,0,1.92,0,2.86,0,0,0,0,0,0,.07a0,0,0,0,1,0,0l-3.21,0a.8.8,0,0,0-.67.5,0,0,0,0,0,0,0v0a3.24,3.24,0,0,0,1.68.62c.35,0,1.06,0,2-.06a.5.5,0,0,0,0,.12s0,0,0,.06c-.33,1.73-.68,3.53-.74,4s-.14,1.05-.23,1.57c-.7,2.76-2.48,13.28-3.14,16.78l0,.13a.43.43,0,0,1,0,0l0,.15v0l0,.14v0s0,.11,0,.15,0,.05,0,.08a.65.65,0,0,0-.54-.24c-1.36-.12-1.84.49-1.83.75v0h0a24.41,24.41,0,0,0,.54,3.71c.23,1.89.53,4.34.63,4.85s.19,1,.24,1.49a107,107,0,0,1,.58,11.64h0l-.4.61h.11l.32.09s0,0,0,.08h0a3.75,3.75,0,0,0-.7,0l-.12.12,0,0-.1.12,0,0a1.13,1.13,0,0,1-.1.13h0a4.62,4.62,0,0,0-.51,1H3a2.92,2.92,0,0,0-.16.61h0s0,0,0,.07v0h0v0h0a.07.07,0,0,0,0,0h.06a4.5,4.5,0,0,0,.79.21h.82a.19.19,0,0,1,0,.08l-1.21-.09a1.13,1.13,0,0,0-.88.51s0,0,0,0h0a2.77,2.77,0,0,0,1.63.8h.43a5.66,5.66,0,0,0,.17,2.33c.45,0,.78,0,1.52-.08,0,0,0,0,0,0l.38-.28a1.84,1.84,0,0,0,.15-.94,1.38,1.38,0,0,1,.14-.64,1.2,1.2,0,0,1,0,.68c-.17.66-.26,1.2,0,1.26a72.74,72.74,0,0,0,7.7-.22.3.3,0,0,0,.08-.08c.12-.07.26-.18.49-.3a2.14,2.14,0,0,1-.21-1l.4,0c0,.55-.1,1-.1,1.1s1.79.34,2.13.34h.19c.34,0,2.52-.46,2.33-.74a2.06,2.06,0,0,1-.23-.41c19.3,1.26,44.16,2.05,44.16,2.05s0-.57,0-1.15c10.19.37,54.05.84,65.17.85,0,.06,0,.11,0,.16a.25.25,0,0,1,0,.07h0l.06.12,0,0h.06a5.16,5.16,0,0,0,.91.14c2.1-.18,4.68-.16,6.2-.13.32,0,.67,0,1,0-2.17.14-7.24.17-7.62.18a.75.75,0,0,0-.66.62s0,0,0,0v0a4.16,4.16,0,0,0,2.05.68c.67-.07,2.48-.17,4.75-.21,11.23,0,27.88-.63,40.44-1.22l-.09.43s4.83.11,5,0,.34-.2.45-.38h0s.06-.16.12-.33h0a.87.87,0,0,0,0,.66,15.3,15.3,0,0,0,2.21.07,1.22,1.22,0,0,0,.6-.46,1.07,1.07,0,0,0,.14-.16.14.14,0,0,1,0,.07c-.14.4.05.41.19.42a2.6,2.6,0,0,0,1.82-.45,4.2,4.2,0,0,0,.13-.41Zm-46.62-3.51c.91,0,.91-.08.91-.14,0-.38-.79-.75-1.32-.78-.22,0-3,0-6.38,0-4,0-10.31-.14-11.51-.14-1,0-2,0-3.07,0-5.79-.16-59.52-.7-64.39-.77a34.84,34.84,0,0,0-6.12.19l-.24.59c-3.69-.21-8.58-.49-9.59-.53l-2.9-.13c-3.64-.26-14.73-.85-23-1.29h0l-.67,0c-.69-7.24-.86-14.77-1.83-22.06l-1.57-.07a1,1,0,0,0,0-.17C17.63,95.82,19.17,85.5,20,78.84c13.68.15,32.84,0,43.7-.18-.18.53-.32,1-.32,1s65.78,1.21,84.62.52c2.13,0,3.82,0,4.45,0a3.53,3.53,0,0,0,1.84-.69h0a.08.08,0,0,0,0,0s0-.1-.08-.18h0l0-.07h0l-.06-.06,0,0h0c8.69.94,20.23,1.72,29.14,2.25,0,.19,0,.39,0,.6-2,9.9-.61,28.66-.61,28.66h.13a138.91,138.91,0,0,0-5.06,16l-.48,0h0l-5,.17-3,.14c-3.53.06-13.57.42-21.92.72l-.21,0ZM12.93,102a4.44,4.44,0,0,0,.15-.52c0,.27-.09.62-.17,1h-.17C12.81,102.26,12.87,102.1,12.93,102Zm134.5-23c1.07-.06,2.71-.13,4.3-.11l.73.08-2.9.06h0c-1.15,0-2.3,0-3.07,0ZM186,82.4a2.52,2.52,0,0,0-.07.49,8.7,8.7,0,0,1,0-1.32h.24A8.25,8.25,0,0,1,186,82.4Z"/><path class="bfa8efdb-0f25-430e-b3a5-005462aa41e0" d="M7.52,99.46c.24.53-.65,5-.68,5.3a1.75,1.75,0,0,0,.63,1.09c.16,0,1.37-.71,1.35-1.14a18.76,18.76,0,0,1,.28-2.95c2.75-12.43,4.24-36,4.24-36l-1,.55-8,30.76,3,2.58c0-.28.09-.4.19-.18Z"/><path class="dd87603d-98f7-48aa-b6d0-01e2bb9b98e1" d="M6.48,105.08a16.37,16.37,0,0,1,.6-3.84,8,8,0,0,0,.19-1.16c0-.17,0-.32.06-.44l-3-2.58-1.58,5.42c0,.12,0,.25-.05.4-.17.93,3.22,2.4,3.36,2.73.23.07.21-.2.45-.53Z"/><path class="dd87603d-98f7-48aa-b6d0-01e2bb9b98e1" d="M8.81,67.62c0-.1,0-.2,0-.3C8.79,67.71,8.76,68,8.81,67.62Z"/><path class="dd87603d-98f7-48aa-b6d0-01e2bb9b98e1" d="M2.25,103.37a7.79,7.79,0,0,1,.45-1.91,3.19,3.19,0,0,1,0,1L12.34,66.3l1-.55a39.07,39.07,0,0,0-4,.34c-.21.28-.26.29-.34.57,0,.11-.07.4-.11.66,0,.1,0,.2,0,.3-.05.42,0,.09,0-.3a2.25,2.25,0,0,0-.08-1.11,7.09,7.09,0,0,0-1.8.06,1.29,1.29,0,0,0-.47.79c-.12.56-.14.59-.06,0s-.08-.57-.19-.58a1.59,1.59,0,0,0-1.44.78c-.08.32-.75,9.41-1.07,12.32-.6,3.56-2.21,17.93-2.62,20.93a6.69,6.69,0,0,0,.66,4.53l.29-.38a6.66,6.66,0,0,0,.18-1.32Z"/><path class="e174edd3-eb6f-4855-bba9-4ce0a78a759b" d="M4.76,68.32c0,.35-.06.7-.08,1.05-.07,1-1,7.92-1.11,8.92,0,.63-.11,1.26-.18,1.9-.6,3.55-2.21,17.92-2.62,20.92s0,3.78,0,3.78l1.06.19s.05-.38.08-1.13A7.79,7.79,0,0,1,2.35,102a3.59,3.59,0,0,1,0,1.41,3.69,3.69,0,0,0-.13,1.79,13.21,13.21,0,0,0,3.94.41,16.37,16.37,0,0,1,.6-3.84,7.88,7.88,0,0,0,.19-1.15c.07-.56.1-.94.25-.62.24.53-.65,5-.69,5.3s.75.5.91.51a.51.51,0,0,0,.43-.59,16.87,16.87,0,0,1,.29-3c2.74-12.42,4.23-36,4.23-36l-.71,0h-.14l-.71.05c-.34,0-.69.06-1,.09a5.16,5.16,0,0,0-.67.1c-.11,0-.17,0-.17.07,0,.19-.31,1.92-.38,2.2s-.2,0-.11-.66a2.89,2.89,0,0,0,0-1.42,2.79,2.79,0,0,0-1-.09H6.76a1.14,1.14,0,0,0-.41.74c-.11.56-.34.78-.26.22s0-.55-.07-.61-.2,0-.31,0-.88.12-.9.29,0,1,0,1Z"/><path class="4efb2558-b3d0-40f5-86c0-299eda332092" d="M6.44,67.1a.56.56,0,0,0,0,.1s0,0,0,0V67.1Z"/><path class="4efb2558-b3d0-40f5-86c0-299eda332092" d="M6.44,67.09Z"/><path class="4efb2558-b3d0-40f5-86c0-299eda332092" d="M7.56,66.69V66.6a.28.28,0,0,0,0,.08Z"/><path class="4efb2558-b3d0-40f5-86c0-299eda332092" d="M11.12,66.37v0Z"/><g class="badb231d-9ebd-432a-99bb-dbf0a8323a13"><path class="fdfc62fe-4dae-4cb1-ac99-4f81248b4a92" d="M2.41,105.29s.48-4.08.47-4.83S4,89.21,4.33,86.88c0-.15,0-.28.06-.37.09-.48.21-1.25.32-2.09.26-1.89.53-4.19.57-4.71.06-.73,1-11.58,1.15-12.53,0,0,0,0,0,0,0,.17-.09.53-.16,1A24.91,24.91,0,0,0,6,71.29c0,1.53-1,9.25-1.2,10.92-.08.66-.2,1.3-.33,1.89,0,.2-.09.48-.14.83-.49,3.55-1.67,16.43-1.82,17.49a22.47,22.47,0,0,0-.12,2.87Z"/><path class="fdfc62fe-4dae-4cb1-ac99-4f81248b4a92" d="M5.39,67.09h0ZM1.86,99.37s.39-3.28.38-3.89,1-9.44,1.28-11.31c0-.13,0-.23,0-.31.08-.38.17-1,.26-1.68.21-1.52.42-3.37.46-3.79,0-.58,1-10.54,1.1-11.25a.06.06,0,0,1,0,0c0,.06-.08.4-.15.9a20.09,20.09,0,0,0-.19,2.47c0,1.23-1,8.59-1.14,9.94-.07.53-.16,1-.27,1.52,0,.15-.07.38-.11.67C3.14,85.45,2.08,96.2,2,97.06a18.12,18.12,0,0,0-.1,2.31Z"/><path class="fdfc62fe-4dae-4cb1-ac99-4f81248b4a92" d="M4.74,105.64c0-.12,0-2.65,0-3.49s.64-10.69.72-11.82S6,82,6.08,81c.08-.76,1.27-11.33,1.41-13.39-.23,2.29-1.77,14.85-2,17.28-.25,3-.79,10.4-.87,12.09s.08,8.5.1,8.69Z"/><path class="fdfc62fe-4dae-4cb1-ac99-4f81248b4a92" d="M11.1,80.92c-.37.73-2.31,10.7-2.54,12.34s-1.09,9.43-1.22,10.32a3.46,3.46,0,0,0,.06,1.61c-.1-.14.94-8.31,1.39-11.87,0-.16.54-2.33.57-2.5.5-3.66,1.74-9.9,1.74-9.9Z"/><path class="fdfc62fe-4dae-4cb1-ac99-4f81248b4a92" d="M6.13,105.65h0s0-.28-.08-.52c0,0,0-7.5.24-9.42s.55-7,.57-7.68c0,0,0-.06,0,0,0,.17-.82,7.8-1,9a82.26,82.26,0,0,0-.24,8.66,3,3,0,0,0,.49,0Z"/><path class="fdfc62fe-4dae-4cb1-ac99-4f81248b4a92" d="M10.52,70.92c.28-2,.56-4.24.6-4.55h0C11,66.92,9.1,79.3,9,80s-1.12,7.36-1.12,7.36-.63-4.18-.73-4.9S8,70.82,8,70.16s-.19-3.46-.19-3.46S7.73,69,7.74,70.38,6.57,80.52,7,82.9s.84,5.55.84,5.55,1.1-6.64,1.43-8.75c.11-.7,1.12-7.67,1.27-8.78Z"/><path class="fdfc62fe-4dae-4cb1-ac99-4f81248b4a92" d="M8.66,69.54a5.66,5.66,0,0,0-.09-.68s0,.27.09.68Zm1.5-3h0s-.64,3-.77,4S8,80,8.11,79.18c.05-.59.68-8.56.55-9.64q0,.28,0,.69c0,1-.79,12-.6,10.83s2.06-14.39,2.07-14.48Z"/></g><path class="ab54997c-bf65-461a-bba7-748c606eea09" d="M10,67.82l-1.2,0c-.08.46-.16.89-.19,1-.08.28-.2,0-.11-.66,0-.12,0-.24,0-.35-.77,0-1.54,0-2.3.06-.06.1-.11.11-.12,0L4.77,68c0,.19,0,.35,0,.35,0,.35-.06.7-.08,1.05s-.28,2.44-.54,4.39h.27a.22.22,0,0,1,.16,0l.64,0c.83,0,1.67.05,2.49.08,1.36,0,2.71.07,4.06.14.22-2.67.38-4.85.48-6.19C11.48,67.8,10.71,67.81,10,67.82Z"/><path class="ab54997c-bf65-461a-bba7-748c606eea09" d="M8.43,100.77c-.56-.45-.44-1-.82-1.61-.25-.37-.44-.59-.83-.11a4.17,4.17,0,0,0-.43.69,6.59,6.59,0,0,1-.55,1,.24.24,0,0,1-.28.06c-.59-.31-.24-.15-.84-.07a5.65,5.65,0,0,1-1.54-.07c-.52-.08-1-.19-1.52-.3a5.83,5.83,0,0,1-.73-.1c-.05.36-.09.66-.12.89-.41,3,0,3.78,0,3.78l1.06.19s.05-.38.08-1.13A7.79,7.79,0,0,1,2.35,102a3.59,3.59,0,0,1,0,1.41,3.69,3.69,0,0,0-.13,1.79,13.21,13.21,0,0,0,3.94.41,16.37,16.37,0,0,1,.6-3.84,7.88,7.88,0,0,0,.19-1.15c.07-.56.1-.94.25-.62.24.53-.65,5-.69,5.3s.75.5.91.51a.51.51,0,0,0,.43-.59,16.87,16.87,0,0,1,.29-3C8.21,101.81,8.32,101.29,8.43,100.77Z"/><path class="b5b36e6e-5529-45c4-878d-6daa0f0554bc" d="M62.79,135.29c-.83.32-8-.2-8.47-.22a3.26,3.26,0,0,0-1.7.83c0,.17,1.21,1.44,1.89,1.37a42.64,42.64,0,0,1,4.72,0c19.91,1.78,86.5,1.73,86.5,1.73l-.92-1.06-78.36-6.49-4,3.63c.45,0,.64.06.29.19Z"/><path class="dd87603d-98f7-48aa-b6d0-01e2bb9b98e1" d="M53.8,134.71a35.11,35.11,0,0,1,6.14.28c.59.07,1.28.08,1.85.09l.71,0,4-3.63-8.71-1.2-.63,0c-1.5-.09-3.65,3.82-4.18,4-.09.26.33.21.87.44Z"/><path class="dd87603d-98f7-48aa-b6d0-01e2bb9b98e1" d="M142.52,134.19H143C142.37,134.17,141.84,134.16,142.52,134.19Z"/><path class="dd87603d-98f7-48aa-b6d0-01e2bb9b98e1" d="M56.29,129.83a17.76,17.76,0,0,1,3.07.32,7.41,7.41,0,0,1-1.62.12L144.81,138l.92,1.06s-.51-4.35-.75-4.46a2.43,2.43,0,0,0-.93-.31l-1.06-.06h-.47c-.68,0-.15,0,.47,0a5.68,5.68,0,0,0,1.78-.19c.23-.13-.2-2-.2-2a2.19,2.19,0,0,0-1.29-.44c-.9-.07-.94-.09,0-.07s.9-.14.9-.27a1.73,1.73,0,0,0-1.3-1.52c-.53-.06-15,.13-19.67.07-5.69-.3-57.63-1.33-62.43-1.48s-7.16,1.2-7.16,1.2l.61.28a14.29,14.29,0,0,0,2.1.06Z"/><path class="b13d36ef-4c33-4a1c-adb2-928db0b2a3bc" d="M141.19,129.75h-1.67c-1.6,0-12.66-.31-14.26-.31-1,0-2,0-3,0-5.7-.3-57.63-1.33-62.43-1.48s-6,.38-6,.38l-.24,1.19s.6,0,1.8,0a17.12,17.12,0,0,1,3.07.31,7.85,7.85,0,0,1-2.25.11,8.39,8.39,0,0,0-2.85,0,10.56,10.56,0,0,0-.46,4.42,35.28,35.28,0,0,1,6.15.28c.58.07,1.27.08,1.84.09.89,0,1.5,0,1,.21-.83.32-8-.2-8.47-.22s-.76.89-.77,1.06.29.48,1,.42a39.45,39.45,0,0,1,4.72,0c19.91,1.78,86.5,1.73,86.5,1.73s0-.32-.1-.77l0-.16c0-.24-.07-.51-.11-.78s-.13-.76-.2-1.09a5.5,5.5,0,0,0-.19-.74c0-.12-.09-.19-.13-.19-.3,0-3.07-.14-3.52-.19s-.07-.22,1.05-.19a6.83,6.83,0,0,0,2.26-.18c.13-.07.12-.68.09-1.19s-.06-.68-.06-.68a1.92,1.92,0,0,0-1.19-.37c-.9-.07-1.27-.3-.37-.27s.87,0,1-.14,0-.23,0-.34-.23-1-.51-1-1.59.05-1.59.05Z"/><path class="ab54997c-bf65-461a-bba7-748c606eea09" d="M62.55,134.63a6.37,6.37,0,0,1,.06-1.51c.08-.43,0-.44-.49-.6a.16.16,0,0,1-.07-.21,7.26,7.26,0,0,0,.14-2.13c0-.38-1.19-.44-1.43-.47-.94-.09-1.89-.13-2.83-.18a15.53,15.53,0,0,1-4.25-.6l-.12.6s.6,0,1.8,0a17.12,17.12,0,0,1,3.07.31,7.85,7.85,0,0,1-2.25.11,8.39,8.39,0,0,0-2.85,0,10.56,10.56,0,0,0-.46,4.42,35.28,35.28,0,0,1,6.15.28c.58.07,1.27.08,1.84.09.89,0,1.5,0,1,.21-.83.32-8-.2-8.47-.22s-.76.89-.77,1.06.29.48,1,.42a39.45,39.45,0,0,1,4.72,0c1.44.13,3,.25,4.56.35A10.87,10.87,0,0,1,62.55,134.63Z"/><path class="ab54997c-bf65-461a-bba7-748c606eea09" d="M144.37,135.16a5.5,5.5,0,0,0-.19-.74c0-.12-.09-.19-.13-.19-.3,0-3.07-.14-3.52-.19s-.07-.22,1.05-.19a6.83,6.83,0,0,0,2.26-.18c.13-.07.12-.68.09-1.19s-.06-.68-.06-.68a1.92,1.92,0,0,0-1.19-.37c-.9-.07-1.27-.3-.37-.27s.87,0,1-.14a.16.16,0,0,0,0-.12,27.76,27.76,0,0,1-4.55.58c-2.28.14-4.5.33-6.75.69-.64.1-7.07.88-7.08,1.1a3.81,3.81,0,0,1-.25,2c-.29.44-1.16.49-.2.82a.16.16,0,0,1,.08.21,6.71,6.71,0,0,0-.26,1.81c11.51,0,20.5-.16,20.5-.16s0-.32-.1-.77l0-.16c0-.24-.07-.51-.11-.78S144.44,135.49,144.37,135.16Z"/><path class="4efb2558-b3d0-40f5-86c0-299eda332092" d="M143.22,131.49h0Z"/><path class="4efb2558-b3d0-40f5-86c0-299eda332092" d="M143.24,131.49Z"/><path class="4efb2558-b3d0-40f5-86c0-299eda332092" d="M143.94,132.7l.14,0h-.14v0Z"/><path class="4efb2558-b3d0-40f5-86c0-299eda332092" d="M144.62,136.62h0Z"/><g class="badb231d-9ebd-432a-99bb-dbf0a8323a13"><path class="fdfc62fe-4dae-4cb1-ac99-4f81248b4a92" d="M53.25,130.21s6.52.12,7.72,0,18,.11,21.67.23l.61,0c.76,0,2,.1,3.33.14,3,.1,35.69.87,36.52.86,1.15,0,18.48,0,20,0h0c-.27,0-.85,0-1.63-.07-1.28,0-3.08-.06-4.9.05-2.43.14-43.75-.84-46.44-.92-1,0-2.07-.09-3-.18a13,13,0,0,0-1.32-.07c-5.67-.18-26.23-.18-27.93-.24-1.87-.05-4.57.16-4.57.16Z"/><path class="fdfc62fe-4dae-4cb1-ac99-4f81248b4a92" d="M143.19,130.32h0ZM62.64,129s5.24.09,6.21,0,15.08.17,18.07.26l.48,0c.62,0,1.61.08,2.69.11,2.43.08,34.38.84,35.05.84.93,0,16.83,0,18,.07h.08c-.09,0-.64,0-1.44-.06-1,0-2.48,0-3.94,0-1.95.11-13.73-.18-15.89-.25-.84,0-30.65-.78-31.42-.85-.24,0-.6,0-1.06-.05-4.56-.15-21.73-.23-23.1-.27s-3.68.13-3.68.13Z"/><path class="fdfc62fe-4dae-4cb1-ac99-4f81248b4a92" d="M52.82,132.83c.19,0,4.21-.26,5.56-.3l18.84-.41c1.8,0,42.34.39,43.91.39,1.22,0,18.1.25,21.39.2-3.66,0-52.71-1.16-56.59-1.14-4.73,0-16.59.18-19.29.27s-13.51,1-13.82,1Z"/><path class="fdfc62fe-4dae-4cb1-ac99-4f81248b4a92" d="M121.48,138.08c-1.19-.34-46.14-2.18-48.77-2.26s-15.06-.25-16.49-.3a8.6,8.6,0,0,0-2.55.22c.23-.12,13.27.2,19,.33.24,0,3.73.37,4,.38,5.85.18,44.84,1.63,44.84,1.63Z"/><path class="fdfc62fe-4dae-4cb1-ac99-4f81248b4a92" d="M52.87,134.38h0l.83-.14s11.93-.75,15-.7,11.11-.09,12.23-.14H81c-.27,0-12.45-.11-14.41-.17s-12.74.39-13.8.61a2.62,2.62,0,0,0,.06.55Z"/><path class="fdfc62fe-4dae-4cb1-ac99-4f81248b4a92" d="M137.36,136.41c3.27.11,6.77.2,7.26.21h0c-.88-.05-20.67-.92-21.74-1l-40.75-1.2,7.74-1.32c1.13-.17,47.52.44,48.57.39s5.49-.56,5.49-.56-3.68.14-5.86.29-45.18-1-48.95-.26-8.8,1.49-8.8,1.49,39.63,1.25,43,1.4c1.13,0,12.27.46,14,.51Z"/><path class="fdfc62fe-4dae-4cb1-ac99-4f81248b4a92" d="M139.46,134.2c.73-.09,1.07-.16,1.07-.16l-1.07.16Zm4.79,1.38h0s-4.79-.41-6.36-.46-15.07-.53-13.79-.53c.92,0,13.64-.13,15.36-.39-.3,0-.67.08-1.11.11-1.5.13-19,.34-17.26.44s23,.82,23.16.83Z"/></g><path class="cf941b3e-9497-4698-9c90-92c0b78a7357" d="M9.61,132.11c-.82.24-7.49-.79-7.91-.84a3.19,3.19,0,0,0-1.7.65c0,.16.94,1.45,1.59,1.44a39,39,0,0,1,4.42.37C24.42,136.92,59.74,139,59.74,139L59,138l-45.48-9.18L9.36,131.9c.42.06.59.11.25.21Z"/><path class="dd87603d-98f7-48aa-b6d0-01e2bb9b98e1" d="M1.27,130.89a32.09,32.09,0,0,1,5.71.72,17.22,17.22,0,0,0,1.72.22l.66.07,4.18-3.13-8-1.8c-.18,0-.38,0-.59-.07-1.39-.19-3.92,3.35-4.44,3.5-.12.24.28.22.76.49Z"/><path class="dd87603d-98f7-48aa-b6d0-01e2bb9b98e1" d="M57.37,134.2l.45,0C57.23,134.17,56.74,134.13,57.37,134.2Z"/><path class="dd87603d-98f7-48aa-b6d0-01e2bb9b98e1" d="M4.24,126.45a15.35,15.35,0,0,1,2.83.52,6.61,6.61,0,0,1-1.53,0L59,138l.72,1.07a29.56,29.56,0,0,0-.11-4.28,2.11,2.11,0,0,0-.83-.37c-.17,0-.6-.09-1-.13l-.45,0c-.63-.07-.14,0,.45,0a5.46,5.46,0,0,0,1.68-.05c.23-.1.08-1.91.08-1.91a1.9,1.9,0,0,0-1.14-.52c-.84-.13-.88-.16,0-.06s.87-.07.89-.19a1.54,1.54,0,0,0-1-1.54c-.49-.09-14.09-1-18.44-1.4-5.29-.72-26.75-2.75-31.22-3.25s-6.87.6-6.87.6l.54.31a12.08,12.08,0,0,0,2,.22Z"/><path class="c7c0f894-6d03-4857-be7e-18d4413fba25" d="M56.72,129.89l-1.57-.11c-1.51-.09-11.82-1.25-13.32-1.36-.95-.07-1.89-.15-2.83-.24-5.29-.71-26.75-2.74-31.22-3.24s-5.67-.1-5.67-.1L1.72,126s.56.06,1.69.11a15.35,15.35,0,0,1,2.83.52,7.41,7.41,0,0,1-2.12-.07,7.67,7.67,0,0,0-2.67-.17,10.41,10.41,0,0,0-1,4.15,33,33,0,0,1,5.71.73,17.22,17.22,0,0,0,1.72.22c.84.08,1.41.13.91.28-.82.24-7.49-.8-7.91-.84s-.83.77-.86.94.21.48.85.47a34.59,34.59,0,0,1,4.43.37C23.7,135.85,59,138,59,138s0-.31,0-.75a.74.74,0,0,1,0-.15c0-.23,0-.48,0-.75s0-.73,0-1a6.51,6.51,0,0,0-.08-.71c0-.12-.06-.19-.1-.19-.28,0-2.86-.36-3.27-.45s0-.22,1-.1a6.31,6.31,0,0,0,2.14,0c.13-.05.2-.63.24-1.11s0-.65,0-.65a1.66,1.66,0,0,0-1.07-.44c-.83-.14-1.14-.38-.31-.28s.83,0,.94-.06.05-.22.05-.33-.09-.94-.35-1-1.49-.08-1.49-.08Z"/><path class="4efb2558-b3d0-40f5-86c0-299eda332092" d="M58.39,131.7l-.15,0h.15Z"/><path class="4efb2558-b3d0-40f5-86c0-299eda332092" d="M58.4,131.7Z"/><path class="4efb2558-b3d0-40f5-86c0-299eda332092" d="M58.9,132.89h0Z"/><path class="4efb2558-b3d0-40f5-86c0-299eda332092" d="M59,136.66h0Z"/><path class="fdfc62fe-4dae-4cb1-ac99-4f81248b4a92" d="M1.34,126.58s6.09.6,7.23.6,16.79,1.46,20.27,1.85a5,5,0,0,1,.56.07c.71.1,1.85.24,3.11.38,2.81.32,6.25.65,7,.71,1.08.08,17.31,1.34,18.72,1.49h0c-.26,0-.8-.12-1.52-.2-1.19-.13-2.88-.28-4.6-.32-2.29,0-13.81-1.23-16.31-1.51-1-.11-1.93-.24-2.81-.4-.28-.05-.7-.1-1.23-.16-5.28-.59-24.54-2.14-26.12-2.32-1.75-.19-4.31-.19-4.31-.19Z"/><path class="fdfc62fe-4dae-4cb1-ac99-4f81248b4a92" d="M58.5,130.58h0Zm-48.2-4.45s4.9.49,5.81.49,14.1,1.29,16.89,1.6l.46.06,2.5.31c2.26.25,5,.52,5.65.57.88.07,15.76,1.3,16.81,1.41h.07l-1.34-.17c-1-.11-2.32-.23-3.69-.26-1.85,0-12.84-1.2-14.85-1.42-.79-.09-1.55-.2-2.26-.32-.23,0-.56-.09-1-.14-4.25-.47-20.32-1.84-21.6-2s-3.46-.16-3.46-.16Z"/><path class="fdfc62fe-4dae-4cb1-ac99-4f81248b4a92" d="M.59,129c.18,0,4,.07,5.25.13l17.7,1c1.69.11,12.55.7,14,.83,1.14.09,16.92,1.59,20,1.78-3.43-.29-22.16-2.2-25.8-2.47-4.43-.33-15.56-1.08-18.1-1.2S.88,129,.6,129Z"/><path class="fdfc62fe-4dae-4cb1-ac99-4f81248b4a92" d="M37.16,136.31c-1.08-.41-15.88-2.68-18.33-3S4.75,132,3.43,131.84a8.15,8.15,0,0,0-2.42,0c.22-.09,12.4,1.19,17.72,1.74.22,0,3.45.63,3.7.65,5.46.62,14.73,2.07,14.73,2.07Z"/><path class="fdfc62fe-4dae-4cb1-ac99-4f81248b4a92" d="M.44,130.5h0l.79-.07s11.28.18,14.15.46,10.42.75,11.48.79h.08c-.25,0-11.65-1.05-13.48-1.25s-12-.58-13-.45a2.32,2.32,0,0,0,0,.52Z"/><path class="fdfc62fe-4dae-4cb1-ac99-4f81248b4a92" d="M52.24,135.92l6.78.74h0c-.82-.11-19.24-2.42-20.24-2.53l-11-1.35s6.35-.58,7.42-.66,17.4,1.13,18.39,1.16,5.21-.12,5.21-.12-3.46-.14-5.52-.16-15.14-1.47-18.76-1.08-8.44.75-8.44.75,9.9,1.32,13,1.71c1,.13,11.43,1.36,13.07,1.54Z"/><path class="fdfc62fe-4dae-4cb1-ac99-4f81248b4a92" d="M54.5,134c.7,0,1-.07,1-.07l-1,.07Zm4.31,1.66h0s-4.43-.74-5.9-.91-14-1.63-12.85-1.54c.87.07,12.8.91,14.44.79l-1,0c-1.42,0-17.89-1.11-16.22-.88s21.45,2.5,21.58,2.51Z"/><path class="04cda34f-b29e-4951-8701-ff8590ee49f9" d="M57.05,136.83c-1.47.2-37.34-2.79-42-3.45s-7.69-1-4.89-1.24S5,130.83,2,130.39a11.15,11.15,0,0,1-1.54-.31,1.89,1.89,0,0,0,0,.42,33,33,0,0,1,5.71.73,17.22,17.22,0,0,0,1.72.22c.84.08,1.41.13.91.28-.82.24-7.49-.8-7.91-.84s-.83.77-.86.94.21.48.85.47a34.59,34.59,0,0,1,4.43.37C23.7,135.85,59,138,59,138s0-.31,0-.75a.74.74,0,0,1,0-.15c0-.23,0-.48,0-.75v-.08C58.64,136.71,58.1,136.69,57.05,136.83Z"/><path class="e1f5cdf7-c2a9-4419-ad8f-578f0c4e0761" d="M3,126.88C6,127,16,128,13,127.2s8.41.12,15.34.88,24.05,2.77,21.23,2.7-.92.12,2.68.63a30.24,30.24,0,0,1,6.25,1.34l.44.14c0-.07,0-.14,0-.2,0-.37,0-.65,0-.65a1.66,1.66,0,0,0-1.07-.44c-.83-.14-1.14-.38-.31-.28s.83,0,.94-.06.05-.22.05-.33-.09-.94-.35-1-1.49-.08-1.49-.08l-1.57-.11c-1.51-.09-11.82-1.25-13.32-1.36-.95-.07-1.89-.15-2.83-.24-5.29-.71-26.75-2.74-31.22-3.24s-5.67-.1-5.67-.1L1.72,126s.56.06,1.69.11a15.35,15.35,0,0,1,2.83.52,7.41,7.41,0,0,1-2.12-.07,7.67,7.67,0,0,0-2.67-.17A4,4,0,0,0,1,127.4,2.88,2.88,0,0,1,3,126.88Z"/><path class="ab54997c-bf65-461a-bba7-748c606eea09" d="M16.59,125.83c-4-.39-7.33-.72-8.81-.89a20,20,0,0,0-5.51-.13c0,.39-.07.79-.12,1.19.28,0,.7,0,1.26.07a15.35,15.35,0,0,1,2.83.52,7.41,7.41,0,0,1-2.12-.07c-.89-.13-1.52-.22-2-.24-.09.71-.2,1.41-.3,2.12s-.18,1.43-.26,2.15a37.06,37.06,0,0,1,4.59.68,17.22,17.22,0,0,0,1.72.22c.84.08,1.41.13.91.28-.69.2-5.5-.5-7.27-.76-.05.45-.09.89-.12,1.33.83,0,2.24.15,3.9.37,3.59.62,7.83,1.2,12.33,1.73C17.25,131.55,17.05,128.67,16.59,125.83Z"/><path class="12b00531-830d-4e31-aff7-f4a782707abb" d="M8,133.12c.35.24.18,3.57.19,3.79s.86.88,1.06.89,1.53-.57,1.41-.91a10.56,10.56,0,0,1-.4-2.42c-.65-10.27-.68-21.17-1.38-31.67a3.36,3.36,0,0,0-.88.29C6.8,112.45,8.56,123,4.42,132c1.5,1.28,2,1.13,3.45,1.32,0-.18,0-.28.17-.18Z"/><path class="dd87603d-98f7-48aa-b6d0-01e2bb9b98e1" d="M7.83,137.16a6.7,6.7,0,0,1,0-2.79,3.39,3.39,0,0,0,0-.78c0-.11,0-.21,0-.29-1.48-.19-1.95,0-3.45-1.32a20.52,20.52,0,0,0-1.26,3.51c0,.09,0,.2,0,.32-.1.77,4,1.66,4.21,1.79s.22-.17.48-.44Z"/><path class="dd87603d-98f7-48aa-b6d0-01e2bb9b98e1" d="M5,104v-.31S5.05,104.41,5,104Z"/><path class="dd87603d-98f7-48aa-b6d0-01e2bb9b98e1" d="M2.72,136.29A5.07,5.07,0,0,1,3,134.68a1.71,1.71,0,0,1,.12.81c.72-3.16,2.38-6.06,3-9.23,1.43-7.61.88-15.5,1.91-23.17a3.36,3.36,0,0,1,.88-.29s-3.57-.38-3.64-.28-.19.2-.23.46a6.41,6.41,0,0,0,0,.67V104c0,.45,0,.09,0-.31a3,3,0,0,0-.24-1.23,15.51,15.51,0,0,0-2.51-.82.68.68,0,0,0-.5.64c0,.54-.07.56-.08,0s-.22-.6-.37-.63a.92.92,0,0,0-1.11.92c.09,3.92.82,8.06,1.07,12,.4,6.35.45,13,.24,19.42-.09,2.78.81,3.92.81,3.92.11-.16.16-.25.28-.41a4.75,4.75,0,0,0,.09-1.16Z"/><path class="c7c0f894-6d03-4857-be7e-18d4413fba25" d="M.3,103.48c0,.32,0,.65.08,1,.08.94.47,7.7.56,8.68.06.61.12,1.23.15,1.83.33,6.42.45,13.06.28,19.56a16.11,16.11,0,0,0,.1,3.42c.27,0,.47,0,.92-.09a8.62,8.62,0,0,0,0-1,6,6,0,0,1,.32-1.69,2.17,2.17,0,0,1,.09,1.18c-.11.81-.16,1.48,0,1.55a22.46,22.46,0,0,0,4.67-.26c.25-.26,0-2.2.09-2.84a3.17,3.17,0,0,0,0-.75c0-.36,0-.59.17-.44s.12,3.54.12,3.77,1.09.42,1.29.43.56-.14.44-.49A8.63,8.63,0,0,1,9.29,135c-.1-10.2-.6-21.38-1.25-31.87a6.06,6.06,0,0,0-.67,0H7.24l-.64,0a4.68,4.68,0,0,1-.86,0A3.92,3.92,0,0,1,5.2,103c-.1,0-.16,0-.16,0,0,.19,0,2-.07,2.32s-.21-.05-.22-.82a3.63,3.63,0,0,0-.28-1.61A5.78,5.78,0,0,0,3,102.21a8.68,8.68,0,0,0-.9-.25s-.36.08-.39.62-.28.71-.3.16-.08-.55-.21-.63a.64.64,0,0,0-.34,0s-.6.34-.59.51.07.9.07.9Z"/><path class="4efb2558-b3d0-40f5-86c0-299eda332092" d="M1.71,102.26v.09h0v-.08Z"/><path class="4efb2558-b3d0-40f5-86c0-299eda332092" d="M1.71,102.25Z"/><path class="4efb2558-b3d0-40f5-86c0-299eda332092" d="M3.25,102.31l0-.1s0,.07,0,.09Z"/><path class="4efb2558-b3d0-40f5-86c0-299eda332092" d="M6.9,103.11v0Z"/><path class="fdfc62fe-4dae-4cb1-ac99-4f81248b4a92" d="M3.08,137.87s.11-3.41.06-4a104.5,104.5,0,0,1,.09-10.45,2.41,2.41,0,0,1,0-.31,15.71,15.71,0,0,0,0-1.81c0-1.79-.2-4.33-.26-4.94-.43-4.68-1.31-14-1.31-14h0a8.17,8.17,0,0,0,0,1,29.08,29.08,0,0,0,.36,3.3A102.38,102.38,0,0,1,3,118.84a13.42,13.42,0,0,1,0,1.71,5.18,5.18,0,0,0,0,.72c.1,4.7.23,9.53,0,14.19a16,16,0,0,0,.13,2.41Z"/><path class="fdfc62fe-4dae-4cb1-ac99-4f81248b4a92" d="M.54,102.16h0ZM2,132.86s0-2.88,0-3.43c-.23-3.29,0-6.84-.12-10.26v-.27c0-.33,0-.9,0-1.55-.07-1.45-.22-3.35-.26-3.78-.4-3.77-.8-7.57-1-11.36v0s0,.38,0,.86.12,1.51.24,2.41c.46,3.27.62,6.71.81,10a13.61,13.61,0,0,1,0,1.42c0,.13,0,.34,0,.61.22,4.39.37,8.9.29,13.27,0,.83.1,2.07.1,2.07Z"/><path class="fdfc62fe-4dae-4cb1-ac99-4f81248b4a92" d="M5.87,137.63c0-.11-.32-2-.37-2.58s-.43-5.77-.49-6.52c-.21-3.06-.54-6.17-.75-9.22-.35-5.29-.93-16.06-.93-16.06s.56,13.42,1,20.08c.18,3.11.4,7.8.5,8.75s1,5.38,1.08,5.55h0Z"/><path class="fdfc62fe-4dae-4cb1-ac99-4f81248b4a92" d="M8.16,116.32a70.86,70.86,0,0,0-.23,12.35c.06,1.21.68,6.64.71,7.33a2.7,2.7,0,0,0,.41,1.26c.76-1.56-.66-5.89-1-8.83,0-.12,0-2.19,0-2.34a65,65,0,0,1,.07-9.77Z"/><path class="fdfc62fe-4dae-4cb1-ac99-4f81248b4a92" d="M7.48,137.63h0s-.1-.24-.2-.43a53.92,53.92,0,0,1-.93-5.46c0-.88-.12-3.55-.18-4,0,0,0,0,0,0s0,4.14-.08,4.68a25.3,25.3,0,0,0,.79,5.3,2.1,2.1,0,0,0,.61,0Z"/><path class="fdfc62fe-4dae-4cb1-ac99-4f81248b4a92" d="M6.94,107.78c0-2.23,0-4.37,0-4.67h0c-.07,5.13-.12,10.28-.05,15.4,0,.82,0,7.84,0,7.84s-1-3.13-1.16-4c-.83-5-.64-10.6-1.18-15.76-.08-.81-.92-4.15-.92-4.15s.41,2.59.63,4.28c.65,5.2.15,10.89,1.36,16.09a24.22,24.22,0,0,0,1.31,4.31C7,124.08,7,121,7,118c0-3.38,0-6.78,0-10.17Z"/><path class="fdfc62fe-4dae-4cb1-ac99-4f81248b4a92" d="M5.17,106.13a8.27,8.27,0,0,0-.2-.84s.09.34.2.84Zm.9-2.88h0s-.15,3.14-.13,4.3c.07,3.63.17,10.89.17,10.89l-.94-12.31s.09.53.13.87c.51,4.44,1,13.62,1,13.62S6.13,109,6.07,103.25Z"/><path class="bda41309-84fe-43c8-9a7d-e7a8d1f9eb92" d="M138.13,138c-.85.41-8.59.49-9.07.52a3.41,3.41,0,0,0-1.72,1c0,.18,1.46,1.41,2.18,1.28a43.35,43.35,0,0,1,5-.4c21.48.11,61.54-4,61.54-4l-1.1-1-53.4-1.71-3.8,4.16c.48,0,.69,0,.33.18Z"/><path class="dd87603d-98f7-48aa-b6d0-01e2bb9b98e1" d="M128.46,138.15a39.53,39.53,0,0,1,6.6-.25c.63,0,1.37,0,2-.07.29,0,.55,0,.76,0l3.8-4.16-9.45-.49-.68,0c-1.61,0-3.45,4.34-4,4.6-.06.27.38.18,1,.38Z"/><path class="dd87603d-98f7-48aa-b6d0-01e2bb9b98e1" d="M192.11,131.57l.51,0Z"/><path class="dd87603d-98f7-48aa-b6d0-01e2bb9b98e1" d="M130.55,132.81a18.75,18.75,0,0,1,3.31.05,7.09,7.09,0,0,1-1.71.28l62.85,2.2,1.1,1s-1-4.52-1.31-4.62a2.72,2.72,0,0,0-1-.25c-.2,0-.69,0-1.14,0l-.51,0,.51,0a5.62,5.62,0,0,0,1.87-.37c.23-.14-.44-2.07-.44-2.07a2.39,2.39,0,0,0-1.43-.35c-1,0-1,0-.05-.07s.94-.23.93-.37a1.91,1.91,0,0,0-1.57-1.48c-.56,0-16,1.47-21,1.82-6.12.18-30.67,1.88-35.81,2.14s-7.51,1.9-7.51,1.9l.69.23a15.85,15.85,0,0,0,2.25-.11Z"/><path class="42e5c5fe-34df-4501-b3f7-f2bc8ab44891" d="M190.18,127l-1.79.16c-1.71.18-13.55.79-15.27.94-1.07.09-2.15.18-3.22.25-6.12.19-30.67,1.88-35.81,2.15s-6.37.92-6.37.92l-.12,1.28s.64,0,1.91-.19a19.5,19.5,0,0,1,3.32.06,8.74,8.74,0,0,1-2.39.31,8.86,8.86,0,0,0-3,.29,11,11,0,0,0,0,4.69,37.38,37.38,0,0,1,6.59-.25c.64,0,1.38,0,2-.07,1-.07,1.61-.12,1.09.13-.85.41-8.59.5-9.07.52s-.72,1-.7,1.18.37.48,1.08.35a43.6,43.6,0,0,1,5.05-.4c21.47.11,61.54-4,61.54-4s-.08-.34-.2-.81l0-.16c-.07-.25-.14-.53-.22-.81s-.22-.79-.34-1.13a4.37,4.37,0,0,0-.29-.75c-.06-.12-.11-.19-.15-.19-.33,0-3.3.12-3.79.1s-.1-.22,1.11-.28a7.17,7.17,0,0,0,2.38-.4c.13-.08,0-.72,0-1.25s-.14-.71-.14-.71a2.15,2.15,0,0,0-1.32-.28c-1,0-1.39-.2-.43-.26s.93-.1,1-.23,0-.24,0-.36-.36-1-.66-1-1.69.19-1.69.19Z"/><path class="ab54997c-bf65-461a-bba7-748c606eea09" d="M190.28,131.86c0-.09,0-.18.05-.27H190c-.37,0-.23-.13.39-.22.16-.94.32-1.88.54-2.81a13.62,13.62,0,0,0,.3-1.65l-1,.12-1.79.16c-1,.11-5.91.38-9.9.61-.59,3.09-1.35,6.15-1.94,9.24,5.22-.44,9.76-.86,13-1.17C189.83,134.53,190.05,133.2,190.28,131.86Z"/><path class="4efb2558-b3d0-40f5-86c0-299eda332092" d="M192.55,128.68h0Z"/><path class="4efb2558-b3d0-40f5-86c0-299eda332092" d="M192.57,128.68Z"/><path class="4efb2558-b3d0-40f5-86c0-299eda332092" d="M193.46,129.89l.14,0h-.15v0Z"/><path class="4efb2558-b3d0-40f5-86c0-299eda332092" d="M194.65,134h0Z"/><g class="badb231d-9ebd-432a-99bb-dbf0a8323a13"><path class="fdfc62fe-4dae-4cb1-ac99-4f81248b4a92" d="M127.34,133.48s7-.46,8.25-.66,19.19-1.47,23.18-1.68l.65,0c.82,0,2.13-.07,3.58-.15,3.23-.17,7.17-.43,8.06-.5,1.23-.11,19.73-1.69,21.35-1.78h0c-.3,0-.92,0-1.75.06-1.38.07-3.31.21-5.23.49-2.58.36-15.79,1.17-18.66,1.31-1.13.06-2.23.09-3.25.08-.33,0-.81,0-1.42.05-6.08.31-28,2.13-29.86,2.22-2,.11-4.87.58-4.87.58Z"/><path class="fdfc62fe-4dae-4cb1-ac99-4f81248b4a92" d="M192.37,127.46h0Zm-55.14,3.91s5.62-.37,6.64-.53,16.12-1.16,19.33-1.32l.52,0c.67,0,1.72-.06,2.89-.12,2.6-.14,5.77-.34,6.48-.41,1-.08,18-1.45,19.18-1.51h.09c-.1,0-.69,0-1.55.05-1.1.06-2.66.17-4.21.39-2.07.29-14.68,1-17,1.15-.91,0-1.79.07-2.61.06l-1.15,0c-4.88.26-23.23,1.69-24.7,1.77s-3.92.46-3.92.46Z"/><path class="fdfc62fe-4dae-4cb1-ac99-4f81248b4a92" d="M127.19,136.26c.21,0,4.47-.65,5.91-.81s18.15-1.9,20.07-2.1,14.22-1.51,15.91-1.64c1.3-.11,19.36-1.35,22.86-1.69-3.91.3-25.39,1.62-29.54,2-5,.44-17.69,1.65-20.56,2s-14.32,2.2-14.64,2.26Z"/><path class="fdfc62fe-4dae-4cb1-ac99-4f81248b4a92" d="M170.1,137.53c-1.31-.25-18.5,0-21.31.11s-16.12,1.07-17.64,1.15a8.94,8.94,0,0,0-2.71.46c.23-.15,14.2-1,20.3-1.33.26,0,4,.05,4.32,0,6.27-.33,17-.43,17-.43Z"/><path class="fdfc62fe-4dae-4cb1-ac99-4f81248b4a92" d="M127.43,137.89h0l.87-.23s12.66-1.84,15.94-2.06,11.86-1.08,13.06-1.23h.08c-.28,0-13.31,1-15.41,1.09s-13.56,1.54-14.66,1.87a2.42,2.42,0,0,0,.12.57Z"/><path class="fdfc62fe-4dae-4cb1-ac99-4f81248b4a92" d="M186.86,134.37l7.79-.42h0c-.94,0-22.18.87-23.33.93s-12.62.52-12.62.52,6.93-1.77,8.12-2.06,19.76-1.92,20.87-2.07,5.79-1.08,5.79-1.08-3.91.48-6.22.83-17.32,1.15-21.26,2.22-9.22,2.35-9.22,2.35,11.42-.37,15-.51c1.21,0,13.16-.6,15.05-.7Z"/><path class="fdfc62fe-4dae-4cb1-ac99-4f81248b4a92" d="M188.84,131.86c.78-.16,1.13-.27,1.13-.27l-1.13.27Zm5.29,1h0s-5.17,0-6.86.08-16.15.78-14.79.66c1-.08,14.56-1.33,16.36-1.76-.31.07-.7.14-1.16.22-1.59.26-20.32,2-18.39,2s24.68-1.17,24.84-1.18Z"/></g><path class="6b25ed6c-14be-495f-a691-ab56e8d9e53a" d="M190.79,110.1c-.18-.49.87-4.42.92-4.66a1.66,1.66,0,0,0-.51-1c-.13,0-1.26.54-1.26.91a15.92,15.92,0,0,1-.43,2.62c-3.16,10.84-5.84,31.71-5.84,31.71l.92-.4,8.93-26.75L191,110c-.06.25-.11.35-.19.14Z"/><path class="dd87603d-98f7-48aa-b6d0-01e2bb9b98e1" d="M192,105.19a14.52,14.52,0,0,1-.75,3.37,7.76,7.76,0,0,0-.24,1c0,.15-.05.28-.07.39l2.54,2.54,1.73-4.7c0-.11,0-.23.07-.35.2-.82-2.74-2.39-2.85-2.71-.19-.07-.19.17-.43.45Z"/><path class="dd87603d-98f7-48aa-b6d0-01e2bb9b98e1" d="M187.81,138.35c0,.09,0,.18-.05.26C187.83,138.27,187.88,138,187.81,138.35Z"/><path class="dd87603d-98f7-48aa-b6d0-01e2bb9b98e1" d="M195.72,107a6.52,6.52,0,0,1-.52,1.66,2.67,2.67,0,0,1,.05-.9l-10.66,31.45-.92.4a36.13,36.13,0,0,0,3.62,0c.2-.24.25-.25.33-.49a5.56,5.56,0,0,0,.14-.58c0-.08,0-.17.05-.26.07-.37,0-.08-.05.26a2.37,2.37,0,0,0,0,1,6.42,6.42,0,0,0,1.61.09,1.12,1.12,0,0,0,.47-.67c.14-.49.16-.51.06,0s0,.51.14.53a1.37,1.37,0,0,0,1.32-.58c.09-.28,1.21-8.32,1.66-10.88.75-3.12,3-15.79,3.55-18.43a6,6,0,0,0-.34-4.08l-.27.31a5.73,5.73,0,0,0-.24,1.16Z"/><path class="c7c0f894-6d03-4857-be7e-18d4413fba25" d="M191.47,138.05c0-.31.09-.62.13-.93.12-.89,1.36-7,1.49-7.86.09-.56.18-1.11.28-1.67.74-3.12,3-15.78,3.54-18.42s.23-3.36.23-3.36l-.94-.25a9.47,9.47,0,0,0-.13,1,7.15,7.15,0,0,1-.52,1.66,3.06,3.06,0,0,1,.12-1.25,3.37,3.37,0,0,0,.21-1.59,12.39,12.39,0,0,0-3.49-.68,14.37,14.37,0,0,1-.76,3.37,6.24,6.24,0,0,0-.23,1c-.09.49-.15.83-.26.53-.18-.49.86-4.42.91-4.67s-.63-.51-.77-.52-.41.11-.42.49a14.8,14.8,0,0,1-.43,2.61c-3.16,10.84-5.84,31.72-5.84,31.72l.63,0h1.65l.6,0c.1,0,.16,0,.16-.06s.39-1.68.47-1.93.18,0,.06.6a2.63,2.63,0,0,0,0,1.27,2.67,2.67,0,0,0,.93.17l.55,0a.93.93,0,0,0,.4-.63c.14-.49.35-.67.25-.17s-.05.48,0,.55.18,0,.27,0,.8,0,.83-.19.1-.88.1-.88Z"/><path class="4efb2558-b3d0-40f5-86c0-299eda332092" d="M189.9,139l0-.09v0a.43.43,0,0,1,0,.05Z"/><path class="4efb2558-b3d0-40f5-86c0-299eda332092" d="M189.9,139Z"/><path class="4efb2558-b3d0-40f5-86c0-299eda332092" d="M188.87,139.28v.08a.28.28,0,0,0,0-.08Z"/><path class="4efb2558-b3d0-40f5-86c0-299eda332092" d="M185.68,139.28v0Z"/><path class="fdfc62fe-4dae-4cb1-ac99-4f81248b4a92" d="M195.68,105.32s-.66,3.59-.69,4.27-1.66,9.91-2.08,12c0,.13,0,.24-.07.33-.11.41-.25,1.09-.4,1.83-.34,1.66-.72,3.69-.79,4.15-.09.64-1.58,10.23-1.74,11.06v0c0-.15.11-.47.2-.89a21.81,21.81,0,0,0,.39-2.72c.1-1.35,1.4-8.15,1.7-9.63.12-.58.25-1.14.4-1.65.06-.17.11-.42.18-.73.63-3.11,2.43-14.49,2.62-15.43a19.73,19.73,0,0,0,.27-2.54Z"/><path class="fdfc62fe-4dae-4cb1-ac99-4f81248b4a92" d="M190.84,139.1h0Zm5-28.47s-.54,2.89-.57,3.44-1.45,8.32-1.78,10c0,.11,0,.2-.06.27-.09.33-.21.87-.33,1.47-.27,1.34-.57,3-.63,3.34s-1.49,9.3-1.62,9.93v0c0-.05.09-.35.18-.79a19.18,19.18,0,0,0,.31-2.19c.09-1.09,1.35-7.57,1.59-8.76a11.75,11.75,0,0,1,.33-1.33c0-.14.08-.34.13-.58.51-2.51,2.08-12,2.23-12.76a16.84,16.84,0,0,0,.23-2.05Z"/><path class="fdfc62fe-4dae-4cb1-ac99-4f81248b4a92" d="M193.63,104.82c0,.11-.16,2.36-.24,3.11s-1.19,9.46-1.32,10.46-.91,7.42-1.06,8.29c-.11.68-1.78,10-2,11.81.34-2,2.43-13.07,2.76-15.23.39-2.61,1.3-9.19,1.47-10.69s.41-7.57.41-7.74h0Z"/><path class="fdfc62fe-4dae-4cb1-ac99-4f81248b4a92" d="M186.53,126.33c.38-.62,2.68-9.35,3-10.79s1.51-8.31,1.68-9.09a3.42,3.42,0,0,0,0-1.44c.08.14-1.32,7.32-1.92,10.46,0,.14-.62,2-.65,2.18-.66,3.22-2.13,8.68-2.13,8.68Z"/><path class="fdfc62fe-4dae-4cb1-ac99-4f81248b4a92" d="M192.39,104.7h0s0,.26,0,.47c0,0-.44,6.68-.75,8.38s-.9,6.15-1,6.78v0c0-.15,1.18-6.88,1.4-8a75.7,75.7,0,0,0,.71-7.7,4.37,4.37,0,0,0-.44,0Z"/><path class="fdfc62fe-4dae-4cb1-ac99-4f81248b4a92" d="M186.48,135.28c-.37,1.8-.75,3.72-.8,4h0c.11-.49,2.54-11.35,2.66-11.94s1.42-6.46,1.42-6.46.33,3.77.37,4.41-1.4,10.28-1.45,10.87,0,3.08,0,3.08.21-2,.28-3.26,1.62-8.94,1.39-11.09-.42-5-.42-5-1.37,5.83-1.78,7.68c-.14.62-1.44,6.74-1.64,7.72Z"/><path class="fdfc62fe-4dae-4cb1-ac99-4f81248b4a92" d="M188.06,136.65a5.23,5.23,0,0,0,0,.61s0-.24,0-.61Zm-1.51,2.52h0s.74-2.61.92-3.47,1.74-8.29,1.63-7.58c-.08.51-1.09,7.56-1,8.53,0-.17,0-.37,0-.62,0-.84,1.39-10.57,1.16-9.59s-2.67,12.65-2.68,12.73Z"/><path class="04cda34f-b29e-4951-8701-ff8590ee49f9" d="M185.59,138.1c-.13-.87,3.32-22.06,4-24.8s1-4.54,1.17-2.87,1.25-3,1.7-4.81a4.82,4.82,0,0,1,.3-.9,3,3,0,0,0-.36,0,14.37,14.37,0,0,1-.76,3.37,6.24,6.24,0,0,0-.23,1c-.09.49-.15.83-.26.53-.18-.49.86-4.42.91-4.67s-.63-.51-.77-.52-.41.11-.42.49a14.8,14.8,0,0,1-.43,2.61c-3.16,10.84-5.84,31.72-5.84,31.72l.63,0h.83C185.65,139.05,185.68,138.73,185.59,138.1Z"/><path class="e1f5cdf7-c2a9-4419-ad8f-578f0c4e0761" d="M195.39,106.31c-.18,1.73-1.24,7.69-.53,5.88s-.31,5-1.13,9.07-3,14.18-2.83,12.51-.08-.54-.6,1.58A13.91,13.91,0,0,1,189,139a2.08,2.08,0,0,0-.13.26l.16,0,.55,0a.93.93,0,0,0,.4-.63c.14-.49.35-.67.25-.17s-.05.48,0,.55.18,0,.27,0,.8,0,.83-.19.1-.88.1-.88c0-.31.09-.62.13-.93.12-.89,1.36-7,1.49-7.86.09-.56.18-1.11.28-1.67.74-3.12,3-15.78,3.54-18.42s.23-3.36.23-3.36l-.94-.25a9.47,9.47,0,0,0-.13,1,7.15,7.15,0,0,1-.52,1.66,3.06,3.06,0,0,1,.12-1.25,3.37,3.37,0,0,0,.21-1.59,5.66,5.66,0,0,0-.88-.29A1.34,1.34,0,0,1,195.39,106.31Z"/><path class="ab54997c-bf65-461a-bba7-748c606eea09" d="M189.06,113a15.43,15.43,0,0,0,1.63-.28c.41-.1,1.92-.2,2-.59A.21.21,0,0,1,193,112a4.69,4.69,0,0,0,2.52-.15,3.17,3.17,0,0,0,1-.48c.18-1,.33-1.72.42-2.17.54-2.64.23-3.36.23-3.36l-.94-.25a9.47,9.47,0,0,0-.13,1,7.15,7.15,0,0,1-.52,1.66,3.06,3.06,0,0,1,.12-1.25,3.37,3.37,0,0,0,.21-1.59,12.39,12.39,0,0,0-3.49-.68,14.37,14.37,0,0,1-.76,3.37,6.24,6.24,0,0,0-.23,1c-.09.49-.15.83-.26.53-.18-.49.86-4.42.91-4.67s-.63-.51-.77-.52-.41.11-.42.49a14.8,14.8,0,0,1-.43,2.61C190,109.15,189.5,111,189.06,113Z"/><path class="a5fbdef5-099b-43ce-b70c-608e049fcd1e" d="M145.65,77.08c.79.33,7.79,0,8.23,0a3.09,3.09,0,0,1,1.62.86c0,.17-1.24,1.41-1.9,1.33a38.6,38.6,0,0,0-4.58-.09c-19.41,1.32-86.24-1-86.24-1l.93-1,78.54-3.94,3.69,3.7c-.44,0-.63,0-.29.19Z"/><path class="dd87603d-98f7-48aa-b6d0-01e2bb9b98e1" d="M154.4,76.7a34.61,34.61,0,0,0-6,.14c-.57,0-1.24,0-1.8,0-.26,0-.49,0-.68,0l-3.69-3.7,8.51-1h.62c1.46-.06,3.38,3.89,3.88,4.1.08.26-.33.2-.86.42Z"/><path class="dd87603d-98f7-48aa-b6d0-01e2bb9b98e1" d="M66.1,73.42h-.46C66.24,73.41,66.76,73.41,66.1,73.42Z"/><path class="dd87603d-98f7-48aa-b6d0-01e2bb9b98e1" d="M152.19,71.78a17,17,0,0,0-3,.24,6.46,6.46,0,0,0,1.56.16l-87,4.95-.93,1a31.61,31.61,0,0,1,.91-4.42,2.24,2.24,0,0,1,.92-.29c.17,0,.62,0,1,0h.46c.66,0,.14,0-.46,0a5.13,5.13,0,0,1-1.72-.23c-.21-.13.28-2,.28-2a2.08,2.08,0,0,1,1.27-.42c.87,0,.92-.07,0-.06s-.87-.17-.86-.3A1.76,1.76,0,0,1,66,68.94c.51,0,14.57.47,19.09.52,5.54-.18,58.2.72,62.86.69s6.91,1.35,6.91,1.35l-.61.27a13.21,13.21,0,0,1-2,0Z"/><path class="964bd218-46dd-4581-88db-5953a015a6ca" d="M67.57,69c.54,0,1.09,0,1.62.06,1.56.07,12.31,0,13.86,0q1.47,0,2.94.06c5.54-.18,58.2.73,62.86.68s5.82.51,5.82.51l.19,1.2s-.59,0-1.75-.07a17,17,0,0,0-3,.24,7.69,7.69,0,0,0,2.18.16,7.86,7.86,0,0,1,2.76.1,10.86,10.86,0,0,1,.25,4.43,33.63,33.63,0,0,0-6,.13c-.57.06-1.24,0-1.8,0-.86,0-1.46,0-1,.19.79.34,7.79,0,8.23,0s.7.9.7,1.07-.3.47-1,.39a37.26,37.26,0,0,0-4.59-.08c-19.4,1.32-86.24-1-86.24-1s.06-.32.14-.77a1.1,1.1,0,0,1,0-.16c0-.23.09-.5.14-.77s.16-.76.24-1.09a5.1,5.1,0,0,1,.22-.73c0-.11.09-.18.13-.18.29,0,3-.07,3.42-.11s.08-.22-1-.21a6.27,6.27,0,0,1-2.18-.24c-.12-.07-.09-.68,0-1.18s.09-.67.09-.67a1.83,1.83,0,0,1,1.17-.35c.88,0,1.24-.27.37-.26s-.85,0-.94-.16,0-.23,0-.35.26-1,.53-1,1.54.08,1.54.08Z"/><path class="4efb2558-b3d0-40f5-86c0-299eda332092" d="M65.53,70.72h.09a.27.27,0,0,0-.09,0Z"/><path class="4efb2558-b3d0-40f5-86c0-299eda332092" d="M65.51,70.72Z"/><path class="4efb2558-b3d0-40f5-86c0-299eda332092" d="M64.78,71.9l-.13,0h.13Z"/><path class="4efb2558-b3d0-40f5-86c0-299eda332092" d="M64,75.8h0Z"/><g class="badb231d-9ebd-432a-99bb-dbf0a8323a13"><path class="fdfc62fe-4dae-4cb1-ac99-4f81248b4a92" d="M155.13,72.23s-6.34,0-7.5-.15-47.8-1-51.42-1h-.59c-.74,0-1.93.06-3.25.06-2.93,0-6.5,0-7.31,0-1.12,0-17.93-.47-19.4-.47h0c.26,0,.83,0,1.58,0,1.24,0,3,0,4.76.15C74.38,71,86.36,71,89,71c1,0,2,0,2.94-.12.3,0,.74,0,1.29,0C98.71,70.82,149,72,150.69,72c1.82,0,4.44.26,4.44.26Z"/><path class="fdfc62fe-4dae-4cb1-ac99-4f81248b4a92" d="M65.61,69.55h0Zm80.45,1.26s-2.1-.23-3.57-.21-48.37-1-52.81-1c-.44,0-.79,0-1,0-.74,0-1.54.08-2.37.09-2.09,0-13.53,0-15.42-.12-1.42-.11-2.83-.13-3.83-.12-.78,0-1.31,0-1.4,0h.07c1.1,0,16.53.31,17.44.34.64,0,3.52,0,5.88,0,1.06,0,2,0,2.61-.05h.48c2.9,0,47,.76,47.92.84s6,.13,6,.13Z"/><path class="fdfc62fe-4dae-4cb1-ac99-4f81248b4a92" d="M155.43,74.85c-.19,0-4.08-.36-5.38-.43l-18.27-.84c-1.75-.07-43.32-1.32-44.85-1.34-1.19,0-17.58-.17-20.77-.3,3.55.06,23,.09,26.82.2,4.58.13,46.46,1.25,49.08,1.4s13.08,1.27,13.36,1.31Z"/><path class="fdfc62fe-4dae-4cb1-ac99-4f81248b4a92" d="M86.35,77.78c1.17-.31,47.09-.38,49.64-.41s14.64.1,16,.08a7.78,7.78,0,0,1,2.47.28c-.21-.12-12.89-.1-18.42-.1-.24,0-3.64.28-3.91.29-5.68,0-45.8-.14-45.8-.14Z"/><path class="fdfc62fe-4dae-4cb1-ac99-4f81248b4a92" d="M155.31,76.4h0l-.79-.17s-11.56-1-14.54-1-10.78-.34-11.87-.42H128c.26,0,12.09.16,14,.15s12.36.68,13.37.93a1.94,1.94,0,0,1-.08.55Z"/><path class="fdfc62fe-4dae-4cb1-ac99-4f81248b4a92" d="M71,75.76c-3.18,0-6.58,0-7.06,0h0c.86,0,20.11-.45,21.15-.46s11.44-.22,11.44-.22l-7.46-1.49c-1.09-.2-18-.68-19-.76s-5.3-.69-5.3-.69,3.57.23,5.67.43,15.74.11,19.36.89,38.85,2.39,38.85,2.39-40.72-.4-44-.33c-1.1,0-11.93.18-13.65.2Z"/><path class="fdfc62fe-4dae-4cb1-ac99-4f81248b4a92" d="M69.07,73.5l-1-.18s.33.08,1,.18Zm-4.71,1.26c.14,0,20.77-.23,22.51-.29s-15.28-.67-16.73-.83c-.43,0-.78-.09-1.07-.14,1.66.3,14,.71,14.9.74,1.23,0-11.89.2-13.42.21s-6.19.31-6.19.31Z"/></g><path class="ab54997c-bf65-461a-bba7-748c606eea09" d="M154.8,76.74c-.23,0-2.21.1-4.19.15.26.22.33.5.93.5a38.53,38.53,0,0,1,3.91.18C155.36,77.25,155.13,76.74,154.8,76.74Z"/><path class="ab54997c-bf65-461a-bba7-748c606eea09" d="M146.88,71.3c-.17.57-1,1.84-.28,2.17a.17.17,0,0,1,.05.26c-.35.46-1,1-.41,1.51.14.13.3.25.27.45s-.32.51-.59.74c1.14.13,2.27-.11,3.41,0l.19,0a32.91,32.91,0,0,1,5.79-.11,10.86,10.86,0,0,0-.25-4.43,7.86,7.86,0,0,0-2.76-.1,7.69,7.69,0,0,1-2.18-.16,17,17,0,0,1,3-.24c1.16.08,1.75.07,1.75.07l-.19-1.2s-1.15-.54-5.82-.51h-1.56C147.16,70.33,147,70.82,146.88,71.3Z"/><path class="ab54997c-bf65-461a-bba7-748c606eea09" d="M72.52,76.15A6.47,6.47,0,0,0,72,73.84a.88.88,0,0,1,0-.76,2.24,2.24,0,0,0,.06-.9c-.11.07-.26.08-.3-.06l-.78-2.61a.17.17,0,0,1,0-.1,2.83,2.83,0,0,0-.11-.31l-1.63,0c-.53,0-1.08,0-1.62-.06,0,0-1.27-.08-1.54-.08s-.53,1-.53,1-.08.26,0,.35.07.17.94.16.51.21-.37.26a1.83,1.83,0,0,0-1.17.35s0,.29-.09.67-.08,1.11,0,1.18a6.27,6.27,0,0,0,2.18.24c1.09,0,1.45.16,1,.21s-3.13.11-3.42.11c0,0-.09.07-.13.18a5.1,5.1,0,0,0-.22.73c-.08.33-.16.71-.24,1.09s-.1.54-.14.77a1.1,1.1,0,0,0,0,.16c-.06.33-.11.59-.12.71A35.07,35.07,0,0,1,72.52,76.15Z"/><path class="21716a3f-b1de-4760-ae32-10763012443b" d="M153.1,75.68c-.79.24-6.92-.87-7.3-.92a3.22,3.22,0,0,0-1.66.68c0,.17.73,1.53,1.32,1.52a29.94,29.94,0,0,1,4.1.41c16.89,3.4,49.72,5.73,49.72,5.73L198.72,82l-41.57-9.78-4.25,3.27c.38.05.54.11.2.22Z"/><path class="dd87603d-98f7-48aa-b6d0-01e2bb9b98e1" d="M145.43,74.36a26.56,26.56,0,0,1,5.27.78,12.31,12.31,0,0,0,1.58.24l.62.08,4.25-3.27-7.3-1.91-.55-.08c-1.28-.21-4,3.5-4.53,3.65-.13.25.24.23.66.51Z"/><path class="dd87603d-98f7-48aa-b6d0-01e2bb9b98e1" d="M197.58,78l.41,0Z"/><path class="dd87603d-98f7-48aa-b6d0-01e2bb9b98e1" d="M148.69,69.72a12.4,12.4,0,0,1,2.59.56,5.8,5.8,0,0,1-1.43,0L198.72,82l.56,1.13a33.91,33.91,0,0,0,.35-4.49,1.55,1.55,0,0,0-.74-.38c-.14,0-.54-.1-.9-.15l-.41,0,.41,0a4.34,4.34,0,0,0,1.58,0c.23-.1.28-2,.28-2a1.54,1.54,0,0,0-1-.55c-.76-.14-.79-.17,0-.07s.82-.07.84-.19a1.44,1.44,0,0,0-.78-1.62c-.45-.1-13.08-1.1-17.1-1.54-4.88-.77-24.74-3-28.87-3.51a12.32,12.32,0,0,0-6.49.6l.47.33a10.73,10.73,0,0,0,1.81.23Z"/><path class="c7c0f894-6d03-4857-be7e-18d4413fba25" d="M197.42,73.52,196,73.4c-1.4-.1-10.92-1.35-12.32-1.48-.87-.07-1.75-.16-2.62-.26-4.87-.77-24.73-3-28.86-3.51s-5.3-.12-5.3-.12l-.49,1.17s.52.07,1.57.12a12.56,12.56,0,0,1,2.6.56,6.22,6.22,0,0,1-2-.09,6.59,6.59,0,0,0-2.49-.19A13.18,13.18,0,0,0,144.69,74a25.84,25.84,0,0,1,5.28.78c.49.11,1.09.18,1.58.24.77.08,1.3.14.82.29-.8.25-6.92-.86-7.31-.91s-.86.81-.9,1,.14.51.75.49a31.76,31.76,0,0,1,4.09.41c16.9,3.4,49.72,5.73,49.72,5.73s0-.32.09-.78a.76.76,0,0,1,0-.15c0-.25.05-.51.07-.79s.06-.77.08-1.1,0-.58,0-.74,0-.2-.07-.2c-.26,0-2.64-.39-3-.48s0-.23,1-.1a5.39,5.39,0,0,0,2,0c.13-.06.26-.66.35-1.17s.1-.68.1-.68-.19-.32-1-.46-1-.41-.26-.3.77,0,.88-.06.08-.23.09-.35,0-1-.22-1-1.4-.09-1.4-.09Z"/><path class="4efb2558-b3d0-40f5-86c0-299eda332092" d="M198.79,75.42l-.13,0h.13Z"/><polygon class="4efb2558-b3d0-40f5-86c0-299eda332092" points="198.81 75.42 198.81 75.42 198.8 75.42 198.81 75.42 198.81 75.42"/><path class="4efb2558-b3d0-40f5-86c0-299eda332092" d="M199.15,76.68h0v0Z"/><path class="4efb2558-b3d0-40f5-86c0-299eda332092" d="M198.86,80.63h0Z"/><path class="fdfc62fe-4dae-4cb1-ac99-4f81248b4a92" d="M146,69.85s5.64.65,6.7.66,15.56,1.58,18.77,2l.52.07c.65.11,1.7.26,2.87.41,2.6.34,5.78.71,6.5.77,1,.09,16.05,1.47,17.36,1.63h0l-1.4-.21c-1.1-.14-2.67-.31-4.27-.35-2.14-.06-12.79-1.34-15.1-1.65-.91-.12-1.78-.26-2.59-.43-.26-.05-.64-.11-1.13-.17-4.88-.64-22.73-2.33-24.2-2.52-1.62-.21-4-.22-4-.22Z"/><path class="fdfc62fe-4dae-4cb1-ac99-4f81248b4a92" d="M199,74.25h0Zm-44.64-4.84s4.53.53,5.39.53,13.05,1.41,15.63,1.75l.42.06c.53.09,1.37.21,2.31.33,2.09.27,4.65.57,5.23.62.81.07,14.6,1.42,15.57,1.55H199c-.08,0-.54-.09-1.23-.18-.89-.12-2.15-.25-3.43-.29-1.73,0-11.88-1.3-13.74-1.55-.73-.09-1.43-.21-2.08-.34-.21,0-.52-.09-.91-.14-3.93-.52-18.82-2-20-2.16s-3.22-.18-3.22-.18Z"/><path class="fdfc62fe-4dae-4cb1-ac99-4f81248b4a92" d="M145,72.41c.17,0,3.72.09,4.89.16s14.89,1,16.46,1.14,11.66.78,13,.91c1.06.11,15.66,1.73,18.53,1.95-3.17-.33-20.5-2.4-23.88-2.7-4.1-.36-14.44-1.18-16.81-1.31s-11.95-.16-12.22-.15Z"/><path class="fdfc62fe-4dae-4cb1-ac99-4f81248b4a92" d="M178.43,80.18c-1-.44-14.57-2.87-16.83-3.17s-13-1.49-14.25-1.65a6.6,6.6,0,0,0-2.27,0c.23-.1,11.48,1.29,16.4,1.89.21,0,3.16.67,3.39.7,5,.66,13.56,2.22,13.56,2.22Z"/><path class="fdfc62fe-4dae-4cb1-ac99-4f81248b4a92" d="M144.69,74h0l.76-.08s10.53.24,13.19.54,9.67.82,10.66.86h.07c-.24,0-10.79-1.13-12.48-1.35s-11.16-.65-12.12-.52a3.7,3.7,0,0,0-.08.55Z"/><path class="fdfc62fe-4dae-4cb1-ac99-4f81248b4a92" d="M192.59,79.83l6.27.8h0c-.76-.11-17.75-2.6-18.68-2.72l-10.1-1.46s6-.58,7-.66,16.16,1.25,17.08,1.28,4.89-.11,4.89-.11-3.23-.16-5.15-.19-14-1.59-17.43-1.2-8,.76-8,.76,9.12,1.42,12,1.84c1,.14,10.55,1.47,12.07,1.67Z"/><path class="fdfc62fe-4dae-4cb1-ac99-4f81248b4a92" d="M194.91,77.8c.66,0,1-.07,1-.07l-1,.07Zm3.86,1.76h0s-4.07-.8-5.43-1-13-1.76-11.85-1.66c.8.08,11.87,1,13.42.88l-1,0c-1.33,0-16.63-1.23-15.09-1s19.81,2.7,19.93,2.72Z"/><path class="04cda34f-b29e-4951-8701-ff8590ee49f9" d="M197,80.79c-1.4.2-34.64-3.06-38.93-3.76s-7.09-1-4.44-1.32-4.7-1.4-7.46-1.87a9.36,9.36,0,0,1-1.41-.33,2.77,2.77,0,0,0-.06.45,25.84,25.84,0,0,1,5.28.78c.49.11,1.09.18,1.58.24.77.08,1.3.14.82.29-.8.25-6.92-.86-7.31-.91s-.86.81-.9,1,.14.51.75.49a31.76,31.76,0,0,1,4.09.41c16.9,3.4,49.72,5.73,49.72,5.73s0-.32.09-.78a.76.76,0,0,1,0-.15c0-.25.05-.51.07-.79a.28.28,0,0,0,0-.09C198.49,80.67,198,80.65,197,80.79Z"/><path class="e1f5cdf7-c2a9-4419-ad8f-578f0c4e0761" d="M147.5,70.16c2.73.15,12.07,1.18,9.27.38s7.85.16,14.26,1,22.2,3,19.57,2.91-.87.13,2.44.66a24.25,24.25,0,0,1,5.71,1.43l.4.15c0-.07,0-.14,0-.21.06-.38.1-.68.1-.68s-.19-.32-1-.46-1-.41-.26-.3.77,0,.88-.06.08-.23.09-.35,0-1-.22-1-1.4-.09-1.4-.09L196,73.4c-1.4-.1-10.92-1.35-12.32-1.48-.87-.07-1.75-.16-2.62-.26-4.87-.77-24.73-3-28.86-3.51s-5.3-.12-5.3-.12l-.49,1.17s.52.07,1.57.12a12.56,12.56,0,0,1,2.6.56,6.22,6.22,0,0,1-2-.09,6.59,6.59,0,0,0-2.49-.19,6.4,6.4,0,0,0-.54,1.11A2.75,2.75,0,0,1,147.5,70.16Z"/><path class="ab54997c-bf65-461a-bba7-748c606eea09" d="M196.71,77.62a1.78,1.78,0,0,0-1.43-.71,25.45,25.45,0,0,0-4.45.26,5.07,5.07,0,0,1-1.6.07.78.78,0,0,1-.29-.14c-.32-.35-.49-.13-.85,0-.51.12-1.22-.21-1.8-.11a11,11,0,0,0-2,.46c-1.21.46-.68,2.14-.37,3.33,6.29.58,11.36,1,13.58,1.14a14.78,14.78,0,0,0-.32-3,4.79,4.79,0,0,0-.3-.95l-1-.17C195.53,77.64,195.85,77.52,196.71,77.62Z"/><path class="323b4e32-bfc6-403d-8593-1691aee2fadb" d="M12.57,75.52c-.75.37-7.31.09-7.72.09a3.1,3.1,0,0,0-1.54.94c0,.19,1.11,1.49,1.72,1.39a31.85,31.85,0,0,1,4.31-.16c18.15,1.12,62.38-.91,62.38-.91l-.84-1.09-55-4.46-3.59,4c.41,0,.59,0,.26.2Z"/><path class="dd87603d-98f7-48aa-b6d0-01e2bb9b98e1" d="M4.38,75.25a27.72,27.72,0,0,1,5.6.06,15.91,15.91,0,0,0,1.69,0h.64l3.59-4L8,70.37H7.37c-1.36,0-3.31,4.21-3.79,4.45-.08.27.31.2.8.43Z"/><path class="dd87603d-98f7-48aa-b6d0-01e2bb9b98e1" d="M68.78,71.85h.43C68.64,71.84,68.16,71.86,68.78,71.85Z"/><path class="dd87603d-98f7-48aa-b6d0-01e2bb9b98e1" d="M6.63,70a13.21,13.21,0,0,1,2.79.21A5.27,5.27,0,0,1,8,70.37l62.93,5.41.84,1.09A37.2,37.2,0,0,0,71,72.16a2,2,0,0,0-.85-.3c-.17,0-.59,0-1,0h-.43c-.62,0-.14,0,.43,0a4.53,4.53,0,0,0,1.62-.27c.21-.14-.19-2.12-.19-2.12A1.74,1.74,0,0,0,69.47,69c-.82,0-.86-.06,0-.06s.82-.19.82-.33a1.68,1.68,0,0,0-1.2-1.56c-.47,0-13.69.72-17.92.84-5.19-.11-36.08.21-40.45.23s-6.52,1.56-6.52,1.56l.56.27a10.52,10.52,0,0,0,1.91,0Z"/><path class="c7c0f894-6d03-4857-be7e-18d4413fba25" d="M67.56,67.19,66,67.27c-1.46.1-11.53.15-13,.23-.91,0-1.83.08-2.75.1-5.19-.1-36.08.21-40.45.24s-5.47.63-5.47.63l-.22,1.28s.55,0,1.64-.1a13.33,13.33,0,0,1,2.8.21,6.29,6.29,0,0,1-2,.2,6.67,6.67,0,0,0-2.6.15,13.35,13.35,0,0,0-.4,4.73,27.08,27.08,0,0,1,5.6,0,15.89,15.89,0,0,0,1.69,0c.81,0,1.36,0,.9.18-.75.37-7.31.1-7.71.1s-.7,1-.7,1.15.27.5.88.41a31.29,31.29,0,0,1,4.31-.17c18.15,1.12,62.38-.91,62.38-.91s0-.34-.09-.82l0-.17c0-.25-.06-.54-.11-.82s-.12-.81-.18-1.16-.12-.6-.17-.77-.09-.19-.12-.19c-.28,0-2.8,0-3.21-.08s-.07-.22,1-.23a5.48,5.48,0,0,0,2-.29c.12-.08.11-.72.08-1.26s-.06-.72-.06-.72a1.57,1.57,0,0,0-1.09-.35c-.82,0-1.15-.27-.33-.27s.79-.07.89-.19,0-.25,0-.37-.21-1-.47-1-1.44.11-1.44.11Z"/><path class="4efb2558-b3d0-40f5-86c0-299eda332092" d="M69.41,69h0Z"/><path class="4efb2558-b3d0-40f5-86c0-299eda332092" d="M69.43,69Z"/><path class="4efb2558-b3d0-40f5-86c0-299eda332092" d="M70.07,70.22l.13,0h-.13v0Z"/><path class="4efb2558-b3d0-40f5-86c0-299eda332092" d="M70.71,74.36h0Z"/><path class="fdfc62fe-4dae-4cb1-ac99-4f81248b4a92" d="M3.86,70.49s5.94-.13,7-.27,26.34-.34,29.73-.37h.55c.7,0,1.81,0,3,0,2.75,0,6.1-.09,6.86-.13,1.05,0,16.83-.77,18.21-.79h0l-1.48,0a43.57,43.57,0,0,0-4.47.25c-2.21.24-13.45.43-15.9.45-1,0-1.88,0-2.75-.08-.28,0-.69,0-1.21,0-5.16,0-33.87.59-35.42.6a39.8,39.8,0,0,0-4.17.35Z"/><path class="fdfc62fe-4dae-4cb1-ac99-4f81248b4a92" d="M69.37,67.72h0Zm-57,1.11s4.78-.1,5.66-.22,23.72-.17,26.45-.18c.18,0,.33,0,.44,0,.56,0,1.46,0,2.45,0,2.21,0,4.91-.08,5.52-.11.85,0,15.33-.61,16.36-.62h.07c-.08,0-.58,0-1.31,0a33.44,33.44,0,0,0-3.6.19c-1.77.19-12.5.34-14.47.35-.77,0-1.52,0-2.22-.06-.22,0-.55,0-1,0-4.15,0-29.77.37-31,.38a31.08,31.08,0,0,0-3.36.27Z"/><path class="fdfc62fe-4dae-4cb1-ac99-4f81248b4a92" d="M3.48,73.29c.18,0,3.84-.45,5.06-.54s25.51-.83,27.15-.93,12.16-.86,13.6-.91c1.11,0,16.49-.44,19.48-.63-3.33.12-21.61.44-25.15.62-4.31.21-25.09.59-27.55.79S3.76,73.24,3.48,73.29Z"/><path class="fdfc62fe-4dae-4cb1-ac99-4f81248b4a92" d="M49.63,76.81c-1.09-.31-25.62-1.14-28-1.12S7.89,76,6.59,76a6.74,6.74,0,0,0-2.32.33c.2-.14,12.09-.3,17.28-.38.22,0,13.38.48,13.63.48,5.33,0,14.45.36,14.45.36Z"/><path class="fdfc62fe-4dae-4cb1-ac99-4f81248b4a92" d="M3.53,74.94h0l.75-.19S15.16,73.49,18,73.42s20.1-.29,21.13-.39c.07,0,.09,0,.07,0l-23.11.13c-1.84,0-11.61.92-12.57,1.2a3.22,3.22,0,0,0,0,.58Z"/><path class="fdfc62fe-4dae-4cb1-ac99-4f81248b4a92" d="M64.08,74.43c3,0,6.18-.06,6.63-.07h0c-.81,0-18.84-.17-19.82-.16l-10.72-.07,7-1.7c1-.23,16.88-1,17.84-1.1s5-.81,5-.81-3.35.29-5.34.54S50,71.41,46.54,72.3s-8,1.93-8,1.93,9.69.17,12.77.19c1,0,11.18,0,12.78,0Z"/><path class="fdfc62fe-4dae-4cb1-ac99-4f81248b4a92" d="M66,72a8.42,8.42,0,0,0,1-.22L66,72Zm4.37,1.27h0S66,73,64.56,73s-13.73,0-12.57,0c.85,0,12.44-.66,14-1-.27.05-.61.11-1,.16-1.36.2-17.36,1.1-15.72,1.14s21,0,21.1,0Z"/><path class="3309b83d-0218-4f2e-89c6-d935cff3b61c" d="M192.15,75.77c-.26-.54.18-5.24.19-5.53a2,2,0,0,0-.67-1.1c-.14,0-1.19.81-1.13,1.25a22.41,22.41,0,0,1,0,3.09c-1.47,13-.87,37.56-.87,37.56l.87-.62,4.76-32.32-3-2.52c0,.29,0,.42-.17.19Z"/><path class="dd87603d-98f7-48aa-b6d0-01e2bb9b98e1" d="M192.64,69.89a19.13,19.13,0,0,1-.23,4,9.83,9.83,0,0,0-.08,1.21c0,.17,0,.33,0,.46l3,2.52,1-5.71c0-.12,0-.26,0-.41.08-1-3.13-2.32-3.29-2.66-.21-.06-.17.22-.36.57Z"/><path class="dd87603d-98f7-48aa-b6d0-01e2bb9b98e1" d="M193.62,108.86c0,.11,0,.22,0,.32C193.63,108.77,193.63,108.42,193.62,108.86Z"/><path class="dd87603d-98f7-48aa-b6d0-01e2bb9b98e1" d="M196.63,71.44a9.27,9.27,0,0,1-.25,2,3.31,3.31,0,0,1-.1-1.06l-5.76,38-.87.62a31.47,31.47,0,0,0,3.65-.56,1.39,1.39,0,0,0,.26-.61c0-.12,0-.42.05-.69,0-.1,0-.21,0-.32,0-.44,0-.09,0,.32a2.74,2.74,0,0,0,.16,1.15c.1.15,1.63-.16,1.63-.16a1.31,1.31,0,0,0,.37-.85c.06-.59.07-.62,0,0s.12.59.22.59a1.39,1.39,0,0,0,1.25-.88c.05-.34-.1-9.8,0-12.84.26-3.72.53-18.71.66-21.84a7.88,7.88,0,0,0-1-4.66l-.23.41a7,7,0,0,0-.06,1.37Z"/><path class="c7c0f894-6d03-4857-be7e-18d4413fba25" d="M197.25,107.93c0-.36,0-.73,0-1.09,0-1,.27-8.27.26-9.32,0-.65,0-1.31,0-2,.26-3.72.53-18.71.66-21.84s-.31-3.92-.31-3.92l-1-.14s0,.39,0,1.18a9.58,9.58,0,0,1-.26,2,4.09,4.09,0,0,1-.08-1.46,4.3,4.3,0,0,0,0-1.86,10.73,10.73,0,0,0-3.62-.23,19,19,0,0,1-.23,4,10.1,10.1,0,0,0-.08,1.21c0,.58,0,1-.17.65-.27-.53.17-5.23.18-5.53s-.72-.48-.86-.48-.4.2-.35.64a20.24,20.24,0,0,1,0,3.08c-1.47,13-.87,37.56-.87,37.56l.63-.08.13,0,.64-.09.9-.14a5,5,0,0,0,.6-.14c.1,0,.15-.06.15-.08,0-.2.12-2,.17-2.3s.18-.06.15.68a3.59,3.59,0,0,0,.15,1.47,2.36,2.36,0,0,0,1,0l.56-.05a1.2,1.2,0,0,0,.3-.79c.06-.58.25-.83.22-.24s0,.57.12.63.19,0,.28,0,.79-.16.8-.34,0-1,0-1Z"/><path class="4efb2558-b3d0-40f5-86c0-299eda332092" d="M195.82,109.28a.25.25,0,0,0,0-.1h0v0a.13.13,0,0,1,0,.06Z"/><path class="4efb2558-b3d0-40f5-86c0-299eda332092" d="M195.82,109.29Z"/><path class="4efb2558-b3d0-40f5-86c0-299eda332092" d="M194.83,109.77v.09a.21.21,0,0,0,0-.09Z"/><path class="4efb2558-b3d0-40f5-86c0-299eda332092" d="M191.62,110.28a0,0,0,0,0,0,0v0Z"/><path class="fdfc62fe-4dae-4cb1-ac99-4f81248b4a92" d="M196.32,69.46s-.09,4.26,0,5-.1,11.72-.2,14.15c0,.16,0,.3,0,.4,0,.5-.08,1.29-.12,2.18-.08,2-.13,4.37-.13,4.92,0,.75,0,12.06,0,13h0c0-.18,0-.56.06-1.07a29.35,29.35,0,0,0,0-3.2c-.11-1.58.12-9.64.19-11.39,0-.69.08-1.36.15-2,0-.2,0-.49.06-.86.15-3.7.16-17.12.2-18.24a26.09,26.09,0,0,0-.13-3Z"/><path class="fdfc62fe-4dae-4cb1-ac99-4f81248b4a92" d="M196.78,109.24h0Zm.54-33.67s-.08,3.43,0,4.06-.14,9.84-.22,11.8c0,.13,0,.23,0,.31,0,.41-.06,1.05-.09,1.76-.06,1.59-.11,3.52-.11,4,0,.62,0,11-.06,11.73a.09.09,0,0,0,0,0c0-.06,0-.42.06-.94a25.45,25.45,0,0,0,0-2.58c-.09-1.27.15-9,.21-10.37,0-.55.06-1.09.12-1.59,0-.16,0-.4.05-.69.12-3,.19-14.19.23-15.09a21.61,21.61,0,0,0-.1-2.4Z"/><path class="fdfc62fe-4dae-4cb1-ac99-4f81248b4a92" d="M194.18,69.22c0,.13.21,2.75.24,3.63s.31,11.11.33,12.29.25,8.71.25,9.74c0,.79-.21,11.82-.17,14,0-2.39.38-15.49.36-18,0-3.08-.13-10.82-.2-12.58s-.78-8.81-.81-9Z"/><path class="fdfc62fe-4dae-4cb1-ac99-4f81248b4a92" d="M190.43,95.19c.28-.78,1.22-11.22,1.29-12.93s.22-9.84.25-10.77a4.2,4.2,0,0,0-.18-1.67c.1.15-.17,8.67-.28,12.39,0,.16-.3,2.44-.31,2.62-.15,3.82-.77,10.36-.77,10.36Z"/><path class="fdfc62fe-4dae-4cb1-ac99-4f81248b4a92" d="M192.91,69.28h0s.06.29.12.54c0,0,.6,7.78.56,9.78s.07,7.26.11,8c0,0,0,.07,0,0,0-.17.09-8.13.15-9.41s-.32-8.31-.5-9a2.55,2.55,0,0,0-.45,0Z"/><path class="fdfc62fe-4dae-4cb1-ac99-4f81248b4a92" d="M191.79,105.53c-.09,2.14-.16,4.42-.17,4.75h0c0-.58.76-13.51.79-14.21s.41-7.69.41-7.69.92,4.3,1.07,5,.21,12.1.25,12.78.46,3.57.46,3.57-.11-2.4-.23-3.81.22-10.58-.35-13-1.22-5.72-1.22-5.72-.46,7-.58,9.16c0,.73-.38,8-.43,9.17Z"/><path class="fdfc62fe-4dae-4cb1-ac99-4f81248b4a92" d="M193.6,106.87a5.43,5.43,0,0,0,.14.7s-.06-.28-.14-.7ZM192.47,110h0s.34-3.14.38-4.16.44-9.85.45-9c0,.61.09,8.91.3,10q0-.3-.09-.72c-.1-1-.27-12.44-.35-11.26s-.68,15-.69,15.13Z"/><path class="e1d19c4b-22a6-4596-8b67-a7612298b4eb" d="M6.7,130a1.34,1.34,0,0,1-1.26,1.42,1.38,1.38,0,0,1-1.18-1.51,1.34,1.34,0,0,1,1.26-1.42A1.37,1.37,0,0,1,6.7,130Z"/><path class="d1f6212d-9e30-4848-802a-b814617ad507" d="M6.38,130.48c-.17.67-.73,1-1.24.8a1.4,1.4,0,0,1-.63-1.62c.17-.67.73-1,1.25-.8A1.41,1.41,0,0,1,6.38,130.48Z"/><path class="c1a436b3-8758-403b-8047-d5a8664ed16e" d="M6.22,130.45c-.17.67-.73,1-1.25.8a1.38,1.38,0,0,1-.62-1.62c.17-.67.72-1,1.24-.8A1.4,1.4,0,0,1,6.22,130.45Z"/><path class="7ac8e8b8-b4fb-4536-a0dd-4ebdfc511e42" d="M6.06,130.38c-.14.55-.61.85-1,.66a1.17,1.17,0,0,1-.51-1.34c.14-.55.6-.85,1-.66A1.17,1.17,0,0,1,6.06,130.38Z"/><polygon class="0c77c1e1-7445-4727-99d5-bd9c4f4e99e7" points="4.69 131.06 5.87 129.06 5.79 128.98 4.62 130.97 4.69 131.06"/><path class="e1d19c4b-22a6-4596-8b67-a7612298b4eb" d="M56.32,133.17a1.35,1.35,0,0,1-1.26,1.42,1.38,1.38,0,0,1-1.19-1.51,1.34,1.34,0,0,1,1.26-1.42A1.37,1.37,0,0,1,56.32,133.17Z"/><path class="d1f6212d-9e30-4848-802a-b814617ad507" d="M56,133.66c-.17.67-.72,1-1.24.8a1.4,1.4,0,0,1-.63-1.62c.17-.67.73-1,1.25-.8A1.4,1.4,0,0,1,56,133.66Z"/><path class="c1a436b3-8758-403b-8047-d5a8664ed16e" d="M55.83,133.63c-.17.67-.73,1-1.24.8a1.4,1.4,0,0,1-.63-1.62c.17-.67.73-1,1.24-.8A1.4,1.4,0,0,1,55.83,133.63Z"/><path class="7ac8e8b8-b4fb-4536-a0dd-4ebdfc511e42" d="M55.67,133.56c-.14.55-.6.85-1,.66a1.16,1.16,0,0,1-.52-1.34c.14-.56.6-.85,1-.67A1.18,1.18,0,0,1,55.67,133.56Z"/><polygon class="0c77c1e1-7445-4727-99d5-bd9c4f4e99e7" points="54.31 134.24 55.49 132.24 55.41 132.16 54.23 134.15 54.31 134.24"/><path class="e1d19c4b-22a6-4596-8b67-a7612298b4eb" d="M133.79,134.44a1.34,1.34,0,0,1-1.26,1.42,1.37,1.37,0,0,1-1.19-1.5,1.35,1.35,0,0,1,1.26-1.43A1.38,1.38,0,0,1,133.79,134.44Z"/><path class="d1f6212d-9e30-4848-802a-b814617ad507" d="M133.47,134.94c-.18.66-.73,1-1.25.79a1.4,1.4,0,0,1-.63-1.62c.18-.66.73-1,1.25-.8A1.41,1.41,0,0,1,133.47,134.94Z"/><path class="c1a436b3-8758-403b-8047-d5a8664ed16e" d="M133.3,134.9c-.17.67-.73,1-1.24.8a1.4,1.4,0,0,1-.63-1.62c.17-.67.73-1,1.24-.8A1.4,1.4,0,0,1,133.3,134.9Z"/><path class="7ac8e8b8-b4fb-4536-a0dd-4ebdfc511e42" d="M133.14,134.83c-.14.55-.6.85-1,.66a1.16,1.16,0,0,1-.52-1.34c.14-.55.6-.85,1-.66A1.16,1.16,0,0,1,133.14,134.83Z"/><polygon class="0c77c1e1-7445-4727-99d5-bd9c4f4e99e7" points="131.78 135.51 132.96 133.51 132.88 133.44 131.7 135.42 131.78 135.51"/><path class="e1d19c4b-22a6-4596-8b67-a7612298b4eb" d="M189.77,132.85a1.34,1.34,0,0,1-1.26,1.42,1.37,1.37,0,0,1-1.19-1.5,1.35,1.35,0,0,1,1.26-1.43A1.38,1.38,0,0,1,189.77,132.85Z"/><path class="d1f6212d-9e30-4848-802a-b814617ad507" d="M189.45,133.35c-.18.66-.73,1-1.25.79a1.4,1.4,0,0,1-.63-1.62c.18-.66.73-1,1.25-.8A1.41,1.41,0,0,1,189.45,133.35Z"/><path class="c1a436b3-8758-403b-8047-d5a8664ed16e" d="M189.28,133.31c-.17.67-.73,1-1.24.8a1.4,1.4,0,0,1-.63-1.62c.17-.67.73-1,1.24-.8A1.4,1.4,0,0,1,189.28,133.31Z"/><path class="7ac8e8b8-b4fb-4536-a0dd-4ebdfc511e42" d="M189.12,133.24c-.14.55-.6.85-1,.66a1.16,1.16,0,0,1-.52-1.34c.14-.55.6-.85,1-.66A1.16,1.16,0,0,1,189.12,133.24Z"/><polygon class="0c77c1e1-7445-4727-99d5-bd9c4f4e99e7" points="187.76 133.92 188.94 131.92 188.86 131.85 187.68 133.83 187.76 133.92"/><path class="e1d19c4b-22a6-4596-8b67-a7612298b4eb" d="M194.81,74.83a1.23,1.23,0,1,0-1.19,1.35A1.27,1.27,0,0,0,194.81,74.83Z"/><path class="d1f6212d-9e30-4848-802a-b814617ad507" d="M194.49,74.39a1,1,0,0,0-1.25-.72,1.19,1.19,0,0,0-.62,1.45,1,1,0,0,0,1.24.72A1.2,1.2,0,0,0,194.49,74.39Z"/><path class="c1a436b3-8758-403b-8047-d5a8664ed16e" d="M194.32,74.42a1,1,0,0,0-1.24-.72,1.2,1.2,0,0,0-.63,1.45,1,1,0,0,0,1.25.72A1.21,1.21,0,0,0,194.32,74.42Z"/><path class="7ac8e8b8-b4fb-4536-a0dd-4ebdfc511e42" d="M194.16,74.48a.79.79,0,0,0-1-.59,1,1,0,0,0-.52,1.2.79.79,0,0,0,1,.59A1,1,0,0,0,194.16,74.48Z"/><polygon class="0c77c1e1-7445-4727-99d5-bd9c4f4e99e7" points="192.8 73.87 193.98 75.66 193.9 75.73 192.72 73.95 192.8 73.87"/><path class="e1d19c4b-22a6-4596-8b67-a7612298b4eb" d="M150.24,73.07a1.25,1.25,0,1,1-1.19-1.51A1.38,1.38,0,0,1,150.24,73.07Z"/><path class="d1f6212d-9e30-4848-802a-b814617ad507" d="M149.91,73.57c-.17.67-.72,1-1.24.8a1.4,1.4,0,0,1-.63-1.62c.17-.67.73-1,1.25-.8A1.4,1.4,0,0,1,149.91,73.57Z"/><path class="c1a436b3-8758-403b-8047-d5a8664ed16e" d="M149.75,73.54c-.17.67-.73,1-1.24.8a1.4,1.4,0,0,1-.63-1.62c.17-.67.73-1,1.24-.8A1.4,1.4,0,0,1,149.75,73.54Z"/><path class="7ac8e8b8-b4fb-4536-a0dd-4ebdfc511e42" d="M149.59,73.47c-.14.55-.6.85-1,.66a1.16,1.16,0,0,1-.52-1.34c.14-.56.6-.85,1-.67A1.17,1.17,0,0,1,149.59,73.47Z"/><polygon class="0c77c1e1-7445-4727-99d5-bd9c4f4e99e7" points="148.23 74.15 149.41 72.15 149.33 72.07 148.15 74.06 148.23 74.15"/><path class="e1d19c4b-22a6-4596-8b67-a7612298b4eb" d="M67.72,72.76a1.34,1.34,0,0,1-1.26,1.42,1.38,1.38,0,0,1-1.18-1.51,1.34,1.34,0,0,1,1.26-1.42A1.36,1.36,0,0,1,67.72,72.76Z"/><path class="d1f6212d-9e30-4848-802a-b814617ad507" d="M67.4,73.25c-.17.67-.73,1-1.24.8a1.4,1.4,0,0,1-.63-1.62c.17-.67.73-1,1.25-.8A1.41,1.41,0,0,1,67.4,73.25Z"/><path class="c1a436b3-8758-403b-8047-d5a8664ed16e" d="M67.24,73.22c-.17.67-.73,1-1.25.8a1.41,1.41,0,0,1-.62-1.62c.17-.67.73-1,1.24-.8A1.4,1.4,0,0,1,67.24,73.22Z"/><path class="7ac8e8b8-b4fb-4536-a0dd-4ebdfc511e42" d="M67.08,73.15c-.14.55-.61.85-1,.66a1.17,1.17,0,0,1-.51-1.34c.14-.56.6-.85,1-.66A1.16,1.16,0,0,1,67.08,73.15Z"/><polygon class="0c77c1e1-7445-4727-99d5-bd9c4f4e99e7" points="65.72 73.83 66.89 71.83 66.81 71.75 65.64 73.74 65.72 73.83"/><path class="e1d19c4b-22a6-4596-8b67-a7612298b4eb" d="M10.68,71.8a1.35,1.35,0,0,1-1.26,1.43,1.38,1.38,0,0,1-1.18-1.51A1.35,1.35,0,0,1,9.5,70.29,1.37,1.37,0,0,1,10.68,71.8Z"/><path class="d1f6212d-9e30-4848-802a-b814617ad507" d="M10.36,72.3c-.17.67-.73,1-1.24.8a1.4,1.4,0,0,1-.63-1.62c.17-.67.73-1,1.24-.8A1.4,1.4,0,0,1,10.36,72.3Z"/><path class="c1a436b3-8758-403b-8047-d5a8664ed16e" d="M10.2,72.26c-.17.68-.73,1-1.25.81a1.39,1.39,0,0,1-.62-1.62c.17-.67.72-1,1.24-.8A1.39,1.39,0,0,1,10.2,72.26Z"/><path class="7ac8e8b8-b4fb-4536-a0dd-4ebdfc511e42" d="M10,72.2c-.14.55-.61.85-1,.66a1.18,1.18,0,0,1-.51-1.35c.14-.55.6-.84,1-.66A1.18,1.18,0,0,1,10,72.2Z"/><polygon class="0c77c1e1-7445-4727-99d5-bd9c4f4e99e7" points="8.67 72.88 9.85 70.87 9.77 70.8 8.6 72.79 8.67 72.88"/><rect class="7ac8e8b8-b4fb-4536-a0dd-4ebdfc511e42" x="8.69" width="1.16" height="72.71"/><rect class="7ac8e8b8-b4fb-4536-a0dd-4ebdfc511e42" x="194.64" y="3.09" width="1.16" height="72.71"/></g></g></g></svg>