<svg id="whale" xmlns="http://www.w3.org/2000/svg" viewBox="0 0 350.63 190.35"><defs><style>.cls-1{fill:#00566d;}.cls-2{fill:#107f99;}.cls-3{font-size:34.08px;fill:#fff;font-family:HoboStd, Hobo Std;}</style></defs><title>whale</title><g id="Layer_2" data-name="Layer 2"><g id="Layer_1-2" data-name="Layer 1"><path class="cls-1" d="M3,109.8s13.11-74.57,119.14-70S311,121.19,261.89,140.41-29.58,194.56,3,109.8Z"/><path class="cls-1" d="M263.94,104.8s16.76-40.8,64.61-40c0,0,10.95,46.15-36.67,62.61,0,0,40.83,6,58.75,52.65,0,0-79.79-.6-107.06-59.31S263.94,104.8,263.94,104.8Z"/><path class="cls-1" d="M98,47.2s25.45-32.6,71.34-28.43c0,0,22.21,28.26-19.54,41.37"/><path class="cls-1" d="M84.81,158.67s20.35,26.52,50.38,30.83,36.57-9.11,36.57-9.11l-26.71-23.55Z"/><path class="cls-2" d="M10,90.58s12-75,115.59-69.37S310.81,105.11,263.1,124-20.92,175.72,10,90.58Z"/><path class="cls-2" d="M264.72,88.13s15.93-41,62.67-39.72c0,0,11.17,46.64-35.15,62.76,0,0,39.93,6.45,57.93,53.66,0,0-77.92-1.4-105.17-60.85S264.72,88.13,264.72,88.13Z"/><path class="cls-2" d="M102.12,28.42s24.5-32.62,69.35-28c0,0,22,28.72-18.64,41.52"/><path class="cls-2" d="M90.39,140.67s20.15,26.93,49.52,31.58,35.61-8.83,35.61-8.83l-26.33-24Z"/><text class="cls-3" transform="matrix(1.23, -0.01, 0, 1, 85.18, 76.67)">TEST<tspan x="0" y="40.89">NOW</tspan></text></g></g></svg>