<?xml version="1.0" encoding="utf-8"?>
<!-- Generator: Adobe Illustrator 16.0.0, SVG Export Plug-In . SVG Version: 6.00 Build 0)  -->
<!DOCTYPE svg PUBLIC "-//W3C//DTD SVG 1.1//EN" "http://www.w3.org/Graphics/SVG/1.1/DTD/svg11.dtd">
<svg version="1.1" id="Layer_1" xmlns="http://www.w3.org/2000/svg" xmlns:xlink="http://www.w3.org/1999/xlink" x="0px" y="0px"
	 width="100px" height="123px" viewBox="0 0 421 517" enable-background="new 0 0 421 517" xml:space="preserve">
    
<defs>
    <style>
        .tomlogo {
            stroke-dasharray: 1500;
            stroke-dashoffset: 0;
            -webkit-animation: dash linear forwards;
            -o-animation: dash 3s linear forwards;
            -moz-animation: dash 3s linear forwards;
            animation: dash 3s linear forwards;
        }
        
        @-webkit-keyframes dash {
            from {
                stroke-dashoffset: 1500;
            }
            to {
                stroke-dashoffset: 0;
            }
        }
        @-o-keyframes dash {
            from {
                stroke-dashoffset: 1500;
            }
            to {
                stroke-dashoffset: 0;
            }
        }
        @-moz-keyframes dash {
            from {
                stroke-dashoffset: 1500;
            }
            to {
                stroke-dashoffset: 0;
            }
        }
    </style>
</defs>

    
<path class="tomlogo" fill="none" stroke="#FFFFFF" stroke-width="25" stroke-miterlimit="10" d="M13.749,98.796
	c0,25.613,20.766,46.377,46.377,46.377c0.025,0,0.054-0.002,0.077-0.002h63.403c33.78,0,61.16,27.38,61.16,61.16v250.353
	c0,0.025-0.002,0.052-0.002,0.077c0,25.613,20.764,46.377,46.377,46.377s46.377-20.764,46.377-46.377
	c0-0.025-0.002-0.052-0.002-0.077V179.851c-1.351-12.069-4.21-23.701-8.37-34.68c-14.67-38.691-45.57-69.401-84.38-83.811
	c-15.57-5.779-32.42-8.939-50-8.939H60.203c-0.023,0-0.052-0.002-0.077-0.002C34.513,52.419,13.749,73.183,13.749,98.796z"/>
<circle class="tomlogo" fill="none" stroke="#FFFFFF" stroke-width="25" stroke-miterlimit="10" cx="346.092" cy="75.022" r="61.16"/>
</svg>
